<?xml version="1.0" encoding="UTF-8" standalone="no"?>
<!DOCTYPE svg PUBLIC "-//W3C//DTD SVG 1.1//EN"
 "http://www.w3.org/Graphics/SVG/1.1/DTD/svg11.dtd">
<!-- Generated by graphviz version 2.44.1 (20200629.0846)
 -->
<!-- Title: dependencies Pages: 1 -->
<svg width="504pt" height="211pt"
 viewBox="0.00 0.00 504.00 211.00" xmlns="http://www.w3.org/2000/svg" xmlns:xlink="http://www.w3.org/1999/xlink">
<g id="graph0" class="graph" transform="scale(1 1) rotate(0) translate(4 207)">
<title>dependencies</title>
<polygon fill="white" stroke="transparent" points="-4,4 -4,-207 500,-207 500,4 -4,4"/>
<text text-anchor="start" x="227.01" y="-42.4" font-family="sans-serif" font-weight="bold" font-size="14.00">Legend</text>
<polygon fill="#ffffb3" stroke="transparent" points="14,-10 14,-30 34,-30 34,-10 14,-10"/>
<text text-anchor="start" x="37.63" y="-15.4" font-family="sans-serif" font-size="14.00"> &#160;Declarations</text>
<polygon fill="#8dd3c7" stroke="transparent" points="127,-10 127,-30 147,-30 147,-10 127,-10"/>
<text text-anchor="start" x="150.73" y="-15.4" font-family="sans-serif" font-size="14.00"> &#160;Module</text>
<polygon fill="#80b1d3" stroke="transparent" points="213,-10 213,-30 233,-30 233,-10 213,-10"/>
<text text-anchor="start" x="236.78" y="-15.4" font-family="sans-serif" font-size="14.00"> &#160;Bootstrap</text>
<polygon fill="#fdb462" stroke="transparent" points="310,-10 310,-30 330,-30 330,-10 310,-10"/>
<text text-anchor="start" x="333.67" y="-15.4" font-family="sans-serif" font-size="14.00"> &#160;Providers</text>
<polygon fill="#fb8072" stroke="transparent" points="406,-10 406,-30 426,-30 426,-10 406,-10"/>
<text text-anchor="start" x="429.73" y="-15.4" font-family="sans-serif" font-size="14.00"> &#160;Exports</text>
<g id="clust1" class="cluster">
<title>cluster_TabsModule</title>
<polygon fill="none" stroke="black" stroke-dasharray="1,5" points="42,-70 42,-195 454,-195 454,-70 42,-70"/>
</g>
<g id="clust4" class="cluster">
<title>cluster_TabsModule_imports</title>
<polygon fill="none" stroke="black" points="182,-78 182,-130 446,-130 446,-78 182,-78"/>
</g>
<g id="clust2" class="cluster">
<title>cluster_TabsModule_declarations</title>
<polygon fill="none" stroke="black" points="50,-78 50,-130 174,-130 174,-78 50,-78"/>
</g>
<!-- TabsComponent -->
<g id="node1" class="node">
<title>TabsComponent</title>
<polygon fill="#ffffb3" stroke="black" points="166.05,-122 57.95,-122 57.95,-86 166.05,-86 166.05,-122"/>
<text text-anchor="middle" x="112" y="-99.8" font-family="Times,serif" font-size="14.00">TabsComponent</text>
</g>
<!-- TabsModule -->
<g id="node2" class="node">
<title>TabsModule</title>
<polygon fill="#8dd3c7" stroke="black" points="299.26,-187 296.26,-191 275.26,-191 272.26,-187 212.74,-187 212.74,-151 299.26,-151 299.26,-187"/>
<text text-anchor="middle" x="256" y="-164.8" font-family="Times,serif" font-size="14.00">TabsModule</text>
</g>
<!-- TabsComponent&#45;&gt;TabsModule -->
<g id="edge1" class="edge">
<title>TabsComponent&#45;&gt;TabsModule</title>
<path fill="none" stroke="black" d="M112,-122.11C112,-141.34 112,-169 112,-169 112,-169 202.4,-169 202.4,-169"/>
<polygon fill="black" stroke="black" points="202.4,-172.5 212.4,-169 202.4,-165.5 202.4,-172.5"/>
</g>
<!-- SharedModule -->
<g id="node3" class="node">
<title>SharedModule</title>
<polygon fill="#8dd3c7" stroke="black" points="438.42,-122 435.42,-126 414.42,-126 411.42,-122 339.58,-122 339.58,-86 438.42,-86 438.42,-122"/>
<text text-anchor="middle" x="389" y="-99.8" font-family="Times,serif" font-size="14.00">SharedModule</text>
</g>
<!-- SharedModule&#45;&gt;TabsModule -->
<g id="edge2" class="edge">
<title>SharedModule&#45;&gt;TabsModule</title>
<path fill="none" stroke="black" d="M389,-122.11C389,-141.34 389,-169 389,-169 389,-169 309.55,-169 309.55,-169"/>
<polygon fill="black" stroke="black" points="309.55,-165.5 299.55,-169 309.55,-172.5 309.55,-165.5"/>
</g>
<!-- TabsRoutingModule -->
<g id="node4" class="node">
<title>TabsRoutingModule</title>
<polygon fill="#8dd3c7" stroke="black" points="321.88,-122 318.88,-126 297.88,-126 294.88,-122 190.12,-122 190.12,-86 321.88,-86 321.88,-122"/>
<text text-anchor="middle" x="256" y="-99.8" font-family="Times,serif" font-size="14.00">TabsRoutingModule</text>
</g>
<!-- TabsRoutingModule&#45;&gt;TabsModule -->
<g id="edge3" class="edge">
<title>TabsRoutingModule&#45;&gt;TabsModule</title>
<path fill="none" stroke="black" d="M256,-122.11C256,-122.11 256,-140.99 256,-140.99"/>
<polygon fill="black" stroke="black" points="252.5,-140.99 256,-150.99 259.5,-140.99 252.5,-140.99"/>
</g>
</g>
</svg>
