<?xml version="1.0" encoding="UTF-8" standalone="no"?>
<!DOCTYPE svg PUBLIC "-//W3C//DTD SVG 1.1//EN"
 "http://www.w3.org/Graphics/SVG/1.1/DTD/svg11.dtd">
<!-- Generated by graphviz version 2.44.1 (20200629.0846)
 -->
<!-- Title: dependencies Pages: 1 -->
<svg width="522pt" height="284pt"
 viewBox="0.00 0.00 522.00 284.00" xmlns="http://www.w3.org/2000/svg" xmlns:xlink="http://www.w3.org/1999/xlink">
<g id="graph0" class="graph" transform="scale(1 1) rotate(0) translate(4 280)">
<title>dependencies</title>
<polygon fill="white" stroke="transparent" points="-4,4 -4,-280 518,-280 518,4 -4,4"/>
<text text-anchor="start" x="236.01" y="-42.4" font-family="sans-serif" font-weight="bold" font-size="14.00">Legend</text>
<polygon fill="#ffffb3" stroke="transparent" points="23,-10 23,-30 43,-30 43,-10 23,-10"/>
<text text-anchor="start" x="46.63" y="-15.4" font-family="sans-serif" font-size="14.00"> &#160;Declarations</text>
<polygon fill="#8dd3c7" stroke="transparent" points="136,-10 136,-30 156,-30 156,-10 136,-10"/>
<text text-anchor="start" x="159.73" y="-15.4" font-family="sans-serif" font-size="14.00"> &#160;Module</text>
<polygon fill="#80b1d3" stroke="transparent" points="222,-10 222,-30 242,-30 242,-10 222,-10"/>
<text text-anchor="start" x="245.78" y="-15.4" font-family="sans-serif" font-size="14.00"> &#160;Bootstrap</text>
<polygon fill="#fdb462" stroke="transparent" points="319,-10 319,-30 339,-30 339,-10 319,-10"/>
<text text-anchor="start" x="342.67" y="-15.4" font-family="sans-serif" font-size="14.00"> &#160;Providers</text>
<polygon fill="#fb8072" stroke="transparent" points="415,-10 415,-30 435,-30 435,-10 415,-10"/>
<text text-anchor="start" x="438.73" y="-15.4" font-family="sans-serif" font-size="14.00"> &#160;Exports</text>
<g id="clust1" class="cluster">
<title>cluster_EventDetailModule</title>
<polygon fill="none" stroke="black" stroke-dasharray="1,5" points="8,-70 8,-268 506,-268 506,-70 8,-70"/>
</g>
<g id="clust7" class="cluster">
<title>cluster_EventDetailModule_providers</title>
<polygon fill="none" stroke="black" points="310,-78 310,-130 498,-130 498,-78 310,-78"/>
</g>
<g id="clust2" class="cluster">
<title>cluster_EventDetailModule_declarations</title>
<polygon fill="none" stroke="black" points="138,-78 138,-130 302,-130 302,-78 138,-78"/>
</g>
<g id="clust4" class="cluster">
<title>cluster_EventDetailModule_imports</title>
<polygon fill="none" stroke="black" points="16,-78 16,-130 130,-130 130,-78 16,-78"/>
</g>
<g id="clust5" class="cluster">
<title>cluster_EventDetailModule_exports</title>
<polygon fill="none" stroke="black" points="136,-208 136,-260 304,-260 304,-208 136,-208"/>
</g>
<!-- EventDetailComponent -->
<g id="node1" class="node">
<title>EventDetailComponent</title>
<polygon fill="#ffffb3" stroke="black" points="294.2,-122 145.8,-122 145.8,-86 294.2,-86 294.2,-122"/>
<text text-anchor="middle" x="220" y="-99.8" font-family="Times,serif" font-size="14.00">EventDetailComponent</text>
</g>
<!-- EventDetailModule -->
<g id="node2" class="node">
<title>EventDetailModule</title>
<polygon fill="#8dd3c7" stroke="black" points="283.42,-187 280.42,-191 259.42,-191 256.42,-187 156.58,-187 156.58,-151 283.42,-151 283.42,-187"/>
<text text-anchor="middle" x="220" y="-164.8" font-family="Times,serif" font-size="14.00">EventDetailModule</text>
</g>
<!-- EventDetailComponent&#45;&gt;EventDetailModule -->
<g id="edge1" class="edge">
<title>EventDetailComponent&#45;&gt;EventDetailModule</title>
<path fill="none" stroke="black" d="M220,-122.11C220,-122.11 220,-140.99 220,-140.99"/>
<polygon fill="black" stroke="black" points="216.5,-140.99 220,-150.99 223.5,-140.99 216.5,-140.99"/>
</g>
<!-- EventDetailComponent  -->
<g id="node4" class="node">
<title>EventDetailComponent </title>
<polygon fill="#fb8072" stroke="black" points="295.7,-252 144.3,-252 144.3,-216 295.7,-216 295.7,-252"/>
<text text-anchor="middle" x="220" y="-229.8" font-family="Times,serif" font-size="14.00">EventDetailComponent </text>
</g>
<!-- EventDetailModule&#45;&gt;EventDetailComponent  -->
<g id="edge3" class="edge">
<title>EventDetailModule&#45;&gt;EventDetailComponent </title>
<path fill="none" stroke="black" stroke-dasharray="5,2" d="M220,-187.11C220,-187.11 220,-205.99 220,-205.99"/>
<polygon fill="black" stroke="black" points="216.5,-205.99 220,-215.99 223.5,-205.99 216.5,-205.99"/>
</g>
<!-- SharedModule -->
<g id="node3" class="node">
<title>SharedModule</title>
<polygon fill="#8dd3c7" stroke="black" points="122.42,-122 119.42,-126 98.42,-126 95.42,-122 23.58,-122 23.58,-86 122.42,-86 122.42,-122"/>
<text text-anchor="middle" x="73" y="-99.8" font-family="Times,serif" font-size="14.00">SharedModule</text>
</g>
<!-- SharedModule&#45;&gt;EventDetailModule -->
<g id="edge2" class="edge">
<title>SharedModule&#45;&gt;EventDetailModule</title>
<path fill="none" stroke="black" d="M73,-122.11C73,-141.34 73,-169 73,-169 73,-169 146.38,-169 146.38,-169"/>
<polygon fill="black" stroke="black" points="146.38,-172.5 156.38,-169 146.38,-165.5 146.38,-172.5"/>
</g>
<!-- EventDetailService -->
<g id="node5" class="node">
<title>EventDetailService</title>
<ellipse fill="#fdb462" stroke="black" cx="404" cy="-104" rx="86.23" ry="18"/>
<text text-anchor="middle" x="404" y="-99.8" font-family="Times,serif" font-size="14.00">EventDetailService</text>
</g>
<!-- EventDetailService&#45;&gt;EventDetailModule -->
<g id="edge4" class="edge">
<title>EventDetailService&#45;&gt;EventDetailModule</title>
<path fill="none" stroke="black" d="M404,-122.11C404,-141.34 404,-169 404,-169 404,-169 293.32,-169 293.32,-169"/>
<polygon fill="black" stroke="black" points="293.32,-165.5 283.32,-169 293.32,-172.5 293.32,-165.5"/>
</g>
</g>
</svg>
