<svg xmlns="http://www.w3.org/2000/svg" viewBox="0 0 96 96"><title>achievement</title><path d="M65.79,34.83c3.42,4.39,3.47,11.88,2.68,17-3.33,0-3,2.85-1.72,4.92C62.06,68.9,46.81,69.22,37.14,64a.28.28,0,0,0-.31-.19,26,26,0,0,1-4.12-3.88.7.7,0,0,0-.45-.58c-.26-.36-.51-.72-.74-1.1a.13.13,0,0,0-.08-.15,1.16,1.16,0,0,0-.47-.76.15.15,0,0,0-.07-.16.5.5,0,0,0-.27-.48,4.26,4.26,0,0,0-.75-1.45.55.55,0,0,0-.17-.75.49.49,0,0,0-.16-.44.46.46,0,0,0-.21-.48c.39-1.78-.57-5.32-.54-7.21,4,.73,5.26-5.7.72-5,0-.19,0-.37,0-.55a1,1,0,0,0,.16-.75c.45-1.38,1.55-2.42,2-3.79a.91.91,0,0,0,.33-.61c.42-.45.45-1.13.93-1.54a.31.31,0,0,0,.3-.3c.38-.32.89-.48,1.16-1a2.4,2.4,0,0,0,1.11-1.07,2.07,2.07,0,0,0,.91-.77,10,10,0,0,1,1.64-1.48,4,4,0,0,0,1.33-1.21h0a.8.8,0,0,0,.58-.32c1.36-.47,2.76-.84,4.14-1.24a.81.81,0,0,0,.59-.09,2,2,0,0,0,1.24-.1,2.11,2.11,0,0,0,1,0,9.61,9.61,0,0,0,2.73.1c1.27,1,3.59,4.44,4.8.59C59,27.05,63,32.05,65.79,34.83ZM41,56.47c.21,4.82,6.1-2.46,7-2.62,3.09-.5,7.66,7,10.24,3.36,1.93-2.71-2.91-6.91-1.77-10,1.4-3.83,9.34-5.85.35-6.17-3.9-.14-3.32.71-5.2-3.11-.53-1.08-.84-4-1.87-4.53-2.88-1.36-2.75,6.86-4.23,8.15-2.08,1.83-8.85-.22-7.77,4,.44,1.72,4.06,2,4.67,3.52C43.52,51.66,41.19,53.85,41,56.47Z" fill="#fede03"/><path d="M37.14,64a25.46,25.46,0,0,0,10.62,3.5,3.91,3.91,0,0,1-.34,1,.5.5,0,0,0-.24.47c-.21.42-1.2,1.69-1.07,2.2-.58,1.52-1.36,3-1.79,4.55-3.49-.71-6.63,3.09-2.75,5.2q-1.87,3.54-3.45,7.22c-.92-.39-1.3-2.63-2.18-3.24,0-.1,0-.16-.15-.17a.57.57,0,0,0-.35-.56c-1.58-3.56-6,.68-7.59-1.25.12-1,1-1.65,1.12-2.7a11.43,11.43,0,0,0,1.13-2.43c.18,0,.16-.2.15-.34-.11.07.66-.79.49-.94.28-.61.55-1.22.82-1.83.09,0,.42-.44.28-.56a15,15,0,0,1,.82-1.83c.11,0,.42-.44.29-.56a3.77,3.77,0,0,1,.35-.73.39.39,0,0,0,.23-.38s.07,0,0-.1a25.36,25.36,0,0,0,2.59-5.2c.18-.05.18-.17.15-.32.38-.09.46-.41.56-.72Z" fill="#7214db"/><path d="M54,66.8a22.2,22.2,0,0,0,10.11-5.52,122.87,122.87,0,0,1,12,17c-1.63,0-5.6-1.77-7.09-1.09s-2.33,4.95-3,6.49c-3.2-1.72-5.77-7.19-7.57-10,.63-3.91,2.53-4-2.81-4.32A8.34,8.34,0,0,1,54,66.8Z" fill="#7214db"/><path d="M24.75,27.61a5.55,5.55,0,0,1-1,2.54q-1.23.64-.33,1.68a.58.58,0,0,0,.34.38c3.2,4.56,1.32,4.86-1.66,8.59a8.78,8.78,0,0,1-4.71.73c-.27-.31-.37-1.09-.78-1.25l-.24-.36a.37.37,0,0,0-.18-.38V39a.31.31,0,0,0,.16-.37,1.44,1.44,0,0,1,.43-.57c2.71-.84-.46-5.87-1.62-6.4-.73-2,3.05-5.42,2-6.78,0-.14,0-.29-.13-.37-.17-1.36-2-2-1.08-3.65,5.74-3,5,1.08,8.55,4.06A13,13,0,0,1,24.75,27.61Z" fill="#7ab2d5"/><path d="M81.08,63.33c-1.69,0-6.37,1.57-6.92-1-.35-1.69,3-3,3.4-4.07.1-.26-1.06-2.3-.94-3.09.2-1.3,2-2,2-3.14.11-1.77-2.88-2.95-1.67-4.92,3.29-5.38,9.46,2.95,9.44,6.33,0,.95-1.62,1.77-1.68,2.49-.12,1.56,1.58,1.35,1.25,2.86S83,63.81,81.08,63.33Z" fill="#c97b47"/><path d="M8.06,51.49a1.59,1.59,0,0,1,.51-.61,12.06,12.06,0,0,0,1.58-1.19,9.29,9.29,0,0,0,2.11-.11.33.33,0,0,0,.35.14c.68.27.8.78,1,1.39-.07.42-1.28,2.3-1.22,2.49.33,1,3.55,1,4.23,2s-1.45,3.28-.15,3.57c.69,2.4,1.61.5,1.08,3.79-.18,1.13-1.56,2-1.66,3.27a.67.67,0,0,0-.29.45c-2.14,2.2-6.3-1.27-6.11-3.49.54-.88,2.5-3.18,0-3.65a6.34,6.34,0,0,0-1.12-.87l0-.06c0-.19-.16-.27-.31-.34-.31-.39-.61-.78-.9-1.18a12,12,0,0,1,.59-4.82A3.42,3.42,0,0,0,8.06,51.49Z" fill="#f09c1e"/><path d="M84.74,32.35l.2.21a.36.36,0,0,0,.34.37c1.39,2.39-.59,4.79-3.49,3.52-1.34-1.58-3.9-2.36-4-4.74-.07-1.57,1.62-2,1.76-3.12.31-2.4-3.58-7,.91-9.19.94-.45,3.56,0,4.23.76,1.3,1.57-.51,2.65-.13,4.23s2.74,3.1,2.39,5C86.82,30.13,84.1,32,84.74,32.35Z" fill="#e1bd88"/><path d="M39.81,8.73a9.37,9.37,0,0,1,.71-.7c5.36-.56,3.63,1.18,4.54,4.66.27,1,1.55,2.28,2,3.43-.33-.87-.21,2.83-.24,2.73.38,1.68,3.3.62.73,3.13-2.28,2.23-8.53-.5-7.55-3.72.27-.22.19-.54.21-.84,2.71-1,0-2.18-.21-3.41C39.69,11.93,38.86,11.17,39.81,8.73Z" fill="#97caca"/><path d="M41.57,80.86c-4.58-2.48.82-7,3.3-4.71C47,78.14,44.15,81.86,41.57,80.86Z" fill="#529b35"/><path d="M29.52,41.39c6.52-1.06.13,9.68-3.29,3.11.05-.42.11-.83.16-1.24l1.27-1.13c.26,0,.53,0,.74-.17.35,0,.72,0,.89-.4Z" fill="#97caca"/><path d="M66.75,56.75c-1.52-2.55.2-7.21,3.24-4.1C72.45,55.15,69.34,57.59,66.75,56.75Z" fill="#f09c1e"/><path d="M87.11,42.85c0-3.71,6.44-2.35,4.54,1.42C90.22,47.08,87.11,45.72,87.11,42.85Z" fill="#cde9e8"/><path d="M22.33,53.48C18.85,52.57,20,47,23.89,48a.66.66,0,0,0,.44.39,3.48,3.48,0,0,1,.37,3.25.07.07,0,0,0-.05.09.52.52,0,0,0-.3.44,4,4,0,0,1-1.28,1.13A.66.66,0,0,0,22.33,53.48Z" fill="#c97b47"/><path d="M80.36,71.72c-2.88.52-4-3.91-1.42-5.11,3-1.39,4,3.39,1.75,5A.28.28,0,0,0,80.36,71.72Z" fill="#f5c31e"/><path d="M4,38.08c-.16-2.16,1.61-5.64,3.87-3,2,2.3-1.46,6.7-3.7,3.35C4.19,38.27,4.17,38.14,4,38.08Z" fill="#126d13"/><path d="M24.36,64.14c2-2.5,7,0,4.33,2.73C26.44,69.22,24.31,66.53,24.36,64.14Z" fill="#cde9e8"/><path d="M72.82,38.27l.36-.36a.56.56,0,0,0,.47-.32,2.75,2.75,0,0,1,2.79.32.62.62,0,0,0,.31.48c1,4.86-6.16,5.13-4.25.34A.54.54,0,0,0,72.82,38.27Z" fill="#133592"/><path d="M65.79,25.05c1.41-2.58,5.6-1.28,4.57,1.91a.7.7,0,0,0-.31.46c-2.08,1.55-4.73,1.17-4.41-2A.27.27,0,0,0,65.79,25.05Z" fill="#de133e"/><path d="M54.5,27.32c-1.27,4.07-3.55.42-4.8-.59C48.46,23.77,55.67,23.32,54.5,27.32Z" fill="#529b35"/><path d="M55.61,69.31c5,.28,3.46.32,2.81,4.32-2.07-.87-3.31-.18-3.4-3.07.18-.12.18-.32.2-.51A1,1,0,0,0,55.61,69.31Z" fill="#7ab2d5"/><path d="M31.91,28.6c-3.53-1.71-.47-6.25,2.88-3.52C34.63,27,35,29.19,31.91,28.6Z" fill="#f5c31e"/><path d="M56.49,18.66c-8.89.07.75-8.32.74-.76a.33.33,0,0,0-.18.35l-.22.22A.31.31,0,0,0,56.49,18.66Z" fill="#e1bd88"/><path d="M54.5,27.32l.07-.27.24.25Z" fill="#d4e6e7"/><path d="M33.3,70.94l-.12.2Z" fill="#d4e6e7"/><path d="M41,56.47c.13-2.19,2.26-4.61,1.69-6.67-.54-1.91-4.67-2.42-4.9-4.21-.56-4.35,4.84-1.89,7.34-3.65,2.17-1.52,1.43-9.49,4.66-8.54.65.19,1.7,4.18,1.87,4.53,1.88,3.82,1.3,3,5.2,3.11,9,.32,1.08,2.27-.35,6.17-1.16,3.16,3.34,6.73,2,9.68-1.87,4.16-8-3.45-10.48-3C47.09,54,41.24,61.28,41,56.47Z" fill="#f09c1e"/><path d="M36.88,64.22c0-.14,0-.28-.05-.43a.28.28,0,0,1,.31.19Z" fill="#d4e6e7"/></svg>