<svg xmlns="http://www.w3.org/2000/svg" viewBox="0 0 96 96"><path d="M36.58 33.16a102.07 102.07 0 0 1 21.48-3.53h.4a11.93 11.93 0 0 0 2.92-.14c.18.22.37.2.55 0a10.75 10.75 0 0 1 6.35 1.34c1.25.6 1.77 1.9 2.62 2.88 1.48 1.7 1.8 3.84 2 6 .46 4.56.67 9.13.73 13.71a13 13 0 0 1-2.09 6.55A14.08 14.08 0 0 1 69 63.32a3.06 3.06 0 0 1-2.1.9 12.68 12.68 0 0 0-2.51.43c-2.28.53-4.62.62-6.92 1-2.49.41-5 .43-7.51.9a4.21 4.21 0 0 0-2.39 1.7c-1.31 1.55-2.54 3.17-3.74 4.81-.86 1.17-1.74 2.32-2.61 3.48a2.14 2.14 0 0 1-3.55-.15 9.09 9.09 0 0 1-1.37-4.52 25.61 25.61 0 0 0-.37-2.61c-.13-.66-.5-.78-1-.61-1.68.64-3.42.34-5.13.29-1.34 0-2.19-1.11-2.85-2.1-1.23-1.85-2.55-3.71-2.85-6a2.18 2.18 0 0 0-.21-.7c-1.45-2.75-1.43-5.8-1.82-8.79a27.21 27.21 0 0 1 .26-7.65 9.23 9.23 0 0 1 5-7.06c.22-.11.5-.21.6-.4.6-1.09 1.71-1.21 2.73-1.4 1.85-.34 3.56-1.16 5.41-1.49.16-.01.37.01.51-.19zm-2.34 13.92c.48.13 1-.14 1.55-.16a54.19 54.19 0 0 0 9-1.26A51.37 51.37 0 0 0 54 43.05a20.89 20.89 0 0 0 3.64-1.48 1.85 1.85 0 0 0 .87-2.12 1.79 1.79 0 0 0-1.88-1.31 9 9 0 0 0-1.36.1c-3.94.69-7.79 1.77-11.73 2.44-2.76.47-5.45 1.32-8.21 1.87a5 5 0 0 0-2.9 1.71 1.57 1.57 0 0 0 .57 2.66 2.51 2.51 0 0 0 1.24.16zm13.52 3.57c-1.12.1-2.43.21-3.73.36a53.41 53.41 0 0 0-7.7 1.59 3 3 0 0 0-1.92 2.73 1.52 1.52 0 0 0 .84 1.42 3.43 3.43 0 0 0 2.5.1c3.51-.92 7-1.86 10.54-2.74 1.31-.33 2.09-1 2-2s-1.07-1.46-2.53-1.46z" fill="#97caca"/><path d="M75.9 12.38c.36 2.28-.74 4.1-1.83 5.95s-2.93 3.49-4 5.56a2.07 2.07 0 0 1-3.49 0 3.57 3.57 0 0 1-.29-3.78 44.7 44.7 0 0 1 3.45-6.26 5.06 5.06 0 0 1 3.43-2.61 2.59 2.59 0 0 1 2.28.44zM36 13a5.22 5.22 0 0 0 1.09-1.2c.66-1.09 3.09-.69 3.86.59a19.81 19.81 0 0 1 2.27 6.47 40.57 40.57 0 0 1 .5 4.52 1.66 1.66 0 0 1-1 1.87 2.1 2.1 0 0 1-2.51-.42 9.26 9.26 0 0 1-1.87-3.19q-1.12-2.89-2.27-5.78a6 6 0 0 1-.28-2.52A.33.33 0 0 0 36 13zm3.15 2.21v-.17L39 15l.11.12a3.45 3.45 0 0 0 .74 2l.08.2v-.07a1.27 1.27 0 0 0-.11-.13 3.42 3.42 0 0 0-.68-1.96zM14.67 30.47a10.86 10.86 0 0 1 2.76 2.24 4.17 4.17 0 0 1 .69 2.6 1.89 1.89 0 0 1-2.39 1.75 9 9 0 0 1-2.83-1.29 57.83 57.83 0 0 1-5.06-3.59 3.65 3.65 0 0 1-1.39-1.77 2.54 2.54 0 0 1 .42-2.72 2.63 2.63 0 0 1 2.65-.48 9.37 9.37 0 0 1 2.64 1.51c.63.36 1.2.8 1.79 1.21a1.39 1.39 0 0 0 .72.54zM56 70.23a3 3 0 0 1 2.91 2.55 20.6 20.6 0 0 1 .38 9.37.53.53 0 0 0-.3.42l-.94.67a.26.26 0 0 0-.34.11h-.44c-.15-.27-.43-.22-.68-.23a2.72 2.72 0 0 1-1.7-2.07 29.62 29.62 0 0 1-1-5.22 32.73 32.73 0 0 1-.23-3.42l1-1.06a.34.34 0 0 0 .22-.32zM4 59.83c-.06-1.82 1-2.58 2.63-3a39.38 39.38 0 0 1 8.48-1.5l.88.4 1.2 1.11a.27.27 0 0 0 .13.34l-.05.95a.33.33 0 0 0-.12.35 4.77 4.77 0 0 1-3.87 2.22c-2.26.29-4.53.54-6.79.86a4.49 4.49 0 0 1-1.23-.19.6.6 0 0 0-.46-.28l-.23-.21zM18.18 83.7c-.17-1.52.87-2.6 1.46-3.83 1-2 2.1-3.92 3.11-5.91a2.14 2.14 0 0 1 3.06-.7c1.4.87 1.45 1.57 1.13 3.25-.25 1.39-1.31 2.21-1.84 3.39a11.27 11.27 0 0 1-2.1 3.26 4.26 4.26 0 0 1-3.59 1.7 3.45 3.45 0 0 1-1.23-1.16zM86.19 69a45.37 45.37 0 0 1-6.7-4.63 2.62 2.62 0 0 1-1.17-2.27c.05-1.22.69-1.91 1.89-1.86a4.25 4.25 0 0 1 2.58.77 11.39 11.39 0 0 0 2 1.15 10.14 10.14 0 0 1 2.48 1.45.64.64 0 0 0 .42.38c.43.84 1.5 1 1.94 1.91.11.23.2.49.33.71 0 .42 0 .85-.05 1.27a.13.13 0 0 0-.06.14 2.74 2.74 0 0 0-.94.75.13.13 0 0 0-.14.06.55.55 0 0 0-.46.28l-1.38.09a.83.83 0 0 0-.74-.2zm5.65-30.46c0 .44.11.88.16 1.31a.48.48 0 0 0-.23.46c-.61 1.33-2 1.49-3.11 1.8-2.23.6-4.52 1-6.78 1.53a8 8 0 0 1-1.55.12 1.73 1.73 0 0 1-1.58-2.58 4.19 4.19 0 0 1 3.35-2.44 60.58 60.58 0 0 1 6.29-1 10.7 10.7 0 0 1 2.65.09z" fill="#f5c31e"/><path d="M88.28 69.1a.55.55 0 0 1 .46-.28c-.03.29-.21.35-.46.28z" fill="#d4e6e7"/><path d="M34.24 47.08a2.51 2.51 0 0 1-1.24-.16 1.57 1.57 0 0 1-.61-2.66 5 5 0 0 1 2.9-1.71c2.76-.55 5.45-1.4 8.21-1.87 3.94-.67 7.79-1.75 11.73-2.44a9 9 0 0 1 1.36-.1 1.79 1.79 0 0 1 1.88 1.31 1.85 1.85 0 0 1-.87 2.12 20.89 20.89 0 0 1-3.6 1.48 51.37 51.37 0 0 1-9.12 2.61 54.19 54.19 0 0 1-9 1.26c-.64.02-1.16.29-1.64.16zm13.52 3.57c1.46 0 2.46.62 2.53 1.46s-.69 1.67-2 2c-3.52.88-7 1.82-10.54 2.74a3.43 3.43 0 0 1-2.5-.1 1.52 1.52 0 0 1-.84-1.42 3 3 0 0 1 1.92-2.73A53.41 53.41 0 0 1 44 51c1.33-.14 2.64-.25 3.76-.35z" fill="#fcfdfc"/><path d="M39.89 17.17a3.45 3.45 0 0 1-.74-2 3.42 3.42 0 0 1 .74 2zm-.74-2.02L39 15h.07v.17zm.73 2.02a1.27 1.27 0 0 1 .11.13v.07l-.08-.2z" fill="#e1bd88"/></svg>