<svg xmlns="http://www.w3.org/2000/svg" viewBox="0 0 96 96"><title>enrolment</title><path d="M18.93,36.19l7.91-2.68a1.54,1.54,0,0,1,.48,0c.06.54.11,1.09.18,1.63.37,3.3.86,6.59,1,9.91.25,4.51.39,9,.8,13.52l-4.64,1.94a5.64,5.64,0,0,0-1.76,1.17c-.2,0-.41,0-.56.14-.18,0-.4,0-.5.22l0-.06c-.8.37-1.12-.09-1.18-.77-.16-1.86-.46-3.71-.61-5.58s-.32-3.86-.5-5.79c-.14-1.55-.18-3.13-.29-4.69-.14-2-.06-4-.32-5.93A21.44,21.44,0,0,1,18.93,36.19Z" fill="#f09c1e"/><path d="M22.37,61.79c.15-.19.36-.12.56-.14a2,2,0,0,1-1.15.89l.06-.59,0,.06C22.08,62,22.27,62,22.37,61.79Z" fill="#d4e6e7"/><path d="M18.28,19.62a2.86,2.86,0,0,0-.66.13c-.44.21-1,.45-.95,1s.73.37,1.13.4a33,33,0,0,1,3.58.16,5.36,5.36,0,0,1,4,2.74,3,3,0,0,1-.53,3.74,8.13,8.13,0,0,1-6.36,2.05c-1.22-.08-1.83-.75-1.77-1.65s.73-1.42,2-1.44a6.31,6.31,0,0,0,3.2-.61c.87-.51.87-.86,0-1.42a3.92,3.92,0,0,0-2-.42A15.5,15.5,0,0,1,16,24a3.31,3.31,0,0,1-2-5.16,5.18,5.18,0,0,1,6-2.09,2.31,2.31,0,0,1,1,.62,1.49,1.49,0,0,1,.25,1.88,1.4,1.4,0,0,1-1.77.61A3.35,3.35,0,0,0,18.28,19.62Z" fill="#fede03"/><path d="M22.37,61.79c-.1.21-.29.23-.5.22C22,61.77,22.19,61.82,22.37,61.79Z" fill="#f7f7f7"/><path d="M48.73,87.92c-2.75,0-5.5,0-8.25-.12a60.38,60.38,0,0,1-6.59-.39c-2.07-.28-4.17-.16-6.23-.69a24.33,24.33,0,0,0-4.45-.46,3.89,3.89,0,0,1-1.91-1c-2.31-1.65-3.89-4-5.5-6.26a7.48,7.48,0,0,1-1.34-4.79,20.6,20.6,0,0,1,1-4.17A17.17,17.17,0,0,1,17,66.79c.77-1.48,2.19-2.3,3.4-3.32a4.16,4.16,0,0,1,1.43-.93,2,2,0,0,0,1.15-.89,5.64,5.64,0,0,1,1.76-1.17l4.64-1.94a18.84,18.84,0,0,0,2.39-.34c2.2-.61,4.43-1.13,6.68-1.54-1.18,2.91-2.73,5.64-4.19,8.41-1.15,2.17-2.63,4.15-3.65,6.39-.11.25-.36.54-.11.8s.49,0,.73,0a43.92,43.92,0,0,1,8.8-1.8,41.36,41.36,0,0,1,5.87-.4c4.08.33,8.17.57,12.22,1.13a23.07,23.07,0,0,1,8.09,2.15A18.9,18.9,0,0,0,68,74.1a50.15,50.15,0,0,0-2.38-6.54c-1-2.12-1.58-4.47-3.49-6.07a1.56,1.56,0,0,1-.44-.94,6.92,6.92,0,0,0-1.23-2.7,14.35,14.35,0,0,1-1.39-2.44,32.64,32.64,0,0,1,7.55,1.05c-.08.55.18.78.72.91,2.36.56,4.79.91,6.93,2.18.33.19.53.06.71-.21,1.1.86,2.42,1.38,3.47,2.32.37.33.77.64,1.15,1a1,1,0,0,0,.61.56l.19.2A1.22,1.22,0,0,0,81,64a11.5,11.5,0,0,1,2.08,4.22c.53,1.79-.26,3.5-.81,5.18-.48,1.49-1.68,2.51-2.66,3.66-.44.53-.9,1.05-1.33,1.6a1,1,0,0,0-.52.64l-1,1a1,1,0,0,0-.66.5A17.38,17.38,0,0,1,71,83.42c-2,.64-3.91,1.27-5.9,1.77-3.12.79-6.23,1.63-9.39,2.2a56.33,56.33,0,0,1-6.37.45A.45.45,0,0,0,48.73,87.92Z" fill="#529b35"/><path d="M18.93,36.19c-.84.2-1.7.32-2.52.6a1.24,1.24,0,0,1-1.52-.42A14.35,14.35,0,0,1,12.55,32a74.23,74.23,0,0,1-2.63-9.19,38.9,38.9,0,0,0-1.26-5.48c-.18-.45.2-.46.45-.57,2.21-1,4.49-1.72,6.76-2.52,3.45-1.2,6.89-2.46,10.42-3.45a52.17,52.17,0,0,1,6.93-1.15c2.29-.33,4.57-.64,6.86-.91,1.63-.2,3.27-.32,4.9-.45A57.25,57.25,0,0,1,52,8c4.6.2,9.19.29,13.76.91,4,.55,8.07,1.13,12,2a39.7,39.7,0,0,1,7.26,2.82c.56.25,1.11.52,1.68.73s.66.63.57,1.23a45.58,45.58,0,0,1-2.43,9c-.79,2.16-1.34,4.42-2,6.65-.21.75-.46,1.07-1.41.85a15.36,15.36,0,0,0-2.66-.29,1.59,1.59,0,0,0-1-.31A14,14,0,0,1,73,30.45a8.62,8.62,0,0,0-2.79-.66c-.57,0-1.15-.08-1.73-.14-3.11-.31-6.21-.76-9.34-.86a61.35,61.35,0,0,0-12.83.9c-4.24.78-8.59,1-12.8,2a32.89,32.89,0,0,0-6.22,1.76,1.54,1.54,0,0,0-.48,0Zm29-24.7a9.83,9.83,0,0,0-3.46.89,3.68,3.68,0,0,0-2.12,2,36.59,36.59,0,0,0-2.07,7.25,2.13,2.13,0,0,0,.12,1.14A1.45,1.45,0,0,0,42,23.84a1.41,1.41,0,0,0,1.35-1.3c.07-.42.13-.83.16-1.25a1,1,0,0,1,1.14-1c1.78-.05,3.54-.32,5.32-.27.53,0,.83.15,1,.68.26.8.56,1.58.89,2.35a1.63,1.63,0,0,0,2,1.09,1.58,1.58,0,0,0,.9-2.08c0-.19-.13-.37-.19-.55-.41-1.09-.75-2.21-1.19-3.28a21.67,21.67,0,0,0-2.61-5.06A3.45,3.45,0,0,0,48,11.49Zm12.95.27c-.14,0-.56.05-1,.12-1.91.35-2.36.88-2.47,2.83,0,.58-.11,1.16-.18,1.74-.24,2.05-.5,4.1-.7,6.15a1.49,1.49,0,0,0,1.28,1.76A1.53,1.53,0,0,0,59.61,23a9.77,9.77,0,0,0,.18-1.44c0-.31.06-.53.51-.47,1.62.23,3.18.51,3.54,2.51A1,1,0,0,0,64,24a1.49,1.49,0,0,0,2.83-.78,3.58,3.58,0,0,0-.49-1.76c-.58-.91-1-1.75,0-2.67a2,2,0,0,0,.3-.91C67.26,14.62,64.73,11.76,60.91,11.76ZM18.28,19.62a3.35,3.35,0,0,1,1.13.28,1.4,1.4,0,0,0,1.77-.61,1.49,1.49,0,0,0-.25-1.88,2.31,2.31,0,0,0-1-.62,5.18,5.18,0,0,0-6,2.09A3.31,3.31,0,0,0,16,24a15.5,15.5,0,0,0,4,.24,3.92,3.92,0,0,1,2,.42c.87.56.87.91,0,1.42a6.31,6.31,0,0,1-3.2.61c-1.22,0-1.9.54-2,1.44s.55,1.57,1.77,1.65a8.13,8.13,0,0,0,6.36-2.05A3,3,0,0,0,25.4,24a5.36,5.36,0,0,0-4-2.74,33,33,0,0,0-3.58-.16c-.4,0-1.05.22-1.13-.4s.51-.77.95-1A2.86,2.86,0,0,1,18.28,19.62Zm19.2-4.91a1.62,1.62,0,0,0-2-1.49c-.89.12-1.77.35-2.67.49a25.88,25.88,0,0,0-7.6,2.19,1.55,1.55,0,0,0-1,2,1.63,1.63,0,0,0,2.2.8,17.39,17.39,0,0,0,1.88-.8c.79-.41,1-.08,1.05.68.06,1.45.12,2.9.23,4.35a10.06,10.06,0,0,0,.65,3.6,1.53,1.53,0,0,0,1.88,1,1.43,1.43,0,0,0,1-1.75c-.71-2.63-.43-5.34-.79-8-.1-.75.2-1,.84-1.05.86-.11,1.72-.28,2.57-.43A1.78,1.78,0,0,0,37.48,14.71Zm43.15,2.7a1.68,1.68,0,0,0-.93-1.49c-.72-.43-1.43-.88-2.18-1.26a13.74,13.74,0,0,0-6.35-1.47c-1.25,0-2,.61-2,1.54s.71,1.54,2,1.59l1,0c.46,0,.61.19.5.68-.61,2.57-1.18,5.16-1.79,7.73-.3,1.21-.06,2,.8,2.27s1.82-.23,2.17-1.41c.3-1,.5-2.06.73-3.11.28-1.29.51-2.6.81-3.89s.53-1.34,1.61-.71a5.61,5.61,0,0,0,1.82.89A1.44,1.44,0,0,0,80.63,17.41ZM38,28.16c3.26-.43,6.55-.71,9.77-1.41A39.82,39.82,0,0,0,38,28.16Z" fill="#7ab2d5"/><path d="M70.24,29.79a8.62,8.62,0,0,1,2.79.66,14,14,0,0,0,4.85,1.13,1.59,1.59,0,0,1,1,.31,38.83,38.83,0,0,0-.54,4.18c-.36,2.69-.85,5.37-1.25,8.06-.36,2.5-.75,5-1.13,7.5-.27,1.84-.5,3.68-.83,5.51a8.13,8.13,0,0,0-.1,2.2c-.18.27-.38.4-.71.21-2.14-1.27-4.57-1.62-6.93-2.18-.54-.13-.8-.36-.72-.91.07-.25.15-.49.2-.74.55-3.31,1.07-6.62,1.66-9.92C69.47,40.5,70.59,35.23,70.24,29.79Z" fill="#f09c1e"/><path d="M48.73,87.92a.45.45,0,0,1,.62-.08A.48.48,0,0,1,48.73,87.92Z" fill="#97caca"/><path d="M38.4,56.66c1-1.78,2-3.56,3-5.43-2.46-.51-4.87-.14-7.33-.33a3,3,0,0,1,1.12-1.11,62,62,0,0,0,9.31-6.45c.88-.69,2-.89,2.89-1.54,1.43-1.07,2.44-.51,3.69.45,3.73,2.89,7.43,5.83,11.32,8.51.12.09.23.2.5.44-1.77.21-3.34.73-5,.46-.67-.11-.93,0-.53.72a25.2,25.2,0,0,0,1.73,3,14.35,14.35,0,0,0,1.39,2.44,6.92,6.92,0,0,1,1.23,2.7,1.56,1.56,0,0,0,.44.94c1.91,1.6,2.54,3.95,3.49,6.07A50.15,50.15,0,0,1,68,74.1a18.9,18.9,0,0,1-1.88-.78,23.07,23.07,0,0,0-8.09-2.15c-4-.56-8.14-.8-12.22-1.13a41.36,41.36,0,0,0-5.87.4,43.92,43.92,0,0,0-8.8,1.8c-.24.07-.54.22-.73,0s0-.55.11-.8c1-2.24,2.5-4.22,3.65-6.39C35.67,62.3,37.22,59.57,38.4,56.66Z" fill="#de133e"/><path d="M48,11.49a3.45,3.45,0,0,1,2.81,1.65,21.67,21.67,0,0,1,2.61,5.06c.44,1.07.78,2.19,1.19,3.28.06.18.14.36.19.55a1.58,1.58,0,0,1-.9,2.08,1.63,1.63,0,0,1-2-1.09c-.33-.77-.63-1.55-.89-2.35-.17-.53-.47-.66-1-.68-1.78,0-3.54.22-5.32.27a1,1,0,0,0-1.14,1c0,.42-.09.83-.16,1.25A1.41,1.41,0,0,1,42,23.84a1.45,1.45,0,0,1-1.56-1.06,2.13,2.13,0,0,1-.12-1.14,36.59,36.59,0,0,1,2.07-7.25,3.68,3.68,0,0,1,2.12-2A9.83,9.83,0,0,1,48,11.49Zm-2.31,5.63L47.19,17c.52,0,1,0,1.55-.06.2,0,.49.12.51-.26a3.79,3.79,0,0,0-1.52-2A3.3,3.3,0,0,0,45,16.2C44.57,17.18,44.59,17.2,45.65,17.12Z" fill="#fede03"/><path d="M60.91,11.76c3.82,0,6.35,2.86,5.71,6.12a2,2,0,0,1-.3.91c-1,.92-.57,1.76,0,2.67a3.58,3.58,0,0,1,.49,1.76A1.49,1.49,0,0,1,64,24a1,1,0,0,1-.15-.36c-.36-2-1.92-2.28-3.54-2.51-.45-.06-.47.16-.51.47A9.77,9.77,0,0,1,59.61,23a1.53,1.53,0,0,1-1.74,1.32,1.49,1.49,0,0,1-1.28-1.76c.2-2.05.46-4.1.7-6.15.07-.58.15-1.16.18-1.74.11-2,.56-2.48,2.47-2.83C60.35,11.81,60.77,11.77,60.91,11.76ZM61.66,18c.53-.15,1.46.13,1.83-.65a1.6,1.6,0,0,0-.42-1.79,2.27,2.27,0,0,0-2.13-.7c-.69.18-.36.93-.51,1.41a2.52,2.52,0,0,0,0,.48C60.28,18,60.28,18,61.66,18Z" fill="#fede03"/><path d="M37.48,14.71a1.78,1.78,0,0,1-1.67,1.61c-.85.15-1.71.32-2.57.43-.64.09-.94.3-.84,1.05.36,2.65.08,5.36.79,8a1.43,1.43,0,0,1-1,1.75,1.53,1.53,0,0,1-1.88-1,10.06,10.06,0,0,1-.65-3.6c-.11-1.45-.17-2.9-.23-4.35,0-.76-.26-1.09-1.05-.68a17.39,17.39,0,0,1-1.88.8,1.63,1.63,0,0,1-2.2-.8,1.55,1.55,0,0,1,1-2,25.88,25.88,0,0,1,7.6-2.19c.9-.14,1.78-.37,2.67-.49A1.62,1.62,0,0,1,37.48,14.71Z" fill="#fede03"/><path d="M80.63,17.41a1.44,1.44,0,0,1-1.8,1.39A5.61,5.61,0,0,1,77,17.91c-1.08-.63-1.32-.54-1.61.71s-.53,2.6-.81,3.89c-.23,1-.43,2.1-.73,3.11-.35,1.18-1.24,1.71-2.17,1.41s-1.1-1.06-.8-2.27c.61-2.57,1.18-5.16,1.79-7.73.11-.49,0-.67-.5-.68l-1,0c-1.32-.05-2-.61-2-1.59s.74-1.53,2-1.54a13.74,13.74,0,0,1,6.35,1.47c.75.38,1.46.83,2.18,1.26A1.68,1.68,0,0,1,80.63,17.41Z" fill="#fede03"/><path d="M38,28.16a39.82,39.82,0,0,1,9.77-1.41C44.5,27.45,41.21,27.73,38,28.16Z" fill="#cde9e8"/><path d="M45.65,17.12c-1.06.08-1.08.06-.69-.92a3.3,3.3,0,0,1,2.77-1.58,3.79,3.79,0,0,1,1.52,2c0,.38-.31.24-.51.26-.51,0-1,0-1.55.06Z" fill="#7ab2d5"/><path d="M61.66,18c-1.38,0-1.38,0-1.28-1.25a2.52,2.52,0,0,1,0-.48c.15-.48-.18-1.23.51-1.41a2.27,2.27,0,0,1,2.13.7,1.6,1.6,0,0,1,.42,1.79C63.12,18.13,62.19,17.85,61.66,18Z" fill="#7ab2d5"/></svg>