<svg xmlns="http://www.w3.org/2000/svg" viewBox="0 0 96 96"><path d="M17.13 44c-.21-2-.72-4-1.11-6-.78-4-1.8-8-2.7-11.93-.35-1.55-.4-3.17-.6-4.76-.1-.72-.17-1.45-.34-2.16a1.36 1.36 0 0 1 .94-1.84A60.64 60.64 0 0 1 19.58 16c3.13-.68 6.26-1.33 9.41-1.94s6.52-1.18 9.77-1.81c1.81-.35 3.64-.63 5.45-1.05 1.57-.37 3.22-.53 4.84-.8 2.55-.43 5.1-.87 7.66-1.29a22.47 22.47 0 0 1 3.85-.43A46.85 46.85 0 0 0 67.94 8a4.17 4.17 0 0 1 2.19.52c.28.12.29.39.31.65a22.53 22.53 0 0 0 .68 3.63 21.27 21.27 0 0 1 .49 3.75c.15 2 .52 3.89.77 5.84s.52 4.12.77 6.18c.31 2.45.6 4.91.91 7.36s.65 4.78 1 7.17c.35 2.67.68 5.35 1 8-1.74.7-2.76 1.87-2.57 3.85a29.76 29.76 0 0 0-3.34-.46c-2.82-.07-5.62-.35-8.44-.36-4 0-7.23 1.26-9.37 4.78A59.76 59.76 0 0 0 46 60c-1.71.26-3.39.68-5.12.8.76-.57 1.72-.44 2.57-.73a27.93 27.93 0 0 0 4.1-2.13 8.34 8.34 0 0 0 3.08-3 14.92 14.92 0 0 0 1.32-3.43 29.77 29.77 0 0 0 4.32-.62 1.89 1.89 0 0 0 1.45-2.23 2.11 2.11 0 0 0-2.35-1.35 17.93 17.93 0 0 1-3.35.32l-.06-4.93c.22 0 .45 0 .67-.08 2.62-.49 5.16-1.35 7.81-1.71 1-.12 1.9-.24 2.83-.45a2 2 0 0 0 1.59-2.25A1.9 1.9 0 0 0 63 36.72a66.89 66.89 0 0 0-6.71 1.2 29.87 29.87 0 0 1-5.68 1.18 4.87 4.87 0 0 0-3.39-1.68 33.27 33.27 0 0 0-4.1.4c-1.44.21-2.87.53-4.3.8-.27.05-.63.22-.52-.3.23-1.17.51-2.34.77-3.51 2.14-.47 4.3-.76 6.47-1.05a1.77 1.77 0 0 0 1.69-1.7 1.8 1.8 0 0 0-1.45-1.92 3.87 3.87 0 0 0-1.59 0c-1.63.27-3.26.52-4.9.77a8.17 8.17 0 0 0-.46-2.14c-.28-.8-.63-1.63-1.64-1.76a4.6 4.6 0 0 0-3.48 1 9.58 9.58 0 0 0-2.54 3.22 4.9 4.9 0 0 1-1 1.72c-.56-.07-1 .34-1.52.41a1.87 1.87 0 0 0-1.7 1.51 1.84 1.84 0 0 0 1 2 39.52 39.52 0 0 1-6.39 7.39 1.93 1.93 0 0 0-2-.63c-.89.13-1.66.24-2.43.37zm7-17.76a1.41 1.41 0 0 0 .51 1.35 2.27 2.27 0 0 0 2.48.21 25.7 25.7 0 0 1 7.14-1.8c2-.31 4-.43 6-.83 3.11-.61 6.24-1.12 9.36-1.71 1.68-.32 3.3-.92 5-1.23A1.77 1.77 0 0 0 56 20.08a2 2 0 0 0-2-1.39 12.08 12.08 0 0 0-3.21.67c-2.57.66-5.2 1-7.79 1.47-3.42.66-6.86 1.18-10.31 1.62A27.57 27.57 0 0 0 25 24.67a1.43 1.43 0 0 0-.9 1.56zm37.47 55.1c-2 .14-3.88.59-5.82.9-1.41.23-2.81.5-4.21.8-3.63.76-7.27 1.49-10.9 2.27-2.41.52-4.82 1.07-7.25 1.5-1.93.35-3.82.91-5.77 1.18-.76.1-1.66-.55-1.48-1.27.34-1.4-.24-2.61-.5-3.89-.38-2-1.16-3.8-1.45-5.78a36.3 36.3 0 0 0-.57-3.74A58.89 58.89 0 0 0 21.7 67a40.6 40.6 0 0 0 4.59-1 1.5 1.5 0 0 0 1-2.14 2.66 2.66 0 0 1-.14-1.08 10.83 10.83 0 0 0 2-.67 3.18 3.18 0 0 1 1.85-.58 12 12 0 0 0 3.28 0l4.72-.39c-.27.29-.65.17-1 .22-1.63.26-3.19.88-4.87 1a2.1 2.1 0 0 0-1.79 2.44A2.08 2.08 0 0 0 34 66.12c1.53-.36 3-.77 4.6-1.07 3-.58 6-1.09 8.95-1.63l3.57-.6a23.72 23.72 0 0 0-.54 5.11l-4.33.67-6.5 1a31.76 31.76 0 0 0-4.23.76 1.78 1.78 0 0 0 .54 3.5 11.51 11.51 0 0 0 2.42-.37c2.11-.29 4.22-.64 6.34-.92 1.67-.22 3.29-.73 5-.81a2.47 2.47 0 0 0 1.68-.38 5.19 5.19 0 0 0 2.29 1.34 24.25 24.25 0 0 0 7.45.55c.31 0 .7-.16.54.38a24.81 24.81 0 0 0-.41 3.1 7.8 7.8 0 0 0 .23 4.59z" fill="#d4e6e7"/><path d="M50.57 67.93a23.72 23.72 0 0 1 .54-5.11c.41-1.29.81-2.58 1.21-3.87 2.14-3.52 5.4-4.8 9.37-4.78 2.82 0 5.62.29 8.44.36a29.76 29.76 0 0 1 3.34.46l.41.74a4.49 4.49 0 0 0 1.66 3.4 13 13 0 0 1-2.24 1.68c-1.47 1-1.45 2.32-1.17 3.81.24 1.24 1.2 1.5 2.19 1.76.26.22.59.15.9.2a.59.59 0 0 1-.28.49c-1.27.8-1.22 2-1 3.23 0 .52.08 1 .11 1.56a32.21 32.21 0 0 0-3 1.91 10.84 10.84 0 0 0-4.19 6.72 5.33 5.33 0 0 0-.66 1.15c-.36 1.26-1.5 1.37-2.75 1.06a3.32 3.32 0 0 1-1.87-1.36 7.8 7.8 0 0 1-.25-4.56 24.81 24.81 0 0 1 .41-3.1c.16-.54-.23-.41-.54-.38a24.25 24.25 0 0 1-7.45-.55 5.19 5.19 0 0 1-2.29-1.34 4.8 4.8 0 0 1-.89-3.48z" fill="#c97b47"/><path d="M27.15 62.69a2.66 2.66 0 0 0 .14 1.08 1.5 1.5 0 0 1-1 2.14 40.6 40.6 0 0 1-4.59 1 18.33 18.33 0 0 0-2.93.78 5.2 5.2 0 0 1-2.15.29c-.4 0-.46-.36-.55-.63-1.4-3.9-2.78-7.8-4-11.77q-1-3.5-1.88-7a2.38 2.38 0 0 1 1.51-2.86A25.69 25.69 0 0 1 17.13 44c.77-.12 1.54-.23 2.3-.37a1.93 1.93 0 0 1 2 .63c.63 1.72 1.48 3.36 2 5.14.69 2.5 1.28 5 2 7.53.57 1.92.97 3.89 1.72 5.76zm-8.79-2.42A1.59 1.59 0 0 0 20 62a2.06 2.06 0 0 0 2-2c0-1-.66-1.54-1.89-1.56a1.75 1.75 0 0 0-1.75 1.83z" fill="#133591"/><path d="M82.84 54.17A2 2 0 0 1 84.35 56c.19 2.06.33 4.12.52 6.18s.46 4.37.69 6.56v.5a7.9 7.9 0 0 1-.56 3.37.59.59 0 0 1-.49.39 5.39 5.39 0 0 1-2.43 0c-.13-.26-.19-.6-.59-.59L81 69.32a2.63 2.63 0 0 0 .11-1.7c-.2-2.4 0-4.8-.08-7.2a21.05 21.05 0 0 1 .21-5c.06-.09.67.54.6-.15s.16-1.2 1-1.1z" fill="#126d14"/><path d="M66.88 80.49a10.84 10.84 0 0 1 4.19-6.72 32.21 32.21 0 0 1 3-1.91l.43.56a2.59 2.59 0 0 0 1.44 1.32.54.54 0 0 0 .45.22l.56.12a1.87 1.87 0 0 0 1.63.09l.48-.06c0 .79.42 1.51.39 2.32a1.36 1.36 0 0 1-1.11 1.46c-3.47.76-6.83 2-10.35 2.54a10 10 0 0 1-1.11.06z" fill="#d4e6e7"/><path d="M79.05 74.11l-.48.06a3.46 3.46 0 0 0-1.63-.09l-.56-.08c-.06-.25-.24-.26-.45-.22a2.59 2.59 0 0 1-1.44-1.32c.5-.86.44-1.89.84-2.78.2-.44.36-1 .82-1.11 1.16-.19.29-.47.08-.74 1-.69 1.91-.19 2.86 0a4.85 4.85 0 0 1 .69 1.88c0 .21.08.42.33.42s.32-.26.34-.49-.1-.76.34-1c0 .24-.06.51.17.71l.53 3.06c0 .14 0 .26-.19.3s-.49 0-.51.33h-.09a2.6 2.6 0 0 0-1.44.92z" fill="#0c650f"/><path d="M81 69.32c-.23-.2-.13-.47-.17-.71a8.11 8.11 0 0 1-.68-1.88c.29-.21.18-.51.17-.78 0-1.38-.11-2.75-.17-4.13a11.91 11.91 0 0 0-.17-2.23 6.25 6.25 0 0 0 .33-2.59c.13-1.36.16-2.52-1.33-3.35-1-.57-2.3-.93-3 0-.54.73-1.72.88-1.78 2 0 0-.21.07-.32.1l-.41-.75c-.19-2 .83-3.15 2.57-3.85a9.61 9.61 0 0 1 4.13.8 1.44 1.44 0 0 1 .92.66 3.57 3.57 0 0 0 1.75 1.57c-.87-.1-1.12.32-1 1.13s-.54.06-.6.15a21.05 21.05 0 0 0-.21 5c0 2.4-.12 4.8.08 7.2a2.63 2.63 0 0 1-.11 1.66z" fill="#549d3a"/><path d="M79.26 74a2.6 2.6 0 0 1 1.44-.92 2 2 0 0 1-1.44.92z" fill="#126d14"/><path d="M81.3 72.68c.15 0 .19-.16.19-.3.4 0 .46.33.59.59h-1zm4.26-3.4v-.5c.13 0 .27 0 .29.21s-.12.27-.29.29z" fill="#d4e6e7"/><path d="M81.3 72.68l-.18.33h-.33c.02-.33.27-.33.51-.33z" fill="#126d14"/><path d="M27.15 62.69c-.75-1.87-1.14-3.84-1.7-5.77-.73-2.49-1.32-5-2-7.53-.5-1.78-1.35-3.42-2-5.14a39.52 39.52 0 0 0 6.39-7.39A10.51 10.51 0 0 0 30.08 33a4.9 4.9 0 0 0 1-1.72A9.58 9.58 0 0 1 33.66 28a4.6 4.6 0 0 1 3.48-1c1 .13 1.36 1 1.64 1.76a8.17 8.17 0 0 1 .46 2.14c-.07 1.3-.15 2.59-.22 3.89-.26 1.17-.54 2.34-.77 3.51-.11.52.25.35.52.3 1.43-.27 2.86-.59 4.3-.8a33.27 33.27 0 0 1 4.1-.4 4.87 4.87 0 0 1 3.39 1.68 12.08 12.08 0 0 1 1.36 3.54l.08 4.95c0 1.29 0 2.59-.07 3.88a14.92 14.92 0 0 1-1.32 3.43 8.34 8.34 0 0 1-3.08 3 27.93 27.93 0 0 1-4.1 2.13c-.85.29-1.81.16-2.57.73h-.07c-.31 0-.65-.07-.91.18l-.82.17-4.78.43a12 12 0 0 1-3.28 0 3.18 3.18 0 0 0-1.84.49 10.83 10.83 0 0 1-2.01.68z" fill="#e1bd88"/><path d="M24.1 26.23a1.43 1.43 0 0 1 .9-1.56 27.57 27.57 0 0 1 7.69-2.22c3.45-.44 6.89-1 10.31-1.62 2.59-.5 5.22-.81 7.79-1.47a12.08 12.08 0 0 1 3.21-.67 2 2 0 0 1 2 1.39 1.77 1.77 0 0 1-1.38 2.13c-1.69.31-3.31.91-5 1.23-3.12.59-6.25 1.1-9.36 1.71-2 .4-4 .52-6 .83a25.7 25.7 0 0 0-7.17 1.81 2.27 2.27 0 0 1-2.48-.21 1.41 1.41 0 0 1-.51-1.35zm16.67 34.56h.07c1.73-.12 3.41-.54 5.12-.8a59.76 59.76 0 0 1 6.36-1c-.4 1.29-.8 2.58-1.21 3.87l-3.57.6c-3 .54-6 1-8.95 1.63-1.55.3-3.07.71-4.6 1.07a2.08 2.08 0 0 1-2.58-1.32 2.1 2.1 0 0 1 1.79-2.44c1.68-.12 3.24-.74 4.87-1 .32 0 .7.07 1-.22l.82-.17c.28-.07.62.05.88-.22zm11.15-18.15a12.08 12.08 0 0 0-1.36-3.54 29.87 29.87 0 0 0 5.68-1.18 66.89 66.89 0 0 1 6.76-1.2 1.9 1.9 0 0 1 1.87 1.43 2 2 0 0 1-1.59 2.25c-.93.21-1.88.33-2.83.45-2.65.36-5.19 1.22-7.81 1.71-.27.04-.5.05-.72.08zM39 34.81c.07-1.3.15-2.59.22-3.89 1.64-.25 3.27-.5 4.9-.77a3.87 3.87 0 0 1 1.59 0 1.8 1.8 0 0 1 1.45 1.92 1.77 1.77 0 0 1-1.69 1.7c-2.15.28-4.31.57-6.47 1.04zm12.91 16.64c0-1.29.05-2.59.07-3.88a17.93 17.93 0 0 0 3.35-.32 2.11 2.11 0 0 1 2.35 1.35 1.89 1.89 0 0 1-1.45 2.23 29.77 29.77 0 0 1-4.32.62zM30.08 33a10.51 10.51 0 0 1-2.23 3.89 1.84 1.84 0 0 1-1-2 1.87 1.87 0 0 1 1.7-1.51c.54-.07.97-.48 1.53-.38zm20.49 34.93a4.8 4.8 0 0 0 .91 3.48 2.47 2.47 0 0 1-1.68.38c-1.7.08-3.32.59-5 .81-2.12.28-4.23.63-6.34.92a11.51 11.51 0 0 1-2.42.37 1.78 1.78 0 0 1-.54-3.5 31.76 31.76 0 0 1 4.23-.76l6.5-1z" fill="#a9bdcc"/><path d="M80.11 61.82c.06 1.38.13 2.75.17 4.13 0 .27.12.57-.17.78a7.63 7.63 0 0 0-.57-1.83 3.6 3.6 0 0 0-1-1.3c-.2-.16-.31.06-.47.18-.39.27-.56.84-1.15.86a.33.33 0 0 0-.32.34.37.37 0 0 0 .38.38c.55 0 .8.47 1.1.84a10.51 10.51 0 0 0-2.84.38c-.31 0-.64 0-.9-.2a2 2 0 0 0-.4-1.88c-.1-.09-.2-.29-.16-.38.59-1.2.29-2.84 1.93-3.54a5.63 5.63 0 0 1 1.88-.29 1.82 1.82 0 0 0 .53.25c.6.07.82.37.89 1 .05.44.08.88.11 1.33a1.05 1.05 0 0 0 .11.65.3.3 0 0 0 .36.14c.19-.09.08-.2 0-.33a1 1 0 0 1 .52-1.51zm-6.23-6.09c.11 0 .31-.06.32-.1.06-1.12 1.24-1.27 1.78-2 .7-.93 2-.57 3 0 1.49.83 1.46 2 1.33 3.35a6.25 6.25 0 0 1-.37 2.61c.14-1.2-1.23-1.49-1.48-2.47 0 0-.27 0-.4-.06-.82-.16-1.11.67-1.7.95-.42.2.11.71 0 1.09h-.84a4.49 4.49 0 0 1-1.64-3.37z" fill="#0c650f"/><path d="M75.54 59.13h.84c0 .38.31.47.57.62s.62.16.62.57a5.63 5.63 0 0 0-1.88.29c-1.64.7-1.34 2.34-1.93 3.54 0 .09.06.29.16.38a2 2 0 0 1 .4 1.88c-1-.26-1.95-.52-2.19-1.76-.28-1.49-.3-2.78 1.17-3.81a13 13 0 0 0 2.24-1.71zm-.32 7.45a10.51 10.51 0 0 1 2.84-.38 5.23 5.23 0 0 1 1 1.56c-1-.16-1.91-.66-2.86 0a2.53 2.53 0 0 0-1.54 1.75c-.12.37-.22.77-.74.76-.23-1.25-.28-2.43 1-3.23a.59.59 0 0 0 .3-.46z" fill="#549d3a"/><path d="M74 70.3c.52 0 .62-.39.74-.76a2.53 2.53 0 0 1 1.54-1.75c.21.27 1.08.55-.08.74-.46.07-.62.67-.82 1.11-.4.89-.34 1.92-.84 2.78l-.43-.56C74 71.34 74 70.82 74 70.3z" fill="#126d14"/><path d="M18.36 60.27a1.75 1.75 0 0 1 1.79-1.84c1.23 0 1.93.59 1.89 1.56a2.06 2.06 0 0 1-2 2 1.59 1.59 0 0 1-1.68-1.72z" fill="#d4e6e7"/><path d="M76.94 74.08a3.46 3.46 0 0 1 1.63.09 1.87 1.87 0 0 1-1.63-.09zm-1.01-.34c.21 0 .39 0 .45.22a.54.54 0 0 1-.45-.22zm3.16-5.98a5.23 5.23 0 0 0-1-1.56c-.3-.37-.55-.79-1.1-.84a.37.37 0 0 1-.38-.38.33.33 0 0 1 .32-.34c.59 0 .76-.59 1.15-.86.16-.12.27-.34.47-.18a3.6 3.6 0 0 1 1 1.3 7.63 7.63 0 0 1 .57 1.83 8.11 8.11 0 0 0 .68 1.88c-.44.2-.31.61-.34 1s0 .48-.34.49-.32-.21-.33-.42a4.85 4.85 0 0 0-.7-1.92zm-1.52-7.47c0-.41-.37-.42-.62-.57s-.57-.24-.57-.62-.44-.89 0-1.09c.59-.28.88-1.11 1.7-.95.13 0 .38 0 .4.06.25 1 1.62 1.27 1.48 2.47a11.91 11.91 0 0 1 .17 2.23 1 1 0 0 0-.53 1.49c.07.13.18.24 0 .33a.3.3 0 0 1-.36-.14 1.05 1.05 0 0 1-.11-.65c0-.45-.06-.89-.11-1.33-.07-.61-.29-.91-.89-1a1.82 1.82 0 0 1-.56-.23z" fill="#126d14"/><path d="M40.77 60.79c-.26.27-.6.15-.91.18.26-.25.6-.16.91-.18z" fill="#d4e6e7"/></svg>