<svg xmlns="http://www.w3.org/2000/svg" viewBox="0 0 96 96"><path d="M19.79 84c-1.35-1.21-1.65-2.92-2.15-4.52-.44-1.37-.36-2.91-1.32-4.11a1 1 0 0 1-.16-.39c-.54-4.14-2.26-8-2.9-12.11-.53-3.39-1.31-6.73-1.64-10.15-.08-.84-.27-1.67-.4-2.51 2.06-.52 4.13-1 6.19-1.57 4.65-1.24 9.37-2.16 14.06-3.19 3.68-.82 7.4-1.48 11.13-2.09 6.6-1.08 13.24-2 19.83-3.13 5.22-.92 10.47-1.63 15.72-2.4 1.72-.25 3.45-.45 5.18-.68.24 2 .49 3.93.72 5.9.26 2.28.47 4.58.79 6.85.22 1.56.39 3.13.66 4.69.22 1.27.23 2.64.4 4q.57 4.35 1.15 8.7c.17 1.22.37 2.44.56 3.67a.5.5 0 0 1 0 .21c-.22.59.81 1 .18 1.66a4.58 4.58 0 0 1-2.48 1.12c-2.87.59-5.76 1.09-8.64 1.65s-6 1.41-9.06 1.73c-4.23.45-8.37 1.44-12.56 2.08A66.47 66.47 0 0 0 47 81.14c-1.54.44-3.2.53-4.79.94-1.15.29-2.34.5-3.5.78-4.1 1-8.18 2-12.36 2.61a10.88 10.88 0 0 1-5.06-.39 3.66 3.66 0 0 0-1.5-1.08zm33.54-34.4q-.44-2.72-.86-5.43a1 1 0 0 0 0-.1 1.67 1.67 0 0 0-2-1.35 1.63 1.63 0 0 0-.92 2 21.21 21.21 0 0 1 .62 3.44 16.07 16.07 0 0 0-9.65 1.42c-.31.14-.64.42-1 .06-1-1.14-2.11-.66-3.19-.08a16.33 16.33 0 0 0-4.15 3.93c-.09-.31-.19-.61-.26-.92-.29-1.38-.53-2.78-.87-4.15a1.4 1.4 0 0 0-1.62-1.22 1.34 1.34 0 0 0-1.14 1.55 4.5 4.5 0 0 0 0 .64c.24 1.29.43 2.59.78 3.85.26.93.05 1.25-.93 1.45a48.28 48.28 0 0 0-9.3 3 1.79 1.79 0 0 0-1 2.23 1.5 1.5 0 0 0 2.13.53 13.78 13.78 0 0 1 2.82-1.23 29.58 29.58 0 0 1 6.87-1.79 8.26 8.26 0 0 0-.31.77 11.12 11.12 0 0 0 .22 7.79 20 20 0 0 0-6.15 2c-.78.34-1.2.9-.79 1.79a1.52 1.52 0 0 0 2.05.78c.56-.22 1.07-.55 1.66-.72 1.67-.48 3.32-1 5-1.54a1.78 1.78 0 0 1 .8.66 21.21 21.21 0 0 0 .63 4.19 34.44 34.44 0 0 0 1.09 5.09c.27.79.76 1.43 1.73 1.23s1.1-.9 1-1.72c0-.32-.09-.63-.15-.94a43.39 43.39 0 0 1-1.12-6.49c3.2.79 6.21 0 9.14-1.22a20.59 20.59 0 0 0 6.25-4.59 2.33 2.33 0 0 0 .53 0c1.8-.33 1.77-.32 2.07 1.53q.59 3.61 1.28 7.22a1.43 1.43 0 0 0 1.65 1.32c.86-.1 1.16-.71 1.12-1.53 0-.28 0-.57-.06-.85-.44-2.69-.87-5.38-1.35-8.07-.09-.49 0-.59.5-.68 3.53-.78 7.06-1.57 10.58-2.41.68-.16.75 0 .84.63q.47 3 1.07 6a1.32 1.32 0 0 0 1.8 1.17c.82-.21 1.14-1.11.89-2.43-.34-1.77-.66-3.55-1-5.33-.09-.51 0-.9.64-1 2.84-.44 5.59-1.33 8.43-1.74a1.27 1.27 0 0 0 1.3-1.63 1.24 1.24 0 0 0-1.4-1.15 8.69 8.69 0 0 0-1.9.19c-2.14.52-4.29 1-6.44 1.46-.36.08-.87.25-.93-.34-.22-1.94-.33-3.87-.49-5.87 0-.47.25-.57.67-.62 2.14-.28 4.28-.57 6.45-.65a27.71 27.71 0 0 0 3.27-.36 1.28 1.28 0 0 0 1.18-1.3 1.41 1.41 0 0 0-1-1.37 3.22 3.22 0 0 0-1.79-.13c-2.82.26-5.65.52-8.45.88-.76.1-.73-.19-.77-.71-.11-1.52-.22-3-.44-4.55-.12-.81-.58-1.5-1.57-1.4a1.59 1.59 0 0 0-1.34 1.88 42.71 42.71 0 0 1 .44 4.66c0 .64-.13.67-.65.73-1.33.14-2.66.35-4 .55-2.77.39-5.51 1-8.31 1.18z" fill="#cde9e8"/><path d="M83.33 37.18c-1.73.23-3.46.43-5.18.68-5.25.77-10.5 1.48-15.72 2.4-6.59 1.16-13.23 2.05-19.83 3.13-3.73.61-7.45 1.27-11.13 2.09-4.69 1-9.41 2-14.06 3.19-2.06.55-4.13 1-6.19 1.57-.36-1.43-.78-2.85-1-4.29-.36-2-.81-4.05-1.17-6.08a17.31 17.31 0 0 1-.52-3.8 3.59 3.59 0 0 0-.23-1c-.74-3.33 0-5.77 3.62-7.3a72 72 0 0 1 7.25-2.21c.3.49.77.32 1.15.21a13.24 13.24 0 0 1 3.59-.77c.28 0 .33-.21.35-.43l2.14-.43a17 17 0 0 1 .8 2.64c.33 2.24.89 4.51-1.3 6.3a2.33 2.33 0 0 0-.34 3.58c.89 1 2.26 1 3.55.09a8.12 8.12 0 0 0 3.27-5.43 17.31 17.31 0 0 0-.58-6.64c-.13-.58-.49-1.13-.23-1.76 2-.37 4.12-.65 6.15-1.14a30.45 30.45 0 0 1 5.35-.78c3.37-.18 6.7-.68 10-1.09a9.2 9.2 0 0 0 5-.46l4.26-.53a7.28 7.28 0 0 1 .67 3.65c.11 2.75.79 3.22-2.69 4.35a2.35 2.35 0 0 0-1.59 2.8 2.46 2.46 0 0 0 2.4 1.92 7.34 7.34 0 0 0 7-6.78 34.4 34.4 0 0 0-.58-6.48 49.93 49.93 0 0 1 8.29-.26 30.85 30.85 0 0 1 3.06.42c1.84.38 2.44 1.22 2.72 3.43.61 4.78 1.48 9.52 2.32 14.26.07.51.07.94-.6.95z" fill="#de133e"/><path d="M58.09 19.46a9.2 9.2 0 0 1-5 .46c0-1.17.1-2.35 0-3.52-.29-3.69 3.92-6.67 7.39-5.87 2.26.52 4.29 1.31 5.53 3.33a13.62 13.62 0 0 1 1.46 4.52 34.4 34.4 0 0 1 .58 6.48 7.34 7.34 0 0 1-7 6.78 2.46 2.46 0 0 1-2.4-1.92 2.35 2.35 0 0 1 1.59-2.8c3.48-1.13 2.8-1.6 2.69-4.35a7.28 7.28 0 0 0-.64-3.64c-.08-1.23-.08-2.53-1.45-3.14s-3-.45-2.84 1.66c.1.67.08 1.34.09 2.01zm-33.83 5.07c0 .22-.07.43-.35.43a13.24 13.24 0 0 0-3.63.79c-.38.11-.85.28-1.15-.21.06-1.28.11-2.56.16-3.83A4.81 4.81 0 0 1 22.5 17a5.84 5.84 0 0 1 6 1 9.43 9.43 0 0 1 2.41 3.93c.12.38.12.88.67 1-.26.63.1 1.18.23 1.76a17.31 17.31 0 0 1 .58 6.64 8.12 8.12 0 0 1-3.27 5.43c-1.29.95-2.66.92-3.55-.09A2.33 2.33 0 0 1 25.9 33c2.19-1.79 1.63-4.06 1.3-6.3a17 17 0 0 0-.8-2.64 5.13 5.13 0 0 0-.94-2.1c-.23-.29-.5-.55-.9-.41s-.3.52-.3.82c-.01.74 0 1.45 0 2.16z" fill="#c1bebf"/><path d="M53.54 49.83c2.8-.15 5.54-.79 8.31-1.18 1.33-.2 2.66-.41 4-.55.52-.06.69-.09.65-.73a42.71 42.71 0 0 0-.44-4.66 1.59 1.59 0 0 1 1.34-1.88c1-.1 1.45.59 1.57 1.4.22 1.51.33 3 .44 4.55 0 .52 0 .81.77.71 2.8-.36 5.63-.62 8.45-.88a3.22 3.22 0 0 1 1.79.13 1.41 1.41 0 0 1 1 1.37 1.28 1.28 0 0 1-1.18 1.3 27.71 27.71 0 0 1-3.27.36c-2.17.08-4.31.37-6.45.65-.42 0-.7.15-.67.62.15 1.94.27 3.89.46 5.83.06.59.57.42.93.34 2.15-.48 4.3-.94 6.44-1.46a8.69 8.69 0 0 1 1.9-.19A1.24 1.24 0 0 1 81 56.71a1.27 1.27 0 0 1-1.17 1.61c-2.84.41-5.59 1.3-8.43 1.74-.64.1-.73.49-.64 1 .32 1.78.64 3.56 1 5.33.25 1.32-.07 2.22-.89 2.43A1.32 1.32 0 0 1 69 67.65q-.6-3-1.07-6c-.09-.59-.16-.79-.84-.63-3.52.84-7 1.63-10.58 2.41-.45.09-.59.19-.5.68.48 2.69.91 5.38 1.35 8.07 0 .28 0 .57.06.85 0 .82-.26 1.43-1.12 1.53a1.43 1.43 0 0 1-1.65-1.32q-.69-3.6-1.28-7.22c-.3-1.85-.27-1.86-2.07-1.53a2.33 2.33 0 0 1-.53 0 27 27 0 0 0 4-6.22c.5.43.32 1.07.42 1.59.15.75.39.86 1.07.65s1.52-.33 2.28-.51c2.8-.63 5.6-1.28 8.4-1.9.4-.09.55-.28.51-.66q-.32-3.06-.62-6.13c0-.39-.2-.43-.57-.37-1.64.24-3.29.44-4.94.66a56.57 56.57 0 0 1-6.09.9 7.58 7.58 0 0 0-1.69-2.67z" fill="#a2cccb"/><path d="M53.54 49.83a7.58 7.58 0 0 1 1.72 2.73 11.72 11.72 0 0 1 .05 3.5 8.79 8.79 0 0 0-.51 2.27 27 27 0 0 1-4 6.22 20.59 20.59 0 0 1-6.25 4.59c-2.93 1.26-5.94 2-9.14 1.22a12.83 12.83 0 0 1-3.2-1.36 1.78 1.78 0 0 0-.8-.66l-1.74-2.29a11.12 11.12 0 0 1-.22-7.79 8.26 8.26 0 0 1 .31-.77 38.15 38.15 0 0 1 2.46-3.94 16.33 16.33 0 0 1 4.15-3.93c1.08-.58 2.15-1.06 3.19.08.32.36.65.08 1-.06a16.07 16.07 0 0 1 9.65-1.42 9.27 9.27 0 0 1 3.16 1.41zm-17.07 17.5a10.22 10.22 0 0 0 7.09-1.27 12.92 12.92 0 0 0 4.93-3.82 12.69 12.69 0 0 0 3.4-5.59c1.22-3.28-.18-5.3-3.6-5.43a12.8 12.8 0 0 0-9.46 3.37c-.61.55-1.44.92-2 .32-1-1.07-1.43-.32-2 .4-.2.29-.38.6-.56.9a5.84 5.84 0 0 0-1.5 2.56 4.68 4.68 0 0 0-.8 2.91 5.14 5.14 0 0 0 4.5 5.65z" fill="#549d3a"/><path d="M32.22 53.55a38.15 38.15 0 0 0-2.46 3.94 29.58 29.58 0 0 0-6.87 1.79 13.78 13.78 0 0 0-2.82 1.23 1.5 1.5 0 0 1-2.13-.51 1.79 1.79 0 0 1 1-2.23 48.28 48.28 0 0 1 9.3-3c1-.2 1.19-.52.93-1.45-.35-1.26-.54-2.56-.78-3.85a4.5 4.5 0 0 1 0-.64 1.34 1.34 0 0 1 1.14-1.55 1.4 1.4 0 0 1 1.62 1.22c.34 1.37.58 2.77.87 4.15-.02.29.11.59.2.9zM32.21 69a12.83 12.83 0 0 0 3.19 1.36 43.39 43.39 0 0 0 1.12 6.49c.06.31.12.62.15.94.09.82-.1 1.53-1 1.72s-1.46-.44-1.73-1.23a34.44 34.44 0 0 1-1.09-5.09 21.21 21.21 0 0 1-.64-4.19zm-2.54-2.95l1.74 2.29c-1.65.52-3.3 1.06-5 1.54-.59.17-1.1.5-1.66.72a1.52 1.52 0 0 1-2.05-.78c-.41-.89 0-1.45.79-1.79a20 20 0 0 1 6.18-1.98zm23.66-16.42a9.27 9.27 0 0 0-3.16-1.41 21.21 21.21 0 0 0-.62-3.44 1.63 1.63 0 0 1 .92-2 1.67 1.67 0 0 1 2 1.35 1 1 0 0 1 0 .1q.42 2.68.86 5.4z" fill="#a2cccb"/><path d="M54.8 58.33a8.79 8.79 0 0 1 .51-2.27 11.72 11.72 0 0 0-.05-3.5 56.57 56.57 0 0 0 6.09-.9c1.65-.22 3.3-.42 4.94-.66.37-.06.53 0 .57.37q.3 3.08.62 6.13c0 .38-.11.57-.51.66-2.8.62-5.6 1.27-8.4 1.9-.76.18-1.54.27-2.28.51s-.92.1-1.07-.65c-.1-.52.08-1.16-.42-1.59zm-2.91-1.68a12.69 12.69 0 0 1-3.4 5.59 3.31 3.31 0 0 0-.63 0c-4.24.78-8.47 1.55-12.7 2.39-.66.13-.93 0-1-.62-.22-1.25-.4-2.51-.69-3.74-.12-.52 0-1.18-.62-1.5a5.84 5.84 0 0 1 1.5-2.56 8.06 8.06 0 0 0 .85 0c5-1 9.89-2.05 14.87-2.84.94-.15 1.08.18 1.22.92s-.08 1.71.6 2.36z" fill="#cde9e8"/><path d="M32.81 58.77c.63.32.5 1 .62 1.5.29 1.23.47 2.49.69 3.74.11.61.38.75 1 .62 4.23-.84 8.46-1.61 12.7-2.39a3.31 3.31 0 0 1 .63 0 12.92 12.92 0 0 1-4.93 3.82 45 45 0 0 0-7.09 1.27A5.14 5.14 0 0 1 32 61.68a4.68 4.68 0 0 1 .81-2.91zm19.08-2.12c-.68-.67-.48-1.59-.64-2.4S51 53.18 50 53.33c-5 .79-9.92 1.88-14.87 2.84a8.06 8.06 0 0 1-.85 0c.18-.3.36-.61.56-.9.52-.72.93-1.47 2-.4.57.6 1.4.23 2-.32a12.8 12.8 0 0 1 9.46-3.37c3.41.17 4.81 2.19 3.59 5.47z" fill="#a2cccb"/><path d="M36.47 67.33a45 45 0 0 1 7.09-1.27 10.22 10.22 0 0 1-7.09 1.27z" fill="#cde9e8"/></svg>