<svg xmlns="http://www.w3.org/2000/svg" viewBox="0 0 256 256"><title>permissions</title><path d="M228.56,192.1c-4,.08-5.62-3.42-7.9-5.7-5.94-5.94-11.64-12-19.53-15.61a196.53,196.53,0,0,0-21.76-8.44A180.9,180.9,0,0,0,160,157c-6.52-1.35-13.23-1.81-19.85-2.71a24.71,24.71,0,0,0-6.43,0c-5,.64-9.51-.82-14-2.74.63,3.54-.24,5.24-3.72,5.46-5.87.37-11.73,1.37-17.65.8a5.27,5.27,0,0,0-2.39.34c-6.47,2.55-13.27,3.8-20,5.23-4.1.87-7.52,3.18-11.15,5.08-2.83,1.47-5.64,3-8.5,4.39-2,1-4,1-5.34-1s-.5-4,1.26-5.3c5.46-4,10.06-9,15.32-13.18a25.79,25.79,0,0,1,15.47-5.46c7.37-.26,14.76.08,22.12-.65.44,0,1-.13,1.33.1,3.31,2.64,7.44,1,11,2.19-.27-2.24-1.54-4.17-1.69-6.53a8.75,8.75,0,0,1,.92-4.68c1,.12,2,.25,2.93.4a308.53,308.53,0,0,1,45.11,10.32c17.53,5.34,32.84,14.83,48.55,24a2.52,2.52,0,0,0,3.76-2.16c-.43-17.09-5-33.53-9.42-49.94l-6.84-25.57c-1.12-4.22-2.22-8.43-3.61-12.54l.27-.12a26,26,0,0,0-.43-2.94,63.7,63.7,0,0,0-13.53-25.77c-5-5.79-10.55-9.9-18-11.31A3.53,3.53,0,0,1,162.4,40c0,3.43-1.91,4-4.83,3.3a11.66,11.66,0,0,0-4,0c-2.4.32-4.16-.26-4.84-2.81L127,41c-2.11,1.86-5,1.18-7.36,2.25a15.59,15.59,0,0,1-2.09.53c-4,1.25-4.2,1.12-3.72-3.14q.48-4.29,1.12-8.57c.42-2.78,3.75-5.85,6.45-5.68,3.11.19,4,3.06,5.38,5.2.37.56,0,1.49.82,1.9,1-3.56,2.5-6.7,5.63-9,5.9-4.24,12-2.09,13.79,4.93.2.78.41,1.56.62,2.34,2.27-2.94,5.91-2.65,8.95-3.71,2.19-.77,3.09,1.72,4.65,2.6a21.84,21.84,0,0,0-9.22-18c-3.89-2.91-8.24-5-13.11-4.65C127.3,9,119.65,15.36,115.33,26c-2,5-2,10.31-2.48,15.54-.14,1.49-.54,2.25-2,2.77-3.33,1.21-6.64,2.52-9.88,4-11.88,5.27-19.89,14.33-25.24,26l1.54.86a2,2,0,0,0-.29.45C70.55,89,67,103.46,64.91,118.22c-.54,3.85-1.44,9.28-1,14.07l-3.53.66c-.4,7.4-3.46,14.09-5.69,21a10.84,10.84,0,0,1-1,1.92,89.67,89.67,0,0,1-18.19,22,24.64,24.64,0,0,0-8.3,15.56c-.95,7.43-.06,14.45,5.67,20,2.41,2.33,5.09,4.36,7.36,6.86,2.87,3.17,6.91,4.61,10.45,6.82,6.11,3.82,12.19,7.65,18.91,10.33,11.41,4.56,22.87,9,35.28,10a228.4,228.4,0,0,0,42-.81c13.32-1.45,26.27-4.91,39.22-8.23a40.86,40.86,0,0,0,14.83-6.74A54.09,54.09,0,0,1,212,225.27a37.85,37.85,0,0,0,7.66-4.69c7.68-5.79,8.57-14.29,9.49-22.81A12.31,12.31,0,0,0,228.56,192.1ZM100.66,56.66a16.69,16.69,0,0,1,10-3.11c2.9.1,4.22,1.59,4.27,4.52a8.88,8.88,0,0,1-2.08,5.82c-4,4.9-7,10.42-10.73,15.49a6.43,6.43,0,0,0,3.06,1.6,91.32,91.32,0,0,0-8.44,9.16c-3,3.6-9.92,12.78-14.69,6.68-1.86-2.37-1.09-6.22-1-9.06q.28-5.49.56-11a2.13,2.13,0,0,0-.62-1.63,43.52,43.52,0,0,1,4.75,1C89,68.26,93.5,61.46,100.66,56.66ZM211.19,202.25c-1.8,6.12-4.74,11.47-10.22,15.12-3.51,2.35-7.61,3.38-11.38,5.18-10.63,5.08-22.06,7.57-33.43,10.36-10.86,2.67-21.8,2.8-32.78,2.36a172.94,172.94,0,0,1-36.29-4.85c-7-1.79-13.85-3.79-20-7.69a16.71,16.71,0,0,0-4-1.74c-4.33-1.33-6.19-5.74-10-7.79s-5.87-5.83-8-9.47c-.9-1.55-.74-3-.43-4.7a11.86,11.86,0,0,1,6.68-8.89c4.9-2.56,9.62-5.47,14.44-8.2a13.9,13.9,0,0,1,2-.77C70,179,73,178.09,75.73,177c15-5.86,30.57-9.34,46.82-8.42,7.51.42,15,1.09,22.47,2.09,9.16,1.22,18.32,2.57,27.31,4.62,7.29,1.65,14.65,3.49,21.4,7,1,.49,2.11.75,2.3,2.09,4.67,1.1,8.66,3.19,11,7.63,1.43,2.73,2.79,5.49,4.28,8.18C211.77,201,211.38,201.59,211.19,202.25Z" fill="#f6cb54"/><path d="M162.29,38.33c-1.42-.71-1.07-1.7-.42-2.73A3.26,3.26,0,0,1,162.29,38.33Z" fill="#f6cb54"/><path d="M161.77,34.5c-1.47-.71-1.11-1.7-.43-2.74C162.05,32.58,161.86,33.55,161.77,34.5Z" fill="#f6cb54"/><path d="M204.1,128.63a.78.78,0,0,1,1-.42C204.94,128.75,204.63,129,204.1,128.63Z" fill="#f0b74b"/><path d="M196,184.37c4.67,1.1,8.66,3.19,11,7.63,1.43,2.73,2.79,5.49,4.28,8.18.45.82.06,1.41-.13,2.07-1.8,6.12-4.74,11.47-10.22,15.12-3.51,2.35-7.61,3.38-11.38,5.18-10.63,5.08-22.06,7.57-33.43,10.36-10.86,2.67-21.8,2.8-32.78,2.36a172.94,172.94,0,0,1-36.29-4.85c-7-1.79-13.85-3.79-20-7.69a16.71,16.71,0,0,0-4-1.74c-4.33-1.33-6.19-5.74-10-7.79s-5.87-5.83-8-9.47c-.9-1.55-.74-3-.43-4.7a11.86,11.86,0,0,1,6.68-8.89c4.9-2.56,9.62-5.47,14.44-8.2a13.9,13.9,0,0,1,2-.77c-.55,6.75,2.11,12.72,8,15.13,7.5,3.09,15.16,6.84,23.76,6.23a21.52,21.52,0,0,0,10.1,15.37c3.1,1.93,6,4.66,9.89,4.81,14.56.55,26.18-5.13,34.76-16.93,5.48-.49,11-.77,16.39-1.93,2.1-.45,4.25-.08,6.35-1.16,4.8-2.45,9-5.79,13.15-9.06A16.24,16.24,0,0,0,196,184.37Z" fill="#ef9b3a"/><path d="M99.55,202.53c-8.6.61-16.26-3.14-23.76-6.23-5.87-2.41-8.53-8.38-8-15.13C70,179,73,178.09,75.73,177c15-5.86,30.57-9.34,46.82-8.42,7.51.42,15,1.09,22.47,2.09,9.16,1.22,18.32,2.57,27.31,4.62,7.29,1.65,14.65,3.49,21.4,7,1,.49,2.11.75,2.3,2.09a16.24,16.24,0,0,1-5.84,9.26c-4.2,3.27-8.35,6.61-13.15,9.06-2.1,1.08-4.25.71-6.35,1.16-5.39,1.16-10.91,1.44-16.39,1.93,0-.55,0-1.1,0-1.64.79-6.44,1.67-12.85-3.43-18.25-2.65-2.8-5.52-5.37-9.22-6.3-5.45-1.36-11.13-1.23-16.71-1.66-4.65-.35-9.11,1.25-13.62,2.14a7.58,7.58,0,0,0-4,2.3A26.31,26.31,0,0,0,99.55,202.53Z" fill="#c87539"/><path d="M68.33,131.45c4.3-1.57,8.52-3.43,13.18-3.74a33.35,33.35,0,0,1-3.43,8.2,5.16,5.16,0,0,1-9.28-1.25A9,9,0,0,1,68.33,131.45Z" fill="#f0b44a"/><path d="M158.09,78.19a9.74,9.74,0,0,1,8.22-5.37c1.45-.14,2.94.14,4.37,0,6.2-.84,11.14,1.65,15.58,5.62a4.26,4.26,0,0,1,1.42,2.55L186,81c-1.41-.45-2.7-1.37-4.3-1-3.06-1-6.3-.46-9.42-1l-3.18-.08C165.43,78.53,161.71,79.2,158.09,78.19Z" fill="#f0b44a"/><path d="M127.32,35a2.64,2.64,0,0,1-.12-.4s.12-.09.18-.14Z" fill="#f6cb54"/><path d="M65,136.83c2.23-20.76,5-43.47,15.86-61.78,1.65-2.77-2.67-5.29-4.32-2.53C65.14,91.65,62.3,115.14,60,136.83c-.35,3.2,4.65,3.17,5,0Z" fill="#f6cb53"/><path d="M83,70c-3,6.82-12.4,31.11,3.18,30.53,6.25-.23,10.52-5.35,13.92-10,5.32-7.2,9.78-15,17.41-20.07,2.67-1.77.17-6.11-2.52-4.32-8.41,5.59-13.33,13.93-19.21,21.87-1.75,2.37-3.48,4.76-6.12,6.2-1.73,1-4.41,2.08-6.23.42-.9-.82-1.07-3-1.11-4.19-.14-5.7,2.76-12.87,5-18,1.28-2.92-3-5.47-4.32-2.53Z" fill="#f6cb53"/><path d="M141.67,179.59c-5.45-1.36-11.13-1.23-16.71-1.66-4.65-.35-9.11,1.25-13.62,2.14a7.58,7.58,0,0,0-4,2.3,26.31,26.31,0,0,0-7.84,20.16,21.52,21.52,0,0,0,10.1,15.37c3.1,1.93,6,4.66,9.89,4.81,14.56.55,26.18-5.13,34.76-16.93,0-.55,0-1.1,0-1.64.79-6.44,1.67-12.85-3.43-18.25C148.24,183.09,145.37,180.52,141.67,179.59Z" fill="#f0b84a"/><path d="M153.53,43.27a11.66,11.66,0,0,1,4,0c2.92.66,4.8.13,4.83-3.3l-.11-1.66c-1.42-.71-1.07-1.7-.42-2.73,0-.37-.06-.74-.1-1.1-1.47-.71-1.11-1.7-.43-2.74,0-.37-.09-.73-.13-1.1-1.56-.88-2.46-3.37-4.65-2.6-3,1.06-6.68.77-8.95,3.71l1.08,8.69C149.37,43,151.13,43.59,153.53,43.27Z" fill="#f0b84a"/><path d="M117.52,43.74a15.59,15.59,0,0,0,2.09-.53c2.36-1.07,5.25-.39,7.36-2.25q.18-3,.35-5.94a2.64,2.64,0,0,1-.12-.4s.12-.09.18-.14c.06-.34.13-.69.19-1-.81-.41-.45-1.34-.82-1.9-1.41-2.14-2.27-5-5.38-5.2-2.7-.17-6,2.9-6.45,5.68s-.8,5.71-1.12,8.57C113.32,44.86,113.51,45,117.52,43.74Z" fill="#f0b84a"/><path d="M227.69,189.59q-3.19-6.79-6.43-13.56a2.82,2.82,0,0,0-.3-1.25c-2.11-4.32-2.45-9-3.58-13.64a67.33,67.33,0,0,0-4.57-11.66c-4.3-9.46-6.77-19.68-9.71-29.63-2.66-9-5-18.25-8.14-27.11-2.41-6.76-5.78-12.86-11.87-16.91a2.12,2.12,0,0,0-2.74.17c-8.32-3.75-20.61-4.37-23.3,4.33l0,.11-.43.6A34.77,34.77,0,0,0,150,92.51c-2,4.35-3.61,8.86-5.09,12.94-2.1,5.77-4.83,12.18-5.94,18.32-2.46,2.37-5.67,3.78-8.58,5.46-3.36,1.94-7,3.43-10.25,5.59a8.63,8.63,0,0,0-4.28,8.23c.15,2.36,1.42,4.29,1.69,6.53l2.25,2c4.45,1.92,9,3.38,14,2.74a24.71,24.71,0,0,1,6.43,0c6.62.9,13.33,1.36,19.85,2.71a180.9,180.9,0,0,1,19.33,5.31,196.53,196.53,0,0,1,21.76,8.44c7.89,3.65,13.59,9.67,19.53,15.61,2.28,2.28,3.86,5.78,7.9,5.7A4.6,4.6,0,0,0,227.69,189.59Z" fill="#f0b84a"/><path d="M83.46,106.38c-10.66-5.1-15.12,20.51-15,25.61,0,1.79,1.76,2.58,3.31,2.39a2.74,2.74,0,0,0,3.86,1.1c5.38-3,6.78-10.78,8.5-15.75C85.39,116,88.89,109,83.46,106.38Z" fill="#f0b84a"/></svg>