<svg xmlns="http://www.w3.org/2000/svg" viewBox="0 0 256 256"><title>permissions off</title><path d="M228.56,192.1a12.31,12.31,0,0,1,.55,5.67c-.92,8.52-1.81,17-9.49,22.81a37.85,37.85,0,0,1-7.66,4.69,54.09,54.09,0,0,0-11.12,6.34A40.86,40.86,0,0,1,186,238.35c-12.95,3.32-25.9,6.78-39.22,8.23a228.4,228.4,0,0,1-42,.81c-12.41-.95-23.87-5.41-35.28-10-6.72-2.69-12.8-6.52-18.91-10.34-3.54-2.21-7.58-3.65-10.45-6.82-2.27-2.5-4.95-4.53-7.36-6.86-5.73-5.51-6.62-12.53-5.67-20a24.64,24.64,0,0,1,8.3-15.56,89.67,89.67,0,0,0,18.19-22,10.84,10.84,0,0,0,1-1.92c2.23-6.9,5.29-13.59,5.69-21l8-1.5a9,9,0,0,0,.47,3.21,5.16,5.16,0,0,0,9.28,1.25,33.35,33.35,0,0,0,3.43-8.2c2.26-.34,4.46-1.08,6.79-.91a1.08,1.08,0,0,0,1.43-.49c2.07-.46,4.07-1.3,6.25-1.13a1.07,1.07,0,0,0,1.4-.49l.81,0a1.08,1.08,0,0,0,1.37-.46l1.35-.1c.62.17,1.14.11,1.39-.59,12.83-2.62,25.85-2.2,38.83-2.49-2.43,4.23-6.86,6-10.74,8.22-3.36,1.94-7,3.43-10.25,5.59a8.63,8.63,0,0,0-4.28,8.23c.15,2.36,1.42,4.29,1.69,6.53-3.59-1.14-7.72.45-11-2.19-.29-.23-.89-.14-1.33-.1-7.36.73-14.75.39-22.12.65A25.79,25.79,0,0,0,67.6,153.4c-5.26,4.2-9.86,9.18-15.32,13.18-1.76,1.28-2.57,3.26-1.26,5.3s3.35,2,5.34,1c2.86-1.41,5.67-2.92,8.5-4.39,3.63-1.9,7-4.21,11.15-5.08,6.76-1.43,13.56-2.68,20-5.23a5.27,5.27,0,0,1,2.39-.34c5.92.57,11.78-.43,17.65-.8,3.48-.22,4.35-1.92,3.72-5.46,4.45,1.92,9,3.38,14,2.74a24.71,24.71,0,0,1,6.43,0c6.62.9,13.33,1.36,19.85,2.71a180.9,180.9,0,0,1,19.33,5.31,196.53,196.53,0,0,1,21.76,8.44c7.89,3.65,13.59,9.67,19.53,15.61C222.94,188.68,224.52,192.18,228.56,192.1ZM196,184.37c-.19-1.34-1.35-1.6-2.3-2.09-6.75-3.49-14.11-5.33-21.4-7-9-2.05-18.15-3.4-27.31-4.62-7.47-1-15-1.67-22.47-2.09-16.25-.92-31.77,2.56-46.82,8.42-2.76,1.08-5.69,2-7.92,4.16a13.9,13.9,0,0,0-2,.77c-4.82,2.73-9.54,5.64-14.44,8.2A11.86,11.86,0,0,0,44.68,199c-.31,1.7-.47,3.15.43,4.7,2.11,3.64,4.17,7.4,8,9.47s5.65,6.46,10,7.79a16.71,16.71,0,0,1,4,1.74c6.18,3.9,13.08,5.9,20,7.69a172.94,172.94,0,0,0,36.29,4.85c11,.44,21.92.31,32.78-2.36,11.37-2.79,22.8-5.28,33.43-10.36,3.77-1.8,7.87-2.83,11.38-5.18,5.48-3.65,8.42-9,10.22-15.12.19-.66.58-1.25.13-2.07-1.49-2.69-2.85-5.45-4.28-8.18C204.69,187.56,200.7,185.47,196,184.37Z" fill="#f6cb53"/><path d="M100.91,124.09l-1.35.1c-.72-.62-1-.08-1.37.46l-.81,0c-.75-.64-1.06,0-1.4.49-2.18-.17-4.18.67-6.25,1.13-.75-.62-1.09-.06-1.43.49-2.33-.17-4.53.57-6.79.91-4.66.31-8.88,2.17-13.18,3.74l-8,1.5c-3.38-.25-7,0-8.67-4a21.6,21.6,0,0,1,.88-3.13,2.34,2.34,0,0,1,3.38-1.37c4,2.12,7.58.2,11.27-.84a1.31,1.31,0,0,0,1-1.41c-.11-3.12-5-6.49-8-5.63-1.65.48-3.92,2.38-4.83-.47-.85-2.66,2-3,3.63-3.35,2.4-.58,3.18-2,3.22-4.18a14.86,14.86,0,0,0-.21-4.33,2.4,2.4,0,0,1,1.85-3.33c1.75-.36,2.15,1.15,2.24,2.67a36.65,36.65,0,0,1-.63,7.23,112.57,112.57,0,0,0,10.8-5.09c.68-.33,1.3-.69,1.07-1.63-.61-2.47-.11-5.08-1-7.53-.39-1-1.16-2.42.61-2.91,1.46-.39,2.33.53,2.87,1.89.76,2,.54,4,.51,5.94s.58,2,2.07,1.22c2.25-1.2,4.52-2.38,6.85-3.39,4.33-1.87,4.35-1.82,4.21-6.26,0-1,.34-2.11-1.6-1.94-1.29.12-2-1.14-1.33-2.57a3,3,0,0,1,2.87-2.1,2.76,2.76,0,0,1,2.85,2,11.48,11.48,0,0,1,.51,4.85c-.1,2.07.43,3,2.65,2,1.75-.75,3.6-1.25,5.37-2,2.72-1.08,4.29-5.06,2.49-7.37-1.34-1.72-1.09-3.09-.57-4.76a3.45,3.45,0,0,1,3.66-.57c1.49,2.8,1.18,5.84,1.16,8.83,0,1.39.28,2,1.91,1.54,2.34-.7,4.74-1.18,7.14-1.68a2.13,2.13,0,0,0,1.92-2.49c-.07-1.73,0-3.46,0-5.19a1.65,1.65,0,0,1,3.28-.29c.24,1.41.76,2.76.2,4.27-.61,1.67,0,2.53,2,2.47,2.19-.07,4.3-.92,6.5-.58,2.35.36,2.91-.7,2.89-2.91s-1.41-4.66.56-6.74h1.48a11.55,11.55,0,0,1,1.39,7.29c-.33,2.27.56,2.8,2.38,2.84,2.63.06,5.27,0,7.89.08,1.76.08,2.12-.71,2.13-2.27,0-2.51-.41-5.08.58-7.53l2.1,0a7.55,7.55,0,0,1,.88,6,13.21,13.21,0,0,0-.28,3c0,.7.2,1.31,1,1.35,3.17.15,6.31,1,9.5.55,2.08-.28,4.24-4.73,2.74-5.82-2.09-1.54-1.55-2.85-.64-4.5l3.18.08a8.72,8.72,0,0,1,.56,9.25c-.61,1.24-.65,1.94,1.06,2.19,2.23.32,4.41,1,6.62,1.46,3.28.7,4.76-.78,4.18-4.16a5.17,5.17,0,0,0-2-3.72,2.82,2.82,0,0,1-1-4c1.6-.32,2.89.6,4.3,1,.7,2.58,2.59,4.74,2.32,7.72-.12,1.33-1.34,3.09,0,4,1,.75,2.77.57,4.2.77s2.74-.11,3.39-1.61,1.36-3.67-.1-4.78c-2.05-1.56-1.3-2.81-.39-4.34l1.49.26.64.67.59,0c2.55,1.72,2.43,4.31,1.93,6.81-.31,1.55,0,2.08,1.5,1.89a6.27,6.27,0,0,1,5.44,1.7c0,.65.17,1.33-.52,1.76l-1.32,2.91-1.47.85-7.24,1.6c-5.48-.72-11.06-1-16.43-2.24-14.35-3.26-28.94-3.61-43.53-4.12-4.5.32-5.1,1-4.24,5.5a3.15,3.15,0,0,1-1,3.21c-1,.81-1.17,1.38-.39,2.45a8.31,8.31,0,0,1,1.55,5.68c-.12,1.51.43,2.16,2,2.09,2.19-.1,4.38,0,6.57,0a3.9,3.9,0,0,0,4-4.82c-.11-.59-.26-.83-1-1-2.37-.46-4-2.38-5.31-4-1.54-2-1.22-4.65.31-6.9a4.42,4.42,0,0,1,2.64,1,37,37,0,0,0,.15,4.09c.11.8.27,1.69,1.7,1.55,3.09-.3,4.66,1.21,4.78,4.3.05,1.18,0,2.36,0,3.55s.27,1.85,1.49,1.71c2.3-.24,4.49.62,6.77.59,3.25,0,4.28-1.23,3.51-4.38a16.58,16.58,0,0,1-.75-6.44,3.87,3.87,0,0,1,3.25.34c-.28,1.81.73,3.34,1.07,5,.42,2.13-1.26,4.92.86,6.32,1.77,1.17,4.31,1.17,6.52,1.69.26.06.53.11.79.15a1.55,1.55,0,0,0,1.92-1.12c.55-1.9,1.42-3.89.57-5.83a5.38,5.38,0,0,1,.3-5.07l1.57.06c2.09,3.49,2.08,7.23,1.33,11.06-.14.71-.38,1.35.41,1.93,2.71,2,5.22,1.45,6.79-1.53a10.29,10.29,0,0,0,1.37-5.49,7.24,7.24,0,0,1,.56-4,3.74,3.74,0,0,1,2.75.66c-.05,4.15.55,8.42-2.35,12-.34.42-.24.77.22,1.11a3.65,3.65,0,0,0,4.79-.72,9,9,0,0,0,2.25-6.24c-.11-1.41.39-2.77,2-2.69s1.33,1.67,1.32,2.8c0,1.52.23,3.06-.44,4.56-.37.84-1.59,1.8-.68,2.6.58.52,1.9.28,2.88.23a7.8,7.8,0,0,0,1.83-.5c2.7-.83,5-.17,5.61,1.63.83,2.32-.28,3.63-3.1,5.12-1.66.87-3.85.11-5.07,1.92a17.73,17.73,0,0,0-4.82-.35,25.82,25.82,0,0,0-6.2-.46c-.36,0-.76.46-1.09.76-1.71,1.61-2,3.74-.71,5,2.83,2.84,6.47,3.23,8.47.85.85-1,1.52-2.75,3.13-1.58s.36,2.58-.38,3.8c-.14.23-.31.45-.46.67-2.11,3-2.11,3,1.29,5.06.15.1.34.13.48.24,3.65,2.72,3.7,2.77,6.79-.44,1-1,1.93-1.52,3.28-.88a.35.35,0,0,1,.25.34,5.75,5.75,0,0,1-2.3,4.71c-2.5,2.16-2.53,2.5.11,4.52a9.09,9.09,0,0,1,1.52,1.13c1.69,1.93,3.2,2.85,4.46-.39a1.58,1.58,0,0,1,2.28-.84c1,.44,1.07,1.45.84,2.34a10.62,10.62,0,0,1-1,1.9c-.47.89-1.77,1.75-.6,2.83,1.42,1.29,2.27,3.58,4.55,3.52,4.15-.1,5.18,1,4.26,5-.82,1.93-2.72,2.28-4.37,3-4.68-.29-7.28-3.8-10.19-6.73a228.83,228.83,0,0,0-17.83-16.43,180.63,180.63,0,0,0-31.47-20.46c-5.58-2.88-11-6.21-17.69-5.17-13,.29-26-.13-38.83,2.48C101.6,123.15,101.22,123.54,100.91,124.09ZM88,108.83l-1.64.6a3.78,3.78,0,0,0-2.31.68c-.5.29-1,.78-.31,1.21a12.55,12.55,0,0,1,4.64,5.18c.32.63,1,.64,1.69.65,2.82,0,5.52-.83,8.28-1.22,1.3-.19,1.21-1.39,1.2-2.4,0-.7-.22-1.43-1.05-1.19-1.43.4-2.56.16-3.18-1.2-.74-1.6,1.21-2,1.57-3.14l2.1-.25c2.74,1.23,4.6,3,4.41,6.34-.1,1.76,1.35,1.47,2.34,1.32a49.06,49.06,0,0,1,7.22-1c1.09,0,1.39-.61,1.38-1.57,0-1.56-.49-3.15-1.94-3.6-2.28-.72-1.81-2-1.34-3.58a4.85,4.85,0,0,1,3.22-.45c1,2,2.67,3.59,3.57,5.71.49,1.16-.7,3.29,1.67,3.46a35.25,35.25,0,0,0,4.36,0c.8,0,1.59-.36,2.39-.44,2.86-.27,3.47-1.34,2.44-4.11-.47-1.27-1.92-2.23-1.69-3.62.31-1.89-.77-1.57-1.85-1.61-3-.11-6.1,1.17-9.14,0l-6.61-2.75a3.66,3.66,0,0,0-4.23-.63c-3,1.15-6.22,1.88-9.06,3.34S90,106.11,88,108.83ZM73.1,121.4c3.29-.93,6.44-1.77,9.54-2.74.68-.22,1.9-.09,1.9-1.17a3.09,3.09,0,0,0-1.43-2.23c-1.87-1.41-6.23-1.69-8.22-.53-.54.31-1.12.57-1.68.84-1,.47-1.54,5-.71,5.64A1.55,1.55,0,0,0,73.1,121.4Zm53.23-25.58c-1.53.7-5,0-5.41,1.62s3,1.88,4.48,3.06a1.79,1.79,0,0,0,.24.12c1.76,1,2.5.51,2.37-1.49a4.12,4.12,0,0,1,.24-1.6C128.79,96.07,128.1,95.71,126.33,95.82Zm56.38,31.74c-.11-.25-.17-.77-.38-.84a62.76,62.76,0,0,0-6.24-1.85c-.91-.2-1,.55-.49,1.21a17.66,17.66,0,0,0,3.68,3.22c.66.46,1.19,1.25,2.13.74S182.16,128.43,182.71,127.56Z" fill="#cb2423"/><path d="M139.41,78h-1.48c-1.08-.09-2.16-.2-3.25-.26-8.27-.4-16.2,1.88-24.27,3a3.45,3.45,0,0,0-3.66.57,7.93,7.93,0,0,1-4.62-1.9c3.71-5.07,6.76-10.59,10.73-15.49a8.88,8.88,0,0,0,2.08-5.82c0-2.93-1.37-4.42-4.27-4.52a16.69,16.69,0,0,0-10,3.11C93.5,61.46,89,68.26,85.8,76.13c-2.7-.64-5.39-1.44-8.23-.91l-1.8-1c5.35-11.64,13.36-20.7,25.24-26,3.24-1.44,6.55-2.75,9.88-4,1.42-.52,1.82-1.28,2-2.77.48-5.23.46-10.56,2.48-15.54,4.32-10.61,12-17,23.55-17.93,4.87-.38,9.22,1.74,13.11,4.65a21.84,21.84,0,0,1,9.22,18c-1.56-.88-2.46-3.37-4.65-2.6-3,1.06-6.68.77-8.95,3.71-.21-.78-.42-1.56-.62-2.33-1.77-7-7.89-9.18-13.79-4.94-3.13,2.25-4.67,5.39-5.63,9-.81-.41-.45-1.34-.82-1.9-1.41-2.14-2.27-5-5.38-5.2-2.7-.17-6,2.9-6.45,5.68s-.8,5.71-1.12,8.57c-.48,4.26-.29,4.39,3.72,3.14a15.59,15.59,0,0,0,2.09-.53c2.36-1.07,5.25-.39,7.36-2.25l21.72-.5c.68,2.55,2.44,3.13,4.84,2.81a11.66,11.66,0,0,1,4,0c2.92.66,4.8.13,4.83-3.3a3.53,3.53,0,0,0,3.15,2.76c7.47,1.41,13,5.52,18,11.31A63.7,63.7,0,0,1,197.1,79.83a26,26,0,0,1,.43,2.94l-.66.3-1.49-.26c-2.44-1.13-5.26-.7-7.7-1.87a4.26,4.26,0,0,0-1.42-2.55c-4.44-4-9.38-6.46-15.58-5.62-1.43.19-2.92-.09-4.37,0a9.74,9.74,0,0,0-8.22,5.37l-2.21.15-2.1,0C149,78.31,144.22,77.3,139.41,78Z" fill="#f6cb54"/><path d="M141.13,121c6.71-1,12.11,2.29,17.69,5.17a180.63,180.63,0,0,1,31.47,20.46,228.83,228.83,0,0,1,17.83,16.43c2.91,2.93,5.51,6.44,10.19,6.73q4.69,9.88,9.38,19.79a4.6,4.6,0,0,1,.87,2.51c-4,.08-5.62-3.42-7.9-5.7-5.94-5.94-11.64-12-19.53-15.61a196.53,196.53,0,0,0-21.76-8.44A180.9,180.9,0,0,0,160,157c-6.52-1.35-13.23-1.81-19.85-2.71a24.71,24.71,0,0,0-6.43,0c-5,.64-9.51-.82-14-2.74l-2.25-2c-.27-2.24-1.54-4.17-1.69-6.53a8.63,8.63,0,0,1,4.28-8.23c3.23-2.16,6.89-3.65,10.25-5.59C134.27,127,138.7,125.24,141.13,121Z" fill="#f0b84a"/><path d="M77.57,75.22c2.84-.53,5.53.27,8.23.91,2.31,1,4.84,1.17,7.22,1.87-1,1.77-2.74,3.19-2.27,5.57.15.75.26,1.44,1.09,1.68a1.45,1.45,0,0,0,1.78-.91c.65-2,2.55-3.6,2.06-6,2.27-.41,4.18,1.44,6.45,1a7.93,7.93,0,0,0,4.62,1.9c-.52,1.67-.77,3,.57,4.76,1.8,2.31.23,6.29-2.49,7.37-1.77.7-3.62,1.2-5.37,2-2.22,1-2.75,0-2.65-2a11.48,11.48,0,0,0-.51-4.85,2.76,2.76,0,0,0-2.85-2,3,3,0,0,0-2.87,2.1c-.65,1.43,0,2.69,1.33,2.57,1.94-.17,1.57.9,1.6,1.94.14,4.44.12,4.39-4.21,6.26-2.33,1-4.6,2.19-6.85,3.39-1.49.79-2.1.62-2.07-1.22s.25-4-.51-5.94c-.54-1.36-1.41-2.28-2.87-1.89-1.77.49-1,1.88-.61,2.91.91,2.45.41,5.06,1,7.53.23.94-.39,1.3-1.07,1.63a112.57,112.57,0,0,1-10.8,5.09,36.65,36.65,0,0,0,.63-7.23c-.09-1.52-.49-3-2.24-2.67a2.4,2.4,0,0,0-1.85,3.33,14.86,14.86,0,0,1,.21,4.33c0,2.15-.82,3.6-3.22,4.18-1.65.4-4.48.69-3.63,3.35.91,2.85,3.18,1,4.83.47,3-.86,7.87,2.51,8,5.63a1.31,1.31,0,0,1-1,1.41c-3.69,1-7.28,3-11.27.84a2.34,2.34,0,0,0-3.38,1.37,21.6,21.6,0,0,0-.88,3.13c-1.28-2.38.91-4.27.94-6.47,0-.68.44-1.28,0-2-2.68-4.47-2.28-8.25,1-12.62,3-3.95,7-6.5,10.92-9.34.72-.53,1.4-1.12,2.1-1.68,3.89-1,7-3.44,10.42-5.34,2.79.49,5-.86,7.44-2,1.48-.7,4.21-.64,4.25-2.07s-2.53-2-4.15-2.47c-1.46-.38-1.56-1-1-2.09a5.3,5.3,0,0,1,1.72-2.39c.8-.49,2-1,1.2-2.27s-2.14-1.19-3.36-.46c-1.75,1-2.48,2.81-3.14,4.62-.27.73-.32,2-1.37,1.69-1.54-.42-3.51.28-4.57-1.28-.77-1.13.51-1.91,1-2.84C75.91,78.36,78.44,77.68,77.57,75.22Z" fill="#e74e40"/><path d="M189.33,107.23a3.74,3.74,0,0,0-2.75-.66c-3.47-.74-6.81-2.2-10.46-2l-1.58-.06c-3.92-1.26-8-1.15-12-1.16a3.87,3.87,0,0,0-3.25-.34c-5.64.27-11-.62-15.75-3.94a19.33,19.33,0,0,0-1.9-1,4.35,4.35,0,0,0-2.64-.95c-.55-1.07-2.29-.76-2.52-2.19,14.59.51,29.18.86,43.53,4.12,5.37,1.22,10.95,1.52,16.43,2.24a10.23,10.23,0,0,0,3.77.49c.16,3.12.33,6.23.49,9.35C196.87,109.91,193.37,107.79,189.33,107.23Z" fill="#f0b74b"/><path d="M77.57,75.22c.87,2.46-1.66,3.14-2.5,4.69-.5.93-1.78,1.71-1,2.84,1.06,1.56,3,.86,4.57,1.28,1.05.28,1.1-1,1.37-1.69.66-1.81,1.39-3.57,3.14-4.62,1.22-.73,2.49-.9,3.36.46s-.4,1.78-1.2,2.27a5.3,5.3,0,0,0-1.72,2.39c-.6,1.13-.5,1.71,1,2.09,1.62.44,4.19,1,4.15,2.47s-2.77,1.37-4.25,2.07c-2.39,1.13-4.65,2.48-7.44,2l-4.27-.55a4.31,4.31,0,0,0-3.23-1.1,7.68,7.68,0,0,1-5-1.89,3.09,3.09,0,0,1-1-3.66,3,3,0,0,1,3.1-2.18,8.89,8.89,0,0,1,2.14.26c1.18.39,1.62,0,1.76-1.18a18.43,18.43,0,0,1,2.22-6,.66.66,0,0,1,.46-.19,1,1,0,0,0,1.13-.49l1.42-.24Z" fill="#cb2423"/><path d="M162.4,40c0,3.43-1.91,4-4.83,3.3a11.66,11.66,0,0,0-4,0c-2.4.32-4.16-.26-4.84-2.81l-1.08-8.69c2.27-2.94,5.91-2.65,8.95-3.71,2.19-.77,3.09,1.72,4.65,2.6,0,.37.09.73.13,1.1-.68,1-1,2,.43,2.74l.1,1.1c-.65,1-1,2,.42,2.73C162.33,38.88,162.37,39.44,162.4,40Z" fill="#f0b84a"/><path d="M189.33,107.23c4,.56,7.54,2.68,11.35,3.9,5.11,2.37,7.41,6.53,7.43,12,0,2.18-.76,4.12-3,5.08a.78.78,0,0,0-1,.42l-1.29.49-4.26-.05c1.22-1.81,3.41-1,5.07-1.92,2.82-1.49,3.93-2.8,3.1-5.12-.64-1.8-2.91-2.46-5.61-1.63a7.8,7.8,0,0,1-1.83.5c-1,0-2.3.29-2.88-.23-.91-.8.31-1.76.68-2.6.67-1.5.41-3,.44-4.56,0-1.13.35-2.73-1.32-2.8s-2.07,1.28-2,2.69a9,9,0,0,1-2.25,6.24,3.65,3.65,0,0,1-4.79.72c-.46-.34-.56-.69-.22-1.11C189.88,115.65,189.28,111.38,189.33,107.23Z" fill="#e74f40"/><path d="M208.33,141.78c-1.35-.64-2.27-.16-3.28.88-3.09,3.21-3.14,3.16-6.79.44-.14-.11-.33-.14-.48-.24-3.4-2.06-3.4-2.06-1.29-5.06.15-.22.32-.44.46-.67.74-1.22,2-2.61.38-3.8s-2.28.56-3.13,1.58c-2,2.38-5.64,2-8.47-.85-1.3-1.3-1-3.43.71-5,.33-.3.73-.76,1.09-.76a25.82,25.82,0,0,1,6.2.46,52.4,52.4,0,0,1,7.21,6.18c.78.86,1.51,1.86,2.79,2.08Z" fill="#e74f40"/><path d="M222.68,166.81c.92-4-.11-5.07-4.26-5-2.28.06-3.13-2.23-4.55-3.52-1.17-1.08.13-1.94.6-2.83a10.62,10.62,0,0,0,1-1.9c.23-.89.21-1.9-.84-2.34a1.58,1.58,0,0,0-2.28.84c-1.26,3.24-2.77,2.32-4.46.39a9.09,9.09,0,0,0-1.52-1.13c-2.64-2-2.61-2.36-.11-4.52a5.75,5.75,0,0,0,2.3-4.71,50.49,50.49,0,0,1,11.2,11.4c1.72,2.55,3.16,5.09,3.15,8.24a6.32,6.32,0,0,0,.63,2.32C224,165.14,224,166.24,222.68,166.81Z" fill="#e74f40"/><path d="M72.76,75.13a18.43,18.43,0,0,0-2.22,6c-.14,1.22-.58,1.57-1.76,1.18a8.89,8.89,0,0,0-2.14-.26,3,3,0,0,0-3.1,2.18,3.09,3.09,0,0,0,1,3.66,7.68,7.68,0,0,0,5,1.89,4.31,4.31,0,0,1,3.23,1.1c-1.59,1.22-3.16-.28-4.74,0-1.76-.75-3.53-1.42-4.8-3a6.3,6.3,0,0,1,1.26-9.52C67,76.52,69.3,74.43,72.76,75.13Z" fill="#e85748"/><path d="M207,94.17a6.27,6.27,0,0,0-5.44-1.7c-1.47.19-1.81-.34-1.5-1.89.5-2.5.62-5.09-1.93-6.81v-.24C204.06,84.13,208.31,89.22,207,94.17Z" fill="#e85748"/><path d="M203.73,137c-1.28-.22-2-1.22-2.79-2.08a52.4,52.4,0,0,0-7.21-6.18,17.73,17.73,0,0,1,4.82.35l4.26.05C203.72,131.67,203.35,134.37,203.73,137Z" fill="#f0b74b"/><path d="M68,90.87c1.58-.24,3.15,1.26,4.74,0l4.27.55c-3.41,1.9-6.53,4.37-10.42,5.34Z" fill="#f6cb54"/><path d="M200.19,101.78a10.23,10.23,0,0,1-3.77-.49l7.24-1.6A5.3,5.3,0,0,1,200.19,101.78Z" fill="#e85748"/><path d="M205.13,98.84l1.32-2.91C207.06,97.38,206.9,97.72,205.13,98.84Z" fill="#e85748"/><path d="M162.29,38.33c-1.42-.71-1.07-1.7-.42-2.73A3.26,3.26,0,0,1,162.29,38.33Z" fill="#f6cb54"/><path d="M161.77,34.5c-1.47-.71-1.11-1.7-.43-2.74C162.05,32.58,161.86,33.55,161.77,34.5Z" fill="#f6cb54"/><path d="M204.1,128.63a.78.78,0,0,1,1-.42C204.94,128.75,204.63,129,204.1,128.63Z" fill="#f0b74b"/><path d="M74.35,74.45a1,1,0,0,1-1.13.49C73.45,74.44,73.75,74.1,74.35,74.45Z" fill="#e85748"/><path d="M196.87,83.07l.66-.3.06.26c0,.24-.05.47-.08.71Z" fill="#e74e3f"/><path d="M197.51,83.74c0-.24.06-.47.08-.71l.5.5v.24Z" fill="#f6cb54"/><path d="M196,184.37c4.67,1.1,8.66,3.19,11,7.63,1.43,2.73,2.79,5.49,4.28,8.18.45.82.06,1.41-.13,2.07-1.8,6.12-4.74,11.47-10.22,15.12-3.51,2.35-7.61,3.38-11.38,5.18-10.63,5.08-22.06,7.57-33.43,10.36-10.86,2.67-21.8,2.8-32.78,2.36a172.94,172.94,0,0,1-36.29-4.85c-7-1.79-13.85-3.79-20-7.69a16.71,16.71,0,0,0-4-1.74c-4.33-1.33-6.19-5.74-10-7.79s-5.87-5.83-8-9.47c-.9-1.55-.74-3-.43-4.7a11.86,11.86,0,0,1,6.68-8.89c4.9-2.56,9.62-5.47,14.44-8.2a13.9,13.9,0,0,1,2-.77c-.55,6.75,2.11,12.72,8,15.13,7.5,3.09,15.16,6.84,23.76,6.23a21.52,21.52,0,0,0,10.1,15.37c3.1,1.93,6,4.66,9.89,4.81,14.56.55,26.18-5.13,34.76-16.93,5.48-.49,11-.77,16.39-1.93,2.1-.45,4.25-.08,6.35-1.16,4.8-2.45,9-5.79,13.15-9.06A16.24,16.24,0,0,0,196,184.37Z" fill="#ef9b3a"/><path d="M99.55,202.53c-8.6.61-16.26-3.14-23.76-6.23-5.87-2.41-8.53-8.38-8-15.13C70,179,73,178.09,75.73,177c15-5.86,30.57-9.34,46.82-8.42,7.51.42,15,1.09,22.47,2.09,9.16,1.22,18.32,2.57,27.31,4.62,7.29,1.65,14.65,3.49,21.4,7,1,.49,2.11.75,2.3,2.09a16.24,16.24,0,0,1-5.84,9.26c-4.2,3.27-8.35,6.61-13.15,9.06-2.1,1.08-4.25.71-6.35,1.16-5.39,1.16-10.91,1.44-16.39,1.93,0-.55,0-1.1,0-1.64.79-6.44,1.67-12.85-3.43-18.25-2.65-2.8-5.52-5.37-9.22-6.3-5.45-1.36-11.13-1.23-16.71-1.66-4.65-.35-9.11,1.25-13.62,2.14a7.58,7.58,0,0,0-4,2.3A26.31,26.31,0,0,0,99.55,202.53Z" fill="#c87539"/><path d="M117.55,149.58l2.25,2c.63,3.54-.24,5.24-3.72,5.46-5.87.37-11.73,1.37-17.65.8a5.27,5.27,0,0,0-2.39.34c-6.47,2.55-13.27,3.8-20,5.23-4.1.87-7.52,3.18-11.15,5.08-2.83,1.47-5.64,3-8.5,4.39-2,1-4,1-5.34-1s-.5-4,1.26-5.3c5.46-4,10.06-9,15.32-13.18a25.79,25.79,0,0,1,15.47-5.46c7.37-.26,14.76.08,22.12-.65.44,0,1-.13,1.33.1C109.83,150,114,148.44,117.55,149.58Z" fill="#fefcf9"/><path d="M68.33,131.45c4.3-1.57,8.52-3.43,13.18-3.74a33.35,33.35,0,0,1-3.43,8.2,5.16,5.16,0,0,1-9.28-1.25A9,9,0,0,1,68.33,131.45Z" fill="#f0b44a"/><path d="M100.91,124.09c.31-.55.69-.94,1.39-.6C102.05,124.2,101.53,124.26,100.91,124.09Z" fill="#f0b44a"/><path d="M98.19,124.65c.33-.54.65-1.08,1.37-.46A1.08,1.08,0,0,1,98.19,124.65Z" fill="#f0b44a"/><path d="M96,125.18c.34-.52.65-1.13,1.4-.49A1.07,1.07,0,0,1,96,125.18Z" fill="#f0b44a"/><path d="M88.3,126.8c.34-.55.68-1.11,1.43-.49A1.08,1.08,0,0,1,88.3,126.8Z" fill="#f0b44a"/><path d="M110.41,80.71c8.07-1.15,16-3.43,24.27-3,1.09.06,2.17.17,3.25.26-2,2.08-.58,4.5-.56,6.74s-.54,3.27-2.89,2.91c-2.2-.34-4.31.51-6.5.58-2,.06-2.57-.8-2-2.47.56-1.51,0-2.86-.2-4.27a1.65,1.65,0,0,0-3.28.29c0,1.73-.07,3.46,0,5.19a2.13,2.13,0,0,1-1.92,2.49c-2.4.5-4.8,1-7.14,1.68-1.63.49-1.93-.15-1.91-1.54C111.59,86.55,111.9,83.51,110.41,80.71Z" fill="#e74e3f"/><path d="M136.46,94.93c.23,1.43,2,1.12,2.52,2.19-1.53,2.24-1.85,4.94-.31,6.89,1.29,1.64,2.94,3.56,5.31,4,.72.14.87.38,1,1a3.9,3.9,0,0,1-4,4.82c-2.19,0-4.38-.06-6.57,0-1.58.07-2.13-.58-2-2.09a8.31,8.31,0,0,0-1.55-5.68c-.78-1.07-.61-1.64.39-2.45a3.15,3.15,0,0,0,1-3.21C131.36,96,132,95.25,136.46,94.93Z" fill="#e74e3f"/><path d="M141.62,98.07a19.33,19.33,0,0,1,1.9,1c4.75,3.32,10.11,4.21,15.75,3.94a16.58,16.58,0,0,0,.75,6.44c.77,3.15-.26,4.35-3.51,4.38-2.28,0-4.47-.83-6.77-.59-1.22.14-1.53-.64-1.49-1.71s.05-2.37,0-3.55c-.12-3.09-1.69-4.6-4.78-4.3-1.43.14-1.59-.75-1.7-1.55A37,37,0,0,1,141.62,98.07Z" fill="#e74e3f"/><path d="M158.09,78.19a9.74,9.74,0,0,1,8.22-5.37c1.45-.14,2.94.14,4.37,0,6.2-.84,11.14,1.65,15.58,5.62a4.26,4.26,0,0,1,1.42,2.55L186,81c-1.41-.45-2.7-1.37-4.3-1-3.06-1-6.3-.46-9.42-1l-3.18-.08C165.43,78.53,161.71,79.2,158.09,78.19Z" fill="#f0b44a"/><path d="M162.52,103.38c4,0,8.1-.1,12,1.16a5.41,5.41,0,0,0-.29,5.07c.85,1.94,0,3.93-.57,5.83a1.55,1.55,0,0,1-1.92,1.12c-.26,0-.53-.09-.79-.15-2.21-.52-4.75-.52-6.52-1.69-2.12-1.4-.44-4.19-.86-6.32C163.25,106.72,162.24,105.19,162.52,103.38Z" fill="#e74e3f"/><path d="M158.09,78.19c3.62,1,7.34.34,11,.67-.91,1.65-1.45,3,.64,4.5,1.5,1.09-.66,5.54-2.74,5.82-3.19.41-6.33-.4-9.5-.55-.81,0-1.05-.65-1-1.35a13.21,13.21,0,0,1,.28-3,7.55,7.55,0,0,0-.88-6Z" fill="#e74e3f"/><path d="M139.41,78c4.81-.65,9.58.36,14.37.41-1,2.45-.56,5-.58,7.53,0,1.56-.37,2.35-2.13,2.27-2.62-.12-5.26,0-7.89-.08-1.82,0-2.71-.57-2.38-2.84A11.55,11.55,0,0,0,139.41,78Z" fill="#e74e3f"/><path d="M172.27,78.94c3.12.57,6.36,0,9.42,1a2.82,2.82,0,0,0,1,4,5.17,5.17,0,0,1,2,3.72c.58,3.38-.9,4.86-4.18,4.16-2.21-.47-4.39-1.14-6.62-1.46-1.71-.25-1.67-.95-1.06-2.19A8.72,8.72,0,0,0,172.27,78.94Z" fill="#e74e3f"/><path d="M116,104.5c3,1.2,6.09-.08,9.14,0,1.08,0,2.16-.28,1.85,1.61-.23,1.39,1.22,2.35,1.69,3.62,1,2.77.42,3.84-2.44,4.11-.8.08-1.59.4-2.39.44a35.25,35.25,0,0,1-4.36,0c-2.37-.17-1.18-2.3-1.67-3.46-.9-2.12-2.61-3.67-3.57-5.71C114.87,105,115.59,105.12,116,104.5Z" fill="#e74e3f"/><path d="M176.12,104.6c3.65-.23,7,1.23,10.46,2a7.24,7.24,0,0,0-.56,4,10.29,10.29,0,0,1-1.37,5.49c-1.57,3-4.08,3.51-6.79,1.53-.79-.58-.55-1.22-.41-1.93C178.2,111.83,178.21,108.09,176.12,104.6Z" fill="#e74e3f"/><path d="M111.05,105.62c-.47,1.53-.94,2.86,1.34,3.58,1.45.45,1.92,2,1.94,3.6,0,1-.29,1.57-1.38,1.57a49.06,49.06,0,0,0-7.22,1c-1,.15-2.44.44-2.34-1.32.19-3.32-1.67-5.11-4.41-6.34C102.86,106.23,106.94,105.89,111.05,105.62Z" fill="#e74e3f"/><path d="M186,81l1.69-.08c2.44,1.17,5.26.74,7.7,1.87-.91,1.53-1.66,2.78.39,4.34,1.46,1.11.8,3.16.1,4.78s-1.92,1.82-3.39,1.61-3.16,0-4.2-.77c-1.31-.94-.09-2.7,0-4C188.58,85.76,186.69,83.6,186,81Z" fill="#e74e3f"/><path d="M96.88,108c-.36,1.14-2.31,1.54-1.57,3.14.62,1.36,1.75,1.6,3.18,1.2.83-.24,1,.49,1.05,1.19,0,1,.1,2.21-1.2,2.4-2.76.39-5.46,1.24-8.28,1.22-.65,0-1.37,0-1.69-.65a12.55,12.55,0,0,0-4.64-5.18c-.71-.43-.19-.92.31-1.21a3.78,3.78,0,0,1,2.31-.68c.8,1,1.77.53,2.71.32Z" fill="#e74f40"/><path d="M96.88,108l-7.82,1.75c-.94.21-1.91.65-2.71-.32l1.64-.6c1,.13,1.7-.56,2.54-.86,6.25-2.22,12.32-5,18.88-6.22L116,104.5c-.43.62-1.15.48-1.75.67a4.85,4.85,0,0,0-3.22.45c-4.11.27-8.19.61-12.07,2.13Z" fill="#f0b74b"/><path d="M73.1,121.4a1.55,1.55,0,0,1-.6-.19c-.83-.67-.25-5.17.71-5.64.56-.27,1.14-.53,1.68-.84,2-1.16,6.35-.88,8.22.53a3.09,3.09,0,0,1,1.43,2.23c0,1.08-1.22,1-1.9,1.17C79.54,119.63,76.39,120.47,73.1,121.4Z" fill="#e74e3f"/><path d="M109.41,101.75c-6.56,1.26-12.63,4-18.88,6.22-.84.3-1.55,1-2.54.86,2-2.72,5.4-3,8.13-4.37s6-2.19,9.06-3.34A3.66,3.66,0,0,1,109.41,101.75Z" fill="#e74f40"/><path d="M126.33,95.82c1.77-.11,2.46.25,1.92,1.71a4.12,4.12,0,0,0-.24,1.6c.13,2-.61,2.54-2.37,1.49a1.79,1.79,0,0,1-.24-.12c-1.51-1.18-5-1.36-4.48-3.06S124.8,96.52,126.33,95.82Z" fill="#e74e3f"/><path d="M182.71,127.56c-.55.87-.38,2-1.3,2.48s-1.47-.28-2.13-.74a17.66,17.66,0,0,1-3.68-3.22c-.54-.66-.42-1.41.49-1.21a62.76,62.76,0,0,1,6.24,1.85C182.54,126.79,182.6,127.31,182.71,127.56Z" fill="#e74e3f"/><path d="M102.13,79.38c-2.27.41-4.18-1.44-6.45-1A4.43,4.43,0,0,0,93,78c-2.38-.7-4.91-.85-7.22-1.87,3.16-7.87,7.7-14.67,14.86-19.47a16.69,16.69,0,0,1,10-3.11c2.9.1,4.22,1.59,4.27,4.52a8.88,8.88,0,0,1-2.08,5.82C108.89,68.79,105.84,74.31,102.13,79.38Z" fill="#fefcf9"/><path d="M147.61,31.77l1.08,8.69L127,41q.18-3,.35-5.94l.06-.54c.06-.34.13-.69.19-1,1-3.56,2.5-6.7,5.63-9,5.9-4.24,12-2.09,13.79,4.94C147.19,30.21,147.4,31,147.61,31.77Z" fill="#fefdfa"/><path d="M127.32,35q-.16,3-.35,5.94c-2.11,1.86-5,1.18-7.36,2.25a15.59,15.59,0,0,1-2.09.53c-4,1.25-4.2,1.12-3.72-3.14q.48-4.29,1.12-8.57c.42-2.78,3.75-5.85,6.45-5.68,3.11.19,4,3.06,5.38,5.2.37.56,0,1.49.82,1.9-.06.34-.13.69-.19,1-.06.05-.19.1-.18.14A2.64,2.64,0,0,0,127.32,35Z" fill="#f0b84a"/><path d="M93,78a4.43,4.43,0,0,1,2.66.35c.49,2.39-1.41,4-2.06,6a1.45,1.45,0,0,1-1.78.91c-.83-.24-.94-.93-1.09-1.68C90.28,81.19,92.07,79.77,93,78Z" fill="#cb2423"/><path d="M99.55,202.53a26.31,26.31,0,0,1,7.84-20.16,7.58,7.58,0,0,1,4-2.3c4.51-.89,9-2.49,13.62-2.14,5.58.43,11.26.3,16.71,1.66,3.7.93,6.57,3.5,9.22,6.3,5.1,5.4,4.22,11.81,3.43,18.25-.06.54,0,1.09,0,1.64-8.58,11.8-20.2,17.48-34.76,16.93-3.87-.15-6.79-2.88-9.89-4.81A21.52,21.52,0,0,1,99.55,202.53Z" fill="#f0b849"/><path d="M127.32,35a2.64,2.64,0,0,1-.12-.4s.12-.09.18-.14Z" fill="#f6cb54"/></svg>