<?xml version="1.0" standalone="no"?><!-- Generator: Gravit.io --><svg xmlns="http://www.w3.org/2000/svg" xmlns:xlink="http://www.w3.org/1999/xlink" style="isolation:isolate" viewBox="0 0 225.733 85.333" width="225.733" height="85.333"><defs><clipPath id="_clipPath_euvf5WAoNMZuLtuoqWdaGA5bnpU1g9YS"><rect width="225.733" height="85.333"/></clipPath></defs><g clip-path="url(#_clipPath_euvf5WAoNMZuLtuoqWdaGA5bnpU1g9YS)"><g id="g12"><clipPath id="_clipPath_LIqbmI931NURQlQKFBIkfe5XbZ7qVZE9"><path d=" M 19 66 L 207 66 L 207 20 L 19 20 L 19 66 Z " fill="rgb(255,255,255)"/></clipPath><g clip-path="url(#_clipPath_LIqbmI931NURQlQKFBIkfe5XbZ7qVZE9)"><g id="g14"><g id="g20"><path d=" M 84.099 41.717 L 80.387 41.717 L 80.387 34.325 L 84.067 34.325 C 85.262 34.325 86.185 34.645 86.835 35.285 C 87.486 35.925 87.811 36.821 87.811 37.973 C 87.811 40.468 86.574 41.717 84.099 41.717 Z  M 84.579 30.485 L 77.667 30.485 C 77.134 30.485 76.686 30.661 76.323 31.013 C 75.961 31.365 75.779 31.808 75.779 32.341 L 75.779 53.333 L 80.387 53.333 L 80.387 45.525 L 84.259 45.525 C 86.905 45.525 88.931 44.881 90.339 43.589 C 91.747 42.3 92.451 40.437 92.451 38.005 C 92.451 35.829 91.774 34.032 90.419 32.613 C 89.065 31.195 87.118 30.485 84.579 30.485 Z " fill="rgb(255,255,255)"/></g><g id="g24"><path d=" M 99.427 39.189 L 99.427 37.333 L 95.171 37.333 L 95.171 53.334 L 99.587 53.334 L 99.587 42.389 C 100.867 41.195 102.275 40.598 103.811 40.598 C 104.366 40.598 105.016 40.715 105.763 40.949 L 106.659 37.494 C 105.998 37.109 105.187 36.918 104.227 36.918 C 102.478 36.918 100.878 37.674 99.427 39.189 Z " fill="rgb(255,255,255)"/></g><g id="g28"><path d=" M 115.747 50.165 C 114.574 50.165 113.667 49.76 113.027 48.949 C 112.387 48.139 112.067 46.933 112.067 45.333 C 112.067 43.733 112.387 42.528 113.027 41.717 C 113.667 40.907 114.585 40.501 115.779 40.501 C 116.953 40.501 117.859 40.907 118.499 41.717 C 119.139 42.528 119.459 43.733 119.459 45.333 C 119.459 48.555 118.222 50.165 115.747 50.165 Z  M 119.619 38.837 C 118.446 37.557 116.921 36.917 115.043 36.917 C 112.846 36.917 111.081 37.685 109.747 39.221 C 108.414 40.757 107.737 42.795 107.715 45.333 C 107.715 47.872 108.382 49.909 109.715 51.445 C 111.049 52.981 112.814 53.749 115.011 53.749 C 116.867 53.749 118.382 53.109 119.555 51.829 L 119.555 53.333 L 123.555 53.333 L 123.555 37.333 L 119.619 37.333 L 119.619 38.837 Z " fill="rgb(255,255,255)"/></g><g id="g32"><path d=" M 134.724 50.102 C 133.615 50.102 132.703 49.713 131.987 48.934 C 131.273 48.156 130.917 46.965 130.917 45.366 C 130.917 43.745 131.289 42.529 132.036 41.717 C 132.783 40.906 133.721 40.501 134.852 40.501 C 136.388 40.501 137.529 41.196 138.276 42.581 L 141.572 40.725 C 140.932 39.445 140.015 38.492 138.82 37.862 C 137.625 37.232 136.281 36.918 134.788 36.918 C 132.312 36.918 130.324 37.685 128.82 39.221 C 127.315 40.758 126.564 42.817 126.564 45.398 C 126.564 48.001 127.315 50.038 128.82 51.51 C 130.324 52.982 132.196 53.718 134.436 53.718 C 136.143 53.718 137.631 53.334 138.9 52.566 C 140.169 51.797 141.124 50.753 141.763 49.43 L 138.596 47.606 C 137.549 49.27 136.26 50.102 134.724 50.102 Z " fill="rgb(255,255,255)"/></g><g id="g36"><path d=" M 151.907 49.814 C 151.31 49.814 150.793 49.633 150.355 49.27 C 149.918 48.906 149.701 48.3 149.701 47.446 L 149.701 40.341 L 154.882 40.341 L 154.882 37.333 L 149.701 37.333 L 149.701 32.373 L 145.347 32.373 L 145.347 37.333 L 142.947 37.333 L 142.947 40.341 L 145.347 40.341 L 145.347 47.83 C 145.347 49.685 145.827 51.125 146.787 52.15 C 147.747 53.174 149.091 53.685 150.821 53.685 C 152.739 53.685 154.414 53.142 155.843 52.054 L 154.467 48.95 C 153.593 49.525 152.739 49.814 151.907 49.814 Z " fill="rgb(255,255,255)"/></g><g id="g40"><path d=" M 160.931 44.118 C 161.143 42.881 161.656 41.921 162.466 41.237 C 163.278 40.555 164.206 40.214 165.251 40.214 C 166.083 40.214 166.76 40.422 167.284 40.838 C 167.804 41.254 168.068 41.761 168.068 42.357 C 168.068 42.891 167.891 43.318 167.539 43.638 C 167.187 43.958 166.69 44.118 166.051 44.118 L 160.931 44.118 Z  M 170.771 45.766 C 171.591 44.902 172.003 43.81 172.003 42.486 C 172.003 40.758 171.351 39.397 170.051 38.405 C 168.75 37.413 167.16 36.918 165.284 36.918 C 162.702 36.918 160.664 37.755 159.172 39.43 C 157.678 41.105 156.931 43.147 156.931 45.558 C 156.931 47.947 157.656 49.906 159.107 51.43 C 160.558 52.955 162.511 53.718 164.963 53.718 C 167.544 53.718 169.838 52.929 171.844 51.35 L 170.083 48.535 C 168.547 49.665 166.936 50.23 165.251 50.23 C 162.883 50.23 161.475 49.174 161.026 47.062 L 166.979 47.062 C 168.684 47.062 169.95 46.63 170.771 45.766 Z " fill="rgb(255,255,255)"/></g><g id="g44"><path d=" M 179.267 39.189 L 179.267 37.333 L 175.011 37.333 L 175.011 53.334 L 179.427 53.334 L 179.427 42.389 C 180.707 41.195 182.115 40.598 183.651 40.598 C 184.205 40.598 184.856 40.715 185.603 40.949 L 186.5 37.494 C 185.839 37.109 185.027 36.918 184.068 36.918 C 182.317 36.918 180.717 37.674 179.267 39.189 Z " fill="rgb(255,255,255)"/></g><g id="g48"><path d=" M 195.588 50.165 C 194.415 50.165 193.508 49.76 192.868 48.949 C 192.228 48.139 191.908 46.933 191.908 45.333 C 191.908 43.733 192.228 42.528 192.868 41.717 C 193.508 40.907 194.424 40.501 195.62 40.501 C 196.793 40.501 197.7 40.907 198.34 41.717 C 198.98 42.528 199.3 43.733 199.3 45.333 C 199.3 48.555 198.061 50.165 195.588 50.165 Z  M 199.46 37.333 L 199.46 38.837 C 198.287 37.557 196.76 36.917 194.884 36.917 C 192.687 36.917 190.921 37.685 189.588 39.221 C 188.255 40.757 187.577 42.795 187.556 45.333 C 187.556 47.872 188.223 49.909 189.556 51.445 C 190.889 52.981 192.655 53.749 194.852 53.749 C 196.708 53.749 198.223 53.109 199.396 51.829 L 199.396 53.333 L 203.396 53.333 L 203.396 37.333 L 199.46 37.333 Z " fill="rgb(255,255,255)"/></g><g id="g52"><path d=" M 34.128 55.129 C 37.843 57.272 42.081 58.498 46.339 58.689 C 40.44 63.241 31.675 62.094 27.336 55.965 C 25.447 53.297 24.624 49.966 24.981 46.722 C 25.408 42.849 27.624 39.461 30.28 36.712 C 30.28 36.717 30.279 36.722 30.279 36.726 C 32.024 34.926 34.695 32.376 37.279 32.006 C 39.829 31.642 41.995 33.113 43.145 35.285 C 38.237 36.478 33.763 39.689 31.297 44.15 C 29.215 47.918 30.317 52.929 34.128 55.129 Z  M 25.344 33.897 C 26.989 27.401 33.335 23.132 39.968 24.078 C 46.416 25 50.393 30.221 52.095 36.157 C 52.724 38.353 53.235 40.892 53.009 43.19 C 52.701 46.333 49.833 48.144 46.887 48.029 C 47.887 44.704 47.933 41.232 47.015 37.884 C 46.153 34.749 44.689 31.624 41.629 30.142 C 41.637 30.141 41.644 30.14 41.649 30.137 C 35.027 26.916 28.288 33.994 25.048 39.06 C 24.823 37.358 24.908 35.613 25.344 33.897 Z  M 55.696 42.728 C 55.696 38.453 54.641 34.23 52.66 30.432 C 60.561 33.618 63.559 43.638 58.417 50.54 C 54.668 55.569 48.592 56.782 42.711 55.561 C 39.943 54.988 35.94 53.898 34.079 51.606 C 32.433 49.577 32.683 46.973 34.004 44.882 C 36.465 47.469 39.587 49.312 43.059 50.156 C 46.08 50.89 49.376 51.141 52.089 49.314 C 54.284 47.838 55.684 45.389 55.696 42.729 L 55.696 42.728 Z " fill-rule="evenodd" fill="rgb(255,255,255)"/></g></g></g></g></g></svg>