<?xml version="1.0" encoding="UTF-8" standalone="no"?>
<!DOCTYPE svg PUBLIC "-//W3C//DTD SVG 1.1//EN"
 "http://www.w3.org/Graphics/SVG/1.1/DTD/svg11.dtd">
<!-- Generated by graphviz version 2.44.1 (20200629.0846)
 -->
<!-- Title: dependencies Pages: 1 -->
<svg width="850pt" height="284pt"
 viewBox="0.00 0.00 850.00 284.00" xmlns="http://www.w3.org/2000/svg" xmlns:xlink="http://www.w3.org/1999/xlink">
<g id="graph0" class="graph" transform="scale(1 1) rotate(0) translate(4 280)">
<title>dependencies</title>
<polygon fill="white" stroke="transparent" points="-4,4 -4,-280 846,-280 846,4 -4,4"/>
<text text-anchor="start" x="400.01" y="-42.4" font-family="sans-serif" font-weight="bold" font-size="14.00">Legend</text>
<polygon fill="#ffffb3" stroke="transparent" points="187,-10 187,-30 207,-30 207,-10 187,-10"/>
<text text-anchor="start" x="210.63" y="-15.4" font-family="sans-serif" font-size="14.00"> &#160;Declarations</text>
<polygon fill="#8dd3c7" stroke="transparent" points="300,-10 300,-30 320,-30 320,-10 300,-10"/>
<text text-anchor="start" x="323.73" y="-15.4" font-family="sans-serif" font-size="14.00"> &#160;Module</text>
<polygon fill="#80b1d3" stroke="transparent" points="386,-10 386,-30 406,-30 406,-10 386,-10"/>
<text text-anchor="start" x="409.78" y="-15.4" font-family="sans-serif" font-size="14.00"> &#160;Bootstrap</text>
<polygon fill="#fdb462" stroke="transparent" points="483,-10 483,-30 503,-30 503,-10 483,-10"/>
<text text-anchor="start" x="506.67" y="-15.4" font-family="sans-serif" font-size="14.00"> &#160;Providers</text>
<polygon fill="#fb8072" stroke="transparent" points="579,-10 579,-30 599,-30 599,-10 579,-10"/>
<text text-anchor="start" x="602.73" y="-15.4" font-family="sans-serif" font-size="14.00"> &#160;Exports</text>
<g id="clust1" class="cluster">
<title>cluster_TopicModule</title>
<polygon fill="none" stroke="black" stroke-dasharray="1,5" points="8,-70 8,-268 834,-268 834,-70 8,-70"/>
</g>
<g id="clust5" class="cluster">
<title>cluster_TopicModule_exports</title>
<polygon fill="none" stroke="black" points="182,-208 182,-260 694,-260 694,-208 182,-208"/>
</g>
<g id="clust2" class="cluster">
<title>cluster_TopicModule_declarations</title>
<polygon fill="none" stroke="black" points="696,-78 696,-130 826,-130 826,-78 696,-78"/>
</g>
<g id="clust4" class="cluster">
<title>cluster_TopicModule_imports</title>
<polygon fill="none" stroke="black" points="166,-78 166,-130 688,-130 688,-78 166,-78"/>
</g>
<g id="clust7" class="cluster">
<title>cluster_TopicModule_providers</title>
<polygon fill="none" stroke="black" points="16,-78 16,-130 158,-130 158,-78 16,-78"/>
</g>
<!-- TopicComponent -->
<g id="node1" class="node">
<title>TopicComponent</title>
<polygon fill="#ffffb3" stroke="black" points="817.99,-122 704.01,-122 704.01,-86 817.99,-86 817.99,-122"/>
<text text-anchor="middle" x="761" y="-99.8" font-family="Times,serif" font-size="14.00">TopicComponent</text>
</g>
<!-- TopicModule -->
<g id="node2" class="node">
<title>TopicModule</title>
<polygon fill="#8dd3c7" stroke="black" points="486.21,-187 483.21,-191 462.21,-191 459.21,-187 393.79,-187 393.79,-151 486.21,-151 486.21,-187"/>
<text text-anchor="middle" x="440" y="-164.8" font-family="Times,serif" font-size="14.00">TopicModule</text>
</g>
<!-- TopicComponent&#45;&gt;TopicModule -->
<g id="edge1" class="edge">
<title>TopicComponent&#45;&gt;TopicModule</title>
<path fill="none" stroke="black" d="M761,-122.11C761,-141.34 761,-169 761,-169 761,-169 496.33,-169 496.33,-169"/>
<polygon fill="black" stroke="black" points="496.33,-165.5 486.33,-169 496.33,-172.5 496.33,-165.5"/>
</g>
<!-- ActivityModule  -->
<g id="node7" class="node">
<title>ActivityModule </title>
<polygon fill="#fb8072" stroke="black" points="686.43,-252 577.57,-252 577.57,-216 686.43,-216 686.43,-252"/>
<text text-anchor="middle" x="632" y="-229.8" font-family="Times,serif" font-size="14.00">ActivityModule </text>
</g>
<!-- TopicModule&#45;&gt;ActivityModule  -->
<g id="edge6" class="edge">
<title>TopicModule&#45;&gt;ActivityModule </title>
<path fill="none" stroke="black" stroke-dasharray="5,2" d="M486.44,-178C537.25,-178 611.59,-178 611.59,-178 611.59,-178 611.59,-205.97 611.59,-205.97"/>
<polygon fill="black" stroke="black" points="608.09,-205.97 611.59,-215.97 615.09,-205.97 608.09,-205.97"/>
</g>
<!-- FilestackModule  -->
<g id="node8" class="node">
<title>FilestackModule </title>
<polygon fill="#fb8072" stroke="black" points="559.59,-252 446.41,-252 446.41,-216 559.59,-216 559.59,-252"/>
<text text-anchor="middle" x="503" y="-229.8" font-family="Times,serif" font-size="14.00">FilestackModule </text>
</g>
<!-- TopicModule&#45;&gt;FilestackModule  -->
<g id="edge7" class="edge">
<title>TopicModule&#45;&gt;FilestackModule </title>
<path fill="none" stroke="black" stroke-dasharray="5,2" d="M466.15,-187.11C466.15,-187.11 466.15,-205.99 466.15,-205.99"/>
<polygon fill="black" stroke="black" points="462.65,-205.99 466.15,-215.99 469.65,-205.99 462.65,-205.99"/>
</g>
<!-- SharedModule  -->
<g id="node9" class="node">
<title>SharedModule </title>
<polygon fill="#fb8072" stroke="black" points="427.92,-252 326.08,-252 326.08,-216 427.92,-216 427.92,-252"/>
<text text-anchor="middle" x="377" y="-229.8" font-family="Times,serif" font-size="14.00">SharedModule </text>
</g>
<!-- TopicModule&#45;&gt;SharedModule  -->
<g id="edge8" class="edge">
<title>TopicModule&#45;&gt;SharedModule </title>
<path fill="none" stroke="black" stroke-dasharray="5,2" d="M410.93,-187.11C410.93,-187.11 410.93,-205.99 410.93,-205.99"/>
<polygon fill="black" stroke="black" points="407.43,-205.99 410.93,-215.99 414.43,-205.99 407.43,-205.99"/>
</g>
<!-- TopicComponent  -->
<g id="node10" class="node">
<title>TopicComponent </title>
<polygon fill="#fb8072" stroke="black" points="307.99,-252 190.01,-252 190.01,-216 307.99,-216 307.99,-252"/>
<text text-anchor="middle" x="249" y="-229.8" font-family="Times,serif" font-size="14.00">TopicComponent </text>
</g>
<!-- TopicModule&#45;&gt;TopicComponent  -->
<g id="edge9" class="edge">
<title>TopicModule&#45;&gt;TopicComponent </title>
<path fill="none" stroke="black" stroke-dasharray="5,2" d="M393.61,-178C342.85,-178 268.58,-178 268.58,-178 268.58,-178 268.58,-205.97 268.58,-205.97"/>
<polygon fill="black" stroke="black" points="265.08,-205.97 268.58,-215.97 272.08,-205.97 265.08,-205.97"/>
</g>
<!-- ActivityModule -->
<g id="node3" class="node">
<title>ActivityModule</title>
<polygon fill="#8dd3c7" stroke="black" points="679.93,-122 676.93,-126 655.93,-126 652.93,-122 574.07,-122 574.07,-86 679.93,-86 679.93,-122"/>
<text text-anchor="middle" x="627" y="-99.8" font-family="Times,serif" font-size="14.00">ActivityModule</text>
</g>
<!-- ActivityModule&#45;&gt;TopicModule -->
<g id="edge2" class="edge">
<title>ActivityModule&#45;&gt;TopicModule</title>
<path fill="none" stroke="black" d="M645.66,-122.03C645.66,-138.4 645.66,-160 645.66,-160 645.66,-160 496.15,-160 496.15,-160"/>
<polygon fill="black" stroke="black" points="496.15,-156.5 486.15,-160 496.15,-163.5 496.15,-156.5"/>
</g>
<!-- FilestackModule -->
<g id="node4" class="node">
<title>FilestackModule</title>
<polygon fill="#8dd3c7" stroke="black" points="556.09,-122 553.09,-126 532.09,-126 529.09,-122 445.91,-122 445.91,-86 556.09,-86 556.09,-122"/>
<text text-anchor="middle" x="501" y="-99.8" font-family="Times,serif" font-size="14.00">FilestackModule</text>
</g>
<!-- FilestackModule&#45;&gt;TopicModule -->
<g id="edge3" class="edge">
<title>FilestackModule&#45;&gt;TopicModule</title>
<path fill="none" stroke="black" d="M466.03,-122.11C466.03,-122.11 466.03,-140.99 466.03,-140.99"/>
<polygon fill="black" stroke="black" points="462.53,-140.99 466.03,-150.99 469.53,-140.99 462.53,-140.99"/>
</g>
<!-- SharedModule -->
<g id="node5" class="node">
<title>SharedModule</title>
<polygon fill="#8dd3c7" stroke="black" points="428.42,-122 425.42,-126 404.42,-126 401.42,-122 329.58,-122 329.58,-86 428.42,-86 428.42,-122"/>
<text text-anchor="middle" x="379" y="-99.8" font-family="Times,serif" font-size="14.00">SharedModule</text>
</g>
<!-- SharedModule&#45;&gt;TopicModule -->
<g id="edge4" class="edge">
<title>SharedModule&#45;&gt;TopicModule</title>
<path fill="none" stroke="black" d="M411.05,-122.11C411.05,-122.11 411.05,-140.99 411.05,-140.99"/>
<polygon fill="black" stroke="black" points="407.55,-140.99 411.05,-150.99 414.55,-140.99 407.55,-140.99"/>
</g>
<!-- TopicRoutingModule -->
<g id="node6" class="node">
<title>TopicRoutingModule</title>
<polygon fill="#8dd3c7" stroke="black" points="311.83,-122 308.83,-126 287.83,-126 284.83,-122 174.17,-122 174.17,-86 311.83,-86 311.83,-122"/>
<text text-anchor="middle" x="243" y="-99.8" font-family="Times,serif" font-size="14.00">TopicRoutingModule</text>
</g>
<!-- TopicRoutingModule&#45;&gt;TopicModule -->
<g id="edge5" class="edge">
<title>TopicRoutingModule&#45;&gt;TopicModule</title>
<path fill="none" stroke="black" d="M229.42,-122.03C229.42,-138.4 229.42,-160 229.42,-160 229.42,-160 383.79,-160 383.79,-160"/>
<polygon fill="black" stroke="black" points="383.79,-163.5 393.79,-160 383.79,-156.5 383.79,-163.5"/>
</g>
<!-- TopicService -->
<g id="node11" class="node">
<title>TopicService</title>
<ellipse fill="#fdb462" stroke="black" cx="87" cy="-104" rx="62.54" ry="18"/>
<text text-anchor="middle" x="87" y="-99.8" font-family="Times,serif" font-size="14.00">TopicService</text>
</g>
<!-- TopicService&#45;&gt;TopicModule -->
<g id="edge10" class="edge">
<title>TopicService&#45;&gt;TopicModule</title>
<path fill="none" stroke="black" d="M87,-122.11C87,-141.34 87,-169 87,-169 87,-169 383.85,-169 383.85,-169"/>
<polygon fill="black" stroke="black" points="383.85,-172.5 393.85,-169 383.85,-165.5 383.85,-172.5"/>
</g>
</g>
</svg>
