<?xml version="1.0" encoding="UTF-8" standalone="no"?>
<!DOCTYPE svg PUBLIC "-//W3C//DTD SVG 1.1//EN"
 "http://www.w3.org/Graphics/SVG/1.1/DTD/svg11.dtd">
<!-- Generated by graphviz version 2.44.1 (20200629.0846)
 -->
<!-- Title: dependencies Pages: 1 -->
<svg width="1004pt" height="211pt"
 viewBox="0.00 0.00 1004.00 211.00" xmlns="http://www.w3.org/2000/svg" xmlns:xlink="http://www.w3.org/1999/xlink">
<g id="graph0" class="graph" transform="scale(1 1) rotate(0) translate(4 207)">
<title>dependencies</title>
<polygon fill="white" stroke="transparent" points="-4,4 -4,-207 1000,-207 1000,4 -4,4"/>
<text text-anchor="start" x="477.01" y="-42.4" font-family="sans-serif" font-weight="bold" font-size="14.00">Legend</text>
<polygon fill="#ffffb3" stroke="transparent" points="264,-10 264,-30 284,-30 284,-10 264,-10"/>
<text text-anchor="start" x="287.63" y="-15.4" font-family="sans-serif" font-size="14.00"> &#160;Declarations</text>
<polygon fill="#8dd3c7" stroke="transparent" points="377,-10 377,-30 397,-30 397,-10 377,-10"/>
<text text-anchor="start" x="400.73" y="-15.4" font-family="sans-serif" font-size="14.00"> &#160;Module</text>
<polygon fill="#80b1d3" stroke="transparent" points="463,-10 463,-30 483,-30 483,-10 463,-10"/>
<text text-anchor="start" x="486.78" y="-15.4" font-family="sans-serif" font-size="14.00"> &#160;Bootstrap</text>
<polygon fill="#fdb462" stroke="transparent" points="560,-10 560,-30 580,-30 580,-10 560,-10"/>
<text text-anchor="start" x="583.67" y="-15.4" font-family="sans-serif" font-size="14.00"> &#160;Providers</text>
<polygon fill="#fb8072" stroke="transparent" points="656,-10 656,-30 676,-30 676,-10 656,-10"/>
<text text-anchor="start" x="679.73" y="-15.4" font-family="sans-serif" font-size="14.00"> &#160;Exports</text>
<g id="clust1" class="cluster">
<title>cluster_TasksModule</title>
<polygon fill="none" stroke="black" stroke-dasharray="1,5" points="8,-70 8,-195 988,-195 988,-70 8,-70"/>
</g>
<g id="clust5" class="cluster">
<title>cluster_TasksModule_imports</title>
<polygon fill="none" stroke="black" points="332,-78 332,-130 980,-130 980,-78 332,-78"/>
</g>
<g id="clust2" class="cluster">
<title>cluster_TasksModule_declarations</title>
<polygon fill="none" stroke="black" points="16,-78 16,-130 324,-130 324,-78 16,-78"/>
</g>
<!-- TasksComponent -->
<g id="node1" class="node">
<title>TasksComponent</title>
<polygon fill="#ffffb3" stroke="black" points="315.99,-122 202.01,-122 202.01,-86 315.99,-86 315.99,-122"/>
<text text-anchor="middle" x="259" y="-99.8" font-family="Times,serif" font-size="14.00">TasksComponent</text>
</g>
<!-- TasksModule -->
<g id="node3" class="node">
<title>TasksModule</title>
<polygon fill="#8dd3c7" stroke="black" points="565.21,-187 562.21,-191 541.21,-191 538.21,-187 472.79,-187 472.79,-151 565.21,-151 565.21,-187"/>
<text text-anchor="middle" x="519" y="-164.8" font-family="Times,serif" font-size="14.00">TasksModule</text>
</g>
<!-- TasksComponent&#45;&gt;TasksModule -->
<g id="edge1" class="edge">
<title>TasksComponent&#45;&gt;TasksModule</title>
<path fill="none" stroke="black" d="M259,-122.11C259,-141.34 259,-169 259,-169 259,-169 462.82,-169 462.82,-169"/>
<polygon fill="black" stroke="black" points="462.82,-172.5 472.82,-169 462.82,-165.5 462.82,-172.5"/>
</g>
<!-- TasksRoutingComponent -->
<g id="node2" class="node">
<title>TasksRoutingComponent</title>
<polygon fill="#ffffb3" stroke="black" points="183.61,-122 24.39,-122 24.39,-86 183.61,-86 183.61,-122"/>
<text text-anchor="middle" x="104" y="-99.8" font-family="Times,serif" font-size="14.00">TasksRoutingComponent</text>
</g>
<!-- TasksRoutingComponent&#45;&gt;TasksModule -->
<g id="edge2" class="edge">
<title>TasksRoutingComponent&#45;&gt;TasksModule</title>
<path fill="none" stroke="black" d="M104,-122.29C104,-144.21 104,-178 104,-178 104,-178 462.6,-178 462.6,-178"/>
<polygon fill="black" stroke="black" points="462.6,-181.5 472.6,-178 462.6,-174.5 462.6,-181.5"/>
</g>
<!-- ActivityModule -->
<g id="node4" class="node">
<title>ActivityModule</title>
<polygon fill="#8dd3c7" stroke="black" points="971.93,-122 968.93,-126 947.93,-126 944.93,-122 866.07,-122 866.07,-86 971.93,-86 971.93,-122"/>
<text text-anchor="middle" x="919" y="-99.8" font-family="Times,serif" font-size="14.00">ActivityModule</text>
</g>
<!-- ActivityModule&#45;&gt;TasksModule -->
<g id="edge3" class="edge">
<title>ActivityModule&#45;&gt;TasksModule</title>
<path fill="none" stroke="black" d="M919,-122.29C919,-144.21 919,-178 919,-178 919,-178 575.28,-178 575.28,-178"/>
<polygon fill="black" stroke="black" points="575.28,-174.5 565.28,-178 575.28,-181.5 575.28,-174.5"/>
</g>
<!-- AssessmentModule -->
<g id="node5" class="node">
<title>AssessmentModule</title>
<polygon fill="#8dd3c7" stroke="black" points="847.65,-122 844.65,-126 823.65,-126 820.65,-122 722.35,-122 722.35,-86 847.65,-86 847.65,-122"/>
<text text-anchor="middle" x="785" y="-99.8" font-family="Times,serif" font-size="14.00">AssessmentModule</text>
</g>
<!-- AssessmentModule&#45;&gt;TasksModule -->
<g id="edge4" class="edge">
<title>AssessmentModule&#45;&gt;TasksModule</title>
<path fill="none" stroke="black" d="M785,-122.11C785,-141.34 785,-169 785,-169 785,-169 575.33,-169 575.33,-169"/>
<polygon fill="black" stroke="black" points="575.33,-165.5 565.33,-169 575.33,-172.5 575.33,-165.5"/>
</g>
<!-- SharedModule -->
<g id="node6" class="node">
<title>SharedModule</title>
<polygon fill="#8dd3c7" stroke="black" points="704.42,-122 701.42,-126 680.42,-126 677.42,-122 605.58,-122 605.58,-86 704.42,-86 704.42,-122"/>
<text text-anchor="middle" x="655" y="-99.8" font-family="Times,serif" font-size="14.00">SharedModule</text>
</g>
<!-- SharedModule&#45;&gt;TasksModule -->
<g id="edge5" class="edge">
<title>SharedModule&#45;&gt;TasksModule</title>
<path fill="none" stroke="black" d="M655,-122.03C655,-138.4 655,-160 655,-160 655,-160 575.42,-160 575.42,-160"/>
<polygon fill="black" stroke="black" points="575.42,-156.5 565.42,-160 575.42,-163.5 575.42,-156.5"/>
</g>
<!-- TasksRoutingModule -->
<g id="node7" class="node">
<title>TasksRoutingModule</title>
<polygon fill="#8dd3c7" stroke="black" points="587.82,-122 584.82,-126 563.82,-126 560.82,-122 450.18,-122 450.18,-86 587.82,-86 587.82,-122"/>
<text text-anchor="middle" x="519" y="-99.8" font-family="Times,serif" font-size="14.00">TasksRoutingModule</text>
</g>
<!-- TasksRoutingModule&#45;&gt;TasksModule -->
<g id="edge6" class="edge">
<title>TasksRoutingModule&#45;&gt;TasksModule</title>
<path fill="none" stroke="black" d="M519,-122.11C519,-122.11 519,-140.99 519,-140.99"/>
<polygon fill="black" stroke="black" points="515.5,-140.99 519,-150.99 522.5,-140.99 515.5,-140.99"/>
</g>
<!-- TopicModule -->
<g id="node8" class="node">
<title>TopicModule</title>
<polygon fill="#8dd3c7" stroke="black" points="432.21,-122 429.21,-126 408.21,-126 405.21,-122 339.79,-122 339.79,-86 432.21,-86 432.21,-122"/>
<text text-anchor="middle" x="386" y="-99.8" font-family="Times,serif" font-size="14.00">TopicModule</text>
</g>
<!-- TopicModule&#45;&gt;TasksModule -->
<g id="edge7" class="edge">
<title>TopicModule&#45;&gt;TasksModule</title>
<path fill="none" stroke="black" d="M386,-122.03C386,-138.4 386,-160 386,-160 386,-160 462.86,-160 462.86,-160"/>
<polygon fill="black" stroke="black" points="462.86,-163.5 472.86,-160 462.86,-156.5 462.86,-163.5"/>
</g>
</g>
</svg>
