<?xml version="1.0" encoding="UTF-8" standalone="no"?>
<!DOCTYPE svg PUBLIC "-//W3C//DTD SVG 1.1//EN"
 "http://www.w3.org/Graphics/SVG/1.1/DTD/svg11.dtd">
<!-- Generated by graphviz version 2.44.1 (20200629.0846)
 -->
<!-- Title: dependencies Pages: 1 -->
<svg width="504pt" height="284pt"
 viewBox="0.00 0.00 504.00 284.00" xmlns="http://www.w3.org/2000/svg" xmlns:xlink="http://www.w3.org/1999/xlink">
<g id="graph0" class="graph" transform="scale(1 1) rotate(0) translate(4 280)">
<title>dependencies</title>
<polygon fill="white" stroke="transparent" points="-4,4 -4,-280 500,-280 500,4 -4,4"/>
<text text-anchor="start" x="227.01" y="-42.4" font-family="sans-serif" font-weight="bold" font-size="14.00">Legend</text>
<polygon fill="#ffffb3" stroke="transparent" points="14,-10 14,-30 34,-30 34,-10 14,-10"/>
<text text-anchor="start" x="37.63" y="-15.4" font-family="sans-serif" font-size="14.00"> &#160;Declarations</text>
<polygon fill="#8dd3c7" stroke="transparent" points="127,-10 127,-30 147,-30 147,-10 127,-10"/>
<text text-anchor="start" x="150.73" y="-15.4" font-family="sans-serif" font-size="14.00"> &#160;Module</text>
<polygon fill="#80b1d3" stroke="transparent" points="213,-10 213,-30 233,-30 233,-10 213,-10"/>
<text text-anchor="start" x="236.78" y="-15.4" font-family="sans-serif" font-size="14.00"> &#160;Bootstrap</text>
<polygon fill="#fdb462" stroke="transparent" points="310,-10 310,-30 330,-30 330,-10 310,-10"/>
<text text-anchor="start" x="333.67" y="-15.4" font-family="sans-serif" font-size="14.00"> &#160;Providers</text>
<polygon fill="#fb8072" stroke="transparent" points="406,-10 406,-30 426,-30 426,-10 406,-10"/>
<text text-anchor="start" x="429.73" y="-15.4" font-family="sans-serif" font-size="14.00"> &#160;Exports</text>
<g id="clust1" class="cluster">
<title>cluster_EventListModule</title>
<polygon fill="none" stroke="black" stroke-dasharray="1,5" points="13,-70 13,-268 483,-268 483,-70 13,-70"/>
</g>
<g id="clust7" class="cluster">
<title>cluster_EventListModule_providers</title>
<polygon fill="none" stroke="black" points="303,-78 303,-130 475,-130 475,-78 303,-78"/>
</g>
<g id="clust5" class="cluster">
<title>cluster_EventListModule_exports</title>
<polygon fill="none" stroke="black" points="141,-208 141,-260 297,-260 297,-208 141,-208"/>
</g>
<g id="clust2" class="cluster">
<title>cluster_EventListModule_declarations</title>
<polygon fill="none" stroke="black" points="143,-78 143,-130 295,-130 295,-78 143,-78"/>
</g>
<g id="clust4" class="cluster">
<title>cluster_EventListModule_imports</title>
<polygon fill="none" stroke="black" points="21,-78 21,-130 135,-130 135,-78 21,-78"/>
</g>
<!-- EventListComponent -->
<g id="node1" class="node">
<title>EventListComponent</title>
<polygon fill="#ffffb3" stroke="black" points="286.77,-122 151.23,-122 151.23,-86 286.77,-86 286.77,-122"/>
<text text-anchor="middle" x="219" y="-99.8" font-family="Times,serif" font-size="14.00">EventListComponent</text>
</g>
<!-- EventListModule -->
<g id="node2" class="node">
<title>EventListModule</title>
<polygon fill="#8dd3c7" stroke="black" points="275.99,-187 272.99,-191 251.99,-191 248.99,-187 162.01,-187 162.01,-151 275.99,-151 275.99,-187"/>
<text text-anchor="middle" x="219" y="-164.8" font-family="Times,serif" font-size="14.00">EventListModule</text>
</g>
<!-- EventListComponent&#45;&gt;EventListModule -->
<g id="edge1" class="edge">
<title>EventListComponent&#45;&gt;EventListModule</title>
<path fill="none" stroke="black" d="M219,-122.11C219,-122.11 219,-140.99 219,-140.99"/>
<polygon fill="black" stroke="black" points="215.5,-140.99 219,-150.99 222.5,-140.99 215.5,-140.99"/>
</g>
<!-- EventListComponent  -->
<g id="node4" class="node">
<title>EventListComponent </title>
<polygon fill="#fb8072" stroke="black" points="288.77,-252 149.23,-252 149.23,-216 288.77,-216 288.77,-252"/>
<text text-anchor="middle" x="219" y="-229.8" font-family="Times,serif" font-size="14.00">EventListComponent </text>
</g>
<!-- EventListModule&#45;&gt;EventListComponent  -->
<g id="edge3" class="edge">
<title>EventListModule&#45;&gt;EventListComponent </title>
<path fill="none" stroke="black" stroke-dasharray="5,2" d="M219,-187.11C219,-187.11 219,-205.99 219,-205.99"/>
<polygon fill="black" stroke="black" points="215.5,-205.99 219,-215.99 222.5,-205.99 215.5,-205.99"/>
</g>
<!-- SharedModule -->
<g id="node3" class="node">
<title>SharedModule</title>
<polygon fill="#8dd3c7" stroke="black" points="127.42,-122 124.42,-126 103.42,-126 100.42,-122 28.58,-122 28.58,-86 127.42,-86 127.42,-122"/>
<text text-anchor="middle" x="78" y="-99.8" font-family="Times,serif" font-size="14.00">SharedModule</text>
</g>
<!-- SharedModule&#45;&gt;EventListModule -->
<g id="edge2" class="edge">
<title>SharedModule&#45;&gt;EventListModule</title>
<path fill="none" stroke="black" d="M78,-122.11C78,-141.34 78,-169 78,-169 78,-169 151.65,-169 151.65,-169"/>
<polygon fill="black" stroke="black" points="151.65,-172.5 161.65,-169 151.65,-165.5 151.65,-172.5"/>
</g>
<!-- EventListService -->
<g id="node5" class="node">
<title>EventListService</title>
<ellipse fill="#fdb462" stroke="black" cx="389" cy="-104" rx="77.58" ry="18"/>
<text text-anchor="middle" x="389" y="-99.8" font-family="Times,serif" font-size="14.00">EventListService</text>
</g>
<!-- EventListService&#45;&gt;EventListModule -->
<g id="edge4" class="edge">
<title>EventListService&#45;&gt;EventListModule</title>
<path fill="none" stroke="black" d="M389,-122.11C389,-141.34 389,-169 389,-169 389,-169 286.08,-169 286.08,-169"/>
<polygon fill="black" stroke="black" points="286.08,-165.5 276.08,-169 286.08,-172.5 286.08,-165.5"/>
</g>
</g>
</svg>
