<?xml version="1.0" encoding="UTF-8" standalone="no"?>
<!DOCTYPE svg PUBLIC "-//W3C//DTD SVG 1.1//EN"
 "http://www.w3.org/Graphics/SVG/1.1/DTD/svg11.dtd">
<!-- Generated by graphviz version 2.44.1 (20200629.0846)
 -->
<!-- Title: dependencies Pages: 1 -->
<svg width="574pt" height="284pt"
 viewBox="0.00 0.00 574.00 284.00" xmlns="http://www.w3.org/2000/svg" xmlns:xlink="http://www.w3.org/1999/xlink">
<g id="graph0" class="graph" transform="scale(1 1) rotate(0) translate(4 280)">
<title>dependencies</title>
<polygon fill="white" stroke="transparent" points="-4,4 -4,-280 570,-280 570,4 -4,4"/>
<text text-anchor="start" x="262.01" y="-42.4" font-family="sans-serif" font-weight="bold" font-size="14.00">Legend</text>
<polygon fill="#ffffb3" stroke="transparent" points="49,-10 49,-30 69,-30 69,-10 49,-10"/>
<text text-anchor="start" x="72.63" y="-15.4" font-family="sans-serif" font-size="14.00"> &#160;Declarations</text>
<polygon fill="#8dd3c7" stroke="transparent" points="162,-10 162,-30 182,-30 182,-10 162,-10"/>
<text text-anchor="start" x="185.73" y="-15.4" font-family="sans-serif" font-size="14.00"> &#160;Module</text>
<polygon fill="#80b1d3" stroke="transparent" points="248,-10 248,-30 268,-30 268,-10 248,-10"/>
<text text-anchor="start" x="271.78" y="-15.4" font-family="sans-serif" font-size="14.00"> &#160;Bootstrap</text>
<polygon fill="#fdb462" stroke="transparent" points="345,-10 345,-30 365,-30 365,-10 345,-10"/>
<text text-anchor="start" x="368.67" y="-15.4" font-family="sans-serif" font-size="14.00"> &#160;Providers</text>
<polygon fill="#fb8072" stroke="transparent" points="441,-10 441,-30 461,-30 461,-10 441,-10"/>
<text text-anchor="start" x="464.73" y="-15.4" font-family="sans-serif" font-size="14.00"> &#160;Exports</text>
<g id="clust1" class="cluster">
<title>cluster_FastFeedbackModule</title>
<polygon fill="none" stroke="black" stroke-dasharray="1,5" points="8,-70 8,-268 558,-268 558,-70 8,-70"/>
</g>
<g id="clust6" class="cluster">
<title>cluster_FastFeedbackModule_exports</title>
<polygon fill="none" stroke="black" points="164,-208 164,-260 342,-260 342,-208 164,-208"/>
</g>
<g id="clust8" class="cluster">
<title>cluster_FastFeedbackModule_providers</title>
<polygon fill="none" stroke="black" points="348,-78 348,-130 550,-130 550,-78 348,-78"/>
</g>
<g id="clust2" class="cluster">
<title>cluster_FastFeedbackModule_declarations</title>
<polygon fill="none" stroke="black" points="16,-78 16,-130 340,-130 340,-78 16,-78"/>
</g>
<!-- FastFeedbackComponent -->
<g id="node1" class="node">
<title>FastFeedbackComponent</title>
<polygon fill="#ffffb3" stroke="black" points="332.31,-122 173.69,-122 173.69,-86 332.31,-86 332.31,-122"/>
<text text-anchor="middle" x="253" y="-99.8" font-family="Times,serif" font-size="14.00">FastFeedbackComponent</text>
</g>
<!-- FastFeedbackModule -->
<g id="node3" class="node">
<title>FastFeedbackModule</title>
<polygon fill="#8dd3c7" stroke="black" points="321.02,-187 318.02,-191 297.02,-191 294.02,-187 184.98,-187 184.98,-151 321.02,-151 321.02,-187"/>
<text text-anchor="middle" x="253" y="-164.8" font-family="Times,serif" font-size="14.00">FastFeedbackModule</text>
</g>
<!-- FastFeedbackComponent&#45;&gt;FastFeedbackModule -->
<g id="edge1" class="edge">
<title>FastFeedbackComponent&#45;&gt;FastFeedbackModule</title>
<path fill="none" stroke="black" d="M253,-122.11C253,-122.11 253,-140.99 253,-140.99"/>
<polygon fill="black" stroke="black" points="249.5,-140.99 253,-150.99 256.5,-140.99 249.5,-140.99"/>
</g>
<!-- QuestionComponent -->
<g id="node2" class="node">
<title>QuestionComponent</title>
<polygon fill="#ffffb3" stroke="black" points="155.88,-122 24.12,-122 24.12,-86 155.88,-86 155.88,-122"/>
<text text-anchor="middle" x="90" y="-99.8" font-family="Times,serif" font-size="14.00">QuestionComponent</text>
</g>
<!-- QuestionComponent&#45;&gt;FastFeedbackModule -->
<g id="edge2" class="edge">
<title>QuestionComponent&#45;&gt;FastFeedbackModule</title>
<path fill="none" stroke="black" d="M90,-122.11C90,-141.34 90,-169 90,-169 90,-169 174.82,-169 174.82,-169"/>
<polygon fill="black" stroke="black" points="174.82,-172.5 184.82,-169 174.82,-165.5 174.82,-172.5"/>
</g>
<!-- FastFeedbackComponent  -->
<g id="node4" class="node">
<title>FastFeedbackComponent </title>
<polygon fill="#fb8072" stroke="black" points="333.81,-252 172.19,-252 172.19,-216 333.81,-216 333.81,-252"/>
<text text-anchor="middle" x="253" y="-229.8" font-family="Times,serif" font-size="14.00">FastFeedbackComponent </text>
</g>
<!-- FastFeedbackModule&#45;&gt;FastFeedbackComponent  -->
<g id="edge3" class="edge">
<title>FastFeedbackModule&#45;&gt;FastFeedbackComponent </title>
<path fill="none" stroke="black" stroke-dasharray="5,2" d="M253,-187.11C253,-187.11 253,-205.99 253,-205.99"/>
<polygon fill="black" stroke="black" points="249.5,-205.99 253,-215.99 256.5,-205.99 249.5,-205.99"/>
</g>
<!-- FastFeedbackService -->
<g id="node5" class="node">
<title>FastFeedbackService</title>
<ellipse fill="#fdb462" stroke="black" cx="449" cy="-104" rx="93.17" ry="18"/>
<text text-anchor="middle" x="449" y="-99.8" font-family="Times,serif" font-size="14.00">FastFeedbackService</text>
</g>
<!-- FastFeedbackService&#45;&gt;FastFeedbackModule -->
<g id="edge4" class="edge">
<title>FastFeedbackService&#45;&gt;FastFeedbackModule</title>
<path fill="none" stroke="black" d="M449,-122.11C449,-141.34 449,-169 449,-169 449,-169 331.28,-169 331.28,-169"/>
<polygon fill="black" stroke="black" points="331.28,-165.5 321.28,-169 331.28,-172.5 331.28,-165.5"/>
</g>
</g>
</svg>
