<?xml version="1.0" encoding="UTF-8" standalone="no"?>
<!DOCTYPE svg PUBLIC "-//W3C//DTD SVG 1.1//EN"
 "http://www.w3.org/Graphics/SVG/1.1/DTD/svg11.dtd">
<!-- Generated by graphviz version 2.44.1 (20200629.0846)
 -->
<!-- Title: dependencies Pages: 1 -->
<svg width="574pt" height="284pt"
 viewBox="0.00 0.00 574.00 284.00" xmlns="http://www.w3.org/2000/svg" xmlns:xlink="http://www.w3.org/1999/xlink">
<g id="graph0" class="graph" transform="scale(1 1) rotate(0) translate(4 280)">
<title>dependencies</title>
<polygon fill="white" stroke="transparent" points="-4,4 -4,-280 570,-280 570,4 -4,4"/>
<text text-anchor="start" x="262.01" y="-42.4" font-family="sans-serif" font-weight="bold" font-size="14.00">Legend</text>
<polygon fill="#ffffb3" stroke="transparent" points="49,-10 49,-30 69,-30 69,-10 49,-10"/>
<text text-anchor="start" x="72.63" y="-15.4" font-family="sans-serif" font-size="14.00"> &#160;Declarations</text>
<polygon fill="#8dd3c7" stroke="transparent" points="162,-10 162,-30 182,-30 182,-10 162,-10"/>
<text text-anchor="start" x="185.73" y="-15.4" font-family="sans-serif" font-size="14.00"> &#160;Module</text>
<polygon fill="#80b1d3" stroke="transparent" points="248,-10 248,-30 268,-30 268,-10 248,-10"/>
<text text-anchor="start" x="271.78" y="-15.4" font-family="sans-serif" font-size="14.00"> &#160;Bootstrap</text>
<polygon fill="#fdb462" stroke="transparent" points="345,-10 345,-30 365,-30 365,-10 345,-10"/>
<text text-anchor="start" x="368.67" y="-15.4" font-family="sans-serif" font-size="14.00"> &#160;Providers</text>
<polygon fill="#fb8072" stroke="transparent" points="441,-10 441,-30 461,-30 461,-10 441,-10"/>
<text text-anchor="start" x="464.73" y="-15.4" font-family="sans-serif" font-size="14.00"> &#160;Exports</text>
<g id="clust1" class="cluster">
<title>cluster_FastFeedbackModule</title>
<polygon fill="none" stroke="black" stroke-dasharray="1,5" points="8,-70 8,-268 558,-268 558,-70 8,-70"/>
</g>
<g id="clust2" class="cluster">
<title>cluster_FastFeedbackModule_declarations</title>
<polygon fill="none" stroke="black" points="226,-78 226,-130 550,-130 550,-78 226,-78"/>
</g>
<g id="clust6" class="cluster">
<title>cluster_FastFeedbackModule_exports</title>
<polygon fill="none" stroke="black" points="211,-208 211,-260 389,-260 389,-208 211,-208"/>
</g>
<g id="clust8" class="cluster">
<title>cluster_FastFeedbackModule_providers</title>
<polygon fill="none" stroke="black" points="16,-78 16,-130 218,-130 218,-78 16,-78"/>
</g>
<!-- FastFeedbackComponent -->
<g id="node1" class="node">
<title>FastFeedbackComponent</title>
<polygon fill="#ffffb3" stroke="black" points="542.31,-122 383.69,-122 383.69,-86 542.31,-86 542.31,-122"/>
<text text-anchor="middle" x="463" y="-99.8" font-family="Times,serif" font-size="14.00">FastFeedbackComponent</text>
</g>
<!-- FastFeedbackModule -->
<g id="node3" class="node">
<title>FastFeedbackModule</title>
<polygon fill="#8dd3c7" stroke="black" points="368.02,-187 365.02,-191 344.02,-191 341.02,-187 231.98,-187 231.98,-151 368.02,-151 368.02,-187"/>
<text text-anchor="middle" x="300" y="-164.8" font-family="Times,serif" font-size="14.00">FastFeedbackModule</text>
</g>
<!-- FastFeedbackComponent&#45;&gt;FastFeedbackModule -->
<g id="edge1" class="edge">
<title>FastFeedbackComponent&#45;&gt;FastFeedbackModule</title>
<path fill="none" stroke="black" d="M463,-122.11C463,-141.34 463,-169 463,-169 463,-169 378.18,-169 378.18,-169"/>
<polygon fill="black" stroke="black" points="378.18,-165.5 368.18,-169 378.18,-172.5 378.18,-165.5"/>
</g>
<!-- QuestionComponent -->
<g id="node2" class="node">
<title>QuestionComponent</title>
<polygon fill="#ffffb3" stroke="black" points="365.88,-122 234.12,-122 234.12,-86 365.88,-86 365.88,-122"/>
<text text-anchor="middle" x="300" y="-99.8" font-family="Times,serif" font-size="14.00">QuestionComponent</text>
</g>
<!-- QuestionComponent&#45;&gt;FastFeedbackModule -->
<g id="edge2" class="edge">
<title>QuestionComponent&#45;&gt;FastFeedbackModule</title>
<path fill="none" stroke="black" d="M300,-122.11C300,-122.11 300,-140.99 300,-140.99"/>
<polygon fill="black" stroke="black" points="296.5,-140.99 300,-150.99 303.5,-140.99 296.5,-140.99"/>
</g>
<!-- FastFeedbackComponent  -->
<g id="node4" class="node">
<title>FastFeedbackComponent </title>
<polygon fill="#fb8072" stroke="black" points="380.81,-252 219.19,-252 219.19,-216 380.81,-216 380.81,-252"/>
<text text-anchor="middle" x="300" y="-229.8" font-family="Times,serif" font-size="14.00">FastFeedbackComponent </text>
</g>
<!-- FastFeedbackModule&#45;&gt;FastFeedbackComponent  -->
<g id="edge3" class="edge">
<title>FastFeedbackModule&#45;&gt;FastFeedbackComponent </title>
<path fill="none" stroke="black" stroke-dasharray="5,2" d="M300,-187.11C300,-187.11 300,-205.99 300,-205.99"/>
<polygon fill="black" stroke="black" points="296.5,-205.99 300,-215.99 303.5,-205.99 296.5,-205.99"/>
</g>
<!-- FastFeedbackService -->
<g id="node5" class="node">
<title>FastFeedbackService</title>
<ellipse fill="#fdb462" stroke="black" cx="117" cy="-104" rx="93.17" ry="18"/>
<text text-anchor="middle" x="117" y="-99.8" font-family="Times,serif" font-size="14.00">FastFeedbackService</text>
</g>
<!-- FastFeedbackService&#45;&gt;FastFeedbackModule -->
<g id="edge4" class="edge">
<title>FastFeedbackService&#45;&gt;FastFeedbackModule</title>
<path fill="none" stroke="black" d="M117,-122.11C117,-141.34 117,-169 117,-169 117,-169 221.86,-169 221.86,-169"/>
<polygon fill="black" stroke="black" points="221.86,-172.5 231.86,-169 221.86,-165.5 221.86,-172.5"/>
</g>
</g>
</svg>
