<svg width="100" height="100" viewBox="0 0 100 100" fill="none" xmlns="http://www.w3.org/2000/svg">
<mask id="mask0_562_12634" style="mask-type:alpha" maskUnits="userSpaceOnUse" x="0" y="0" width="100" height="100">
<circle cx="50" cy="50" r="50" fill="#D9D9D9"/>
</mask>
<g mask="url(#mask0_562_12634)">
<rect x="-14.2858" y="-18.1818" width="136.364" height="136.364" fill="#008296"/>
<path d="M70.3398 42.113H60.6928C60.5166 40.8649 60.1568 39.7563 59.6135 38.7872C59.0702 37.8034 58.3728 36.9665 57.5211 36.2763C56.6695 35.5862 55.6857 35.0576 54.5697 34.6905C53.4685 34.3234 52.2718 34.1399 50.9796 34.1399C48.645 34.1399 46.6113 34.7199 44.8787 35.8799C43.146 37.0252 41.8025 38.6991 40.848 40.9016C39.8936 43.0895 39.4164 45.7472 39.4164 48.8748C39.4164 52.0905 39.8936 54.7922 40.848 56.9801C41.8171 59.1679 43.168 60.8198 44.9007 61.9357C46.6333 63.0517 48.6376 63.6097 50.9136 63.6097C52.191 63.6097 53.373 63.4408 54.4596 63.1031C55.5609 62.7653 56.5373 62.2734 57.389 61.6274C58.2406 60.9666 58.9454 60.1664 59.5034 59.2266C60.0761 58.2869 60.4725 57.215 60.6928 56.0109L70.3398 56.055C70.0902 58.1254 69.4662 60.1223 68.4677 62.0459C67.4839 63.9547 66.155 65.6653 64.4811 67.1777C62.8219 68.6755 60.8396 69.8648 58.5343 70.7458C56.2437 71.6122 53.652 72.0453 50.7594 72.0453C46.7361 72.0453 43.1387 71.1349 39.967 69.3142C36.8101 67.4934 34.3139 64.8577 32.4784 61.4071C30.6577 57.9565 29.7473 53.7791 29.7473 48.8748C29.7473 43.9558 30.6724 39.771 32.5225 36.3204C34.3726 32.8698 36.8835 30.2414 40.0551 28.4354C43.2268 26.6146 46.7948 25.7042 50.7594 25.7042C53.373 25.7042 55.7958 26.0713 58.0277 26.8055C60.2743 27.5397 62.2639 28.6116 63.9966 30.0212C65.7292 31.4161 67.1388 33.1267 68.2254 35.153C69.3267 37.1794 70.0315 39.4994 70.3398 42.113Z" fill="white"/>
</g>
</svg>
