<?xml version="1.0" encoding="UTF-8" standalone="no"?>
<!DOCTYPE svg PUBLIC "-//W3C//DTD SVG 1.1//EN"
 "http://www.w3.org/Graphics/SVG/1.1/DTD/svg11.dtd">
<!-- Generated by graphviz version 2.44.1 (20200629.0846)
 -->
<!-- Title: dependencies Pages: 1 -->
<svg width="944pt" height="284pt"
 viewBox="0.00 0.00 944.00 284.00" xmlns="http://www.w3.org/2000/svg" xmlns:xlink="http://www.w3.org/1999/xlink">
<g id="graph0" class="graph" transform="scale(1 1) rotate(0) translate(4 280)">
<title>dependencies</title>
<polygon fill="white" stroke="transparent" points="-4,4 -4,-280 940,-280 940,4 -4,4"/>
<text text-anchor="start" x="447.01" y="-42.4" font-family="sans-serif" font-weight="bold" font-size="14.00">Legend</text>
<polygon fill="#ffffb3" stroke="transparent" points="234,-10 234,-30 254,-30 254,-10 234,-10"/>
<text text-anchor="start" x="257.63" y="-15.4" font-family="sans-serif" font-size="14.00"> &#160;Declarations</text>
<polygon fill="#8dd3c7" stroke="transparent" points="347,-10 347,-30 367,-30 367,-10 347,-10"/>
<text text-anchor="start" x="370.73" y="-15.4" font-family="sans-serif" font-size="14.00"> &#160;Module</text>
<polygon fill="#80b1d3" stroke="transparent" points="433,-10 433,-30 453,-30 453,-10 433,-10"/>
<text text-anchor="start" x="456.78" y="-15.4" font-family="sans-serif" font-size="14.00"> &#160;Bootstrap</text>
<polygon fill="#fdb462" stroke="transparent" points="530,-10 530,-30 550,-30 550,-10 530,-10"/>
<text text-anchor="start" x="553.67" y="-15.4" font-family="sans-serif" font-size="14.00"> &#160;Providers</text>
<polygon fill="#fb8072" stroke="transparent" points="626,-10 626,-30 646,-30 646,-10 626,-10"/>
<text text-anchor="start" x="649.73" y="-15.4" font-family="sans-serif" font-size="14.00"> &#160;Exports</text>
<g id="clust1" class="cluster">
<title>cluster_SettingsModule</title>
<polygon fill="none" stroke="black" stroke-dasharray="1,5" points="8,-70 8,-268 928,-268 928,-70 8,-70"/>
</g>
<g id="clust5" class="cluster">
<title>cluster_SettingsModule_imports</title>
<polygon fill="none" stroke="black" points="356,-78 356,-130 920,-130 920,-78 356,-78"/>
</g>
<g id="clust2" class="cluster">
<title>cluster_SettingsModule_declarations</title>
<polygon fill="none" stroke="black" points="16,-78 16,-130 348,-130 348,-78 16,-78"/>
</g>
<g id="clust6" class="cluster">
<title>cluster_SettingsModule_exports</title>
<polygon fill="none" stroke="black" points="299,-208 299,-260 707,-260 707,-208 299,-208"/>
</g>
<!-- SettingsComponent -->
<g id="node1" class="node">
<title>SettingsComponent</title>
<polygon fill="#ffffb3" stroke="black" points="340.45,-122 213.55,-122 213.55,-86 340.45,-86 340.45,-122"/>
<text text-anchor="middle" x="277" y="-99.8" font-family="Times,serif" font-size="14.00">SettingsComponent</text>
</g>
<!-- SettingsModule -->
<g id="node3" class="node">
<title>SettingsModule</title>
<polygon fill="#8dd3c7" stroke="black" points="536.16,-187 533.16,-191 512.16,-191 509.16,-187 431.84,-187 431.84,-151 536.16,-151 536.16,-187"/>
<text text-anchor="middle" x="484" y="-164.8" font-family="Times,serif" font-size="14.00">SettingsModule</text>
</g>
<!-- SettingsComponent&#45;&gt;SettingsModule -->
<g id="edge1" class="edge">
<title>SettingsComponent&#45;&gt;SettingsModule</title>
<path fill="none" stroke="black" d="M323.63,-122.03C323.63,-138.4 323.63,-160 323.63,-160 323.63,-160 421.49,-160 421.49,-160"/>
<polygon fill="black" stroke="black" points="421.49,-163.5 431.49,-160 421.49,-156.5 421.49,-163.5"/>
</g>
<!-- SettingsRoutingComponent -->
<g id="node2" class="node">
<title>SettingsRoutingComponent</title>
<polygon fill="#ffffb3" stroke="black" points="195.56,-122 24.44,-122 24.44,-86 195.56,-86 195.56,-122"/>
<text text-anchor="middle" x="110" y="-99.8" font-family="Times,serif" font-size="14.00">SettingsRoutingComponent</text>
</g>
<!-- SettingsRoutingComponent&#45;&gt;SettingsModule -->
<g id="edge2" class="edge">
<title>SettingsRoutingComponent&#45;&gt;SettingsModule</title>
<path fill="none" stroke="black" d="M110,-122.11C110,-141.34 110,-169 110,-169 110,-169 421.6,-169 421.6,-169"/>
<polygon fill="black" stroke="black" points="421.6,-172.5 431.6,-169 421.6,-165.5 421.6,-172.5"/>
</g>
<!-- FastFeedbackModule  -->
<g id="node8" class="node">
<title>FastFeedbackModule </title>
<polygon fill="#fb8072" stroke="black" points="699.02,-252 558.98,-252 558.98,-216 699.02,-216 699.02,-252"/>
<text text-anchor="middle" x="629" y="-229.8" font-family="Times,serif" font-size="14.00">FastFeedbackModule </text>
</g>
<!-- SettingsModule&#45;&gt;FastFeedbackModule  -->
<g id="edge7" class="edge">
<title>SettingsModule&#45;&gt;FastFeedbackModule </title>
<path fill="none" stroke="black" stroke-dasharray="5,2" d="M536.31,-178C564.85,-178 594.44,-178 594.44,-178 594.44,-178 594.44,-205.97 594.44,-205.97"/>
<polygon fill="black" stroke="black" points="590.94,-205.97 594.44,-215.97 597.94,-205.97 590.94,-205.97"/>
</g>
<!-- FilestackModule  -->
<g id="node9" class="node">
<title>FilestackModule </title>
<polygon fill="#fb8072" stroke="black" points="540.59,-252 427.41,-252 427.41,-216 540.59,-216 540.59,-252"/>
<text text-anchor="middle" x="484" y="-229.8" font-family="Times,serif" font-size="14.00">FilestackModule </text>
</g>
<!-- SettingsModule&#45;&gt;FilestackModule  -->
<g id="edge8" class="edge">
<title>SettingsModule&#45;&gt;FilestackModule </title>
<path fill="none" stroke="black" stroke-dasharray="5,2" d="M484,-187.11C484,-187.11 484,-205.99 484,-205.99"/>
<polygon fill="black" stroke="black" points="480.5,-205.99 484,-215.99 487.5,-205.99 480.5,-205.99"/>
</g>
<!-- SharedModule  -->
<g id="node10" class="node">
<title>SharedModule </title>
<polygon fill="#fb8072" stroke="black" points="408.92,-252 307.08,-252 307.08,-216 408.92,-216 408.92,-252"/>
<text text-anchor="middle" x="358" y="-229.8" font-family="Times,serif" font-size="14.00">SharedModule </text>
</g>
<!-- SettingsModule&#45;&gt;SharedModule  -->
<g id="edge9" class="edge">
<title>SettingsModule&#45;&gt;SharedModule </title>
<path fill="none" stroke="black" stroke-dasharray="5,2" d="M431.76,-178C408.55,-178 386.38,-178 386.38,-178 386.38,-178 386.38,-205.97 386.38,-205.97"/>
<polygon fill="black" stroke="black" points="382.88,-205.97 386.38,-215.97 389.88,-205.97 382.88,-205.97"/>
</g>
<!-- FastFeedbackModule -->
<g id="node4" class="node">
<title>FastFeedbackModule</title>
<polygon fill="#8dd3c7" stroke="black" points="912.02,-122 909.02,-126 888.02,-126 885.02,-122 775.98,-122 775.98,-86 912.02,-86 912.02,-122"/>
<text text-anchor="middle" x="844" y="-99.8" font-family="Times,serif" font-size="14.00">FastFeedbackModule</text>
</g>
<!-- FastFeedbackModule&#45;&gt;SettingsModule -->
<g id="edge3" class="edge">
<title>FastFeedbackModule&#45;&gt;SettingsModule</title>
<path fill="none" stroke="black" d="M844,-122.11C844,-141.34 844,-169 844,-169 844,-169 546.35,-169 546.35,-169"/>
<polygon fill="black" stroke="black" points="546.35,-165.5 536.35,-169 546.35,-172.5 546.35,-165.5"/>
</g>
<!-- FilestackModule -->
<g id="node5" class="node">
<title>FilestackModule</title>
<polygon fill="#8dd3c7" stroke="black" points="758.09,-122 755.09,-126 734.09,-126 731.09,-122 647.91,-122 647.91,-86 758.09,-86 758.09,-122"/>
<text text-anchor="middle" x="703" y="-99.8" font-family="Times,serif" font-size="14.00">FilestackModule</text>
</g>
<!-- FilestackModule&#45;&gt;SettingsModule -->
<g id="edge4" class="edge">
<title>FilestackModule&#45;&gt;SettingsModule</title>
<path fill="none" stroke="black" d="M673.48,-122.03C673.48,-138.4 673.48,-160 673.48,-160 673.48,-160 546.28,-160 546.28,-160"/>
<polygon fill="black" stroke="black" points="546.28,-156.5 536.28,-160 546.28,-163.5 546.28,-156.5"/>
</g>
<!-- SettingsRoutingModule -->
<g id="node6" class="node">
<title>SettingsRoutingModule</title>
<polygon fill="#8dd3c7" stroke="black" points="629.78,-122 626.78,-126 605.78,-126 602.78,-122 480.22,-122 480.22,-86 629.78,-86 629.78,-122"/>
<text text-anchor="middle" x="555" y="-99.8" font-family="Times,serif" font-size="14.00">SettingsRoutingModule</text>
</g>
<!-- SettingsRoutingModule&#45;&gt;SettingsModule -->
<g id="edge5" class="edge">
<title>SettingsRoutingModule&#45;&gt;SettingsModule</title>
<path fill="none" stroke="black" d="M508.22,-122.11C508.22,-122.11 508.22,-140.99 508.22,-140.99"/>
<polygon fill="black" stroke="black" points="504.72,-140.99 508.22,-150.99 511.72,-140.99 504.72,-140.99"/>
</g>
<!-- SharedModule -->
<g id="node7" class="node">
<title>SharedModule</title>
<polygon fill="#8dd3c7" stroke="black" points="462.42,-122 459.42,-126 438.42,-126 435.42,-122 363.58,-122 363.58,-86 462.42,-86 462.42,-122"/>
<text text-anchor="middle" x="413" y="-99.8" font-family="Times,serif" font-size="14.00">SharedModule</text>
</g>
<!-- SharedModule&#45;&gt;SettingsModule -->
<g id="edge6" class="edge">
<title>SharedModule&#45;&gt;SettingsModule</title>
<path fill="none" stroke="black" d="M446.94,-122.11C446.94,-122.11 446.94,-140.99 446.94,-140.99"/>
<polygon fill="black" stroke="black" points="443.44,-140.99 446.94,-150.99 450.44,-140.99 443.44,-140.99"/>
</g>
</g>
</svg>
