<?xml version="1.0" encoding="UTF-8" standalone="no"?>
<!DOCTYPE svg PUBLIC "-//W3C//DTD SVG 1.1//EN"
 "http://www.w3.org/Graphics/SVG/1.1/DTD/svg11.dtd">
<!-- Generated by graphviz version 2.44.1 (20200629.0846)
 -->
<!-- Title: dependencies Pages: 1 -->
<svg width="944pt" height="284pt"
 viewBox="0.00 0.00 944.00 284.00" xmlns="http://www.w3.org/2000/svg" xmlns:xlink="http://www.w3.org/1999/xlink">
<g id="graph0" class="graph" transform="scale(1 1) rotate(0) translate(4 280)">
<title>dependencies</title>
<polygon fill="white" stroke="transparent" points="-4,4 -4,-280 940,-280 940,4 -4,4"/>
<text text-anchor="start" x="447.01" y="-42.4" font-family="sans-serif" font-weight="bold" font-size="14.00">Legend</text>
<polygon fill="#ffffb3" stroke="transparent" points="234,-10 234,-30 254,-30 254,-10 234,-10"/>
<text text-anchor="start" x="257.63" y="-15.4" font-family="sans-serif" font-size="14.00"> &#160;Declarations</text>
<polygon fill="#8dd3c7" stroke="transparent" points="347,-10 347,-30 367,-30 367,-10 347,-10"/>
<text text-anchor="start" x="370.73" y="-15.4" font-family="sans-serif" font-size="14.00"> &#160;Module</text>
<polygon fill="#80b1d3" stroke="transparent" points="433,-10 433,-30 453,-30 453,-10 433,-10"/>
<text text-anchor="start" x="456.78" y="-15.4" font-family="sans-serif" font-size="14.00"> &#160;Bootstrap</text>
<polygon fill="#fdb462" stroke="transparent" points="530,-10 530,-30 550,-30 550,-10 530,-10"/>
<text text-anchor="start" x="553.67" y="-15.4" font-family="sans-serif" font-size="14.00"> &#160;Providers</text>
<polygon fill="#fb8072" stroke="transparent" points="626,-10 626,-30 646,-30 646,-10 626,-10"/>
<text text-anchor="start" x="649.73" y="-15.4" font-family="sans-serif" font-size="14.00"> &#160;Exports</text>
<g id="clust1" class="cluster">
<title>cluster_SettingsModule</title>
<polygon fill="none" stroke="black" stroke-dasharray="1,5" points="8,-70 8,-268 928,-268 928,-70 8,-70"/>
</g>
<g id="clust2" class="cluster">
<title>cluster_SettingsModule_declarations</title>
<polygon fill="none" stroke="black" points="588,-78 588,-130 920,-130 920,-78 588,-78"/>
</g>
<g id="clust6" class="cluster">
<title>cluster_SettingsModule_exports</title>
<polygon fill="none" stroke="black" points="248,-208 248,-260 656,-260 656,-208 248,-208"/>
</g>
<g id="clust5" class="cluster">
<title>cluster_SettingsModule_imports</title>
<polygon fill="none" stroke="black" points="16,-78 16,-130 580,-130 580,-78 16,-78"/>
</g>
<!-- SettingsComponent -->
<g id="node1" class="node">
<title>SettingsComponent</title>
<polygon fill="#ffffb3" stroke="black" points="912.45,-122 785.55,-122 785.55,-86 912.45,-86 912.45,-122"/>
<text text-anchor="middle" x="849" y="-99.8" font-family="Times,serif" font-size="14.00">SettingsComponent</text>
</g>
<!-- SettingsModule -->
<g id="node3" class="node">
<title>SettingsModule</title>
<polygon fill="#8dd3c7" stroke="black" points="485.16,-187 482.16,-191 461.16,-191 458.16,-187 380.84,-187 380.84,-151 485.16,-151 485.16,-187"/>
<text text-anchor="middle" x="433" y="-164.8" font-family="Times,serif" font-size="14.00">SettingsModule</text>
</g>
<!-- SettingsComponent&#45;&gt;SettingsModule -->
<g id="edge1" class="edge">
<title>SettingsComponent&#45;&gt;SettingsModule</title>
<path fill="none" stroke="black" d="M849,-122.11C849,-141.34 849,-169 849,-169 849,-169 495.27,-169 495.27,-169"/>
<polygon fill="black" stroke="black" points="495.27,-165.5 485.27,-169 495.27,-172.5 495.27,-165.5"/>
</g>
<!-- SettingsRoutingComponent -->
<g id="node2" class="node">
<title>SettingsRoutingComponent</title>
<polygon fill="#ffffb3" stroke="black" points="767.56,-122 596.44,-122 596.44,-86 767.56,-86 767.56,-122"/>
<text text-anchor="middle" x="682" y="-99.8" font-family="Times,serif" font-size="14.00">SettingsRoutingComponent</text>
</g>
<!-- SettingsRoutingComponent&#45;&gt;SettingsModule -->
<g id="edge2" class="edge">
<title>SettingsRoutingComponent&#45;&gt;SettingsModule</title>
<path fill="none" stroke="black" d="M622.11,-122.03C622.11,-138.4 622.11,-160 622.11,-160 622.11,-160 495.18,-160 495.18,-160"/>
<polygon fill="black" stroke="black" points="495.18,-156.5 485.18,-160 495.18,-163.5 495.18,-156.5"/>
</g>
<!-- FastFeedbackModule  -->
<g id="node8" class="node">
<title>FastFeedbackModule </title>
<polygon fill="#fb8072" stroke="black" points="648.02,-252 507.98,-252 507.98,-216 648.02,-216 648.02,-252"/>
<text text-anchor="middle" x="578" y="-229.8" font-family="Times,serif" font-size="14.00">FastFeedbackModule </text>
</g>
<!-- SettingsModule&#45;&gt;FastFeedbackModule  -->
<g id="edge7" class="edge">
<title>SettingsModule&#45;&gt;FastFeedbackModule </title>
<path fill="none" stroke="black" stroke-dasharray="5,2" d="M485.31,-178C512.5,-178 540.12,-178 540.12,-178 540.12,-178 540.12,-205.97 540.12,-205.97"/>
<polygon fill="black" stroke="black" points="536.63,-205.97 540.12,-215.97 543.63,-205.97 536.63,-205.97"/>
</g>
<!-- FilestackModule  -->
<g id="node9" class="node">
<title>FilestackModule </title>
<polygon fill="#fb8072" stroke="black" points="489.59,-252 376.41,-252 376.41,-216 489.59,-216 489.59,-252"/>
<text text-anchor="middle" x="433" y="-229.8" font-family="Times,serif" font-size="14.00">FilestackModule </text>
</g>
<!-- SettingsModule&#45;&gt;FilestackModule  -->
<g id="edge8" class="edge">
<title>SettingsModule&#45;&gt;FilestackModule </title>
<path fill="none" stroke="black" stroke-dasharray="5,2" d="M433,-187.11C433,-187.11 433,-205.99 433,-205.99"/>
<polygon fill="black" stroke="black" points="429.5,-205.99 433,-215.99 436.5,-205.99 429.5,-205.99"/>
</g>
<!-- SharedModule  -->
<g id="node10" class="node">
<title>SharedModule </title>
<polygon fill="#fb8072" stroke="black" points="357.92,-252 256.08,-252 256.08,-216 357.92,-216 357.92,-252"/>
<text text-anchor="middle" x="307" y="-229.8" font-family="Times,serif" font-size="14.00">SharedModule </text>
</g>
<!-- SettingsModule&#45;&gt;SharedModule  -->
<g id="edge9" class="edge">
<title>SettingsModule&#45;&gt;SharedModule </title>
<path fill="none" stroke="black" stroke-dasharray="5,2" d="M380.63,-178C356.43,-178 332.96,-178 332.96,-178 332.96,-178 332.96,-205.97 332.96,-205.97"/>
<polygon fill="black" stroke="black" points="329.46,-205.97 332.96,-215.97 336.46,-205.97 329.46,-205.97"/>
</g>
<!-- FastFeedbackModule -->
<g id="node4" class="node">
<title>FastFeedbackModule</title>
<polygon fill="#8dd3c7" stroke="black" points="572.02,-122 569.02,-126 548.02,-126 545.02,-122 435.98,-122 435.98,-86 572.02,-86 572.02,-122"/>
<text text-anchor="middle" x="504" y="-99.8" font-family="Times,serif" font-size="14.00">FastFeedbackModule</text>
</g>
<!-- FastFeedbackModule&#45;&gt;SettingsModule -->
<g id="edge3" class="edge">
<title>FastFeedbackModule&#45;&gt;SettingsModule</title>
<path fill="none" stroke="black" d="M460.54,-122.11C460.54,-122.11 460.54,-140.99 460.54,-140.99"/>
<polygon fill="black" stroke="black" points="457.04,-140.99 460.54,-150.99 464.04,-140.99 457.04,-140.99"/>
</g>
<!-- FilestackModule -->
<g id="node5" class="node">
<title>FilestackModule</title>
<polygon fill="#8dd3c7" stroke="black" points="418.09,-122 415.09,-126 394.09,-126 391.09,-122 307.91,-122 307.91,-86 418.09,-86 418.09,-122"/>
<text text-anchor="middle" x="363" y="-99.8" font-family="Times,serif" font-size="14.00">FilestackModule</text>
</g>
<!-- FilestackModule&#45;&gt;SettingsModule -->
<g id="edge4" class="edge">
<title>FilestackModule&#45;&gt;SettingsModule</title>
<path fill="none" stroke="black" d="M399.36,-122.11C399.36,-122.11 399.36,-140.99 399.36,-140.99"/>
<polygon fill="black" stroke="black" points="395.86,-140.99 399.36,-150.99 402.86,-140.99 395.86,-140.99"/>
</g>
<!-- SettingsRoutingModule -->
<g id="node6" class="node">
<title>SettingsRoutingModule</title>
<polygon fill="#8dd3c7" stroke="black" points="289.78,-122 286.78,-126 265.78,-126 262.78,-122 140.22,-122 140.22,-86 289.78,-86 289.78,-122"/>
<text text-anchor="middle" x="215" y="-99.8" font-family="Times,serif" font-size="14.00">SettingsRoutingModule</text>
</g>
<!-- SettingsRoutingModule&#45;&gt;SettingsModule -->
<g id="edge5" class="edge">
<title>SettingsRoutingModule&#45;&gt;SettingsModule</title>
<path fill="none" stroke="black" d="M272.96,-122.03C272.96,-138.4 272.96,-160 272.96,-160 272.96,-160 370.6,-160 370.6,-160"/>
<polygon fill="black" stroke="black" points="370.6,-163.5 380.6,-160 370.6,-156.5 370.6,-163.5"/>
</g>
<!-- SharedModule -->
<g id="node7" class="node">
<title>SharedModule</title>
<polygon fill="#8dd3c7" stroke="black" points="122.42,-122 119.42,-126 98.42,-126 95.42,-122 23.58,-122 23.58,-86 122.42,-86 122.42,-122"/>
<text text-anchor="middle" x="73" y="-99.8" font-family="Times,serif" font-size="14.00">SharedModule</text>
</g>
<!-- SharedModule&#45;&gt;SettingsModule -->
<g id="edge6" class="edge">
<title>SharedModule&#45;&gt;SettingsModule</title>
<path fill="none" stroke="black" d="M73,-122.11C73,-141.34 73,-169 73,-169 73,-169 370.65,-169 370.65,-169"/>
<polygon fill="black" stroke="black" points="370.65,-172.5 380.65,-169 370.65,-165.5 370.65,-172.5"/>
</g>
</g>
</svg>
