<?xml version="1.0" encoding="UTF-8" standalone="no"?>
<!DOCTYPE svg PUBLIC "-//W3C//DTD SVG 1.1//EN"
 "http://www.w3.org/Graphics/SVG/1.1/DTD/svg11.dtd">
<!-- Generated by graphviz version 2.44.1 (20200629.0846)
 -->
<!-- Title: dependencies Pages: 1 -->
<svg width="504pt" height="211pt"
 viewBox="0.00 0.00 504.00 211.00" xmlns="http://www.w3.org/2000/svg" xmlns:xlink="http://www.w3.org/1999/xlink">
<g id="graph0" class="graph" transform="scale(1 1) rotate(0) translate(4 207)">
<title>dependencies</title>
<polygon fill="white" stroke="transparent" points="-4,4 -4,-207 500,-207 500,4 -4,4"/>
<text text-anchor="start" x="227.01" y="-42.4" font-family="sans-serif" font-weight="bold" font-size="14.00">Legend</text>
<polygon fill="#ffffb3" stroke="transparent" points="14,-10 14,-30 34,-30 34,-10 14,-10"/>
<text text-anchor="start" x="37.63" y="-15.4" font-family="sans-serif" font-size="14.00"> &#160;Declarations</text>
<polygon fill="#8dd3c7" stroke="transparent" points="127,-10 127,-30 147,-30 147,-10 127,-10"/>
<text text-anchor="start" x="150.73" y="-15.4" font-family="sans-serif" font-size="14.00"> &#160;Module</text>
<polygon fill="#80b1d3" stroke="transparent" points="213,-10 213,-30 233,-30 233,-10 213,-10"/>
<text text-anchor="start" x="236.78" y="-15.4" font-family="sans-serif" font-size="14.00"> &#160;Bootstrap</text>
<polygon fill="#fdb462" stroke="transparent" points="310,-10 310,-30 330,-30 330,-10 310,-10"/>
<text text-anchor="start" x="333.67" y="-15.4" font-family="sans-serif" font-size="14.00"> &#160;Providers</text>
<polygon fill="#fb8072" stroke="transparent" points="406,-10 406,-30 426,-30 426,-10 406,-10"/>
<text text-anchor="start" x="429.73" y="-15.4" font-family="sans-serif" font-size="14.00"> &#160;Exports</text>
<g id="clust1" class="cluster">
<title>cluster_RequestModule</title>
<polygon fill="none" stroke="black" stroke-dasharray="1,5" points="67,-70 67,-195 429,-195 429,-70 67,-70"/>
</g>
<g id="clust6" class="cluster">
<title>cluster_RequestModule_providers</title>
<polygon fill="none" stroke="black" points="75,-78 75,-130 421,-130 421,-78 75,-78"/>
</g>
<!-- RequestInterceptor -->
<g id="node1" class="node">
<title>RequestInterceptor</title>
<ellipse fill="#fdb462" stroke="black" cx="328" cy="-104" rx="84.51" ry="18"/>
<text text-anchor="middle" x="328" y="-99.8" font-family="Times,serif" font-size="14.00">RequestInterceptor</text>
</g>
<!-- RequestModule -->
<g id="node3" class="node">
<title>RequestModule</title>
<polygon fill="#8dd3c7" stroke="black" points="293.15,-187 290.15,-191 269.15,-191 266.15,-187 188.85,-187 188.85,-151 293.15,-151 293.15,-187"/>
<text text-anchor="middle" x="241" y="-164.8" font-family="Times,serif" font-size="14.00">RequestModule</text>
</g>
<!-- RequestInterceptor&#45;&gt;RequestModule -->
<g id="edge1" class="edge">
<title>RequestInterceptor&#45;&gt;RequestModule</title>
<path fill="none" stroke="black" d="M268.41,-116.84C268.41,-116.84 268.41,-140.52 268.41,-140.52"/>
<polygon fill="black" stroke="black" points="264.91,-140.52 268.41,-150.52 271.91,-140.52 264.91,-140.52"/>
</g>
<!-- RequestService -->
<g id="node2" class="node">
<title>RequestService</title>
<ellipse fill="#fdb462" stroke="black" cx="154" cy="-104" rx="71.2" ry="18"/>
<text text-anchor="middle" x="154" y="-99.8" font-family="Times,serif" font-size="14.00">RequestService</text>
</g>
<!-- RequestService&#45;&gt;RequestModule -->
<g id="edge2" class="edge">
<title>RequestService&#45;&gt;RequestModule</title>
<path fill="none" stroke="black" d="M206.89,-116.23C206.89,-116.23 206.89,-140.68 206.89,-140.68"/>
<polygon fill="black" stroke="black" points="203.39,-140.68 206.89,-150.68 210.39,-140.68 203.39,-140.68"/>
</g>
</g>
</svg>
