<?xml version="1.0" encoding="UTF-8"?>
<svg width="24px" height="24px" viewBox="0 0 24 24" version="1.1" xmlns="http://www.w3.org/2000/svg" xmlns:xlink="http://www.w3.org/1999/xlink">
    <title>Zoom icon2</title>
    <g id="Zoom-icon2" stroke="none" stroke-width="1" fill="none" fill-rule="evenodd">
        <path d="M12,2 C17.523,2 22,6.477 22,12 C22,17.523 17.523,22 12,22 C6.477,22 2,17.523 2,12 C2,6.477 6.477,2 12,2" id="Fill-1" fill="#2196F3"></path>
        <rect id="Rectangle" fill="#2196F3" x="2" y="2" width="20" height="20" rx="6"></rect>
        <path d="M14.5,15.5 L7,15.5 C6.1715,15.5 5.5,14.8285 5.5,14 L5.5,8.5 L13,8.5 C13.8285,8.5 14.5,9.1715 14.5,10 L14.5,15.5 Z M18.5,15.5 L15.5,13.5 L15.5,10.5 L18.5,8.5 L18.5,15.5 Z" id="Zoom-icon" fill="#FFFFFF"></path>
    </g>
</svg>