<?xml version="1.0" encoding="UTF-8" standalone="no"?>
<!DOCTYPE svg PUBLIC "-//W3C//DTD SVG 1.1//EN"
 "http://www.w3.org/Graphics/SVG/1.1/DTD/svg11.dtd">
<!-- Generated by graphviz version 2.44.1 (20200629.0846)
 -->
<!-- Title: dependencies Pages: 1 -->
<svg width="679pt" height="211pt"
 viewBox="0.00 0.00 679.00 211.00" xmlns="http://www.w3.org/2000/svg" xmlns:xlink="http://www.w3.org/1999/xlink">
<g id="graph0" class="graph" transform="scale(1 1) rotate(0) translate(4 207)">
<title>dependencies</title>
<polygon fill="white" stroke="transparent" points="-4,4 -4,-207 675,-207 675,4 -4,4"/>
<text text-anchor="start" x="314.51" y="-42.4" font-family="sans-serif" font-weight="bold" font-size="14.00">Legend</text>
<polygon fill="#ffffb3" stroke="transparent" points="101.5,-10 101.5,-30 121.5,-30 121.5,-10 101.5,-10"/>
<text text-anchor="start" x="125.13" y="-15.4" font-family="sans-serif" font-size="14.00"> &#160;Declarations</text>
<polygon fill="#8dd3c7" stroke="transparent" points="214.5,-10 214.5,-30 234.5,-30 234.5,-10 214.5,-10"/>
<text text-anchor="start" x="238.23" y="-15.4" font-family="sans-serif" font-size="14.00"> &#160;Module</text>
<polygon fill="#80b1d3" stroke="transparent" points="300.5,-10 300.5,-30 320.5,-30 320.5,-10 300.5,-10"/>
<text text-anchor="start" x="324.28" y="-15.4" font-family="sans-serif" font-size="14.00"> &#160;Bootstrap</text>
<polygon fill="#fdb462" stroke="transparent" points="397.5,-10 397.5,-30 417.5,-30 417.5,-10 397.5,-10"/>
<text text-anchor="start" x="421.17" y="-15.4" font-family="sans-serif" font-size="14.00"> &#160;Providers</text>
<polygon fill="#fb8072" stroke="transparent" points="493.5,-10 493.5,-30 513.5,-30 513.5,-10 493.5,-10"/>
<text text-anchor="start" x="517.23" y="-15.4" font-family="sans-serif" font-size="14.00"> &#160;Exports</text>
<g id="clust1" class="cluster">
<title>cluster_SwitcherModule</title>
<polygon fill="none" stroke="black" stroke-dasharray="1,5" points="8,-70 8,-195 663,-195 663,-70 8,-70"/>
</g>
<g id="clust5" class="cluster">
<title>cluster_SwitcherModule_imports</title>
<polygon fill="none" stroke="black" points="369,-78 369,-130 655,-130 655,-78 369,-78"/>
</g>
<g id="clust2" class="cluster">
<title>cluster_SwitcherModule_declarations</title>
<polygon fill="none" stroke="black" points="16,-78 16,-130 361,-130 361,-78 16,-78"/>
</g>
<!-- SwitcherComponent -->
<g id="node1" class="node">
<title>SwitcherComponent</title>
<polygon fill="#ffffb3" stroke="black" points="352.59,-122 221.41,-122 221.41,-86 352.59,-86 352.59,-122"/>
<text text-anchor="middle" x="287" y="-99.8" font-family="Times,serif" font-size="14.00">SwitcherComponent</text>
</g>
<!-- SwitcherModule -->
<g id="node3" class="node">
<title>SwitcherModule</title>
<polygon fill="#8dd3c7" stroke="black" points="424.81,-187 421.81,-191 400.81,-191 397.81,-187 315.19,-187 315.19,-151 424.81,-151 424.81,-187"/>
<text text-anchor="middle" x="370" y="-164.8" font-family="Times,serif" font-size="14.00">SwitcherModule</text>
</g>
<!-- SwitcherComponent&#45;&gt;SwitcherModule -->
<g id="edge1" class="edge">
<title>SwitcherComponent&#45;&gt;SwitcherModule</title>
<path fill="none" stroke="black" d="M333.95,-122.11C333.95,-122.11 333.95,-140.99 333.95,-140.99"/>
<polygon fill="black" stroke="black" points="330.45,-140.99 333.95,-150.99 337.45,-140.99 330.45,-140.99"/>
</g>
<!-- SwitcherProgramComponent -->
<g id="node2" class="node">
<title>SwitcherProgramComponent</title>
<polygon fill="#ffffb3" stroke="black" points="203.8,-122 24.2,-122 24.2,-86 203.8,-86 203.8,-122"/>
<text text-anchor="middle" x="114" y="-99.8" font-family="Times,serif" font-size="14.00">SwitcherProgramComponent</text>
</g>
<!-- SwitcherProgramComponent&#45;&gt;SwitcherModule -->
<g id="edge2" class="edge">
<title>SwitcherProgramComponent&#45;&gt;SwitcherModule</title>
<path fill="none" stroke="black" d="M114,-122.11C114,-141.34 114,-169 114,-169 114,-169 305.08,-169 305.08,-169"/>
<polygon fill="black" stroke="black" points="305.08,-172.5 315.08,-169 305.08,-165.5 305.08,-172.5"/>
</g>
<!-- SharedModule -->
<g id="node4" class="node">
<title>SharedModule</title>
<polygon fill="#8dd3c7" stroke="black" points="647.42,-122 644.42,-126 623.42,-126 620.42,-122 548.58,-122 548.58,-86 647.42,-86 647.42,-122"/>
<text text-anchor="middle" x="598" y="-99.8" font-family="Times,serif" font-size="14.00">SharedModule</text>
</g>
<!-- SharedModule&#45;&gt;SwitcherModule -->
<g id="edge3" class="edge">
<title>SharedModule&#45;&gt;SwitcherModule</title>
<path fill="none" stroke="black" d="M598,-122.11C598,-141.34 598,-169 598,-169 598,-169 434.9,-169 434.9,-169"/>
<polygon fill="black" stroke="black" points="434.9,-165.5 424.9,-169 434.9,-172.5 434.9,-165.5"/>
</g>
<!-- SwitcherRoutingModule -->
<g id="node5" class="node">
<title>SwitcherRoutingModule</title>
<polygon fill="#8dd3c7" stroke="black" points="531.43,-122 528.43,-126 507.43,-126 504.43,-122 376.57,-122 376.57,-86 531.43,-86 531.43,-122"/>
<text text-anchor="middle" x="454" y="-99.8" font-family="Times,serif" font-size="14.00">SwitcherRoutingModule</text>
</g>
<!-- SwitcherRoutingModule&#45;&gt;SwitcherModule -->
<g id="edge4" class="edge">
<title>SwitcherRoutingModule&#45;&gt;SwitcherModule</title>
<path fill="none" stroke="black" d="M400.72,-122.11C400.72,-122.11 400.72,-140.99 400.72,-140.99"/>
<polygon fill="black" stroke="black" points="397.22,-140.99 400.72,-150.99 404.22,-140.99 397.22,-140.99"/>
</g>
</g>
</svg>
