<?xml version="1.0" encoding="UTF-8" standalone="no"?>
<!DOCTYPE svg PUBLIC "-//W3C//DTD SVG 1.1//EN"
 "http://www.w3.org/Graphics/SVG/1.1/DTD/svg11.dtd">
<!-- Generated by graphviz version 2.44.1 (20200629.0846)
 -->
<!-- Title: dependencies Pages: 1 -->
<svg width="1061pt" height="211pt"
 viewBox="0.00 0.00 1061.00 211.00" xmlns="http://www.w3.org/2000/svg" xmlns:xlink="http://www.w3.org/1999/xlink">
<g id="graph0" class="graph" transform="scale(1 1) rotate(0) translate(4 207)">
<title>dependencies</title>
<polygon fill="white" stroke="transparent" points="-4,4 -4,-207 1057,-207 1057,4 -4,4"/>
<text text-anchor="start" x="505.51" y="-42.4" font-family="sans-serif" font-weight="bold" font-size="14.00">Legend</text>
<polygon fill="#ffffb3" stroke="transparent" points="292.5,-10 292.5,-30 312.5,-30 312.5,-10 292.5,-10"/>
<text text-anchor="start" x="316.13" y="-15.4" font-family="sans-serif" font-size="14.00"> &#160;Declarations</text>
<polygon fill="#8dd3c7" stroke="transparent" points="405.5,-10 405.5,-30 425.5,-30 425.5,-10 405.5,-10"/>
<text text-anchor="start" x="429.23" y="-15.4" font-family="sans-serif" font-size="14.00"> &#160;Module</text>
<polygon fill="#80b1d3" stroke="transparent" points="491.5,-10 491.5,-30 511.5,-30 511.5,-10 491.5,-10"/>
<text text-anchor="start" x="515.28" y="-15.4" font-family="sans-serif" font-size="14.00"> &#160;Bootstrap</text>
<polygon fill="#fdb462" stroke="transparent" points="588.5,-10 588.5,-30 608.5,-30 608.5,-10 588.5,-10"/>
<text text-anchor="start" x="612.17" y="-15.4" font-family="sans-serif" font-size="14.00"> &#160;Providers</text>
<polygon fill="#fb8072" stroke="transparent" points="684.5,-10 684.5,-30 704.5,-30 704.5,-10 684.5,-10"/>
<text text-anchor="start" x="708.23" y="-15.4" font-family="sans-serif" font-size="14.00"> &#160;Exports</text>
<g id="clust1" class="cluster">
<title>cluster_EventsModule</title>
<polygon fill="none" stroke="black" stroke-dasharray="1,5" points="8,-70 8,-195 1045,-195 1045,-70 8,-70"/>
</g>
<g id="clust2" class="cluster">
<title>cluster_EventsModule_declarations</title>
<polygon fill="none" stroke="black" points="719,-78 719,-130 1037,-130 1037,-78 719,-78"/>
</g>
<g id="clust5" class="cluster">
<title>cluster_EventsModule_imports</title>
<polygon fill="none" stroke="black" points="16,-78 16,-130 711,-130 711,-78 16,-78"/>
</g>
<!-- EventsComponent -->
<g id="node1" class="node">
<title>EventsComponent</title>
<polygon fill="#ffffb3" stroke="black" points="1028.94,-122 909.06,-122 909.06,-86 1028.94,-86 1028.94,-122"/>
<text text-anchor="middle" x="969" y="-99.8" font-family="Times,serif" font-size="14.00">EventsComponent</text>
</g>
<!-- EventsModule -->
<g id="node3" class="node">
<title>EventsModule</title>
<polygon fill="#8dd3c7" stroke="black" points="544.65,-187 541.65,-191 520.65,-191 517.65,-187 447.35,-187 447.35,-151 544.65,-151 544.65,-187"/>
<text text-anchor="middle" x="496" y="-164.8" font-family="Times,serif" font-size="14.00">EventsModule</text>
</g>
<!-- EventsComponent&#45;&gt;EventsModule -->
<g id="edge1" class="edge">
<title>EventsComponent&#45;&gt;EventsModule</title>
<path fill="none" stroke="black" d="M969,-122.29C969,-144.21 969,-178 969,-178 969,-178 554.84,-178 554.84,-178"/>
<polygon fill="black" stroke="black" points="554.84,-174.5 544.84,-178 554.84,-181.5 554.84,-174.5"/>
</g>
<!-- EventsRoutingComponent -->
<g id="node2" class="node">
<title>EventsRoutingComponent</title>
<polygon fill="#ffffb3" stroke="black" points="891.05,-122 726.95,-122 726.95,-86 891.05,-86 891.05,-122"/>
<text text-anchor="middle" x="809" y="-99.8" font-family="Times,serif" font-size="14.00">EventsRoutingComponent</text>
</g>
<!-- EventsRoutingComponent&#45;&gt;EventsModule -->
<g id="edge2" class="edge">
<title>EventsRoutingComponent&#45;&gt;EventsModule</title>
<path fill="none" stroke="black" d="M809,-122.11C809,-141.34 809,-169 809,-169 809,-169 554.91,-169 554.91,-169"/>
<polygon fill="black" stroke="black" points="554.91,-165.5 544.91,-169 554.91,-172.5 554.91,-165.5"/>
</g>
<!-- AssessmentModule -->
<g id="node4" class="node">
<title>AssessmentModule</title>
<polygon fill="#8dd3c7" stroke="black" points="702.65,-122 699.65,-126 678.65,-126 675.65,-122 577.35,-122 577.35,-86 702.65,-86 702.65,-122"/>
<text text-anchor="middle" x="640" y="-99.8" font-family="Times,serif" font-size="14.00">AssessmentModule</text>
</g>
<!-- AssessmentModule&#45;&gt;EventsModule -->
<g id="edge3" class="edge">
<title>AssessmentModule&#45;&gt;EventsModule</title>
<path fill="none" stroke="black" d="M640,-122.03C640,-138.4 640,-160 640,-160 640,-160 554.75,-160 554.75,-160"/>
<polygon fill="black" stroke="black" points="554.75,-156.5 544.75,-160 554.75,-163.5 554.75,-156.5"/>
</g>
<!-- EventDetailModule -->
<g id="node5" class="node">
<title>EventDetailModule</title>
<polygon fill="#8dd3c7" stroke="black" points="559.42,-122 556.42,-126 535.42,-126 532.42,-122 432.58,-122 432.58,-86 559.42,-86 559.42,-122"/>
<text text-anchor="middle" x="496" y="-99.8" font-family="Times,serif" font-size="14.00">EventDetailModule</text>
</g>
<!-- EventDetailModule&#45;&gt;EventsModule -->
<g id="edge4" class="edge">
<title>EventDetailModule&#45;&gt;EventsModule</title>
<path fill="none" stroke="black" d="M496,-122.11C496,-122.11 496,-140.99 496,-140.99"/>
<polygon fill="black" stroke="black" points="492.5,-140.99 496,-150.99 499.5,-140.99 492.5,-140.99"/>
</g>
<!-- EventListModule -->
<g id="node6" class="node">
<title>EventListModule</title>
<polygon fill="#8dd3c7" stroke="black" points="414.99,-122 411.99,-126 390.99,-126 387.99,-122 301.01,-122 301.01,-86 414.99,-86 414.99,-122"/>
<text text-anchor="middle" x="358" y="-99.8" font-family="Times,serif" font-size="14.00">EventListModule</text>
</g>
<!-- EventListModule&#45;&gt;EventsModule -->
<g id="edge5" class="edge">
<title>EventListModule&#45;&gt;EventsModule</title>
<path fill="none" stroke="black" d="M358,-122.03C358,-138.4 358,-160 358,-160 358,-160 437.35,-160 437.35,-160"/>
<polygon fill="black" stroke="black" points="437.35,-163.5 447.35,-160 437.35,-156.5 437.35,-163.5"/>
</g>
<!-- EventsRoutingModule -->
<g id="node7" class="node">
<title>EventsRoutingModule</title>
<polygon fill="#8dd3c7" stroke="black" points="283.27,-122 280.27,-126 259.27,-126 256.27,-122 140.73,-122 140.73,-86 283.27,-86 283.27,-122"/>
<text text-anchor="middle" x="212" y="-99.8" font-family="Times,serif" font-size="14.00">EventsRoutingModule</text>
</g>
<!-- EventsRoutingModule&#45;&gt;EventsModule -->
<g id="edge6" class="edge">
<title>EventsRoutingModule&#45;&gt;EventsModule</title>
<path fill="none" stroke="black" d="M212,-122.11C212,-141.34 212,-169 212,-169 212,-169 437.18,-169 437.18,-169"/>
<polygon fill="black" stroke="black" points="437.18,-172.5 447.18,-169 437.18,-165.5 437.18,-172.5"/>
</g>
<!-- SharedModule -->
<g id="node8" class="node">
<title>SharedModule</title>
<polygon fill="#8dd3c7" stroke="black" points="122.42,-122 119.42,-126 98.42,-126 95.42,-122 23.58,-122 23.58,-86 122.42,-86 122.42,-122"/>
<text text-anchor="middle" x="73" y="-99.8" font-family="Times,serif" font-size="14.00">SharedModule</text>
</g>
<!-- SharedModule&#45;&gt;EventsModule -->
<g id="edge7" class="edge">
<title>SharedModule&#45;&gt;EventsModule</title>
<path fill="none" stroke="black" d="M73,-122.29C73,-144.21 73,-178 73,-178 73,-178 437.06,-178 437.06,-178"/>
<polygon fill="black" stroke="black" points="437.06,-181.5 447.06,-178 437.06,-174.5 437.06,-181.5"/>
</g>
</g>
</svg>
