<?xml version="1.0" encoding="UTF-8" standalone="no"?>
<!DOCTYPE svg PUBLIC "-//W3C//DTD SVG 1.1//EN"
 "http://www.w3.org/Graphics/SVG/1.1/DTD/svg11.dtd">
<!-- Generated by graphviz version 2.44.1 (20200629.0846)
 -->
<!-- Title: dependencies Pages: 1 -->
<svg width="504pt" height="284pt"
 viewBox="0.00 0.00 504.00 284.00" xmlns="http://www.w3.org/2000/svg" xmlns:xlink="http://www.w3.org/1999/xlink">
<g id="graph0" class="graph" transform="scale(1 1) rotate(0) translate(4 280)">
<title>dependencies</title>
<polygon fill="white" stroke="transparent" points="-4,4 -4,-280 500,-280 500,4 -4,4"/>
<text text-anchor="start" x="227.01" y="-42.4" font-family="sans-serif" font-weight="bold" font-size="14.00">Legend</text>
<polygon fill="#ffffb3" stroke="transparent" points="14,-10 14,-30 34,-30 34,-10 14,-10"/>
<text text-anchor="start" x="37.63" y="-15.4" font-family="sans-serif" font-size="14.00"> &#160;Declarations</text>
<polygon fill="#8dd3c7" stroke="transparent" points="127,-10 127,-30 147,-30 147,-10 127,-10"/>
<text text-anchor="start" x="150.73" y="-15.4" font-family="sans-serif" font-size="14.00"> &#160;Module</text>
<polygon fill="#80b1d3" stroke="transparent" points="213,-10 213,-30 233,-30 233,-10 213,-10"/>
<text text-anchor="start" x="236.78" y="-15.4" font-family="sans-serif" font-size="14.00"> &#160;Bootstrap</text>
<polygon fill="#fdb462" stroke="transparent" points="310,-10 310,-30 330,-30 330,-10 310,-10"/>
<text text-anchor="start" x="333.67" y="-15.4" font-family="sans-serif" font-size="14.00"> &#160;Providers</text>
<polygon fill="#fb8072" stroke="transparent" points="406,-10 406,-30 426,-30 426,-10 406,-10"/>
<text text-anchor="start" x="429.73" y="-15.4" font-family="sans-serif" font-size="14.00"> &#160;Exports</text>
<g id="clust1" class="cluster">
<title>cluster_GoMobileModule</title>
<polygon fill="none" stroke="black" stroke-dasharray="1,5" points="10,-70 10,-268 486,-268 486,-70 10,-70"/>
</g>
<g id="clust5" class="cluster">
<title>cluster_GoMobileModule_exports</title>
<polygon fill="none" stroke="black" points="138,-208 138,-260 296,-260 296,-208 138,-208"/>
</g>
<g id="clust7" class="cluster">
<title>cluster_GoMobileModule_providers</title>
<polygon fill="none" stroke="black" points="302,-78 302,-130 478,-130 478,-78 302,-78"/>
</g>
<g id="clust2" class="cluster">
<title>cluster_GoMobileModule_declarations</title>
<polygon fill="none" stroke="black" points="140,-78 140,-130 294,-130 294,-78 140,-78"/>
</g>
<g id="clust4" class="cluster">
<title>cluster_GoMobileModule_imports</title>
<polygon fill="none" stroke="black" points="18,-78 18,-130 132,-130 132,-78 18,-78"/>
</g>
<!-- GoMobileComponent -->
<g id="node1" class="node">
<title>GoMobileComponent</title>
<polygon fill="#ffffb3" stroke="black" points="286.38,-122 147.62,-122 147.62,-86 286.38,-86 286.38,-122"/>
<text text-anchor="middle" x="217" y="-99.8" font-family="Times,serif" font-size="14.00">GoMobileComponent</text>
</g>
<!-- GoMobileModule -->
<g id="node2" class="node">
<title>GoMobileModule</title>
<polygon fill="#8dd3c7" stroke="black" points="275.6,-187 272.6,-191 251.6,-191 248.6,-187 158.4,-187 158.4,-151 275.6,-151 275.6,-187"/>
<text text-anchor="middle" x="217" y="-164.8" font-family="Times,serif" font-size="14.00">GoMobileModule</text>
</g>
<!-- GoMobileComponent&#45;&gt;GoMobileModule -->
<g id="edge1" class="edge">
<title>GoMobileComponent&#45;&gt;GoMobileModule</title>
<path fill="none" stroke="black" d="M217,-122.11C217,-122.11 217,-140.99 217,-140.99"/>
<polygon fill="black" stroke="black" points="213.5,-140.99 217,-150.99 220.5,-140.99 213.5,-140.99"/>
</g>
<!-- GoMobileComponent  -->
<g id="node4" class="node">
<title>GoMobileComponent </title>
<polygon fill="#fb8072" stroke="black" points="288.38,-252 145.62,-252 145.62,-216 288.38,-216 288.38,-252"/>
<text text-anchor="middle" x="217" y="-229.8" font-family="Times,serif" font-size="14.00">GoMobileComponent </text>
</g>
<!-- GoMobileModule&#45;&gt;GoMobileComponent  -->
<g id="edge3" class="edge">
<title>GoMobileModule&#45;&gt;GoMobileComponent </title>
<path fill="none" stroke="black" stroke-dasharray="5,2" d="M217,-187.11C217,-187.11 217,-205.99 217,-205.99"/>
<polygon fill="black" stroke="black" points="213.5,-205.99 217,-215.99 220.5,-205.99 213.5,-205.99"/>
</g>
<!-- SharedModule -->
<g id="node3" class="node">
<title>SharedModule</title>
<polygon fill="#8dd3c7" stroke="black" points="124.42,-122 121.42,-126 100.42,-126 97.42,-122 25.58,-122 25.58,-86 124.42,-86 124.42,-122"/>
<text text-anchor="middle" x="75" y="-99.8" font-family="Times,serif" font-size="14.00">SharedModule</text>
</g>
<!-- SharedModule&#45;&gt;GoMobileModule -->
<g id="edge2" class="edge">
<title>SharedModule&#45;&gt;GoMobileModule</title>
<path fill="none" stroke="black" d="M75,-122.11C75,-141.34 75,-169 75,-169 75,-169 148.42,-169 148.42,-169"/>
<polygon fill="black" stroke="black" points="148.42,-172.5 158.42,-169 148.42,-165.5 148.42,-172.5"/>
</g>
<!-- GoMobileService -->
<g id="node5" class="node">
<title>GoMobileService</title>
<ellipse fill="#fdb462" stroke="black" cx="390" cy="-104" rx="79.87" ry="18"/>
<text text-anchor="middle" x="390" y="-99.8" font-family="Times,serif" font-size="14.00">GoMobileService</text>
</g>
<!-- GoMobileService&#45;&gt;GoMobileModule -->
<g id="edge4" class="edge">
<title>GoMobileService&#45;&gt;GoMobileModule</title>
<path fill="none" stroke="black" d="M390,-122.11C390,-141.34 390,-169 390,-169 390,-169 285.57,-169 285.57,-169"/>
<polygon fill="black" stroke="black" points="285.57,-165.5 275.57,-169 285.57,-172.5 285.57,-165.5"/>
</g>
</g>
</svg>
