<?xml version="1.0" encoding="UTF-8" standalone="no"?>
<!DOCTYPE svg PUBLIC "-//W3C//DTD SVG 1.1//EN"
 "http://www.w3.org/Graphics/SVG/1.1/DTD/svg11.dtd">
<!-- Generated by graphviz version 2.44.1 (20200629.0846)
 -->
<!-- Title: dependencies Pages: 1 -->
<svg width="1004pt" height="211pt"
 viewBox="0.00 0.00 1004.00 211.00" xmlns="http://www.w3.org/2000/svg" xmlns:xlink="http://www.w3.org/1999/xlink">
<g id="graph0" class="graph" transform="scale(1 1) rotate(0) translate(4 207)">
<title>dependencies</title>
<polygon fill="white" stroke="transparent" points="-4,4 -4,-207 1000,-207 1000,4 -4,4"/>
<text text-anchor="start" x="477.01" y="-42.4" font-family="sans-serif" font-weight="bold" font-size="14.00">Legend</text>
<polygon fill="#ffffb3" stroke="transparent" points="264,-10 264,-30 284,-30 284,-10 264,-10"/>
<text text-anchor="start" x="287.63" y="-15.4" font-family="sans-serif" font-size="14.00"> &#160;Declarations</text>
<polygon fill="#8dd3c7" stroke="transparent" points="377,-10 377,-30 397,-30 397,-10 377,-10"/>
<text text-anchor="start" x="400.73" y="-15.4" font-family="sans-serif" font-size="14.00"> &#160;Module</text>
<polygon fill="#80b1d3" stroke="transparent" points="463,-10 463,-30 483,-30 483,-10 463,-10"/>
<text text-anchor="start" x="486.78" y="-15.4" font-family="sans-serif" font-size="14.00"> &#160;Bootstrap</text>
<polygon fill="#fdb462" stroke="transparent" points="560,-10 560,-30 580,-30 580,-10 560,-10"/>
<text text-anchor="start" x="583.67" y="-15.4" font-family="sans-serif" font-size="14.00"> &#160;Providers</text>
<polygon fill="#fb8072" stroke="transparent" points="656,-10 656,-30 676,-30 676,-10 656,-10"/>
<text text-anchor="start" x="679.73" y="-15.4" font-family="sans-serif" font-size="14.00"> &#160;Exports</text>
<g id="clust1" class="cluster">
<title>cluster_TasksModule</title>
<polygon fill="none" stroke="black" stroke-dasharray="1,5" points="8,-70 8,-195 988,-195 988,-70 8,-70"/>
</g>
<g id="clust2" class="cluster">
<title>cluster_TasksModule_declarations</title>
<polygon fill="none" stroke="black" points="672,-78 672,-130 980,-130 980,-78 672,-78"/>
</g>
<g id="clust5" class="cluster">
<title>cluster_TasksModule_imports</title>
<polygon fill="none" stroke="black" points="16,-78 16,-130 664,-130 664,-78 16,-78"/>
</g>
<!-- TasksComponent -->
<g id="node1" class="node">
<title>TasksComponent</title>
<polygon fill="#ffffb3" stroke="black" points="971.99,-122 858.01,-122 858.01,-86 971.99,-86 971.99,-122"/>
<text text-anchor="middle" x="915" y="-99.8" font-family="Times,serif" font-size="14.00">TasksComponent</text>
</g>
<!-- TasksModule -->
<g id="node3" class="node">
<title>TasksModule</title>
<polygon fill="#8dd3c7" stroke="black" points="515.21,-187 512.21,-191 491.21,-191 488.21,-187 422.79,-187 422.79,-151 515.21,-151 515.21,-187"/>
<text text-anchor="middle" x="469" y="-164.8" font-family="Times,serif" font-size="14.00">TasksModule</text>
</g>
<!-- TasksComponent&#45;&gt;TasksModule -->
<g id="edge1" class="edge">
<title>TasksComponent&#45;&gt;TasksModule</title>
<path fill="none" stroke="black" d="M915,-122.29C915,-144.21 915,-178 915,-178 915,-178 525.47,-178 525.47,-178"/>
<polygon fill="black" stroke="black" points="525.47,-174.5 515.47,-178 525.47,-181.5 525.47,-174.5"/>
</g>
<!-- TasksRoutingComponent -->
<g id="node2" class="node">
<title>TasksRoutingComponent</title>
<polygon fill="#ffffb3" stroke="black" points="839.61,-122 680.39,-122 680.39,-86 839.61,-86 839.61,-122"/>
<text text-anchor="middle" x="760" y="-99.8" font-family="Times,serif" font-size="14.00">TasksRoutingComponent</text>
</g>
<!-- TasksRoutingComponent&#45;&gt;TasksModule -->
<g id="edge2" class="edge">
<title>TasksRoutingComponent&#45;&gt;TasksModule</title>
<path fill="none" stroke="black" d="M760,-122.11C760,-141.34 760,-169 760,-169 760,-169 525.11,-169 525.11,-169"/>
<polygon fill="black" stroke="black" points="525.11,-165.5 515.11,-169 525.11,-172.5 525.11,-165.5"/>
</g>
<!-- ActivityModule -->
<g id="node4" class="node">
<title>ActivityModule</title>
<polygon fill="#8dd3c7" stroke="black" points="655.93,-122 652.93,-126 631.93,-126 628.93,-122 550.07,-122 550.07,-86 655.93,-86 655.93,-122"/>
<text text-anchor="middle" x="603" y="-99.8" font-family="Times,serif" font-size="14.00">ActivityModule</text>
</g>
<!-- ActivityModule&#45;&gt;TasksModule -->
<g id="edge3" class="edge">
<title>ActivityModule&#45;&gt;TasksModule</title>
<path fill="none" stroke="black" d="M603,-122.03C603,-138.4 603,-160 603,-160 603,-160 525.12,-160 525.12,-160"/>
<polygon fill="black" stroke="black" points="525.12,-156.5 515.12,-160 525.12,-163.5 525.12,-156.5"/>
</g>
<!-- AssessmentModule -->
<g id="node5" class="node">
<title>AssessmentModule</title>
<polygon fill="#8dd3c7" stroke="black" points="531.65,-122 528.65,-126 507.65,-126 504.65,-122 406.35,-122 406.35,-86 531.65,-86 531.65,-122"/>
<text text-anchor="middle" x="469" y="-99.8" font-family="Times,serif" font-size="14.00">AssessmentModule</text>
</g>
<!-- AssessmentModule&#45;&gt;TasksModule -->
<g id="edge4" class="edge">
<title>AssessmentModule&#45;&gt;TasksModule</title>
<path fill="none" stroke="black" d="M469,-122.11C469,-122.11 469,-140.99 469,-140.99"/>
<polygon fill="black" stroke="black" points="465.5,-140.99 469,-150.99 472.5,-140.99 465.5,-140.99"/>
</g>
<!-- SharedModule -->
<g id="node6" class="node">
<title>SharedModule</title>
<polygon fill="#8dd3c7" stroke="black" points="388.42,-122 385.42,-126 364.42,-126 361.42,-122 289.58,-122 289.58,-86 388.42,-86 388.42,-122"/>
<text text-anchor="middle" x="339" y="-99.8" font-family="Times,serif" font-size="14.00">SharedModule</text>
</g>
<!-- SharedModule&#45;&gt;TasksModule -->
<g id="edge5" class="edge">
<title>SharedModule&#45;&gt;TasksModule</title>
<path fill="none" stroke="black" d="M339,-122.03C339,-138.4 339,-160 339,-160 339,-160 412.8,-160 412.8,-160"/>
<polygon fill="black" stroke="black" points="412.8,-163.5 422.8,-160 412.8,-156.5 412.8,-163.5"/>
</g>
<!-- TasksRoutingModule -->
<g id="node7" class="node">
<title>TasksRoutingModule</title>
<polygon fill="#8dd3c7" stroke="black" points="271.82,-122 268.82,-126 247.82,-126 244.82,-122 134.18,-122 134.18,-86 271.82,-86 271.82,-122"/>
<text text-anchor="middle" x="203" y="-99.8" font-family="Times,serif" font-size="14.00">TasksRoutingModule</text>
</g>
<!-- TasksRoutingModule&#45;&gt;TasksModule -->
<g id="edge6" class="edge">
<title>TasksRoutingModule&#45;&gt;TasksModule</title>
<path fill="none" stroke="black" d="M203,-122.11C203,-141.34 203,-169 203,-169 203,-169 412.67,-169 412.67,-169"/>
<polygon fill="black" stroke="black" points="412.67,-172.5 422.67,-169 412.67,-165.5 412.67,-172.5"/>
</g>
<!-- TopicModule -->
<g id="node8" class="node">
<title>TopicModule</title>
<polygon fill="#8dd3c7" stroke="black" points="116.21,-122 113.21,-126 92.21,-126 89.21,-122 23.79,-122 23.79,-86 116.21,-86 116.21,-122"/>
<text text-anchor="middle" x="70" y="-99.8" font-family="Times,serif" font-size="14.00">TopicModule</text>
</g>
<!-- TopicModule&#45;&gt;TasksModule -->
<g id="edge7" class="edge">
<title>TopicModule&#45;&gt;TasksModule</title>
<path fill="none" stroke="black" d="M70,-122.29C70,-144.21 70,-178 70,-178 70,-178 412.84,-178 412.84,-178"/>
<polygon fill="black" stroke="black" points="412.84,-181.5 422.84,-178 412.84,-174.5 412.84,-181.5"/>
</g>
</g>
</svg>
