<svg height="30" viewBox="0 0 135 30" width="135" xmlns="http://www.w3.org/2000/svg"><g fill="none" fill-rule="evenodd"><path d="M26.859 7.002C22.44-.65 12.655-3.272 5.003 1.146-2.65 5.564-5.272 15.35-.853 23.002c4.418 7.653 14.203 10.275 21.856 5.856 7.652-4.418 10.274-14.203 5.856-21.856"/><path d="M7.613 24.347a20.248 20.248 0 0 0 9.158 2.67C12.347 30.43 5.773 29.57 2.519 24.974c-1.417-2.001-2.034-4.5-1.766-6.932.32-2.905 1.982-5.446 3.974-7.508l-.001.01c1.309-1.35 3.312-3.262 5.25-3.54 1.913-.272 3.537.83 4.4 2.46-3.681.895-7.037 3.303-8.886 6.649-1.562 2.826-.735 6.584 2.123 8.234zM1.024 8.423C2.259 3.551 7.017.349 11.994 1.059c4.834.69 7.817 4.607 9.093 9.059.472 1.647.855 3.55.686 5.275-.23 2.357-2.382 3.715-4.592 3.629.75-2.494.786-5.098.096-7.61-.646-2.35-1.743-4.694-4.038-5.805a.057.057 0 0 0 .014-.004C8.286 3.187 3.233 8.496.803 12.295a10.23 10.23 0 0 1 .221-3.872zm22.765 6.622c0-3.206-.79-6.373-2.277-9.222 5.926 2.39 8.174 9.905 4.318 15.081-2.812 3.772-7.369 4.682-11.78 3.766-2.076-.43-5.078-1.247-6.474-2.966-1.235-1.522-1.048-3.475-.056-5.043 1.846 1.94 4.187 3.322 6.791 3.955 2.266.551 4.737.74 6.773-.63 1.646-1.108 2.696-2.945 2.705-4.94z" fill="#2bc1d9"/><path d="M45.472 5.864c1.904 0 3.364.532 4.38 1.596s1.524 2.412 1.524 4.044c0 1.824-.528 3.22-1.584 4.188s-2.576 1.452-4.56 1.452h-2.904V23h-3.456V7.256c0-.4.136-.732.408-.996a1.391 1.391 0 0 1 1.008-.396zm-.36 8.424c1.856 0 2.784-.936 2.784-2.808 0-.864-.244-1.536-.732-2.016s-1.18-.72-2.076-.72h-2.76v5.544zm15.096-3.6c.72 0 1.328.144 1.824.432l-.672 2.592c-.56-.176-1.048-.264-1.464-.264-1.152 0-2.208.448-3.168 1.344V23h-3.312V11h3.192v1.392c1.088-1.136 2.288-1.704 3.6-1.704zM71.752 11h2.952v12h-3v-1.128c-.88.96-2.016 1.44-3.408 1.44-1.648 0-2.972-.576-3.972-1.728s-1.5-2.68-1.5-4.584c.016-1.904.524-3.432 1.524-4.584s2.324-1.728 3.972-1.728c1.408 0 2.552.48 3.432 1.44zm-2.904 9.624c1.856 0 2.784-1.208 2.784-3.624 0-1.2-.24-2.104-.72-2.712s-1.16-.912-2.04-.912c-.896 0-1.584.304-2.064.912s-.72 1.512-.72 2.712.24 2.104.72 2.712 1.16.912 2.04.912zm14.016 2.664c-1.68 0-3.084-.552-4.212-1.656S76.96 19 76.96 17.048c0-1.936.564-3.48 1.692-4.632s2.62-1.728 4.476-1.728c1.12 0 2.128.236 3.024.708s1.584 1.188 2.064 2.148l-2.472 1.392c-.56-1.04-1.416-1.56-2.568-1.56-.848 0-1.552.304-2.112.912s-.84 1.52-.84 2.736c0 1.2.268 2.092.804 2.676s1.22.876 2.052.876c1.152 0 2.12-.624 2.904-1.872l2.376 1.368a5.494 5.494 0 0 1-2.148 2.352c-.952.576-2.068.864-3.348.864zm15.024-3.576l1.032 2.328c-1.072.816-2.328 1.224-3.768 1.224-1.296 0-2.304-.384-3.024-1.152s-1.08-1.848-1.08-3.24v-5.616h-1.8V11h1.8V7.28h3.264V11H98.2v2.256h-3.888v5.328c0 .64.164 1.096.492 1.368s.716.408 1.164.408c.624 0 1.264-.216 1.92-.648zm8.088.96c1.264 0 2.472-.424 3.624-1.272l1.32 2.112c-1.504 1.184-3.224 1.776-5.16 1.776-1.84 0-3.304-.572-4.392-1.716s-1.632-2.612-1.632-4.404c0-1.808.56-3.34 1.68-4.596s2.648-1.884 4.584-1.884c1.408 0 2.6.372 3.576 1.116s1.464 1.764 1.464 3.06c0 .992-.308 1.812-.924 2.46s-1.564.972-2.844.972h-4.464c.336 1.584 1.392 2.376 3.168 2.376zm0-7.512a3.15 3.15 0 0 0-2.088.768c-.608.512-.992 1.232-1.152 2.16h3.84c.48 0 .852-.12 1.116-.36s.396-.56.396-.96c0-.448-.196-.828-.588-1.14s-.9-.468-1.524-.468zm14.112-2.472c.72 0 1.328.144 1.824.432l-.672 2.592c-.56-.176-1.048-.264-1.464-.264-1.152 0-2.208.448-3.168 1.344V23h-3.312V11h3.192v1.392c1.088-1.136 2.288-1.704 3.6-1.704zm11.544.312h2.952v12h-3v-1.128c-.88.96-2.016 1.44-3.408 1.44-1.648 0-2.972-.576-3.972-1.728s-1.5-2.68-1.5-4.584c.016-1.904.524-3.432 1.524-4.584s2.324-1.728 3.972-1.728c1.408 0 2.552.48 3.432 1.44zm-2.904 9.624c1.856 0 2.784-1.208 2.784-3.624 0-1.2-.24-2.104-.72-2.712s-1.16-.912-2.04-.912c-.896 0-1.584.304-2.064.912s-.72 1.512-.72 2.712.24 2.104.72 2.712 1.16.912 2.04.912z" fill="#000"/></g></svg>