<?xml version="1.0" encoding="UTF-8" standalone="no"?>
<!DOCTYPE svg PUBLIC "-//W3C//DTD SVG 1.1//EN"
 "http://www.w3.org/Graphics/SVG/1.1/DTD/svg11.dtd">
<!-- Generated by graphviz version 2.44.1 (20200629.0846)
 -->
<!-- Title: dependencies Pages: 1 -->
<svg width="832pt" height="284pt"
 viewBox="0.00 0.00 832.00 284.00" xmlns="http://www.w3.org/2000/svg" xmlns:xlink="http://www.w3.org/1999/xlink">
<g id="graph0" class="graph" transform="scale(1 1) rotate(0) translate(4 280)">
<title>dependencies</title>
<polygon fill="white" stroke="transparent" points="-4,4 -4,-280 828,-280 828,4 -4,4"/>
<text text-anchor="start" x="391.01" y="-42.4" font-family="sans-serif" font-weight="bold" font-size="14.00">Legend</text>
<polygon fill="#ffffb3" stroke="transparent" points="178,-10 178,-30 198,-30 198,-10 178,-10"/>
<text text-anchor="start" x="201.63" y="-15.4" font-family="sans-serif" font-size="14.00"> &#160;Declarations</text>
<polygon fill="#8dd3c7" stroke="transparent" points="291,-10 291,-30 311,-30 311,-10 291,-10"/>
<text text-anchor="start" x="314.73" y="-15.4" font-family="sans-serif" font-size="14.00"> &#160;Module</text>
<polygon fill="#80b1d3" stroke="transparent" points="377,-10 377,-30 397,-30 397,-10 377,-10"/>
<text text-anchor="start" x="400.78" y="-15.4" font-family="sans-serif" font-size="14.00"> &#160;Bootstrap</text>
<polygon fill="#fdb462" stroke="transparent" points="474,-10 474,-30 494,-30 494,-10 474,-10"/>
<text text-anchor="start" x="497.67" y="-15.4" font-family="sans-serif" font-size="14.00"> &#160;Providers</text>
<polygon fill="#fb8072" stroke="transparent" points="570,-10 570,-30 590,-30 590,-10 570,-10"/>
<text text-anchor="start" x="593.73" y="-15.4" font-family="sans-serif" font-size="14.00"> &#160;Exports</text>
<g id="clust1" class="cluster">
<title>cluster_ActivityModule</title>
<polygon fill="none" stroke="black" stroke-dasharray="1,5" points="8,-70 8,-268 816,-268 816,-70 8,-70"/>
</g>
<g id="clust2" class="cluster">
<title>cluster_ActivityModule_declarations</title>
<polygon fill="none" stroke="black" points="474,-78 474,-130 808,-130 808,-78 474,-78"/>
</g>
<g id="clust5" class="cluster">
<title>cluster_ActivityModule_imports</title>
<polygon fill="none" stroke="black" points="184,-78 184,-130 466,-130 466,-78 184,-78"/>
</g>
<g id="clust8" class="cluster">
<title>cluster_ActivityModule_providers</title>
<polygon fill="none" stroke="black" points="16,-78 16,-130 176,-130 176,-78 16,-78"/>
</g>
<g id="clust6" class="cluster">
<title>cluster_ActivityModule_exports</title>
<polygon fill="none" stroke="black" points="310,-208 310,-260 456,-260 456,-208 310,-208"/>
</g>
<!-- ActivityComponent -->
<g id="node1" class="node">
<title>ActivityComponent</title>
<polygon fill="#ffffb3" stroke="black" points="799.72,-122 672.28,-122 672.28,-86 799.72,-86 799.72,-122"/>
<text text-anchor="middle" x="736" y="-99.8" font-family="Times,serif" font-size="14.00">ActivityComponent</text>
</g>
<!-- ActivityModule -->
<g id="node3" class="node">
<title>ActivityModule</title>
<polygon fill="#8dd3c7" stroke="black" points="435.93,-187 432.93,-191 411.93,-191 408.93,-187 330.07,-187 330.07,-151 435.93,-151 435.93,-187"/>
<text text-anchor="middle" x="383" y="-164.8" font-family="Times,serif" font-size="14.00">ActivityModule</text>
</g>
<!-- ActivityComponent&#45;&gt;ActivityModule -->
<g id="edge1" class="edge">
<title>ActivityComponent&#45;&gt;ActivityModule</title>
<path fill="none" stroke="black" d="M736,-122.28C736,-143.32 736,-175 736,-175 736,-175 445.85,-175 445.85,-175"/>
<polygon fill="black" stroke="black" points="445.85,-171.5 435.85,-175 445.85,-178.5 445.85,-171.5"/>
</g>
<!-- ActivityRoutingComponent -->
<g id="node2" class="node">
<title>ActivityRoutingComponent</title>
<polygon fill="#ffffb3" stroke="black" points="654.33,-122 481.67,-122 481.67,-86 654.33,-86 654.33,-122"/>
<text text-anchor="middle" x="568" y="-99.8" font-family="Times,serif" font-size="14.00">ActivityRoutingComponent</text>
</g>
<!-- ActivityRoutingComponent&#45;&gt;ActivityModule -->
<g id="edge2" class="edge">
<title>ActivityRoutingComponent&#45;&gt;ActivityModule</title>
<path fill="none" stroke="black" d="M568,-122.02C568,-139.37 568,-163 568,-163 568,-163 446.01,-163 446.01,-163"/>
<polygon fill="black" stroke="black" points="446.01,-159.5 436.01,-163 446.01,-166.5 446.01,-159.5"/>
</g>
<!-- ActivityComponent  -->
<g id="node6" class="node">
<title>ActivityComponent </title>
<polygon fill="#fb8072" stroke="black" points="448.22,-252 317.78,-252 317.78,-216 448.22,-216 448.22,-252"/>
<text text-anchor="middle" x="383" y="-229.8" font-family="Times,serif" font-size="14.00">ActivityComponent </text>
</g>
<!-- ActivityModule&#45;&gt;ActivityComponent  -->
<g id="edge5" class="edge">
<title>ActivityModule&#45;&gt;ActivityComponent </title>
<path fill="none" stroke="black" stroke-dasharray="5,2" d="M383,-187.11C383,-187.11 383,-205.99 383,-205.99"/>
<polygon fill="black" stroke="black" points="379.5,-205.99 383,-215.99 386.5,-205.99 379.5,-205.99"/>
</g>
<!-- ActivityRoutingModule -->
<g id="node4" class="node">
<title>ActivityRoutingModule</title>
<polygon fill="#8dd3c7" stroke="black" points="458.05,-122 455.05,-126 434.05,-126 431.05,-122 307.95,-122 307.95,-86 458.05,-86 458.05,-122"/>
<text text-anchor="middle" x="383" y="-99.8" font-family="Times,serif" font-size="14.00">ActivityRoutingModule</text>
</g>
<!-- ActivityRoutingModule&#45;&gt;ActivityModule -->
<g id="edge3" class="edge">
<title>ActivityRoutingModule&#45;&gt;ActivityModule</title>
<path fill="none" stroke="black" d="M383,-122.11C383,-122.11 383,-140.99 383,-140.99"/>
<polygon fill="black" stroke="black" points="379.5,-140.99 383,-150.99 386.5,-140.99 379.5,-140.99"/>
</g>
<!-- SharedModule -->
<g id="node5" class="node">
<title>SharedModule</title>
<polygon fill="#8dd3c7" stroke="black" points="290.42,-122 287.42,-126 266.42,-126 263.42,-122 191.58,-122 191.58,-86 290.42,-86 290.42,-122"/>
<text text-anchor="middle" x="241" y="-99.8" font-family="Times,serif" font-size="14.00">SharedModule</text>
</g>
<!-- SharedModule&#45;&gt;ActivityModule -->
<g id="edge4" class="edge">
<title>SharedModule&#45;&gt;ActivityModule</title>
<path fill="none" stroke="black" d="M241,-122.02C241,-139.37 241,-163 241,-163 241,-163 320.12,-163 320.12,-163"/>
<polygon fill="black" stroke="black" points="320.12,-166.5 330.12,-163 320.12,-159.5 320.12,-166.5"/>
</g>
<!-- ActivityService -->
<g id="node7" class="node">
<title>ActivityService</title>
<ellipse fill="#fdb462" stroke="black" cx="96" cy="-104" rx="71.78" ry="18"/>
<text text-anchor="middle" x="96" y="-99.8" font-family="Times,serif" font-size="14.00">ActivityService</text>
</g>
<!-- ActivityService&#45;&gt;ActivityModule -->
<g id="edge6" class="edge">
<title>ActivityService&#45;&gt;ActivityModule</title>
<path fill="none" stroke="black" d="M96,-122.28C96,-143.32 96,-175 96,-175 96,-175 320.03,-175 320.03,-175"/>
<polygon fill="black" stroke="black" points="320.03,-178.5 330.03,-175 320.03,-171.5 320.03,-178.5"/>
</g>
</g>
</svg>
