<?xml version="1.0" encoding="UTF-8" standalone="no"?>
<!DOCTYPE svg PUBLIC "-//W3C//DTD SVG 1.1//EN"
 "http://www.w3.org/Graphics/SVG/1.1/DTD/svg11.dtd">
<!-- Generated by graphviz version 2.44.1 (20200629.0846)
 -->
<!-- Title: dependencies Pages: 1 -->
<svg width="757pt" height="211pt"
 viewBox="0.00 0.00 757.00 211.00" xmlns="http://www.w3.org/2000/svg" xmlns:xlink="http://www.w3.org/1999/xlink">
<g id="graph0" class="graph" transform="scale(1 1) rotate(0) translate(4 207)">
<title>dependencies</title>
<polygon fill="white" stroke="transparent" points="-4,4 -4,-207 753,-207 753,4 -4,4"/>
<text text-anchor="start" x="353.51" y="-42.4" font-family="sans-serif" font-weight="bold" font-size="14.00">Legend</text>
<polygon fill="#ffffb3" stroke="transparent" points="140.5,-10 140.5,-30 160.5,-30 160.5,-10 140.5,-10"/>
<text text-anchor="start" x="164.13" y="-15.4" font-family="sans-serif" font-size="14.00"> &#160;Declarations</text>
<polygon fill="#8dd3c7" stroke="transparent" points="253.5,-10 253.5,-30 273.5,-30 273.5,-10 253.5,-10"/>
<text text-anchor="start" x="277.23" y="-15.4" font-family="sans-serif" font-size="14.00"> &#160;Module</text>
<polygon fill="#80b1d3" stroke="transparent" points="339.5,-10 339.5,-30 359.5,-30 359.5,-10 339.5,-10"/>
<text text-anchor="start" x="363.28" y="-15.4" font-family="sans-serif" font-size="14.00"> &#160;Bootstrap</text>
<polygon fill="#fdb462" stroke="transparent" points="436.5,-10 436.5,-30 456.5,-30 456.5,-10 436.5,-10"/>
<text text-anchor="start" x="460.17" y="-15.4" font-family="sans-serif" font-size="14.00"> &#160;Providers</text>
<polygon fill="#fb8072" stroke="transparent" points="532.5,-10 532.5,-30 552.5,-30 552.5,-10 532.5,-10"/>
<text text-anchor="start" x="556.23" y="-15.4" font-family="sans-serif" font-size="14.00"> &#160;Exports</text>
<g id="clust1" class="cluster">
<title>cluster_AchievementsModule</title>
<polygon fill="none" stroke="black" stroke-dasharray="1,5" points="8,-70 8,-195 741,-195 741,-70 8,-70"/>
</g>
<g id="clust2" class="cluster">
<title>cluster_AchievementsModule_declarations</title>
<polygon fill="none" stroke="black" points="555,-78 555,-130 733,-130 733,-78 555,-78"/>
</g>
<g id="clust7" class="cluster">
<title>cluster_AchievementsModule_providers</title>
<polygon fill="none" stroke="black" points="341,-78 341,-130 547,-130 547,-78 341,-78"/>
</g>
<g id="clust4" class="cluster">
<title>cluster_AchievementsModule_imports</title>
<polygon fill="none" stroke="black" points="16,-78 16,-130 333,-130 333,-78 16,-78"/>
</g>
<!-- AchievementsComponent -->
<g id="node1" class="node">
<title>AchievementsComponent</title>
<polygon fill="#ffffb3" stroke="black" points="724.91,-122 563.09,-122 563.09,-86 724.91,-86 724.91,-122"/>
<text text-anchor="middle" x="644" y="-99.8" font-family="Times,serif" font-size="14.00">AchievementsComponent</text>
</g>
<!-- AchievementsModule -->
<g id="node2" class="node">
<title>AchievementsModule</title>
<polygon fill="#8dd3c7" stroke="black" points="407.63,-187 404.63,-191 383.63,-191 380.63,-187 268.37,-187 268.37,-151 407.63,-151 407.63,-187"/>
<text text-anchor="middle" x="338" y="-164.8" font-family="Times,serif" font-size="14.00">AchievementsModule</text>
</g>
<!-- AchievementsComponent&#45;&gt;AchievementsModule -->
<g id="edge1" class="edge">
<title>AchievementsComponent&#45;&gt;AchievementsModule</title>
<path fill="none" stroke="black" d="M644,-122.11C644,-141.34 644,-169 644,-169 644,-169 417.82,-169 417.82,-169"/>
<polygon fill="black" stroke="black" points="417.82,-165.5 407.82,-169 417.82,-172.5 417.82,-165.5"/>
</g>
<!-- AchievementsRoutingModule -->
<g id="node3" class="node">
<title>AchievementsRoutingModule</title>
<polygon fill="#8dd3c7" stroke="black" points="325.25,-122 322.25,-126 301.25,-126 298.25,-122 140.75,-122 140.75,-86 325.25,-86 325.25,-122"/>
<text text-anchor="middle" x="233" y="-99.8" font-family="Times,serif" font-size="14.00">AchievementsRoutingModule</text>
</g>
<!-- AchievementsRoutingModule&#45;&gt;AchievementsModule -->
<g id="edge2" class="edge">
<title>AchievementsRoutingModule&#45;&gt;AchievementsModule</title>
<path fill="none" stroke="black" d="M296.78,-122.11C296.78,-122.11 296.78,-140.99 296.78,-140.99"/>
<polygon fill="black" stroke="black" points="293.28,-140.99 296.78,-150.99 300.28,-140.99 293.28,-140.99"/>
</g>
<!-- SharedModule -->
<g id="node4" class="node">
<title>SharedModule</title>
<polygon fill="#8dd3c7" stroke="black" points="122.42,-122 119.42,-126 98.42,-126 95.42,-122 23.58,-122 23.58,-86 122.42,-86 122.42,-122"/>
<text text-anchor="middle" x="73" y="-99.8" font-family="Times,serif" font-size="14.00">SharedModule</text>
</g>
<!-- SharedModule&#45;&gt;AchievementsModule -->
<g id="edge3" class="edge">
<title>SharedModule&#45;&gt;AchievementsModule</title>
<path fill="none" stroke="black" d="M73,-122.11C73,-141.34 73,-169 73,-169 73,-169 258.03,-169 258.03,-169"/>
<polygon fill="black" stroke="black" points="258.03,-172.5 268.03,-169 258.03,-165.5 258.03,-172.5"/>
</g>
<!-- AchievementsService -->
<g id="node5" class="node">
<title>AchievementsService</title>
<ellipse fill="#fdb462" stroke="black" cx="444" cy="-104" rx="95.46" ry="18"/>
<text text-anchor="middle" x="444" y="-99.8" font-family="Times,serif" font-size="14.00">AchievementsService</text>
</g>
<!-- AchievementsService&#45;&gt;AchievementsModule -->
<g id="edge4" class="edge">
<title>AchievementsService&#45;&gt;AchievementsModule</title>
<path fill="none" stroke="black" d="M378.29,-117.15C378.29,-117.15 378.29,-140.69 378.29,-140.69"/>
<polygon fill="black" stroke="black" points="374.79,-140.69 378.29,-150.69 381.79,-140.69 374.79,-140.69"/>
</g>
</g>
</svg>
