<?xml version="1.0" encoding="UTF-8" standalone="no"?>
<!DOCTYPE svg PUBLIC "-//W3C//DTD SVG 1.1//EN"
 "http://www.w3.org/Graphics/SVG/1.1/DTD/svg11.dtd">
<!-- Generated by graphviz version 2.44.1 (20200629.0846)
 -->
<!-- Title: dependencies Pages: 1 -->
<svg width="957pt" height="211pt"
 viewBox="0.00 0.00 957.00 211.00" xmlns="http://www.w3.org/2000/svg" xmlns:xlink="http://www.w3.org/1999/xlink">
<g id="graph0" class="graph" transform="scale(1 1) rotate(0) translate(4 207)">
<title>dependencies</title>
<polygon fill="white" stroke="transparent" points="-4,4 -4,-207 953,-207 953,4 -4,4"/>
<text text-anchor="start" x="453.51" y="-42.4" font-family="sans-serif" font-weight="bold" font-size="14.00">Legend</text>
<polygon fill="#ffffb3" stroke="transparent" points="240.5,-10 240.5,-30 260.5,-30 260.5,-10 240.5,-10"/>
<text text-anchor="start" x="264.13" y="-15.4" font-family="sans-serif" font-size="14.00"> &#160;Declarations</text>
<polygon fill="#8dd3c7" stroke="transparent" points="353.5,-10 353.5,-30 373.5,-30 373.5,-10 353.5,-10"/>
<text text-anchor="start" x="377.23" y="-15.4" font-family="sans-serif" font-size="14.00"> &#160;Module</text>
<polygon fill="#80b1d3" stroke="transparent" points="439.5,-10 439.5,-30 459.5,-30 459.5,-10 439.5,-10"/>
<text text-anchor="start" x="463.28" y="-15.4" font-family="sans-serif" font-size="14.00"> &#160;Bootstrap</text>
<polygon fill="#fdb462" stroke="transparent" points="536.5,-10 536.5,-30 556.5,-30 556.5,-10 536.5,-10"/>
<text text-anchor="start" x="560.17" y="-15.4" font-family="sans-serif" font-size="14.00"> &#160;Providers</text>
<polygon fill="#fb8072" stroke="transparent" points="632.5,-10 632.5,-30 652.5,-30 652.5,-10 632.5,-10"/>
<text text-anchor="start" x="656.23" y="-15.4" font-family="sans-serif" font-size="14.00"> &#160;Exports</text>
<g id="clust1" class="cluster">
<title>cluster_ReviewsModule</title>
<polygon fill="none" stroke="black" stroke-dasharray="1,5" points="8,-70 8,-195 941,-195 941,-70 8,-70"/>
</g>
<g id="clust5" class="cluster">
<title>cluster_ReviewsModule_imports</title>
<polygon fill="none" stroke="black" points="362,-78 362,-130 933,-130 933,-78 362,-78"/>
</g>
<g id="clust2" class="cluster">
<title>cluster_ReviewsModule_declarations</title>
<polygon fill="none" stroke="black" points="16,-78 16,-130 354,-130 354,-78 16,-78"/>
</g>
<!-- ReviewsComponent -->
<g id="node1" class="node">
<title>ReviewsComponent</title>
<polygon fill="#ffffb3" stroke="black" points="345.54,-122 216.46,-122 216.46,-86 345.54,-86 345.54,-122"/>
<text text-anchor="middle" x="281" y="-99.8" font-family="Times,serif" font-size="14.00">ReviewsComponent</text>
</g>
<!-- ReviewsModule -->
<g id="node3" class="node">
<title>ReviewsModule</title>
<polygon fill="#8dd3c7" stroke="black" points="544.76,-187 541.76,-191 520.76,-191 517.76,-187 437.24,-187 437.24,-151 544.76,-151 544.76,-187"/>
<text text-anchor="middle" x="491" y="-164.8" font-family="Times,serif" font-size="14.00">ReviewsModule</text>
</g>
<!-- ReviewsComponent&#45;&gt;ReviewsModule -->
<g id="edge1" class="edge">
<title>ReviewsComponent&#45;&gt;ReviewsModule</title>
<path fill="none" stroke="black" d="M281,-122.02C281,-139.37 281,-163 281,-163 281,-163 427.19,-163 427.19,-163"/>
<polygon fill="black" stroke="black" points="427.19,-166.5 437.19,-163 427.19,-159.5 427.19,-166.5"/>
</g>
<!-- ReviewsRoutingComponent -->
<g id="node2" class="node">
<title>ReviewsRoutingComponent</title>
<polygon fill="#ffffb3" stroke="black" points="198.16,-122 23.84,-122 23.84,-86 198.16,-86 198.16,-122"/>
<text text-anchor="middle" x="111" y="-99.8" font-family="Times,serif" font-size="14.00">ReviewsRoutingComponent</text>
</g>
<!-- ReviewsRoutingComponent&#45;&gt;ReviewsModule -->
<g id="edge2" class="edge">
<title>ReviewsRoutingComponent&#45;&gt;ReviewsModule</title>
<path fill="none" stroke="black" d="M111,-122.28C111,-143.32 111,-175 111,-175 111,-175 426.96,-175 426.96,-175"/>
<polygon fill="black" stroke="black" points="426.96,-178.5 436.96,-175 426.96,-171.5 426.96,-178.5"/>
</g>
<!-- AssessmentModule -->
<g id="node4" class="node">
<title>AssessmentModule</title>
<polygon fill="#8dd3c7" stroke="black" points="924.65,-122 921.65,-126 900.65,-126 897.65,-122 799.35,-122 799.35,-86 924.65,-86 924.65,-122"/>
<text text-anchor="middle" x="862" y="-99.8" font-family="Times,serif" font-size="14.00">AssessmentModule</text>
</g>
<!-- AssessmentModule&#45;&gt;ReviewsModule -->
<g id="edge3" class="edge">
<title>AssessmentModule&#45;&gt;ReviewsModule</title>
<path fill="none" stroke="black" d="M862,-122.28C862,-143.32 862,-175 862,-175 862,-175 554.95,-175 554.95,-175"/>
<polygon fill="black" stroke="black" points="554.95,-171.5 544.95,-175 554.95,-178.5 554.95,-171.5"/>
</g>
<!-- ReviewListModule -->
<g id="node5" class="node">
<title>ReviewListModule</title>
<polygon fill="#8dd3c7" stroke="black" points="781.09,-122 778.09,-126 757.09,-126 754.09,-122 656.91,-122 656.91,-86 781.09,-86 781.09,-122"/>
<text text-anchor="middle" x="719" y="-99.8" font-family="Times,serif" font-size="14.00">ReviewListModule</text>
</g>
<!-- ReviewListModule&#45;&gt;ReviewsModule -->
<g id="edge4" class="edge">
<title>ReviewListModule&#45;&gt;ReviewsModule</title>
<path fill="none" stroke="black" d="M719,-122.02C719,-139.37 719,-163 719,-163 719,-163 555.03,-163 555.03,-163"/>
<polygon fill="black" stroke="black" points="555.03,-159.5 545.03,-163 555.03,-166.5 555.03,-159.5"/>
</g>
<!-- ReviewsRoutingModule -->
<g id="node6" class="node">
<title>ReviewsRoutingModule</title>
<polygon fill="#8dd3c7" stroke="black" points="639.38,-122 636.38,-126 615.38,-126 612.38,-122 486.62,-122 486.62,-86 639.38,-86 639.38,-122"/>
<text text-anchor="middle" x="563" y="-99.8" font-family="Times,serif" font-size="14.00">ReviewsRoutingModule</text>
</g>
<!-- ReviewsRoutingModule&#45;&gt;ReviewsModule -->
<g id="edge5" class="edge">
<title>ReviewsRoutingModule&#45;&gt;ReviewsModule</title>
<path fill="none" stroke="black" d="M515.72,-122.11C515.72,-122.11 515.72,-140.99 515.72,-140.99"/>
<polygon fill="black" stroke="black" points="512.22,-140.99 515.72,-150.99 519.22,-140.99 512.22,-140.99"/>
</g>
<!-- SharedModule -->
<g id="node7" class="node">
<title>SharedModule</title>
<polygon fill="#8dd3c7" stroke="black" points="468.42,-122 465.42,-126 444.42,-126 441.42,-122 369.58,-122 369.58,-86 468.42,-86 468.42,-122"/>
<text text-anchor="middle" x="419" y="-99.8" font-family="Times,serif" font-size="14.00">SharedModule</text>
</g>
<!-- SharedModule&#45;&gt;ReviewsModule -->
<g id="edge6" class="edge">
<title>SharedModule&#45;&gt;ReviewsModule</title>
<path fill="none" stroke="black" d="M452.67,-122.11C452.67,-122.11 452.67,-140.99 452.67,-140.99"/>
<polygon fill="black" stroke="black" points="449.17,-140.99 452.67,-150.99 456.17,-140.99 449.17,-140.99"/>
</g>
</g>
</svg>
