<?xml version="1.0" encoding="UTF-8" standalone="no"?>
<!DOCTYPE svg PUBLIC "-//W3C//DTD SVG 1.1//EN"
 "http://www.w3.org/Graphics/SVG/1.1/DTD/svg11.dtd">
<!-- Generated by graphviz version 2.44.1 (20200629.0846)
 -->
<!-- Title: dependencies Pages: 1 -->
<svg width="1213pt" height="284pt"
 viewBox="0.00 0.00 1213.00 284.00" xmlns="http://www.w3.org/2000/svg" xmlns:xlink="http://www.w3.org/1999/xlink">
<g id="graph0" class="graph" transform="scale(1 1) rotate(0) translate(4 280)">
<title>dependencies</title>
<polygon fill="white" stroke="transparent" points="-4,4 -4,-280 1209,-280 1209,4 -4,4"/>
<text text-anchor="start" x="581.51" y="-42.4" font-family="sans-serif" font-weight="bold" font-size="14.00">Legend</text>
<polygon fill="#ffffb3" stroke="transparent" points="368.5,-10 368.5,-30 388.5,-30 388.5,-10 368.5,-10"/>
<text text-anchor="start" x="392.13" y="-15.4" font-family="sans-serif" font-size="14.00"> &#160;Declarations</text>
<polygon fill="#8dd3c7" stroke="transparent" points="481.5,-10 481.5,-30 501.5,-30 501.5,-10 481.5,-10"/>
<text text-anchor="start" x="505.23" y="-15.4" font-family="sans-serif" font-size="14.00"> &#160;Module</text>
<polygon fill="#80b1d3" stroke="transparent" points="567.5,-10 567.5,-30 587.5,-30 587.5,-10 567.5,-10"/>
<text text-anchor="start" x="591.28" y="-15.4" font-family="sans-serif" font-size="14.00"> &#160;Bootstrap</text>
<polygon fill="#fdb462" stroke="transparent" points="664.5,-10 664.5,-30 684.5,-30 684.5,-10 664.5,-10"/>
<text text-anchor="start" x="688.17" y="-15.4" font-family="sans-serif" font-size="14.00"> &#160;Providers</text>
<polygon fill="#fb8072" stroke="transparent" points="760.5,-10 760.5,-30 780.5,-30 780.5,-10 760.5,-10"/>
<text text-anchor="start" x="784.23" y="-15.4" font-family="sans-serif" font-size="14.00"> &#160;Exports</text>
<g id="clust1" class="cluster">
<title>cluster_NotificationModule</title>
<polygon fill="none" stroke="black" stroke-dasharray="1,5" points="8,-70 8,-268 1197,-268 1197,-70 8,-70"/>
</g>
<g id="clust7" class="cluster">
<title>cluster_NotificationModule_imports</title>
<polygon fill="none" stroke="black" points="1075,-78 1075,-130 1189,-130 1189,-78 1075,-78"/>
</g>
<g id="clust8" class="cluster">
<title>cluster_NotificationModule_exports</title>
<polygon fill="none" stroke="black" points="141,-208 141,-260 1007,-260 1007,-208 141,-208"/>
</g>
<g id="clust2" class="cluster">
<title>cluster_NotificationModule_declarations</title>
<polygon fill="none" stroke="black" points="214,-78 214,-130 1067,-130 1067,-78 214,-78"/>
</g>
<g id="clust10" class="cluster">
<title>cluster_NotificationModule_providers</title>
<polygon fill="none" stroke="black" points="16,-78 16,-130 206,-130 206,-78 16,-78"/>
</g>
<!-- AchievementPopUpComponent -->
<g id="node1" class="node">
<title>AchievementPopUpComponent</title>
<polygon fill="#ffffb3" stroke="black" points="1059.36,-122 864.64,-122 864.64,-86 1059.36,-86 1059.36,-122"/>
<text text-anchor="middle" x="962" y="-99.8" font-family="Times,serif" font-size="14.00">AchievementPopUpComponent</text>
</g>
<!-- NotificationModule -->
<g id="node5" class="node">
<title>NotificationModule</title>
<polygon fill="#8dd3c7" stroke="black" points="604.7,-187 601.7,-191 580.7,-191 577.7,-187 477.3,-187 477.3,-151 604.7,-151 604.7,-187"/>
<text text-anchor="middle" x="541" y="-164.8" font-family="Times,serif" font-size="14.00">NotificationModule</text>
</g>
<!-- AchievementPopUpComponent&#45;&gt;NotificationModule -->
<g id="edge1" class="edge">
<title>AchievementPopUpComponent&#45;&gt;NotificationModule</title>
<path fill="none" stroke="black" d="M931.88,-122.27C931.88,-140.56 931.88,-166 931.88,-166 931.88,-166 614.67,-166 614.67,-166"/>
<polygon fill="black" stroke="black" points="614.67,-162.5 604.67,-166 614.67,-169.5 614.67,-162.5"/>
</g>
<!-- ActivityCompletePopUpComponent -->
<g id="node2" class="node">
<title>ActivityCompletePopUpComponent</title>
<polygon fill="#ffffb3" stroke="black" points="846.04,-122 625.96,-122 625.96,-86 846.04,-86 846.04,-122"/>
<text text-anchor="middle" x="736" y="-99.8" font-family="Times,serif" font-size="14.00">ActivityCompletePopUpComponent</text>
</g>
<!-- ActivityCompletePopUpComponent&#45;&gt;NotificationModule -->
<g id="edge2" class="edge">
<title>ActivityCompletePopUpComponent&#45;&gt;NotificationModule</title>
<path fill="none" stroke="black" d="M704.38,-122.01C704.38,-138.05 704.38,-159 704.38,-159 704.38,-159 614.63,-159 614.63,-159"/>
<polygon fill="black" stroke="black" points="614.63,-155.5 604.63,-159 614.63,-162.5 614.63,-155.5"/>
</g>
<!-- LockTeamAssessmentPopUpComponent -->
<g id="node3" class="node">
<title>LockTeamAssessmentPopUpComponent</title>
<polygon fill="#ffffb3" stroke="black" points="607.46,-122 360.54,-122 360.54,-86 607.46,-86 607.46,-122"/>
<text text-anchor="middle" x="484" y="-99.8" font-family="Times,serif" font-size="14.00">LockTeamAssessmentPopUpComponent</text>
</g>
<!-- LockTeamAssessmentPopUpComponent&#45;&gt;NotificationModule -->
<g id="edge3" class="edge">
<title>LockTeamAssessmentPopUpComponent&#45;&gt;NotificationModule</title>
<path fill="none" stroke="black" d="M541,-122.11C541,-122.11 541,-140.99 541,-140.99"/>
<polygon fill="black" stroke="black" points="537.5,-140.99 541,-150.99 544.5,-140.99 537.5,-140.99"/>
</g>
<!-- PopUpComponent -->
<g id="node4" class="node">
<title>PopUpComponent</title>
<polygon fill="#ffffb3" stroke="black" points="342.22,-122 221.78,-122 221.78,-86 342.22,-86 342.22,-122"/>
<text text-anchor="middle" x="282" y="-99.8" font-family="Times,serif" font-size="14.00">PopUpComponent</text>
</g>
<!-- PopUpComponent&#45;&gt;NotificationModule -->
<g id="edge4" class="edge">
<title>PopUpComponent&#45;&gt;NotificationModule</title>
<path fill="none" stroke="black" d="M316.44,-122.03C316.44,-138.4 316.44,-160 316.44,-160 316.44,-160 467.25,-160 467.25,-160"/>
<polygon fill="black" stroke="black" points="467.25,-163.5 477.25,-160 467.25,-156.5 467.25,-163.5"/>
</g>
<!-- AchievementPopUpComponent  -->
<g id="node7" class="node">
<title>AchievementPopUpComponent </title>
<polygon fill="#fb8072" stroke="black" points="999.36,-252 800.64,-252 800.64,-216 999.36,-216 999.36,-252"/>
<text text-anchor="middle" x="900" y="-229.8" font-family="Times,serif" font-size="14.00">AchievementPopUpComponent </text>
</g>
<!-- NotificationModule&#45;&gt;AchievementPopUpComponent  -->
<g id="edge6" class="edge">
<title>NotificationModule&#45;&gt;AchievementPopUpComponent </title>
<path fill="none" stroke="black" stroke-dasharray="5,2" d="M604.76,-180C688.1,-180 823.55,-180 823.55,-180 823.55,-180 823.55,-205.72 823.55,-205.72"/>
<polygon fill="black" stroke="black" points="820.05,-205.72 823.55,-215.72 827.05,-205.72 820.05,-205.72"/>
</g>
<!-- ActivityCompletePopUpComponent  -->
<g id="node8" class="node">
<title>ActivityCompletePopUpComponent </title>
<polygon fill="#fb8072" stroke="black" points="783.04,-252 558.96,-252 558.96,-216 783.04,-216 783.04,-252"/>
<text text-anchor="middle" x="671" y="-229.8" font-family="Times,serif" font-size="14.00">ActivityCompletePopUpComponent </text>
</g>
<!-- NotificationModule&#45;&gt;ActivityCompletePopUpComponent  -->
<g id="edge7" class="edge">
<title>NotificationModule&#45;&gt;ActivityCompletePopUpComponent </title>
<path fill="none" stroke="black" stroke-dasharray="5,2" d="M581.79,-187.11C581.79,-187.11 581.79,-205.99 581.79,-205.99"/>
<polygon fill="black" stroke="black" points="578.29,-205.99 581.79,-215.99 585.29,-205.99 578.29,-205.99"/>
</g>
<!-- LockTeamAssessmentPopUpComponent  -->
<g id="node9" class="node">
<title>LockTeamAssessmentPopUpComponent </title>
<polygon fill="#fb8072" stroke="black" points="541.46,-252 290.54,-252 290.54,-216 541.46,-216 541.46,-252"/>
<text text-anchor="middle" x="416" y="-229.8" font-family="Times,serif" font-size="14.00">LockTeamAssessmentPopUpComponent </text>
</g>
<!-- NotificationModule&#45;&gt;LockTeamAssessmentPopUpComponent  -->
<g id="edge8" class="edge">
<title>NotificationModule&#45;&gt;LockTeamAssessmentPopUpComponent </title>
<path fill="none" stroke="black" stroke-dasharray="5,2" d="M509.31,-187.11C509.31,-187.11 509.31,-205.99 509.31,-205.99"/>
<polygon fill="black" stroke="black" points="505.81,-205.99 509.31,-215.99 512.81,-205.99 505.81,-205.99"/>
</g>
<!-- PopUpComponent  -->
<g id="node10" class="node">
<title>PopUpComponent </title>
<polygon fill="#fb8072" stroke="black" points="272.72,-252 149.28,-252 149.28,-216 272.72,-216 272.72,-252"/>
<text text-anchor="middle" x="211" y="-229.8" font-family="Times,serif" font-size="14.00">PopUpComponent </text>
</g>
<!-- NotificationModule&#45;&gt;PopUpComponent  -->
<g id="edge9" class="edge">
<title>NotificationModule&#45;&gt;PopUpComponent </title>
<path fill="none" stroke="black" stroke-dasharray="5,2" d="M477.29,-178C390.93,-178 247.38,-178 247.38,-178 247.38,-178 247.38,-205.97 247.38,-205.97"/>
<polygon fill="black" stroke="black" points="243.88,-205.97 247.38,-215.97 250.88,-205.97 243.88,-205.97"/>
</g>
<!-- SharedModule -->
<g id="node6" class="node">
<title>SharedModule</title>
<polygon fill="#8dd3c7" stroke="black" points="1181.42,-122 1178.42,-126 1157.42,-126 1154.42,-122 1082.58,-122 1082.58,-86 1181.42,-86 1181.42,-122"/>
<text text-anchor="middle" x="1132" y="-99.8" font-family="Times,serif" font-size="14.00">SharedModule</text>
</g>
<!-- SharedModule&#45;&gt;NotificationModule -->
<g id="edge5" class="edge">
<title>SharedModule&#45;&gt;NotificationModule</title>
<path fill="none" stroke="black" d="M1132,-122.13C1132,-142.57 1132,-173 1132,-173 1132,-173 614.81,-173 614.81,-173"/>
<polygon fill="black" stroke="black" points="614.81,-169.5 604.81,-173 614.81,-176.5 614.81,-169.5"/>
</g>
<!-- NotificationService -->
<g id="node11" class="node">
<title>NotificationService</title>
<ellipse fill="#fdb462" stroke="black" cx="111" cy="-104" rx="86.81" ry="18"/>
<text text-anchor="middle" x="111" y="-99.8" font-family="Times,serif" font-size="14.00">NotificationService</text>
</g>
<!-- NotificationService&#45;&gt;NotificationModule -->
<g id="edge10" class="edge">
<title>NotificationService&#45;&gt;NotificationModule</title>
<path fill="none" stroke="black" d="M173.4,-116.53C173.4,-135.42 173.4,-169 173.4,-169 173.4,-169 467.39,-169 467.39,-169"/>
<polygon fill="black" stroke="black" points="467.39,-172.5 477.39,-169 467.39,-165.5 467.39,-172.5"/>
</g>
</g>
</svg>
