<?xml version="1.0" encoding="UTF-8" standalone="no"?>
<!DOCTYPE svg PUBLIC "-//W3C//DTD SVG 1.1//EN"
 "http://www.w3.org/Graphics/SVG/1.1/DTD/svg11.dtd">
<!-- Generated by graphviz version 2.44.1 (20200629.0846)
 -->
<!-- Title: dependencies Pages: 1 -->
<svg width="504pt" height="284pt"
 viewBox="0.00 0.00 504.00 284.00" xmlns="http://www.w3.org/2000/svg" xmlns:xlink="http://www.w3.org/1999/xlink">
<g id="graph0" class="graph" transform="scale(1 1) rotate(0) translate(4 280)">
<title>dependencies</title>
<polygon fill="white" stroke="transparent" points="-4,4 -4,-280 500,-280 500,4 -4,4"/>
<text text-anchor="start" x="227.01" y="-42.4" font-family="sans-serif" font-weight="bold" font-size="14.00">Legend</text>
<polygon fill="#ffffb3" stroke="transparent" points="14,-10 14,-30 34,-30 34,-10 14,-10"/>
<text text-anchor="start" x="37.63" y="-15.4" font-family="sans-serif" font-size="14.00"> &#160;Declarations</text>
<polygon fill="#8dd3c7" stroke="transparent" points="127,-10 127,-30 147,-30 147,-10 127,-10"/>
<text text-anchor="start" x="150.73" y="-15.4" font-family="sans-serif" font-size="14.00"> &#160;Module</text>
<polygon fill="#80b1d3" stroke="transparent" points="213,-10 213,-30 233,-30 233,-10 213,-10"/>
<text text-anchor="start" x="236.78" y="-15.4" font-family="sans-serif" font-size="14.00"> &#160;Bootstrap</text>
<polygon fill="#fdb462" stroke="transparent" points="310,-10 310,-30 330,-30 330,-10 310,-10"/>
<text text-anchor="start" x="333.67" y="-15.4" font-family="sans-serif" font-size="14.00"> &#160;Providers</text>
<polygon fill="#fb8072" stroke="transparent" points="406,-10 406,-30 426,-30 426,-10 406,-10"/>
<text text-anchor="start" x="429.73" y="-15.4" font-family="sans-serif" font-size="14.00"> &#160;Exports</text>
<g id="clust1" class="cluster">
<title>cluster_ReviewRatingModule</title>
<polygon fill="none" stroke="black" stroke-dasharray="1,5" points="44,-70 44,-268 452,-268 452,-70 44,-70"/>
</g>
<g id="clust7" class="cluster">
<title>cluster_ReviewRatingModule_providers</title>
<polygon fill="none" stroke="black" points="238,-78 238,-130 444,-130 444,-78 238,-78"/>
</g>
<g id="clust2" class="cluster">
<title>cluster_ReviewRatingModule_declarations</title>
<polygon fill="none" stroke="black" points="52,-78 52,-130 230,-130 230,-78 52,-78"/>
</g>
<g id="clust5" class="cluster">
<title>cluster_ReviewRatingModule_exports</title>
<polygon fill="none" stroke="black" points="151,-208 151,-260 331,-260 331,-208 151,-208"/>
</g>
<!-- ReviewRatingComponent -->
<g id="node1" class="node">
<title>ReviewRatingComponent</title>
<polygon fill="#ffffb3" stroke="black" points="221.93,-122 60.07,-122 60.07,-86 221.93,-86 221.93,-122"/>
<text text-anchor="middle" x="141" y="-99.8" font-family="Times,serif" font-size="14.00">ReviewRatingComponent</text>
</g>
<!-- ReviewRatingModule -->
<g id="node2" class="node">
<title>ReviewRatingModule</title>
<polygon fill="#8dd3c7" stroke="black" points="310.65,-187 307.65,-191 286.65,-191 283.65,-187 171.35,-187 171.35,-151 310.65,-151 310.65,-187"/>
<text text-anchor="middle" x="241" y="-164.8" font-family="Times,serif" font-size="14.00">ReviewRatingModule</text>
</g>
<!-- ReviewRatingComponent&#45;&gt;ReviewRatingModule -->
<g id="edge1" class="edge">
<title>ReviewRatingComponent&#45;&gt;ReviewRatingModule</title>
<path fill="none" stroke="black" d="M196.45,-122.11C196.45,-122.11 196.45,-140.99 196.45,-140.99"/>
<polygon fill="black" stroke="black" points="192.95,-140.99 196.45,-150.99 199.95,-140.99 192.95,-140.99"/>
</g>
<!-- ReviewRatingComponent  -->
<g id="node3" class="node">
<title>ReviewRatingComponent </title>
<polygon fill="#fb8072" stroke="black" points="323.43,-252 158.57,-252 158.57,-216 323.43,-216 323.43,-252"/>
<text text-anchor="middle" x="241" y="-229.8" font-family="Times,serif" font-size="14.00">ReviewRatingComponent </text>
</g>
<!-- ReviewRatingModule&#45;&gt;ReviewRatingComponent  -->
<g id="edge2" class="edge">
<title>ReviewRatingModule&#45;&gt;ReviewRatingComponent </title>
<path fill="none" stroke="black" stroke-dasharray="5,2" d="M241,-187.11C241,-187.11 241,-205.99 241,-205.99"/>
<polygon fill="black" stroke="black" points="237.5,-205.99 241,-215.99 244.5,-205.99 237.5,-205.99"/>
</g>
<!-- ReviewRatingService -->
<g id="node4" class="node">
<title>ReviewRatingService</title>
<ellipse fill="#fdb462" stroke="black" cx="341" cy="-104" rx="95.48" ry="18"/>
<text text-anchor="middle" x="341" y="-99.8" font-family="Times,serif" font-size="14.00">ReviewRatingService</text>
</g>
<!-- ReviewRatingService&#45;&gt;ReviewRatingModule -->
<g id="edge3" class="edge">
<title>ReviewRatingService&#45;&gt;ReviewRatingModule</title>
<path fill="none" stroke="black" d="M278.29,-117.78C278.29,-117.78 278.29,-140.55 278.29,-140.55"/>
<polygon fill="black" stroke="black" points="274.79,-140.55 278.29,-150.55 281.79,-140.55 274.79,-140.55"/>
</g>
</g>
</svg>
