<?xml version="1.0" encoding="UTF-8" standalone="no"?>
<!DOCTYPE svg PUBLIC "-//W3C//DTD SVG 1.1//EN"
 "http://www.w3.org/Graphics/SVG/1.1/DTD/svg11.dtd">
<!-- Generated by graphviz version 2.44.1 (20200629.0846)
 -->
<!-- Title: dependencies Pages: 1 -->
<svg width="2613pt" height="284pt"
 viewBox="0.00 0.00 2613.00 284.00" xmlns="http://www.w3.org/2000/svg" xmlns:xlink="http://www.w3.org/1999/xlink">
<g id="graph0" class="graph" transform="scale(1 1) rotate(0) translate(4 280)">
<title>dependencies</title>
<polygon fill="white" stroke="transparent" points="-4,4 -4,-280 2609,-280 2609,4 -4,4"/>
<text text-anchor="start" x="1281.51" y="-42.4" font-family="sans-serif" font-weight="bold" font-size="14.00">Legend</text>
<polygon fill="#ffffb3" stroke="transparent" points="1068.5,-10 1068.5,-30 1088.5,-30 1088.5,-10 1068.5,-10"/>
<text text-anchor="start" x="1092.13" y="-15.4" font-family="sans-serif" font-size="14.00"> &#160;Declarations</text>
<polygon fill="#8dd3c7" stroke="transparent" points="1181.5,-10 1181.5,-30 1201.5,-30 1201.5,-10 1181.5,-10"/>
<text text-anchor="start" x="1205.23" y="-15.4" font-family="sans-serif" font-size="14.00"> &#160;Module</text>
<polygon fill="#80b1d3" stroke="transparent" points="1267.5,-10 1267.5,-30 1287.5,-30 1287.5,-10 1267.5,-10"/>
<text text-anchor="start" x="1291.28" y="-15.4" font-family="sans-serif" font-size="14.00"> &#160;Bootstrap</text>
<polygon fill="#fdb462" stroke="transparent" points="1364.5,-10 1364.5,-30 1384.5,-30 1384.5,-10 1364.5,-10"/>
<text text-anchor="start" x="1388.17" y="-15.4" font-family="sans-serif" font-size="14.00"> &#160;Providers</text>
<polygon fill="#fb8072" stroke="transparent" points="1460.5,-10 1460.5,-30 1480.5,-30 1480.5,-10 1460.5,-10"/>
<text text-anchor="start" x="1484.23" y="-15.4" font-family="sans-serif" font-size="14.00"> &#160;Exports</text>
<g id="clust1" class="cluster">
<title>cluster_AppModule</title>
<polygon fill="none" stroke="black" stroke-dasharray="1,5" points="8,-70 8,-268 2597,-268 2597,-70 8,-70"/>
</g>
<g id="clust8" class="cluster">
<title>cluster_AppModule_imports</title>
<polygon fill="none" stroke="black" points="1124,-78 1124,-130 2589,-130 2589,-78 1124,-78"/>
</g>
<g id="clust2" class="cluster">
<title>cluster_AppModule_declarations</title>
<polygon fill="none" stroke="black" points="366,-78 366,-130 1116,-130 1116,-78 366,-78"/>
</g>
<g id="clust10" class="cluster">
<title>cluster_AppModule_bootstrap</title>
<polygon fill="none" stroke="black" points="1339,-208 1339,-260 1463,-260 1463,-208 1339,-208"/>
</g>
<g id="clust11" class="cluster">
<title>cluster_AppModule_providers</title>
<polygon fill="none" stroke="black" points="16,-78 16,-130 358,-130 358,-78 16,-78"/>
</g>
<!-- AppComponent -->
<g id="node1" class="node">
<title>AppComponent</title>
<polygon fill="#ffffb3" stroke="black" points="1107.94,-122 1002.06,-122 1002.06,-86 1107.94,-86 1107.94,-122"/>
<text text-anchor="middle" x="1055" y="-99.8" font-family="Times,serif" font-size="14.00">AppComponent</text>
</g>
<!-- AppModule -->
<g id="node6" class="node">
<title>AppModule</title>
<polygon fill="#8dd3c7" stroke="black" points="1442.66,-187 1439.66,-191 1418.66,-191 1415.66,-187 1359.34,-187 1359.34,-151 1442.66,-151 1442.66,-187"/>
<text text-anchor="middle" x="1401" y="-164.8" font-family="Times,serif" font-size="14.00">AppModule</text>
</g>
<!-- AppComponent&#45;&gt;AppModule -->
<g id="edge1" class="edge">
<title>AppComponent&#45;&gt;AppModule</title>
<path fill="none" stroke="black" d="M1055,-122.01C1055,-138.05 1055,-159 1055,-159 1055,-159 1349.26,-159 1349.26,-159"/>
<polygon fill="black" stroke="black" points="1349.26,-162.5 1359.26,-159 1349.26,-155.5 1349.26,-162.5"/>
</g>
<!-- DeviceInfoComponent -->
<g id="node2" class="node">
<title>DeviceInfoComponent</title>
<polygon fill="#ffffb3" stroke="black" points="984.29,-122 839.71,-122 839.71,-86 984.29,-86 984.29,-122"/>
<text text-anchor="middle" x="912" y="-99.8" font-family="Times,serif" font-size="14.00">DeviceInfoComponent</text>
</g>
<!-- DeviceInfoComponent&#45;&gt;AppModule -->
<g id="edge2" class="edge">
<title>DeviceInfoComponent&#45;&gt;AppModule</title>
<path fill="none" stroke="black" d="M912,-122.02C912,-139.37 912,-163 912,-163 912,-163 1349.31,-163 1349.31,-163"/>
<polygon fill="black" stroke="black" points="1349.31,-166.5 1359.31,-163 1349.31,-159.5 1349.31,-166.5"/>
</g>
<!-- IconComponent -->
<g id="node3" class="node">
<title>IconComponent</title>
<polygon fill="#ffffb3" stroke="black" points="822.21,-122 715.79,-122 715.79,-86 822.21,-86 822.21,-122"/>
<text text-anchor="middle" x="769" y="-99.8" font-family="Times,serif" font-size="14.00">IconComponent</text>
</g>
<!-- IconComponent&#45;&gt;AppModule -->
<g id="edge3" class="edge">
<title>IconComponent&#45;&gt;AppModule</title>
<path fill="none" stroke="black" d="M769,-122.22C769,-140.83 769,-167 769,-167 769,-167 1349.04,-167 1349.04,-167"/>
<polygon fill="black" stroke="black" points="1349.04,-170.5 1359.04,-167 1349.04,-163.5 1349.04,-170.5"/>
</g>
<!-- PageNotFoundComponent -->
<g id="node4" class="node">
<title>PageNotFoundComponent</title>
<polygon fill="#ffffb3" stroke="black" points="697.82,-122 532.18,-122 532.18,-86 697.82,-86 697.82,-122"/>
<text text-anchor="middle" x="615" y="-99.8" font-family="Times,serif" font-size="14.00">PageNotFoundComponent</text>
</g>
<!-- PageNotFoundComponent&#45;&gt;AppModule -->
<g id="edge4" class="edge">
<title>PageNotFoundComponent&#45;&gt;AppModule</title>
<path fill="none" stroke="black" d="M615,-122.31C615,-142.15 615,-171 615,-171 615,-171 1349.3,-171 1349.3,-171"/>
<polygon fill="black" stroke="black" points="1349.3,-174.5 1359.3,-171 1349.3,-167.5 1349.3,-174.5"/>
</g>
<!-- UnlockingComponent -->
<g id="node5" class="node">
<title>UnlockingComponent</title>
<polygon fill="#ffffb3" stroke="black" points="514.44,-122 373.56,-122 373.56,-86 514.44,-86 514.44,-122"/>
<text text-anchor="middle" x="444" y="-99.8" font-family="Times,serif" font-size="14.00">UnlockingComponent</text>
</g>
<!-- UnlockingComponent&#45;&gt;AppModule -->
<g id="edge5" class="edge">
<title>UnlockingComponent&#45;&gt;AppModule</title>
<path fill="none" stroke="black" d="M444,-122.28C444,-143.32 444,-175 444,-175 444,-175 1349.26,-175 1349.26,-175"/>
<polygon fill="black" stroke="black" points="1349.26,-178.5 1359.26,-175 1349.26,-171.5 1349.26,-178.5"/>
</g>
<!-- AppComponent  -->
<g id="node18" class="node">
<title>AppComponent </title>
<polygon fill="#80b1d3" stroke="black" points="1455.44,-252 1346.56,-252 1346.56,-216 1455.44,-216 1455.44,-252"/>
<text text-anchor="middle" x="1401" y="-229.8" font-family="Times,serif" font-size="14.00">AppComponent </text>
</g>
<!-- AppModule&#45;&gt;AppComponent  -->
<g id="edge17" class="edge">
<title>AppModule&#45;&gt;AppComponent </title>
<path fill="none" stroke="black" stroke-dasharray="1,5" d="M1401,-187.11C1401,-187.11 1401,-205.99 1401,-205.99"/>
<polygon fill="black" stroke="black" points="1397.5,-205.99 1401,-215.99 1404.5,-205.99 1397.5,-205.99"/>
</g>
<!-- AppRoutingModule -->
<g id="node7" class="node">
<title>AppRoutingModule</title>
<polygon fill="#8dd3c7" stroke="black" points="2581.27,-122 2578.27,-126 2557.27,-126 2554.27,-122 2452.73,-122 2452.73,-86 2581.27,-86 2581.27,-122"/>
<text text-anchor="middle" x="2517" y="-99.8" font-family="Times,serif" font-size="14.00">AppRoutingModule</text>
</g>
<!-- AppRoutingModule&#45;&gt;AppModule -->
<g id="edge6" class="edge">
<title>AppRoutingModule&#45;&gt;AppModule</title>
<path fill="none" stroke="black" d="M2517,-122.32C2517,-145.66 2517,-183 2517,-183 2517,-183 1452.71,-183 1452.71,-183"/>
<polygon fill="black" stroke="black" points="1452.71,-179.5 1442.71,-183 1452.71,-186.5 1452.71,-179.5"/>
</g>
<!-- AuthModule -->
<g id="node8" class="node">
<title>AuthModule</title>
<polygon fill="#8dd3c7" stroke="black" points="2434.55,-122 2431.55,-126 2410.55,-126 2407.55,-122 2347.45,-122 2347.45,-86 2434.55,-86 2434.55,-122"/>
<text text-anchor="middle" x="2391" y="-99.8" font-family="Times,serif" font-size="14.00">AuthModule</text>
</g>
<!-- AuthModule&#45;&gt;AppModule -->
<g id="edge7" class="edge">
<title>AuthModule&#45;&gt;AppModule</title>
<path fill="none" stroke="black" d="M2391,-122.16C2391,-144.35 2391,-179 2391,-179 2391,-179 1452.91,-179 1452.91,-179"/>
<polygon fill="black" stroke="black" points="1452.91,-175.5 1442.91,-179 1452.91,-182.5 1452.91,-175.5"/>
</g>
<!-- EmbedVideo -->
<g id="node9" class="node">
<title>EmbedVideo</title>
<polygon fill="#8dd3c7" stroke="black" points="2328.87,-122 2325.87,-126 2304.87,-126 2301.87,-122 2239.13,-122 2239.13,-86 2328.87,-86 2328.87,-122"/>
<text text-anchor="middle" x="2284" y="-99.8" font-family="Times,serif" font-size="14.00">EmbedVideo</text>
</g>
<!-- EmbedVideo&#45;&gt;AppModule -->
<g id="edge8" class="edge">
<title>EmbedVideo&#45;&gt;AppModule</title>
<path fill="none" stroke="black" d="M2284,-122.28C2284,-143.32 2284,-175 2284,-175 2284,-175 1452.7,-175 1452.7,-175"/>
<polygon fill="black" stroke="black" points="1452.7,-171.5 1442.7,-175 1452.7,-178.5 1452.7,-171.5"/>
</g>
<!-- EventDetailModule -->
<g id="node10" class="node">
<title>EventDetailModule</title>
<polygon fill="#8dd3c7" stroke="black" points="2221.42,-122 2218.42,-126 2197.42,-126 2194.42,-122 2094.58,-122 2094.58,-86 2221.42,-86 2221.42,-122"/>
<text text-anchor="middle" x="2158" y="-99.8" font-family="Times,serif" font-size="14.00">EventDetailModule</text>
</g>
<!-- EventDetailModule&#45;&gt;AppModule -->
<g id="edge9" class="edge">
<title>EventDetailModule&#45;&gt;AppModule</title>
<path fill="none" stroke="black" d="M2158,-122.31C2158,-142.15 2158,-171 2158,-171 2158,-171 1452.78,-171 1452.78,-171"/>
<polygon fill="black" stroke="black" points="1452.78,-167.5 1442.78,-171 1452.78,-174.5 1452.78,-167.5"/>
</g>
<!-- FastFeedbackModule -->
<g id="node11" class="node">
<title>FastFeedbackModule</title>
<polygon fill="#8dd3c7" stroke="black" points="2077.02,-122 2074.02,-126 2053.02,-126 2050.02,-122 1940.98,-122 1940.98,-86 2077.02,-86 2077.02,-122"/>
<text text-anchor="middle" x="2009" y="-99.8" font-family="Times,serif" font-size="14.00">FastFeedbackModule</text>
</g>
<!-- FastFeedbackModule&#45;&gt;AppModule -->
<g id="edge10" class="edge">
<title>FastFeedbackModule&#45;&gt;AppModule</title>
<path fill="none" stroke="black" d="M2009,-122.22C2009,-140.83 2009,-167 2009,-167 2009,-167 1452.79,-167 1452.79,-167"/>
<polygon fill="black" stroke="black" points="1452.79,-163.5 1442.79,-167 1452.79,-170.5 1452.79,-163.5"/>
</g>
<!-- GoMobileModule -->
<g id="node12" class="node">
<title>GoMobileModule</title>
<polygon fill="#8dd3c7" stroke="black" points="1922.6,-122 1919.6,-126 1898.6,-126 1895.6,-122 1805.4,-122 1805.4,-86 1922.6,-86 1922.6,-122"/>
<text text-anchor="middle" x="1864" y="-99.8" font-family="Times,serif" font-size="14.00">GoMobileModule</text>
</g>
<!-- GoMobileModule&#45;&gt;AppModule -->
<g id="edge11" class="edge">
<title>GoMobileModule&#45;&gt;AppModule</title>
<path fill="none" stroke="black" d="M1864,-122.02C1864,-139.37 1864,-163 1864,-163 1864,-163 1452.9,-163 1452.9,-163"/>
<polygon fill="black" stroke="black" points="1452.9,-159.5 1442.9,-163 1452.9,-166.5 1452.9,-159.5"/>
</g>
<!-- NewRelicModule -->
<g id="node13" class="node">
<title>NewRelicModule</title>
<polygon fill="#8dd3c7" stroke="black" points="1787.53,-122 1784.53,-126 1763.53,-126 1760.53,-122 1672.47,-122 1672.47,-86 1787.53,-86 1787.53,-122"/>
<text text-anchor="middle" x="1730" y="-99.8" font-family="Times,serif" font-size="14.00">NewRelicModule</text>
</g>
<!-- NewRelicModule&#45;&gt;AppModule -->
<g id="edge12" class="edge">
<title>NewRelicModule&#45;&gt;AppModule</title>
<path fill="none" stroke="black" d="M1730,-122.01C1730,-138.05 1730,-159 1730,-159 1730,-159 1452.67,-159 1452.67,-159"/>
<polygon fill="black" stroke="black" points="1452.67,-155.5 1442.67,-159 1452.67,-162.5 1452.67,-155.5"/>
</g>
<!-- NotificationModule -->
<g id="node14" class="node">
<title>NotificationModule</title>
<polygon fill="#8dd3c7" stroke="black" points="1654.7,-122 1651.7,-126 1630.7,-126 1627.7,-122 1527.3,-122 1527.3,-86 1654.7,-86 1654.7,-122"/>
<text text-anchor="middle" x="1591" y="-99.8" font-family="Times,serif" font-size="14.00">NotificationModule</text>
</g>
<!-- NotificationModule&#45;&gt;AppModule -->
<g id="edge13" class="edge">
<title>NotificationModule&#45;&gt;AppModule</title>
<path fill="none" stroke="black" d="M1591,-122.12C1591,-136.78 1591,-155 1591,-155 1591,-155 1452.7,-155 1452.7,-155"/>
<polygon fill="black" stroke="black" points="1452.7,-151.5 1442.7,-155 1452.7,-158.5 1452.7,-151.5"/>
</g>
<!-- PusherModule -->
<g id="node15" class="node">
<title>PusherModule</title>
<polygon fill="#8dd3c7" stroke="black" points="1509.65,-122 1506.65,-126 1485.65,-126 1482.65,-122 1412.35,-122 1412.35,-86 1509.65,-86 1509.65,-122"/>
<text text-anchor="middle" x="1461" y="-99.8" font-family="Times,serif" font-size="14.00">PusherModule</text>
</g>
<!-- PusherModule&#45;&gt;AppModule -->
<g id="edge14" class="edge">
<title>PusherModule&#45;&gt;AppModule</title>
<path fill="none" stroke="black" d="M1427.5,-122.11C1427.5,-122.11 1427.5,-140.99 1427.5,-140.99"/>
<polygon fill="black" stroke="black" points="1424,-140.99 1427.5,-150.99 1431,-140.99 1424,-140.99"/>
</g>
<!-- RequestModule -->
<g id="node16" class="node">
<title>RequestModule</title>
<polygon fill="#8dd3c7" stroke="black" points="1394.15,-122 1391.15,-126 1370.15,-126 1367.15,-122 1289.85,-122 1289.85,-86 1394.15,-86 1394.15,-122"/>
<text text-anchor="middle" x="1342" y="-99.8" font-family="Times,serif" font-size="14.00">RequestModule</text>
</g>
<!-- RequestModule&#45;&gt;AppModule -->
<g id="edge15" class="edge">
<title>RequestModule&#45;&gt;AppModule</title>
<path fill="none" stroke="black" d="M1376.75,-122.11C1376.75,-122.11 1376.75,-140.99 1376.75,-140.99"/>
<polygon fill="black" stroke="black" points="1373.25,-140.99 1376.75,-150.99 1380.25,-140.99 1373.25,-140.99"/>
</g>
<!-- ReviewRatingModule -->
<g id="node17" class="node">
<title>ReviewRatingModule</title>
<polygon fill="#8dd3c7" stroke="black" points="1271.65,-122 1268.65,-126 1247.65,-126 1244.65,-122 1132.35,-122 1132.35,-86 1271.65,-86 1271.65,-122"/>
<text text-anchor="middle" x="1202" y="-99.8" font-family="Times,serif" font-size="14.00">ReviewRatingModule</text>
</g>
<!-- ReviewRatingModule&#45;&gt;AppModule -->
<g id="edge16" class="edge">
<title>ReviewRatingModule&#45;&gt;AppModule</title>
<path fill="none" stroke="black" d="M1202,-122.12C1202,-136.78 1202,-155 1202,-155 1202,-155 1349.28,-155 1349.28,-155"/>
<polygon fill="black" stroke="black" points="1349.28,-158.5 1359.28,-155 1349.28,-151.5 1349.28,-158.5"/>
</g>
<!-- UtilsService -->
<g id="node19" class="node">
<title>UtilsService</title>
<ellipse fill="#fdb462" stroke="black" cx="291" cy="-104" rx="58.54" ry="18"/>
<text text-anchor="middle" x="291" y="-99.8" font-family="Times,serif" font-size="14.00">UtilsService</text>
</g>
<!-- UtilsService&#45;&gt;AppModule -->
<g id="edge18" class="edge">
<title>UtilsService&#45;&gt;AppModule</title>
<path fill="none" stroke="black" d="M291,-122.16C291,-144.35 291,-179 291,-179 291,-179 1349.18,-179 1349.18,-179"/>
<polygon fill="black" stroke="black" points="1349.18,-182.5 1359.18,-179 1349.18,-175.5 1349.18,-182.5"/>
</g>
<!-- VersionCheckService -->
<g id="node20" class="node">
<title>VersionCheckService</title>
<ellipse fill="#fdb462" stroke="black" cx="119" cy="-104" rx="95.46" ry="18"/>
<text text-anchor="middle" x="119" y="-99.8" font-family="Times,serif" font-size="14.00">VersionCheckService</text>
</g>
<!-- VersionCheckService&#45;&gt;AppModule -->
<g id="edge19" class="edge">
<title>VersionCheckService&#45;&gt;AppModule</title>
<path fill="none" stroke="black" d="M119,-122.32C119,-145.66 119,-183 119,-183 119,-183 1349.07,-183 1349.07,-183"/>
<polygon fill="black" stroke="black" points="1349.07,-186.5 1359.07,-183 1349.07,-179.5 1349.07,-186.5"/>
</g>
</g>
</svg>
