<?xml version="1.0" encoding="UTF-8" standalone="no"?>
<!DOCTYPE svg PUBLIC "-//W3C//DTD SVG 1.1//EN"
 "http://www.w3.org/Graphics/SVG/1.1/DTD/svg11.dtd">
<!-- Generated by graphviz version 2.44.1 (20200629.0846)
 -->
<!-- Title: dependencies Pages: 1 -->
<svg width="630pt" height="284pt"
 viewBox="0.00 0.00 630.00 284.00" xmlns="http://www.w3.org/2000/svg" xmlns:xlink="http://www.w3.org/1999/xlink">
<g id="graph0" class="graph" transform="scale(1 1) rotate(0) translate(4 280)">
<title>dependencies</title>
<polygon fill="white" stroke="transparent" points="-4,4 -4,-280 626,-280 626,4 -4,4"/>
<text text-anchor="start" x="290.01" y="-42.4" font-family="sans-serif" font-weight="bold" font-size="14.00">Legend</text>
<polygon fill="#ffffb3" stroke="transparent" points="77,-10 77,-30 97,-30 97,-10 77,-10"/>
<text text-anchor="start" x="100.63" y="-15.4" font-family="sans-serif" font-size="14.00"> &#160;Declarations</text>
<polygon fill="#8dd3c7" stroke="transparent" points="190,-10 190,-30 210,-30 210,-10 190,-10"/>
<text text-anchor="start" x="213.73" y="-15.4" font-family="sans-serif" font-size="14.00"> &#160;Module</text>
<polygon fill="#80b1d3" stroke="transparent" points="276,-10 276,-30 296,-30 296,-10 276,-10"/>
<text text-anchor="start" x="299.78" y="-15.4" font-family="sans-serif" font-size="14.00"> &#160;Bootstrap</text>
<polygon fill="#fdb462" stroke="transparent" points="373,-10 373,-30 393,-30 393,-10 373,-10"/>
<text text-anchor="start" x="396.67" y="-15.4" font-family="sans-serif" font-size="14.00"> &#160;Providers</text>
<polygon fill="#fb8072" stroke="transparent" points="469,-10 469,-30 489,-30 489,-10 469,-10"/>
<text text-anchor="start" x="492.73" y="-15.4" font-family="sans-serif" font-size="14.00"> &#160;Exports</text>
<g id="clust1" class="cluster">
<title>cluster_FilestackModule</title>
<polygon fill="none" stroke="black" stroke-dasharray="1,5" points="8,-70 8,-268 614,-268 614,-70 8,-70"/>
</g>
<g id="clust6" class="cluster">
<title>cluster_FilestackModule_exports</title>
<polygon fill="none" stroke="black" points="188,-208 188,-260 460,-260 460,-208 188,-208"/>
</g>
<g id="clust2" class="cluster">
<title>cluster_FilestackModule_declarations</title>
<polygon fill="none" stroke="black" points="312,-78 312,-130 606,-130 606,-78 312,-78"/>
</g>
<g id="clust5" class="cluster">
<title>cluster_FilestackModule_imports</title>
<polygon fill="none" stroke="black" points="190,-78 190,-130 304,-130 304,-78 190,-78"/>
</g>
<g id="clust8" class="cluster">
<title>cluster_FilestackModule_providers</title>
<polygon fill="none" stroke="black" points="16,-78 16,-130 182,-130 182,-78 16,-78"/>
</g>
<!-- FilestackComponent -->
<g id="node1" class="node">
<title>FilestackComponent</title>
<polygon fill="#ffffb3" stroke="black" points="597.88,-122 466.12,-122 466.12,-86 597.88,-86 597.88,-122"/>
<text text-anchor="middle" x="532" y="-99.8" font-family="Times,serif" font-size="14.00">FilestackComponent</text>
</g>
<!-- FilestackModule -->
<g id="node3" class="node">
<title>FilestackModule</title>
<polygon fill="#8dd3c7" stroke="black" points="370.09,-187 367.09,-191 346.09,-191 343.09,-187 259.91,-187 259.91,-151 370.09,-151 370.09,-187"/>
<text text-anchor="middle" x="315" y="-164.8" font-family="Times,serif" font-size="14.00">FilestackModule</text>
</g>
<!-- FilestackComponent&#45;&gt;FilestackModule -->
<g id="edge1" class="edge">
<title>FilestackComponent&#45;&gt;FilestackModule</title>
<path fill="none" stroke="black" d="M532,-122.11C532,-141.34 532,-169 532,-169 532,-169 380.32,-169 380.32,-169"/>
<polygon fill="black" stroke="black" points="380.32,-165.5 370.32,-169 380.32,-172.5 380.32,-165.5"/>
</g>
<!-- PreviewComponent -->
<g id="node2" class="node">
<title>PreviewComponent</title>
<polygon fill="#ffffb3" stroke="black" points="447.7,-122 320.3,-122 320.3,-86 447.7,-86 447.7,-122"/>
<text text-anchor="middle" x="384" y="-99.8" font-family="Times,serif" font-size="14.00">PreviewComponent</text>
</g>
<!-- PreviewComponent&#45;&gt;FilestackModule -->
<g id="edge2" class="edge">
<title>PreviewComponent&#45;&gt;FilestackModule</title>
<path fill="none" stroke="black" d="M345.22,-122.11C345.22,-122.11 345.22,-140.99 345.22,-140.99"/>
<polygon fill="black" stroke="black" points="341.72,-140.99 345.22,-150.99 348.72,-140.99 341.72,-140.99"/>
</g>
<!-- FilestackComponent  -->
<g id="node5" class="node">
<title>FilestackComponent </title>
<polygon fill="#fb8072" stroke="black" points="451.88,-252 316.12,-252 316.12,-216 451.88,-216 451.88,-252"/>
<text text-anchor="middle" x="384" y="-229.8" font-family="Times,serif" font-size="14.00">FilestackComponent </text>
</g>
<!-- FilestackModule&#45;&gt;FilestackComponent  -->
<g id="edge4" class="edge">
<title>FilestackModule&#45;&gt;FilestackComponent </title>
<path fill="none" stroke="black" stroke-dasharray="5,2" d="M343.18,-187.11C343.18,-187.11 343.18,-205.99 343.18,-205.99"/>
<polygon fill="black" stroke="black" points="339.68,-205.99 343.18,-215.99 346.68,-205.99 339.68,-205.99"/>
</g>
<!-- SharedModule  -->
<g id="node6" class="node">
<title>SharedModule </title>
<polygon fill="#fb8072" stroke="black" points="297.92,-252 196.08,-252 196.08,-216 297.92,-216 297.92,-252"/>
<text text-anchor="middle" x="247" y="-229.8" font-family="Times,serif" font-size="14.00">SharedModule </text>
</g>
<!-- FilestackModule&#45;&gt;SharedModule  -->
<g id="edge5" class="edge">
<title>FilestackModule&#45;&gt;SharedModule </title>
<path fill="none" stroke="black" stroke-dasharray="5,2" d="M278.96,-187.11C278.96,-187.11 278.96,-205.99 278.96,-205.99"/>
<polygon fill="black" stroke="black" points="275.46,-205.99 278.96,-215.99 282.46,-205.99 275.46,-205.99"/>
</g>
<!-- SharedModule -->
<g id="node4" class="node">
<title>SharedModule</title>
<polygon fill="#8dd3c7" stroke="black" points="296.42,-122 293.42,-126 272.42,-126 269.42,-122 197.58,-122 197.58,-86 296.42,-86 296.42,-122"/>
<text text-anchor="middle" x="247" y="-99.8" font-family="Times,serif" font-size="14.00">SharedModule</text>
</g>
<!-- SharedModule&#45;&gt;FilestackModule -->
<g id="edge3" class="edge">
<title>SharedModule&#45;&gt;FilestackModule</title>
<path fill="none" stroke="black" d="M278.08,-122.11C278.08,-122.11 278.08,-140.99 278.08,-140.99"/>
<polygon fill="black" stroke="black" points="274.58,-140.99 278.08,-150.99 281.58,-140.99 274.58,-140.99"/>
</g>
<!-- FilestackService -->
<g id="node7" class="node">
<title>FilestackService</title>
<ellipse fill="#fdb462" stroke="black" cx="99" cy="-104" rx="74.71" ry="18"/>
<text text-anchor="middle" x="99" y="-99.8" font-family="Times,serif" font-size="14.00">FilestackService</text>
</g>
<!-- FilestackService&#45;&gt;FilestackModule -->
<g id="edge6" class="edge">
<title>FilestackService&#45;&gt;FilestackModule</title>
<path fill="none" stroke="black" d="M99,-122.11C99,-141.34 99,-169 99,-169 99,-169 249.94,-169 249.94,-169"/>
<polygon fill="black" stroke="black" points="249.94,-172.5 259.94,-169 249.94,-165.5 249.94,-172.5"/>
</g>
</g>
</svg>
