<?xml version="1.0" encoding="UTF-8" standalone="no"?>
<!DOCTYPE svg PUBLIC "-//W3C//DTD SVG 1.1//EN"
 "http://www.w3.org/Graphics/SVG/1.1/DTD/svg11.dtd">
<!-- Generated by graphviz version 2.44.1 (20200629.0846)
 -->
<!-- Title: dependencies Pages: 1 -->
<svg width="850pt" height="284pt"
 viewBox="0.00 0.00 850.00 284.00" xmlns="http://www.w3.org/2000/svg" xmlns:xlink="http://www.w3.org/1999/xlink">
<g id="graph0" class="graph" transform="scale(1 1) rotate(0) translate(4 280)">
<title>dependencies</title>
<polygon fill="white" stroke="transparent" points="-4,4 -4,-280 846,-280 846,4 -4,4"/>
<text text-anchor="start" x="400.01" y="-42.4" font-family="sans-serif" font-weight="bold" font-size="14.00">Legend</text>
<polygon fill="#ffffb3" stroke="transparent" points="187,-10 187,-30 207,-30 207,-10 187,-10"/>
<text text-anchor="start" x="210.63" y="-15.4" font-family="sans-serif" font-size="14.00"> &#160;Declarations</text>
<polygon fill="#8dd3c7" stroke="transparent" points="300,-10 300,-30 320,-30 320,-10 300,-10"/>
<text text-anchor="start" x="323.73" y="-15.4" font-family="sans-serif" font-size="14.00"> &#160;Module</text>
<polygon fill="#80b1d3" stroke="transparent" points="386,-10 386,-30 406,-30 406,-10 386,-10"/>
<text text-anchor="start" x="409.78" y="-15.4" font-family="sans-serif" font-size="14.00"> &#160;Bootstrap</text>
<polygon fill="#fdb462" stroke="transparent" points="483,-10 483,-30 503,-30 503,-10 483,-10"/>
<text text-anchor="start" x="506.67" y="-15.4" font-family="sans-serif" font-size="14.00"> &#160;Providers</text>
<polygon fill="#fb8072" stroke="transparent" points="579,-10 579,-30 599,-30 599,-10 579,-10"/>
<text text-anchor="start" x="602.73" y="-15.4" font-family="sans-serif" font-size="14.00"> &#160;Exports</text>
<g id="clust1" class="cluster">
<title>cluster_TopicModule</title>
<polygon fill="none" stroke="black" stroke-dasharray="1,5" points="8,-70 8,-268 834,-268 834,-70 8,-70"/>
</g>
<g id="clust4" class="cluster">
<title>cluster_TopicModule_imports</title>
<polygon fill="none" stroke="black" points="304,-78 304,-130 826,-130 826,-78 304,-78"/>
</g>
<g id="clust5" class="cluster">
<title>cluster_TopicModule_exports</title>
<polygon fill="none" stroke="black" points="187,-208 187,-260 699,-260 699,-208 187,-208"/>
</g>
<g id="clust7" class="cluster">
<title>cluster_TopicModule_providers</title>
<polygon fill="none" stroke="black" points="154,-78 154,-130 296,-130 296,-78 154,-78"/>
</g>
<g id="clust2" class="cluster">
<title>cluster_TopicModule_declarations</title>
<polygon fill="none" stroke="black" points="16,-78 16,-130 146,-130 146,-78 16,-78"/>
</g>
<!-- TopicComponent -->
<g id="node1" class="node">
<title>TopicComponent</title>
<polygon fill="#ffffb3" stroke="black" points="137.99,-122 24.01,-122 24.01,-86 137.99,-86 137.99,-122"/>
<text text-anchor="middle" x="81" y="-99.8" font-family="Times,serif" font-size="14.00">TopicComponent</text>
</g>
<!-- TopicModule -->
<g id="node2" class="node">
<title>TopicModule</title>
<polygon fill="#8dd3c7" stroke="black" points="491.21,-187 488.21,-191 467.21,-191 464.21,-187 398.79,-187 398.79,-151 491.21,-151 491.21,-187"/>
<text text-anchor="middle" x="445" y="-164.8" font-family="Times,serif" font-size="14.00">TopicModule</text>
</g>
<!-- TopicComponent&#45;&gt;TopicModule -->
<g id="edge1" class="edge">
<title>TopicComponent&#45;&gt;TopicModule</title>
<path fill="none" stroke="black" d="M81,-122.11C81,-141.34 81,-169 81,-169 81,-169 388.53,-169 388.53,-169"/>
<polygon fill="black" stroke="black" points="388.53,-172.5 398.53,-169 388.53,-165.5 388.53,-172.5"/>
</g>
<!-- ActivityModule  -->
<g id="node7" class="node">
<title>ActivityModule </title>
<polygon fill="#fb8072" stroke="black" points="691.43,-252 582.57,-252 582.57,-216 691.43,-216 691.43,-252"/>
<text text-anchor="middle" x="637" y="-229.8" font-family="Times,serif" font-size="14.00">ActivityModule </text>
</g>
<!-- TopicModule&#45;&gt;ActivityModule  -->
<g id="edge6" class="edge">
<title>TopicModule&#45;&gt;ActivityModule </title>
<path fill="none" stroke="black" stroke-dasharray="5,2" d="M491.22,-178C553.23,-178 655.63,-178 655.63,-178 655.63,-178 655.63,-205.97 655.63,-205.97"/>
<polygon fill="black" stroke="black" points="652.13,-205.97 655.63,-215.97 659.13,-205.97 652.13,-205.97"/>
</g>
<!-- FilestackModule  -->
<g id="node8" class="node">
<title>FilestackModule </title>
<polygon fill="#fb8072" stroke="black" points="564.59,-252 451.41,-252 451.41,-216 564.59,-216 564.59,-252"/>
<text text-anchor="middle" x="508" y="-229.8" font-family="Times,serif" font-size="14.00">FilestackModule </text>
</g>
<!-- TopicModule&#45;&gt;FilestackModule  -->
<g id="edge7" class="edge">
<title>TopicModule&#45;&gt;FilestackModule </title>
<path fill="none" stroke="black" stroke-dasharray="5,2" d="M471.15,-187.11C471.15,-187.11 471.15,-205.99 471.15,-205.99"/>
<polygon fill="black" stroke="black" points="467.65,-205.99 471.15,-215.99 474.65,-205.99 467.65,-205.99"/>
</g>
<!-- SharedModule  -->
<g id="node9" class="node">
<title>SharedModule </title>
<polygon fill="#fb8072" stroke="black" points="432.92,-252 331.08,-252 331.08,-216 432.92,-216 432.92,-252"/>
<text text-anchor="middle" x="382" y="-229.8" font-family="Times,serif" font-size="14.00">SharedModule </text>
</g>
<!-- TopicModule&#45;&gt;SharedModule  -->
<g id="edge8" class="edge">
<title>TopicModule&#45;&gt;SharedModule </title>
<path fill="none" stroke="black" stroke-dasharray="5,2" d="M415.93,-187.11C415.93,-187.11 415.93,-205.99 415.93,-205.99"/>
<polygon fill="black" stroke="black" points="412.43,-205.99 415.93,-215.99 419.43,-205.99 412.43,-205.99"/>
</g>
<!-- TopicComponent  -->
<g id="node10" class="node">
<title>TopicComponent </title>
<polygon fill="#fb8072" stroke="black" points="312.99,-252 195.01,-252 195.01,-216 312.99,-216 312.99,-252"/>
<text text-anchor="middle" x="254" y="-229.8" font-family="Times,serif" font-size="14.00">TopicComponent </text>
</g>
<!-- TopicModule&#45;&gt;TopicComponent  -->
<g id="edge9" class="edge">
<title>TopicModule&#45;&gt;TopicComponent </title>
<path fill="none" stroke="black" stroke-dasharray="5,2" d="M398.7,-178C356.24,-178 299.93,-178 299.93,-178 299.93,-178 299.93,-205.97 299.93,-205.97"/>
<polygon fill="black" stroke="black" points="296.43,-205.97 299.93,-215.97 303.43,-205.97 296.43,-205.97"/>
</g>
<!-- ActivityModule -->
<g id="node3" class="node">
<title>ActivityModule</title>
<polygon fill="#8dd3c7" stroke="black" points="817.93,-122 814.93,-126 793.93,-126 790.93,-122 712.07,-122 712.07,-86 817.93,-86 817.93,-122"/>
<text text-anchor="middle" x="765" y="-99.8" font-family="Times,serif" font-size="14.00">ActivityModule</text>
</g>
<!-- ActivityModule&#45;&gt;TopicModule -->
<g id="edge2" class="edge">
<title>ActivityModule&#45;&gt;TopicModule</title>
<path fill="none" stroke="black" d="M765,-122.11C765,-141.34 765,-169 765,-169 765,-169 501.19,-169 501.19,-169"/>
<polygon fill="black" stroke="black" points="501.19,-165.5 491.19,-169 501.19,-172.5 501.19,-165.5"/>
</g>
<!-- FilestackModule -->
<g id="node4" class="node">
<title>FilestackModule</title>
<polygon fill="#8dd3c7" stroke="black" points="694.09,-122 691.09,-126 670.09,-126 667.09,-122 583.91,-122 583.91,-86 694.09,-86 694.09,-122"/>
<text text-anchor="middle" x="639" y="-99.8" font-family="Times,serif" font-size="14.00">FilestackModule</text>
</g>
<!-- FilestackModule&#45;&gt;TopicModule -->
<g id="edge3" class="edge">
<title>FilestackModule&#45;&gt;TopicModule</title>
<path fill="none" stroke="black" d="M619.79,-122.03C619.79,-138.4 619.79,-160 619.79,-160 619.79,-160 501.38,-160 501.38,-160"/>
<polygon fill="black" stroke="black" points="501.38,-156.5 491.38,-160 501.38,-163.5 501.38,-156.5"/>
</g>
<!-- SharedModule -->
<g id="node5" class="node">
<title>SharedModule</title>
<polygon fill="#8dd3c7" stroke="black" points="566.42,-122 563.42,-126 542.42,-126 539.42,-122 467.58,-122 467.58,-86 566.42,-86 566.42,-122"/>
<text text-anchor="middle" x="517" y="-99.8" font-family="Times,serif" font-size="14.00">SharedModule</text>
</g>
<!-- SharedModule&#45;&gt;TopicModule -->
<g id="edge4" class="edge">
<title>SharedModule&#45;&gt;TopicModule</title>
<path fill="none" stroke="black" d="M479.45,-122.11C479.45,-122.11 479.45,-140.99 479.45,-140.99"/>
<polygon fill="black" stroke="black" points="475.95,-140.99 479.45,-150.99 482.95,-140.99 475.95,-140.99"/>
</g>
<!-- TopicRoutingModule -->
<g id="node6" class="node">
<title>TopicRoutingModule</title>
<polygon fill="#8dd3c7" stroke="black" points="449.83,-122 446.83,-126 425.83,-126 422.83,-122 312.17,-122 312.17,-86 449.83,-86 449.83,-122"/>
<text text-anchor="middle" x="381" y="-99.8" font-family="Times,serif" font-size="14.00">TopicRoutingModule</text>
</g>
<!-- TopicRoutingModule&#45;&gt;TopicModule -->
<g id="edge5" class="edge">
<title>TopicRoutingModule&#45;&gt;TopicModule</title>
<path fill="none" stroke="black" d="M424.28,-122.11C424.28,-122.11 424.28,-140.99 424.28,-140.99"/>
<polygon fill="black" stroke="black" points="420.78,-140.99 424.28,-150.99 427.78,-140.99 420.78,-140.99"/>
</g>
<!-- TopicService -->
<g id="node11" class="node">
<title>TopicService</title>
<ellipse fill="#fdb462" stroke="black" cx="225" cy="-104" rx="62.54" ry="18"/>
<text text-anchor="middle" x="225" y="-99.8" font-family="Times,serif" font-size="14.00">TopicService</text>
</g>
<!-- TopicService&#45;&gt;TopicModule -->
<g id="edge10" class="edge">
<title>TopicService&#45;&gt;TopicModule</title>
<path fill="none" stroke="black" d="M241.39,-121.41C241.39,-137.85 241.39,-160 241.39,-160 241.39,-160 388.8,-160 388.8,-160"/>
<polygon fill="black" stroke="black" points="388.8,-163.5 398.8,-160 388.8,-156.5 388.8,-163.5"/>
</g>
</g>
</svg>
