<?xml version="1.0" encoding="UTF-8" standalone="no"?>
<!DOCTYPE svg PUBLIC "-//W3C//DTD SVG 1.1//EN"
 "http://www.w3.org/Graphics/SVG/1.1/DTD/svg11.dtd">
<!-- Generated by graphviz version 2.44.1 (20200629.0846)
 -->
<!-- Title: dependencies Pages: 1 -->
<svg width="630pt" height="284pt"
 viewBox="0.00 0.00 630.00 284.00" xmlns="http://www.w3.org/2000/svg" xmlns:xlink="http://www.w3.org/1999/xlink">
<g id="graph0" class="graph" transform="scale(1 1) rotate(0) translate(4 280)">
<title>dependencies</title>
<polygon fill="white" stroke="transparent" points="-4,4 -4,-280 626,-280 626,4 -4,4"/>
<text text-anchor="start" x="290.01" y="-42.4" font-family="sans-serif" font-weight="bold" font-size="14.00">Legend</text>
<polygon fill="#ffffb3" stroke="transparent" points="77,-10 77,-30 97,-30 97,-10 77,-10"/>
<text text-anchor="start" x="100.63" y="-15.4" font-family="sans-serif" font-size="14.00"> &#160;Declarations</text>
<polygon fill="#8dd3c7" stroke="transparent" points="190,-10 190,-30 210,-30 210,-10 190,-10"/>
<text text-anchor="start" x="213.73" y="-15.4" font-family="sans-serif" font-size="14.00"> &#160;Module</text>
<polygon fill="#80b1d3" stroke="transparent" points="276,-10 276,-30 296,-30 296,-10 276,-10"/>
<text text-anchor="start" x="299.78" y="-15.4" font-family="sans-serif" font-size="14.00"> &#160;Bootstrap</text>
<polygon fill="#fdb462" stroke="transparent" points="373,-10 373,-30 393,-30 393,-10 373,-10"/>
<text text-anchor="start" x="396.67" y="-15.4" font-family="sans-serif" font-size="14.00"> &#160;Providers</text>
<polygon fill="#fb8072" stroke="transparent" points="469,-10 469,-30 489,-30 489,-10 469,-10"/>
<text text-anchor="start" x="492.73" y="-15.4" font-family="sans-serif" font-size="14.00"> &#160;Exports</text>
<g id="clust1" class="cluster">
<title>cluster_FilestackModule</title>
<polygon fill="none" stroke="black" stroke-dasharray="1,5" points="8,-70 8,-268 614,-268 614,-70 8,-70"/>
</g>
<g id="clust6" class="cluster">
<title>cluster_FilestackModule_exports</title>
<polygon fill="none" stroke="black" points="178,-208 178,-260 450,-260 450,-208 178,-208"/>
</g>
<g id="clust8" class="cluster">
<title>cluster_FilestackModule_providers</title>
<polygon fill="none" stroke="black" points="440,-78 440,-130 606,-130 606,-78 440,-78"/>
</g>
<g id="clust5" class="cluster">
<title>cluster_FilestackModule_imports</title>
<polygon fill="none" stroke="black" points="318,-78 318,-130 432,-130 432,-78 318,-78"/>
</g>
<g id="clust2" class="cluster">
<title>cluster_FilestackModule_declarations</title>
<polygon fill="none" stroke="black" points="16,-78 16,-130 310,-130 310,-78 16,-78"/>
</g>
<!-- FilestackComponent -->
<g id="node1" class="node">
<title>FilestackComponent</title>
<polygon fill="#ffffb3" stroke="black" points="301.88,-122 170.12,-122 170.12,-86 301.88,-86 301.88,-122"/>
<text text-anchor="middle" x="236" y="-99.8" font-family="Times,serif" font-size="14.00">FilestackComponent</text>
</g>
<!-- FilestackModule -->
<g id="node3" class="node">
<title>FilestackModule</title>
<polygon fill="#8dd3c7" stroke="black" points="360.09,-187 357.09,-191 336.09,-191 333.09,-187 249.91,-187 249.91,-151 360.09,-151 360.09,-187"/>
<text text-anchor="middle" x="305" y="-164.8" font-family="Times,serif" font-size="14.00">FilestackModule</text>
</g>
<!-- FilestackComponent&#45;&gt;FilestackModule -->
<g id="edge1" class="edge">
<title>FilestackComponent&#45;&gt;FilestackModule</title>
<path fill="none" stroke="black" d="M275.95,-122.11C275.95,-122.11 275.95,-140.99 275.95,-140.99"/>
<polygon fill="black" stroke="black" points="272.45,-140.99 275.95,-150.99 279.45,-140.99 272.45,-140.99"/>
</g>
<!-- PreviewComponent -->
<g id="node2" class="node">
<title>PreviewComponent</title>
<polygon fill="#ffffb3" stroke="black" points="151.7,-122 24.3,-122 24.3,-86 151.7,-86 151.7,-122"/>
<text text-anchor="middle" x="88" y="-99.8" font-family="Times,serif" font-size="14.00">PreviewComponent</text>
</g>
<!-- PreviewComponent&#45;&gt;FilestackModule -->
<g id="edge2" class="edge">
<title>PreviewComponent&#45;&gt;FilestackModule</title>
<path fill="none" stroke="black" d="M88,-122.11C88,-141.34 88,-169 88,-169 88,-169 239.68,-169 239.68,-169"/>
<polygon fill="black" stroke="black" points="239.68,-172.5 249.68,-169 239.68,-165.5 239.68,-172.5"/>
</g>
<!-- FilestackComponent  -->
<g id="node5" class="node">
<title>FilestackComponent </title>
<polygon fill="#fb8072" stroke="black" points="441.88,-252 306.12,-252 306.12,-216 441.88,-216 441.88,-252"/>
<text text-anchor="middle" x="374" y="-229.8" font-family="Times,serif" font-size="14.00">FilestackComponent </text>
</g>
<!-- FilestackModule&#45;&gt;FilestackComponent  -->
<g id="edge4" class="edge">
<title>FilestackModule&#45;&gt;FilestackComponent </title>
<path fill="none" stroke="black" stroke-dasharray="5,2" d="M333.18,-187.11C333.18,-187.11 333.18,-205.99 333.18,-205.99"/>
<polygon fill="black" stroke="black" points="329.68,-205.99 333.18,-215.99 336.68,-205.99 329.68,-205.99"/>
</g>
<!-- SharedModule  -->
<g id="node6" class="node">
<title>SharedModule </title>
<polygon fill="#fb8072" stroke="black" points="287.92,-252 186.08,-252 186.08,-216 287.92,-216 287.92,-252"/>
<text text-anchor="middle" x="237" y="-229.8" font-family="Times,serif" font-size="14.00">SharedModule </text>
</g>
<!-- FilestackModule&#45;&gt;SharedModule  -->
<g id="edge5" class="edge">
<title>FilestackModule&#45;&gt;SharedModule </title>
<path fill="none" stroke="black" stroke-dasharray="5,2" d="M268.96,-187.11C268.96,-187.11 268.96,-205.99 268.96,-205.99"/>
<polygon fill="black" stroke="black" points="265.46,-205.99 268.96,-215.99 272.46,-205.99 265.46,-205.99"/>
</g>
<!-- SharedModule -->
<g id="node4" class="node">
<title>SharedModule</title>
<polygon fill="#8dd3c7" stroke="black" points="424.42,-122 421.42,-126 400.42,-126 397.42,-122 325.58,-122 325.58,-86 424.42,-86 424.42,-122"/>
<text text-anchor="middle" x="375" y="-99.8" font-family="Times,serif" font-size="14.00">SharedModule</text>
</g>
<!-- SharedModule&#45;&gt;FilestackModule -->
<g id="edge3" class="edge">
<title>SharedModule&#45;&gt;FilestackModule</title>
<path fill="none" stroke="black" d="M342.92,-122.11C342.92,-122.11 342.92,-140.99 342.92,-140.99"/>
<polygon fill="black" stroke="black" points="339.42,-140.99 342.92,-150.99 346.42,-140.99 339.42,-140.99"/>
</g>
<!-- FilestackService -->
<g id="node7" class="node">
<title>FilestackService</title>
<ellipse fill="#fdb462" stroke="black" cx="523" cy="-104" rx="74.71" ry="18"/>
<text text-anchor="middle" x="523" y="-99.8" font-family="Times,serif" font-size="14.00">FilestackService</text>
</g>
<!-- FilestackService&#45;&gt;FilestackModule -->
<g id="edge6" class="edge">
<title>FilestackService&#45;&gt;FilestackModule</title>
<path fill="none" stroke="black" d="M523,-122.11C523,-141.34 523,-169 523,-169 523,-169 370.29,-169 370.29,-169"/>
<polygon fill="black" stroke="black" points="370.29,-165.5 360.29,-169 370.29,-172.5 370.29,-165.5"/>
</g>
</g>
</svg>
