<?xml version="1.0" encoding="UTF-8" standalone="no"?>
<!DOCTYPE svg PUBLIC "-//W3C//DTD SVG 1.1//EN"
 "http://www.w3.org/Graphics/SVG/1.1/DTD/svg11.dtd">
<!-- Generated by graphviz version 2.44.1 (20200629.0846)
 -->
<!-- Title: dependencies Pages: 1 -->
<svg width="1525pt" height="284pt"
 viewBox="0.00 0.00 1525.00 284.00" xmlns="http://www.w3.org/2000/svg" xmlns:xlink="http://www.w3.org/1999/xlink">
<g id="graph0" class="graph" transform="scale(1 1) rotate(0) translate(4 280)">
<title>dependencies</title>
<polygon fill="white" stroke="transparent" points="-4,4 -4,-280 1521,-280 1521,4 -4,4"/>
<text text-anchor="start" x="737.51" y="-42.4" font-family="sans-serif" font-weight="bold" font-size="14.00">Legend</text>
<polygon fill="#ffffb3" stroke="transparent" points="524.5,-10 524.5,-30 544.5,-30 544.5,-10 524.5,-10"/>
<text text-anchor="start" x="548.13" y="-15.4" font-family="sans-serif" font-size="14.00"> &#160;Declarations</text>
<polygon fill="#8dd3c7" stroke="transparent" points="637.5,-10 637.5,-30 657.5,-30 657.5,-10 637.5,-10"/>
<text text-anchor="start" x="661.23" y="-15.4" font-family="sans-serif" font-size="14.00"> &#160;Module</text>
<polygon fill="#80b1d3" stroke="transparent" points="723.5,-10 723.5,-30 743.5,-30 743.5,-10 723.5,-10"/>
<text text-anchor="start" x="747.28" y="-15.4" font-family="sans-serif" font-size="14.00"> &#160;Bootstrap</text>
<polygon fill="#fdb462" stroke="transparent" points="820.5,-10 820.5,-30 840.5,-30 840.5,-10 820.5,-10"/>
<text text-anchor="start" x="844.17" y="-15.4" font-family="sans-serif" font-size="14.00"> &#160;Providers</text>
<polygon fill="#fb8072" stroke="transparent" points="916.5,-10 916.5,-30 936.5,-30 936.5,-10 916.5,-10"/>
<text text-anchor="start" x="940.23" y="-15.4" font-family="sans-serif" font-size="14.00"> &#160;Exports</text>
<g id="clust1" class="cluster">
<title>cluster_OverviewModule</title>
<polygon fill="none" stroke="black" stroke-dasharray="1,5" points="8,-70 8,-268 1509,-268 1509,-70 8,-70"/>
</g>
<g id="clust9" class="cluster">
<title>cluster_OverviewModule_exports</title>
<polygon fill="none" stroke="black" points="565,-208 565,-260 999,-260 999,-208 565,-208"/>
</g>
<g id="clust8" class="cluster">
<title>cluster_OverviewModule_imports</title>
<polygon fill="none" stroke="black" points="1055,-78 1055,-130 1501,-130 1501,-78 1055,-78"/>
</g>
<g id="clust2" class="cluster">
<title>cluster_OverviewModule_declarations</title>
<polygon fill="none" stroke="black" points="320,-78 320,-130 1047,-130 1047,-78 320,-78"/>
</g>
<g id="clust11" class="cluster">
<title>cluster_OverviewModule_providers</title>
<polygon fill="none" stroke="black" points="16,-78 16,-130 312,-130 312,-78 16,-78"/>
</g>
<!-- HomeComponent -->
<g id="node1" class="node">
<title>HomeComponent</title>
<polygon fill="#ffffb3" stroke="black" points="1038.55,-122 923.45,-122 923.45,-86 1038.55,-86 1038.55,-122"/>
<text text-anchor="middle" x="981" y="-99.8" font-family="Times,serif" font-size="14.00">HomeComponent</text>
</g>
<!-- OverviewModule -->
<g id="node6" class="node">
<title>OverviewModule</title>
<polygon fill="#8dd3c7" stroke="black" points="820.24,-187 817.24,-191 796.24,-191 793.24,-187 705.76,-187 705.76,-151 820.24,-151 820.24,-187"/>
<text text-anchor="middle" x="763" y="-164.8" font-family="Times,serif" font-size="14.00">OverviewModule</text>
</g>
<!-- HomeComponent&#45;&gt;OverviewModule -->
<g id="edge1" class="edge">
<title>HomeComponent&#45;&gt;OverviewModule</title>
<path fill="none" stroke="black" d="M957.12,-122.24C957.12,-137.57 957.12,-157 957.12,-157 957.12,-157 830.45,-157 830.45,-157"/>
<polygon fill="black" stroke="black" points="830.45,-153.5 820.45,-157 830.45,-160.5 830.45,-153.5"/>
</g>
<!-- OverviewComponent -->
<g id="node2" class="node">
<title>OverviewComponent</title>
<polygon fill="#ffffb3" stroke="black" points="905.03,-122 768.97,-122 768.97,-86 905.03,-86 905.03,-122"/>
<text text-anchor="middle" x="837" y="-99.8" font-family="Times,serif" font-size="14.00">OverviewComponent</text>
</g>
<!-- OverviewComponent&#45;&gt;OverviewModule -->
<g id="edge2" class="edge">
<title>OverviewComponent&#45;&gt;OverviewModule</title>
<path fill="none" stroke="black" d="M794.55,-122.11C794.55,-122.11 794.55,-140.99 794.55,-140.99"/>
<polygon fill="black" stroke="black" points="791.05,-140.99 794.55,-150.99 798.05,-140.99 791.05,-140.99"/>
</g>
<!-- ProjectComponent -->
<g id="node3" class="node">
<title>ProjectComponent</title>
<polygon fill="#ffffb3" stroke="black" points="750.49,-122 629.51,-122 629.51,-86 750.49,-86 750.49,-122"/>
<text text-anchor="middle" x="690" y="-99.8" font-family="Times,serif" font-size="14.00">ProjectComponent</text>
</g>
<!-- ProjectComponent&#45;&gt;OverviewModule -->
<g id="edge3" class="edge">
<title>ProjectComponent&#45;&gt;OverviewModule</title>
<path fill="none" stroke="black" d="M728.06,-122.11C728.06,-122.11 728.06,-140.99 728.06,-140.99"/>
<polygon fill="black" stroke="black" points="724.56,-140.99 728.06,-150.99 731.56,-140.99 724.56,-140.99"/>
</g>
<!-- SlidableComponent -->
<g id="node4" class="node">
<title>SlidableComponent</title>
<polygon fill="#ffffb3" stroke="black" points="611.72,-122 484.28,-122 484.28,-86 611.72,-86 611.72,-122"/>
<text text-anchor="middle" x="548" y="-99.8" font-family="Times,serif" font-size="14.00">SlidableComponent</text>
</g>
<!-- SlidableComponent&#45;&gt;OverviewModule -->
<g id="edge4" class="edge">
<title>SlidableComponent&#45;&gt;OverviewModule</title>
<path fill="none" stroke="black" d="M592.32,-122.24C592.32,-137.57 592.32,-157 592.32,-157 592.32,-157 695.69,-157 695.69,-157"/>
<polygon fill="black" stroke="black" points="695.69,-160.5 705.69,-157 695.69,-153.5 695.69,-160.5"/>
</g>
<!-- TodoCardComponent -->
<g id="node5" class="node">
<title>TodoCardComponent</title>
<polygon fill="#ffffb3" stroke="black" points="466.1,-122 327.9,-122 327.9,-86 466.1,-86 466.1,-122"/>
<text text-anchor="middle" x="397" y="-99.8" font-family="Times,serif" font-size="14.00">TodoCardComponent</text>
</g>
<!-- TodoCardComponent&#45;&gt;OverviewModule -->
<g id="edge5" class="edge">
<title>TodoCardComponent&#45;&gt;OverviewModule</title>
<path fill="none" stroke="black" d="M397,-122.02C397,-139.37 397,-163 397,-163 397,-163 695.41,-163 695.41,-163"/>
<polygon fill="black" stroke="black" points="695.41,-166.5 705.41,-163 695.41,-159.5 695.41,-166.5"/>
</g>
<!-- FastFeedbackModule  -->
<g id="node10" class="node">
<title>FastFeedbackModule </title>
<polygon fill="#fb8072" stroke="black" points="991.02,-252 850.98,-252 850.98,-216 991.02,-216 991.02,-252"/>
<text text-anchor="middle" x="921" y="-229.8" font-family="Times,serif" font-size="14.00">FastFeedbackModule </text>
</g>
<!-- OverviewModule&#45;&gt;FastFeedbackModule  -->
<g id="edge9" class="edge">
<title>OverviewModule&#45;&gt;FastFeedbackModule </title>
<path fill="none" stroke="black" stroke-dasharray="5,2" d="M820.56,-181C849.34,-181 878.13,-181 878.13,-181 878.13,-181 878.13,-205.76 878.13,-205.76"/>
<polygon fill="black" stroke="black" points="874.63,-205.76 878.13,-215.76 881.63,-205.76 874.63,-205.76"/>
</g>
<!-- OverviewComponent  -->
<g id="node11" class="node">
<title>OverviewComponent </title>
<polygon fill="#fb8072" stroke="black" points="833.03,-252 692.97,-252 692.97,-216 833.03,-216 833.03,-252"/>
<text text-anchor="middle" x="763" y="-229.8" font-family="Times,serif" font-size="14.00">OverviewComponent </text>
</g>
<!-- OverviewModule&#45;&gt;OverviewComponent  -->
<g id="edge10" class="edge">
<title>OverviewModule&#45;&gt;OverviewComponent </title>
<path fill="none" stroke="black" stroke-dasharray="5,2" d="M763,-187.11C763,-187.11 763,-205.99 763,-205.99"/>
<polygon fill="black" stroke="black" points="759.5,-205.99 763,-215.99 766.5,-205.99 759.5,-205.99"/>
</g>
<!-- SharedModule  -->
<g id="node12" class="node">
<title>SharedModule </title>
<polygon fill="#fb8072" stroke="black" points="674.92,-252 573.08,-252 573.08,-216 674.92,-216 674.92,-252"/>
<text text-anchor="middle" x="624" y="-229.8" font-family="Times,serif" font-size="14.00">SharedModule </text>
</g>
<!-- OverviewModule&#45;&gt;SharedModule  -->
<g id="edge11" class="edge">
<title>OverviewModule&#45;&gt;SharedModule </title>
<path fill="none" stroke="black" stroke-dasharray="5,2" d="M705.67,-181C678.64,-181 652.23,-181 652.23,-181 652.23,-181 652.23,-205.76 652.23,-205.76"/>
<polygon fill="black" stroke="black" points="648.73,-205.76 652.23,-215.76 655.73,-205.76 648.73,-205.76"/>
</g>
<!-- FastFeedbackModule -->
<g id="node7" class="node">
<title>FastFeedbackModule</title>
<polygon fill="#8dd3c7" stroke="black" points="1493.02,-122 1490.02,-126 1469.02,-126 1466.02,-122 1356.98,-122 1356.98,-86 1493.02,-86 1493.02,-122"/>
<text text-anchor="middle" x="1425" y="-99.8" font-family="Times,serif" font-size="14.00">FastFeedbackModule</text>
</g>
<!-- FastFeedbackModule&#45;&gt;OverviewModule -->
<g id="edge6" class="edge">
<title>FastFeedbackModule&#45;&gt;OverviewModule</title>
<path fill="none" stroke="black" d="M1425,-122.28C1425,-143.32 1425,-175 1425,-175 1425,-175 830.3,-175 830.3,-175"/>
<polygon fill="black" stroke="black" points="830.3,-171.5 820.3,-175 830.3,-178.5 830.3,-171.5"/>
</g>
<!-- OverviewRoutingModule -->
<g id="node8" class="node">
<title>OverviewRoutingModule</title>
<polygon fill="#8dd3c7" stroke="black" points="1338.86,-122 1335.86,-126 1314.86,-126 1311.86,-122 1179.14,-122 1179.14,-86 1338.86,-86 1338.86,-122"/>
<text text-anchor="middle" x="1259" y="-99.8" font-family="Times,serif" font-size="14.00">OverviewRoutingModule</text>
</g>
<!-- OverviewRoutingModule&#45;&gt;OverviewModule -->
<g id="edge7" class="edge">
<title>OverviewRoutingModule&#45;&gt;OverviewModule</title>
<path fill="none" stroke="black" d="M1259,-122.11C1259,-141.34 1259,-169 1259,-169 1259,-169 830.38,-169 830.38,-169"/>
<polygon fill="black" stroke="black" points="830.38,-165.5 820.38,-169 830.38,-172.5 830.38,-165.5"/>
</g>
<!-- SharedModule -->
<g id="node9" class="node">
<title>SharedModule</title>
<polygon fill="#8dd3c7" stroke="black" points="1161.42,-122 1158.42,-126 1137.42,-126 1134.42,-122 1062.58,-122 1062.58,-86 1161.42,-86 1161.42,-122"/>
<text text-anchor="middle" x="1112" y="-99.8" font-family="Times,serif" font-size="14.00">SharedModule</text>
</g>
<!-- SharedModule&#45;&gt;OverviewModule -->
<g id="edge8" class="edge">
<title>SharedModule&#45;&gt;OverviewModule</title>
<path fill="none" stroke="black" d="M1112,-122.02C1112,-139.37 1112,-163 1112,-163 1112,-163 830.63,-163 830.63,-163"/>
<polygon fill="black" stroke="black" points="830.63,-159.5 820.63,-163 830.63,-166.5 830.63,-159.5"/>
</g>
<!-- HomeService -->
<g id="node13" class="node">
<title>HomeService</title>
<ellipse fill="#fdb462" stroke="black" cx="240" cy="-104" rx="63.68" ry="18"/>
<text text-anchor="middle" x="240" y="-99.8" font-family="Times,serif" font-size="14.00">HomeService</text>
</g>
<!-- HomeService&#45;&gt;OverviewModule -->
<g id="edge12" class="edge">
<title>HomeService&#45;&gt;OverviewModule</title>
<path fill="none" stroke="black" d="M240,-122.11C240,-141.34 240,-169 240,-169 240,-169 695.53,-169 695.53,-169"/>
<polygon fill="black" stroke="black" points="695.53,-172.5 705.53,-169 695.53,-165.5 695.53,-172.5"/>
</g>
<!-- ProjectService -->
<g id="node14" class="node">
<title>ProjectService</title>
<ellipse fill="#fdb462" stroke="black" cx="91" cy="-104" rx="67.19" ry="18"/>
<text text-anchor="middle" x="91" y="-99.8" font-family="Times,serif" font-size="14.00">ProjectService</text>
</g>
<!-- ProjectService&#45;&gt;OverviewModule -->
<g id="edge13" class="edge">
<title>ProjectService&#45;&gt;OverviewModule</title>
<path fill="none" stroke="black" d="M91,-122.28C91,-143.32 91,-175 91,-175 91,-175 695.71,-175 695.71,-175"/>
<polygon fill="black" stroke="black" points="695.71,-178.5 705.71,-175 695.71,-171.5 695.71,-178.5"/>
</g>
</g>
</svg>
