<?xml version="1.0" encoding="UTF-8" standalone="no"?>
<!DOCTYPE svg PUBLIC "-//W3C//DTD SVG 1.1//EN"
 "http://www.w3.org/Graphics/SVG/1.1/DTD/svg11.dtd">
<!-- Generated by graphviz version 2.44.1 (20200629.0846)
 -->
<!-- Title: dependencies Pages: 1 -->
<svg width="757pt" height="211pt"
 viewBox="0.00 0.00 757.00 211.00" xmlns="http://www.w3.org/2000/svg" xmlns:xlink="http://www.w3.org/1999/xlink">
<g id="graph0" class="graph" transform="scale(1 1) rotate(0) translate(4 207)">
<title>dependencies</title>
<polygon fill="white" stroke="transparent" points="-4,4 -4,-207 753,-207 753,4 -4,4"/>
<text text-anchor="start" x="353.51" y="-42.4" font-family="sans-serif" font-weight="bold" font-size="14.00">Legend</text>
<polygon fill="#ffffb3" stroke="transparent" points="140.5,-10 140.5,-30 160.5,-30 160.5,-10 140.5,-10"/>
<text text-anchor="start" x="164.13" y="-15.4" font-family="sans-serif" font-size="14.00"> &#160;Declarations</text>
<polygon fill="#8dd3c7" stroke="transparent" points="253.5,-10 253.5,-30 273.5,-30 273.5,-10 253.5,-10"/>
<text text-anchor="start" x="277.23" y="-15.4" font-family="sans-serif" font-size="14.00"> &#160;Module</text>
<polygon fill="#80b1d3" stroke="transparent" points="339.5,-10 339.5,-30 359.5,-30 359.5,-10 339.5,-10"/>
<text text-anchor="start" x="363.28" y="-15.4" font-family="sans-serif" font-size="14.00"> &#160;Bootstrap</text>
<polygon fill="#fdb462" stroke="transparent" points="436.5,-10 436.5,-30 456.5,-30 456.5,-10 436.5,-10"/>
<text text-anchor="start" x="460.17" y="-15.4" font-family="sans-serif" font-size="14.00"> &#160;Providers</text>
<polygon fill="#fb8072" stroke="transparent" points="532.5,-10 532.5,-30 552.5,-30 552.5,-10 532.5,-10"/>
<text text-anchor="start" x="556.23" y="-15.4" font-family="sans-serif" font-size="14.00"> &#160;Exports</text>
<g id="clust1" class="cluster">
<title>cluster_AchievementsModule</title>
<polygon fill="none" stroke="black" stroke-dasharray="1,5" points="8,-70 8,-195 741,-195 741,-70 8,-70"/>
</g>
<g id="clust4" class="cluster">
<title>cluster_AchievementsModule_imports</title>
<polygon fill="none" stroke="black" points="416,-78 416,-130 733,-130 733,-78 416,-78"/>
</g>
<g id="clust2" class="cluster">
<title>cluster_AchievementsModule_declarations</title>
<polygon fill="none" stroke="black" points="230,-78 230,-130 408,-130 408,-78 230,-78"/>
</g>
<g id="clust7" class="cluster">
<title>cluster_AchievementsModule_providers</title>
<polygon fill="none" stroke="black" points="16,-78 16,-130 222,-130 222,-78 16,-78"/>
</g>
<!-- AchievementsComponent -->
<g id="node1" class="node">
<title>AchievementsComponent</title>
<polygon fill="#ffffb3" stroke="black" points="399.91,-122 238.09,-122 238.09,-86 399.91,-86 399.91,-122"/>
<text text-anchor="middle" x="319" y="-99.8" font-family="Times,serif" font-size="14.00">AchievementsComponent</text>
</g>
<!-- AchievementsModule -->
<g id="node2" class="node">
<title>AchievementsModule</title>
<polygon fill="#8dd3c7" stroke="black" points="465.63,-187 462.63,-191 441.63,-191 438.63,-187 326.37,-187 326.37,-151 465.63,-151 465.63,-187"/>
<text text-anchor="middle" x="396" y="-164.8" font-family="Times,serif" font-size="14.00">AchievementsModule</text>
</g>
<!-- AchievementsComponent&#45;&gt;AchievementsModule -->
<g id="edge1" class="edge">
<title>AchievementsComponent&#45;&gt;AchievementsModule</title>
<path fill="none" stroke="black" d="M362.95,-122.11C362.95,-122.11 362.95,-140.99 362.95,-140.99"/>
<polygon fill="black" stroke="black" points="359.45,-140.99 362.95,-150.99 366.45,-140.99 359.45,-140.99"/>
</g>
<!-- AchievementsRoutingModule -->
<g id="node3" class="node">
<title>AchievementsRoutingModule</title>
<polygon fill="#8dd3c7" stroke="black" points="725.25,-122 722.25,-126 701.25,-126 698.25,-122 540.75,-122 540.75,-86 725.25,-86 725.25,-122"/>
<text text-anchor="middle" x="633" y="-99.8" font-family="Times,serif" font-size="14.00">AchievementsRoutingModule</text>
</g>
<!-- AchievementsRoutingModule&#45;&gt;AchievementsModule -->
<g id="edge2" class="edge">
<title>AchievementsRoutingModule&#45;&gt;AchievementsModule</title>
<path fill="none" stroke="black" d="M633,-122.11C633,-141.34 633,-169 633,-169 633,-169 475.83,-169 475.83,-169"/>
<polygon fill="black" stroke="black" points="475.83,-165.5 465.83,-169 475.83,-172.5 475.83,-165.5"/>
</g>
<!-- SharedModule -->
<g id="node4" class="node">
<title>SharedModule</title>
<polygon fill="#8dd3c7" stroke="black" points="522.42,-122 519.42,-126 498.42,-126 495.42,-122 423.58,-122 423.58,-86 522.42,-86 522.42,-122"/>
<text text-anchor="middle" x="473" y="-99.8" font-family="Times,serif" font-size="14.00">SharedModule</text>
</g>
<!-- SharedModule&#45;&gt;AchievementsModule -->
<g id="edge3" class="edge">
<title>SharedModule&#45;&gt;AchievementsModule</title>
<path fill="none" stroke="black" d="M444.8,-122.11C444.8,-122.11 444.8,-140.99 444.8,-140.99"/>
<polygon fill="black" stroke="black" points="441.3,-140.99 444.8,-150.99 448.3,-140.99 441.3,-140.99"/>
</g>
<!-- AchievementsService -->
<g id="node5" class="node">
<title>AchievementsService</title>
<ellipse fill="#fdb462" stroke="black" cx="119" cy="-104" rx="95.46" ry="18"/>
<text text-anchor="middle" x="119" y="-99.8" font-family="Times,serif" font-size="14.00">AchievementsService</text>
</g>
<!-- AchievementsService&#45;&gt;AchievementsModule -->
<g id="edge4" class="edge">
<title>AchievementsService&#45;&gt;AchievementsModule</title>
<path fill="none" stroke="black" d="M119,-122.11C119,-141.34 119,-169 119,-169 119,-169 316.1,-169 316.1,-169"/>
<polygon fill="black" stroke="black" points="316.1,-172.5 326.1,-169 316.1,-165.5 316.1,-172.5"/>
</g>
</g>
</svg>
