<?xml version="1.0" encoding="UTF-8" standalone="no"?>
<!DOCTYPE svg PUBLIC "-//W3C//DTD SVG 1.1//EN"
 "http://www.w3.org/Graphics/SVG/1.1/DTD/svg11.dtd">
<!-- Generated by graphviz version 2.44.1 (20200629.0846)
 -->
<!-- Title: dependencies Pages: 1 -->
<svg width="1640pt" height="284pt"
 viewBox="0.00 0.00 1640.00 284.00" xmlns="http://www.w3.org/2000/svg" xmlns:xlink="http://www.w3.org/1999/xlink">
<g id="graph0" class="graph" transform="scale(1 1) rotate(0) translate(4 280)">
<title>dependencies</title>
<polygon fill="white" stroke="transparent" points="-4,4 -4,-280 1636,-280 1636,4 -4,4"/>
<text text-anchor="start" x="795.01" y="-42.4" font-family="sans-serif" font-weight="bold" font-size="14.00">Legend</text>
<polygon fill="#ffffb3" stroke="transparent" points="582,-10 582,-30 602,-30 602,-10 582,-10"/>
<text text-anchor="start" x="605.63" y="-15.4" font-family="sans-serif" font-size="14.00"> &#160;Declarations</text>
<polygon fill="#8dd3c7" stroke="transparent" points="695,-10 695,-30 715,-30 715,-10 695,-10"/>
<text text-anchor="start" x="718.73" y="-15.4" font-family="sans-serif" font-size="14.00"> &#160;Module</text>
<polygon fill="#80b1d3" stroke="transparent" points="781,-10 781,-30 801,-30 801,-10 781,-10"/>
<text text-anchor="start" x="804.78" y="-15.4" font-family="sans-serif" font-size="14.00"> &#160;Bootstrap</text>
<polygon fill="#fdb462" stroke="transparent" points="878,-10 878,-30 898,-30 898,-10 878,-10"/>
<text text-anchor="start" x="901.67" y="-15.4" font-family="sans-serif" font-size="14.00"> &#160;Providers</text>
<polygon fill="#fb8072" stroke="transparent" points="974,-10 974,-30 994,-30 994,-10 974,-10"/>
<text text-anchor="start" x="997.73" y="-15.4" font-family="sans-serif" font-size="14.00"> &#160;Exports</text>
<g id="clust1" class="cluster">
<title>cluster_ChatModule</title>
<polygon fill="none" stroke="black" stroke-dasharray="1,5" points="8,-70 8,-268 1624,-268 1624,-70 8,-70"/>
</g>
<g id="clust9" class="cluster">
<title>cluster_ChatModule_imports</title>
<polygon fill="none" stroke="black" points="1070,-78 1070,-130 1616,-130 1616,-78 1070,-78"/>
</g>
<g id="clust2" class="cluster">
<title>cluster_ChatModule_declarations</title>
<polygon fill="none" stroke="black" points="156,-78 156,-130 1062,-130 1062,-78 156,-78"/>
</g>
<g id="clust12" class="cluster">
<title>cluster_ChatModule_providers</title>
<polygon fill="none" stroke="black" points="16,-78 16,-130 148,-130 148,-78 16,-78"/>
</g>
<g id="clust10" class="cluster">
<title>cluster_ChatModule_exports</title>
<polygon fill="none" stroke="black" points="597,-208 597,-260 1169,-260 1169,-208 597,-208"/>
</g>
<!-- AutoresizeDirective -->
<g id="node1" class="node">
<title>AutoresizeDirective</title>
<polygon fill="#ffffb3" stroke="black" points="1054.22,-122 925.78,-122 925.78,-86 1054.22,-86 1054.22,-122"/>
<text text-anchor="middle" x="990" y="-99.8" font-family="Times,serif" font-size="14.00">AutoresizeDirective</text>
</g>
<!-- ChatModule -->
<g id="node7" class="node">
<title>ChatModule</title>
<polygon fill="#8dd3c7" stroke="black" points="896.99,-187 893.99,-191 872.99,-191 869.99,-187 811.01,-187 811.01,-151 896.99,-151 896.99,-187"/>
<text text-anchor="middle" x="854" y="-164.8" font-family="Times,serif" font-size="14.00">ChatModule</text>
</g>
<!-- AutoresizeDirective&#45;&gt;ChatModule -->
<g id="edge1" class="edge">
<title>AutoresizeDirective&#45;&gt;ChatModule</title>
<path fill="none" stroke="black" d="M961.33,-122.24C961.33,-137.57 961.33,-157 961.33,-157 961.33,-157 907.04,-157 907.04,-157"/>
<polygon fill="black" stroke="black" points="907.04,-153.5 897.04,-157 907.04,-160.5 907.04,-153.5"/>
</g>
<!-- ChatComponent -->
<g id="node2" class="node">
<title>ChatComponent</title>
<polygon fill="#ffffb3" stroke="black" points="907.77,-122 800.23,-122 800.23,-86 907.77,-86 907.77,-122"/>
<text text-anchor="middle" x="854" y="-99.8" font-family="Times,serif" font-size="14.00">ChatComponent</text>
</g>
<!-- ChatComponent&#45;&gt;ChatModule -->
<g id="edge2" class="edge">
<title>ChatComponent&#45;&gt;ChatModule</title>
<path fill="none" stroke="black" d="M854,-122.11C854,-122.11 854,-140.99 854,-140.99"/>
<polygon fill="black" stroke="black" points="850.5,-140.99 854,-150.99 857.5,-140.99 850.5,-140.99"/>
</g>
<!-- ChatListComponent -->
<g id="node3" class="node">
<title>ChatListComponent</title>
<polygon fill="#ffffb3" stroke="black" points="781.55,-122 652.45,-122 652.45,-86 781.55,-86 781.55,-122"/>
<text text-anchor="middle" x="717" y="-99.8" font-family="Times,serif" font-size="14.00">ChatListComponent</text>
</g>
<!-- ChatListComponent&#45;&gt;ChatModule -->
<g id="edge3" class="edge">
<title>ChatListComponent&#45;&gt;ChatModule</title>
<path fill="none" stroke="black" d="M753.49,-122.24C753.49,-137.57 753.49,-157 753.49,-157 753.49,-157 800.79,-157 800.79,-157"/>
<polygon fill="black" stroke="black" points="800.79,-160.5 810.79,-157 800.79,-153.5 800.79,-160.5"/>
</g>
<!-- ChatPreviewComponent -->
<g id="node4" class="node">
<title>ChatPreviewComponent</title>
<polygon fill="#ffffb3" stroke="black" points="633.64,-122 480.36,-122 480.36,-86 633.64,-86 633.64,-122"/>
<text text-anchor="middle" x="557" y="-99.8" font-family="Times,serif" font-size="14.00">ChatPreviewComponent</text>
</g>
<!-- ChatPreviewComponent&#45;&gt;ChatModule -->
<g id="edge4" class="edge">
<title>ChatPreviewComponent&#45;&gt;ChatModule</title>
<path fill="none" stroke="black" d="M619.43,-122.03C619.43,-139.06 619.43,-162 619.43,-162 619.43,-162 800.98,-162 800.98,-162"/>
<polygon fill="black" stroke="black" points="800.98,-165.5 810.98,-162 800.98,-158.5 800.98,-165.5"/>
</g>
<!-- ChatRoomComponent -->
<g id="node5" class="node">
<title>ChatRoomComponent</title>
<polygon fill="#ffffb3" stroke="black" points="462,-122 320,-122 320,-86 462,-86 462,-122"/>
<text text-anchor="middle" x="391" y="-99.8" font-family="Times,serif" font-size="14.00">ChatRoomComponent</text>
</g>
<!-- ChatRoomComponent&#45;&gt;ChatModule -->
<g id="edge5" class="edge">
<title>ChatRoomComponent&#45;&gt;ChatModule</title>
<path fill="none" stroke="black" d="M391,-122.22C391,-140.83 391,-167 391,-167 391,-167 800.86,-167 800.86,-167"/>
<polygon fill="black" stroke="black" points="800.86,-170.5 810.86,-167 800.86,-163.5 800.86,-170.5"/>
</g>
<!-- ChatViewComponent -->
<g id="node6" class="node">
<title>ChatViewComponent</title>
<polygon fill="#ffffb3" stroke="black" points="302.09,-122 163.91,-122 163.91,-86 302.09,-86 302.09,-122"/>
<text text-anchor="middle" x="233" y="-99.8" font-family="Times,serif" font-size="14.00">ChatViewComponent</text>
</g>
<!-- ChatViewComponent&#45;&gt;ChatModule -->
<g id="edge6" class="edge">
<title>ChatViewComponent&#45;&gt;ChatModule</title>
<path fill="none" stroke="black" d="M233,-122.22C233,-142.37 233,-172 233,-172 233,-172 800.83,-172 800.83,-172"/>
<polygon fill="black" stroke="black" points="800.83,-175.5 810.83,-172 800.83,-168.5 800.83,-175.5"/>
</g>
<!-- ChatRoomComponent  -->
<g id="node12" class="node">
<title>ChatRoomComponent </title>
<polygon fill="#fb8072" stroke="black" points="1160.5,-252 1015.5,-252 1015.5,-216 1160.5,-216 1160.5,-252"/>
<text text-anchor="middle" x="1088" y="-229.8" font-family="Times,serif" font-size="14.00">ChatRoomComponent </text>
</g>
<!-- ChatModule&#45;&gt;ChatRoomComponent  -->
<g id="edge11" class="edge">
<title>ChatModule&#45;&gt;ChatRoomComponent </title>
<path fill="none" stroke="black" stroke-dasharray="5,2" d="M897.31,-182C950.8,-182 1034.8,-182 1034.8,-182 1034.8,-182 1034.8,-205.81 1034.8,-205.81"/>
<polygon fill="black" stroke="black" points="1031.3,-205.81 1034.8,-215.81 1038.3,-205.81 1031.3,-205.81"/>
</g>
<!-- FastFeedbackModule  -->
<g id="node13" class="node">
<title>FastFeedbackModule </title>
<polygon fill="#fb8072" stroke="black" points="997.02,-252 856.98,-252 856.98,-216 997.02,-216 997.02,-252"/>
<text text-anchor="middle" x="927" y="-229.8" font-family="Times,serif" font-size="14.00">FastFeedbackModule </text>
</g>
<!-- ChatModule&#45;&gt;FastFeedbackModule  -->
<g id="edge12" class="edge">
<title>ChatModule&#45;&gt;FastFeedbackModule </title>
<path fill="none" stroke="black" stroke-dasharray="5,2" d="M876.99,-187.11C876.99,-187.11 876.99,-205.99 876.99,-205.99"/>
<polygon fill="black" stroke="black" points="873.49,-205.99 876.99,-215.99 880.49,-205.99 873.49,-205.99"/>
</g>
<!-- FilestackModule  -->
<g id="node14" class="node">
<title>FilestackModule </title>
<polygon fill="#fb8072" stroke="black" points="838.59,-252 725.41,-252 725.41,-216 838.59,-216 838.59,-252"/>
<text text-anchor="middle" x="782" y="-229.8" font-family="Times,serif" font-size="14.00">FilestackModule </text>
</g>
<!-- ChatModule&#45;&gt;FilestackModule  -->
<g id="edge13" class="edge">
<title>ChatModule&#45;&gt;FilestackModule </title>
<path fill="none" stroke="black" stroke-dasharray="5,2" d="M824.9,-187.11C824.9,-187.11 824.9,-205.99 824.9,-205.99"/>
<polygon fill="black" stroke="black" points="821.4,-205.99 824.9,-215.99 828.4,-205.99 821.4,-205.99"/>
</g>
<!-- SharedModule  -->
<g id="node15" class="node">
<title>SharedModule </title>
<polygon fill="#fb8072" stroke="black" points="706.92,-252 605.08,-252 605.08,-216 706.92,-216 706.92,-252"/>
<text text-anchor="middle" x="656" y="-229.8" font-family="Times,serif" font-size="14.00">SharedModule </text>
</g>
<!-- ChatModule&#45;&gt;SharedModule  -->
<g id="edge14" class="edge">
<title>ChatModule&#45;&gt;SharedModule </title>
<path fill="none" stroke="black" stroke-dasharray="5,2" d="M810.89,-182C759.24,-182 679.59,-182 679.59,-182 679.59,-182 679.59,-205.81 679.59,-205.81"/>
<polygon fill="black" stroke="black" points="676.09,-205.81 679.59,-215.81 683.09,-205.81 676.09,-205.81"/>
</g>
<!-- ChatRoutingModule -->
<g id="node8" class="node">
<title>ChatRoutingModule</title>
<polygon fill="#8dd3c7" stroke="black" points="1607.61,-122 1604.61,-126 1583.61,-126 1580.61,-122 1476.39,-122 1476.39,-86 1607.61,-86 1607.61,-122"/>
<text text-anchor="middle" x="1542" y="-99.8" font-family="Times,serif" font-size="14.00">ChatRoutingModule</text>
</g>
<!-- ChatRoutingModule&#45;&gt;ChatModule -->
<g id="edge7" class="edge">
<title>ChatRoutingModule&#45;&gt;ChatModule</title>
<path fill="none" stroke="black" d="M1542,-122.04C1542,-143.66 1542,-177 1542,-177 1542,-177 907.04,-177 907.04,-177"/>
<polygon fill="black" stroke="black" points="907.04,-173.5 897.04,-177 907.04,-180.5 907.04,-173.5"/>
</g>
<!-- FastFeedbackModule -->
<g id="node9" class="node">
<title>FastFeedbackModule</title>
<polygon fill="#8dd3c7" stroke="black" points="1458.02,-122 1455.02,-126 1434.02,-126 1431.02,-122 1321.98,-122 1321.98,-86 1458.02,-86 1458.02,-122"/>
<text text-anchor="middle" x="1390" y="-99.8" font-family="Times,serif" font-size="14.00">FastFeedbackModule</text>
</g>
<!-- FastFeedbackModule&#45;&gt;ChatModule -->
<g id="edge8" class="edge">
<title>FastFeedbackModule&#45;&gt;ChatModule</title>
<path fill="none" stroke="black" d="M1390,-122.22C1390,-142.37 1390,-172 1390,-172 1390,-172 907.41,-172 907.41,-172"/>
<polygon fill="black" stroke="black" points="907.41,-168.5 897.41,-172 907.41,-175.5 907.41,-168.5"/>
</g>
<!-- FilestackModule -->
<g id="node10" class="node">
<title>FilestackModule</title>
<polygon fill="#8dd3c7" stroke="black" points="1304.09,-122 1301.09,-126 1280.09,-126 1277.09,-122 1193.91,-122 1193.91,-86 1304.09,-86 1304.09,-122"/>
<text text-anchor="middle" x="1249" y="-99.8" font-family="Times,serif" font-size="14.00">FilestackModule</text>
</g>
<!-- FilestackModule&#45;&gt;ChatModule -->
<g id="edge9" class="edge">
<title>FilestackModule&#45;&gt;ChatModule</title>
<path fill="none" stroke="black" d="M1249,-122.22C1249,-140.83 1249,-167 1249,-167 1249,-167 907.02,-167 907.02,-167"/>
<polygon fill="black" stroke="black" points="907.02,-163.5 897.02,-167 907.02,-170.5 907.02,-163.5"/>
</g>
<!-- SharedModule -->
<g id="node11" class="node">
<title>SharedModule</title>
<polygon fill="#8dd3c7" stroke="black" points="1176.42,-122 1173.42,-126 1152.42,-126 1149.42,-122 1077.58,-122 1077.58,-86 1176.42,-86 1176.42,-122"/>
<text text-anchor="middle" x="1127" y="-99.8" font-family="Times,serif" font-size="14.00">SharedModule</text>
</g>
<!-- SharedModule&#45;&gt;ChatModule -->
<g id="edge10" class="edge">
<title>SharedModule&#45;&gt;ChatModule</title>
<path fill="none" stroke="black" d="M1119.27,-122.03C1119.27,-139.06 1119.27,-162 1119.27,-162 1119.27,-162 907.21,-162 907.21,-162"/>
<polygon fill="black" stroke="black" points="907.21,-158.5 897.21,-162 907.21,-165.5 907.21,-158.5"/>
</g>
<!-- ChatService -->
<g id="node16" class="node">
<title>ChatService</title>
<ellipse fill="#fdb462" stroke="black" cx="82" cy="-104" rx="58.46" ry="18"/>
<text text-anchor="middle" x="82" y="-99.8" font-family="Times,serif" font-size="14.00">ChatService</text>
</g>
<!-- ChatService&#45;&gt;ChatModule -->
<g id="edge15" class="edge">
<title>ChatService&#45;&gt;ChatModule</title>
<path fill="none" stroke="black" d="M82,-122.04C82,-143.66 82,-177 82,-177 82,-177 800.84,-177 800.84,-177"/>
<polygon fill="black" stroke="black" points="800.84,-180.5 810.84,-177 800.84,-173.5 800.84,-180.5"/>
</g>
</g>
</svg>
