<?xml version="1.0" encoding="UTF-8" standalone="no"?>
<!DOCTYPE svg PUBLIC "-//W3C//DTD SVG 1.1//EN"
 "http://www.w3.org/Graphics/SVG/1.1/DTD/svg11.dtd">
<!-- Generated by graphviz version 2.44.1 (20200629.0846)
 -->
<!-- Title: dependencies Pages: 1 -->
<svg width="1640pt" height="284pt"
 viewBox="0.00 0.00 1640.00 284.00" xmlns="http://www.w3.org/2000/svg" xmlns:xlink="http://www.w3.org/1999/xlink">
<g id="graph0" class="graph" transform="scale(1 1) rotate(0) translate(4 280)">
<title>dependencies</title>
<polygon fill="white" stroke="transparent" points="-4,4 -4,-280 1636,-280 1636,4 -4,4"/>
<text text-anchor="start" x="795.01" y="-42.4" font-family="sans-serif" font-weight="bold" font-size="14.00">Legend</text>
<polygon fill="#ffffb3" stroke="transparent" points="582,-10 582,-30 602,-30 602,-10 582,-10"/>
<text text-anchor="start" x="605.63" y="-15.4" font-family="sans-serif" font-size="14.00"> &#160;Declarations</text>
<polygon fill="#8dd3c7" stroke="transparent" points="695,-10 695,-30 715,-30 715,-10 695,-10"/>
<text text-anchor="start" x="718.73" y="-15.4" font-family="sans-serif" font-size="14.00"> &#160;Module</text>
<polygon fill="#80b1d3" stroke="transparent" points="781,-10 781,-30 801,-30 801,-10 781,-10"/>
<text text-anchor="start" x="804.78" y="-15.4" font-family="sans-serif" font-size="14.00"> &#160;Bootstrap</text>
<polygon fill="#fdb462" stroke="transparent" points="878,-10 878,-30 898,-30 898,-10 878,-10"/>
<text text-anchor="start" x="901.67" y="-15.4" font-family="sans-serif" font-size="14.00"> &#160;Providers</text>
<polygon fill="#fb8072" stroke="transparent" points="974,-10 974,-30 994,-30 994,-10 974,-10"/>
<text text-anchor="start" x="997.73" y="-15.4" font-family="sans-serif" font-size="14.00"> &#160;Exports</text>
<g id="clust1" class="cluster">
<title>cluster_ChatModule</title>
<polygon fill="none" stroke="black" stroke-dasharray="1,5" points="8,-70 8,-268 1624,-268 1624,-70 8,-70"/>
</g>
<g id="clust9" class="cluster">
<title>cluster_ChatModule_imports</title>
<polygon fill="none" stroke="black" points="1070,-78 1070,-130 1616,-130 1616,-78 1070,-78"/>
</g>
<g id="clust10" class="cluster">
<title>cluster_ChatModule_exports</title>
<polygon fill="none" stroke="black" points="593,-208 593,-260 1165,-260 1165,-208 593,-208"/>
</g>
<g id="clust12" class="cluster">
<title>cluster_ChatModule_providers</title>
<polygon fill="none" stroke="black" points="930,-78 930,-130 1062,-130 1062,-78 930,-78"/>
</g>
<g id="clust2" class="cluster">
<title>cluster_ChatModule_declarations</title>
<polygon fill="none" stroke="black" points="16,-78 16,-130 922,-130 922,-78 16,-78"/>
</g>
<!-- AutoresizeDirective -->
<g id="node1" class="node">
<title>AutoresizeDirective</title>
<polygon fill="#ffffb3" stroke="black" points="914.22,-122 785.78,-122 785.78,-86 914.22,-86 914.22,-122"/>
<text text-anchor="middle" x="850" y="-99.8" font-family="Times,serif" font-size="14.00">AutoresizeDirective</text>
</g>
<!-- ChatModule -->
<g id="node7" class="node">
<title>ChatModule</title>
<polygon fill="#8dd3c7" stroke="black" points="892.99,-187 889.99,-191 868.99,-191 865.99,-187 807.01,-187 807.01,-151 892.99,-151 892.99,-187"/>
<text text-anchor="middle" x="850" y="-164.8" font-family="Times,serif" font-size="14.00">ChatModule</text>
</g>
<!-- AutoresizeDirective&#45;&gt;ChatModule -->
<g id="edge1" class="edge">
<title>AutoresizeDirective&#45;&gt;ChatModule</title>
<path fill="none" stroke="black" d="M850,-122.11C850,-122.11 850,-140.99 850,-140.99"/>
<polygon fill="black" stroke="black" points="846.5,-140.99 850,-150.99 853.5,-140.99 846.5,-140.99"/>
</g>
<!-- ChatComponent -->
<g id="node2" class="node">
<title>ChatComponent</title>
<polygon fill="#ffffb3" stroke="black" points="767.77,-122 660.23,-122 660.23,-86 767.77,-86 767.77,-122"/>
<text text-anchor="middle" x="714" y="-99.8" font-family="Times,serif" font-size="14.00">ChatComponent</text>
</g>
<!-- ChatComponent&#45;&gt;ChatModule -->
<g id="edge2" class="edge">
<title>ChatComponent&#45;&gt;ChatModule</title>
<path fill="none" stroke="black" d="M744.55,-122.24C744.55,-137.57 744.55,-157 744.55,-157 744.55,-157 796.8,-157 796.8,-157"/>
<polygon fill="black" stroke="black" points="796.8,-160.5 806.8,-157 796.8,-153.5 796.8,-160.5"/>
</g>
<!-- ChatListComponent -->
<g id="node3" class="node">
<title>ChatListComponent</title>
<polygon fill="#ffffb3" stroke="black" points="641.55,-122 512.45,-122 512.45,-86 641.55,-86 641.55,-122"/>
<text text-anchor="middle" x="577" y="-99.8" font-family="Times,serif" font-size="14.00">ChatListComponent</text>
</g>
<!-- ChatListComponent&#45;&gt;ChatModule -->
<g id="edge3" class="edge">
<title>ChatListComponent&#45;&gt;ChatModule</title>
<path fill="none" stroke="black" d="M621.41,-122.03C621.41,-139.06 621.41,-162 621.41,-162 621.41,-162 797,-162 797,-162"/>
<polygon fill="black" stroke="black" points="797,-165.5 807,-162 797,-158.5 797,-165.5"/>
</g>
<!-- ChatPreviewComponent -->
<g id="node4" class="node">
<title>ChatPreviewComponent</title>
<polygon fill="#ffffb3" stroke="black" points="493.64,-122 340.36,-122 340.36,-86 493.64,-86 493.64,-122"/>
<text text-anchor="middle" x="417" y="-99.8" font-family="Times,serif" font-size="14.00">ChatPreviewComponent</text>
</g>
<!-- ChatPreviewComponent&#45;&gt;ChatModule -->
<g id="edge4" class="edge">
<title>ChatPreviewComponent&#45;&gt;ChatModule</title>
<path fill="none" stroke="black" d="M417,-122.22C417,-140.83 417,-167 417,-167 417,-167 796.9,-167 796.9,-167"/>
<polygon fill="black" stroke="black" points="796.9,-170.5 806.9,-167 796.9,-163.5 796.9,-170.5"/>
</g>
<!-- ChatRoomComponent -->
<g id="node5" class="node">
<title>ChatRoomComponent</title>
<polygon fill="#ffffb3" stroke="black" points="322,-122 180,-122 180,-86 322,-86 322,-122"/>
<text text-anchor="middle" x="251" y="-99.8" font-family="Times,serif" font-size="14.00">ChatRoomComponent</text>
</g>
<!-- ChatRoomComponent&#45;&gt;ChatModule -->
<g id="edge5" class="edge">
<title>ChatRoomComponent&#45;&gt;ChatModule</title>
<path fill="none" stroke="black" d="M251,-122.22C251,-142.37 251,-172 251,-172 251,-172 796.92,-172 796.92,-172"/>
<polygon fill="black" stroke="black" points="796.92,-175.5 806.92,-172 796.92,-168.5 796.92,-175.5"/>
</g>
<!-- ChatViewComponent -->
<g id="node6" class="node">
<title>ChatViewComponent</title>
<polygon fill="#ffffb3" stroke="black" points="162.09,-122 23.91,-122 23.91,-86 162.09,-86 162.09,-122"/>
<text text-anchor="middle" x="93" y="-99.8" font-family="Times,serif" font-size="14.00">ChatViewComponent</text>
</g>
<!-- ChatViewComponent&#45;&gt;ChatModule -->
<g id="edge6" class="edge">
<title>ChatViewComponent&#45;&gt;ChatModule</title>
<path fill="none" stroke="black" d="M93,-122.04C93,-143.66 93,-177 93,-177 93,-177 796.86,-177 796.86,-177"/>
<polygon fill="black" stroke="black" points="796.86,-180.5 806.86,-177 796.86,-173.5 796.86,-180.5"/>
</g>
<!-- ChatRoomComponent  -->
<g id="node12" class="node">
<title>ChatRoomComponent </title>
<polygon fill="#fb8072" stroke="black" points="1156.5,-252 1011.5,-252 1011.5,-216 1156.5,-216 1156.5,-252"/>
<text text-anchor="middle" x="1084" y="-229.8" font-family="Times,serif" font-size="14.00">ChatRoomComponent </text>
</g>
<!-- ChatModule&#45;&gt;ChatRoomComponent  -->
<g id="edge11" class="edge">
<title>ChatModule&#45;&gt;ChatRoomComponent </title>
<path fill="none" stroke="black" stroke-dasharray="5,2" d="M893.31,-182C947.35,-182 1032.74,-182 1032.74,-182 1032.74,-182 1032.74,-205.81 1032.74,-205.81"/>
<polygon fill="black" stroke="black" points="1029.24,-205.81 1032.74,-215.81 1036.24,-205.81 1029.24,-205.81"/>
</g>
<!-- FastFeedbackModule  -->
<g id="node13" class="node">
<title>FastFeedbackModule </title>
<polygon fill="#fb8072" stroke="black" points="993.02,-252 852.98,-252 852.98,-216 993.02,-216 993.02,-252"/>
<text text-anchor="middle" x="923" y="-229.8" font-family="Times,serif" font-size="14.00">FastFeedbackModule </text>
</g>
<!-- ChatModule&#45;&gt;FastFeedbackModule  -->
<g id="edge12" class="edge">
<title>ChatModule&#45;&gt;FastFeedbackModule </title>
<path fill="none" stroke="black" stroke-dasharray="5,2" d="M872.99,-187.11C872.99,-187.11 872.99,-205.99 872.99,-205.99"/>
<polygon fill="black" stroke="black" points="869.49,-205.99 872.99,-215.99 876.49,-205.99 869.49,-205.99"/>
</g>
<!-- FilestackModule  -->
<g id="node14" class="node">
<title>FilestackModule </title>
<polygon fill="#fb8072" stroke="black" points="834.59,-252 721.41,-252 721.41,-216 834.59,-216 834.59,-252"/>
<text text-anchor="middle" x="778" y="-229.8" font-family="Times,serif" font-size="14.00">FilestackModule </text>
</g>
<!-- ChatModule&#45;&gt;FilestackModule  -->
<g id="edge13" class="edge">
<title>ChatModule&#45;&gt;FilestackModule </title>
<path fill="none" stroke="black" stroke-dasharray="5,2" d="M820.9,-187.11C820.9,-187.11 820.9,-205.99 820.9,-205.99"/>
<polygon fill="black" stroke="black" points="817.4,-205.99 820.9,-215.99 824.4,-205.99 817.4,-205.99"/>
</g>
<!-- SharedModule  -->
<g id="node15" class="node">
<title>SharedModule </title>
<polygon fill="#fb8072" stroke="black" points="702.92,-252 601.08,-252 601.08,-216 702.92,-216 702.92,-252"/>
<text text-anchor="middle" x="652" y="-229.8" font-family="Times,serif" font-size="14.00">SharedModule </text>
</g>
<!-- ChatModule&#45;&gt;SharedModule  -->
<g id="edge14" class="edge">
<title>ChatModule&#45;&gt;SharedModule </title>
<path fill="none" stroke="black" stroke-dasharray="5,2" d="M806.62,-182C756.7,-182 681.54,-182 681.54,-182 681.54,-182 681.54,-205.81 681.54,-205.81"/>
<polygon fill="black" stroke="black" points="678.04,-205.81 681.54,-215.81 685.04,-205.81 678.04,-205.81"/>
</g>
<!-- ChatRoutingModule -->
<g id="node8" class="node">
<title>ChatRoutingModule</title>
<polygon fill="#8dd3c7" stroke="black" points="1607.61,-122 1604.61,-126 1583.61,-126 1580.61,-122 1476.39,-122 1476.39,-86 1607.61,-86 1607.61,-122"/>
<text text-anchor="middle" x="1542" y="-99.8" font-family="Times,serif" font-size="14.00">ChatRoutingModule</text>
</g>
<!-- ChatRoutingModule&#45;&gt;ChatModule -->
<g id="edge7" class="edge">
<title>ChatRoutingModule&#45;&gt;ChatModule</title>
<path fill="none" stroke="black" d="M1542,-122.04C1542,-143.66 1542,-177 1542,-177 1542,-177 903.03,-177 903.03,-177"/>
<polygon fill="black" stroke="black" points="903.03,-173.5 893.03,-177 903.03,-180.5 903.03,-173.5"/>
</g>
<!-- FastFeedbackModule -->
<g id="node9" class="node">
<title>FastFeedbackModule</title>
<polygon fill="#8dd3c7" stroke="black" points="1458.02,-122 1455.02,-126 1434.02,-126 1431.02,-122 1321.98,-122 1321.98,-86 1458.02,-86 1458.02,-122"/>
<text text-anchor="middle" x="1390" y="-99.8" font-family="Times,serif" font-size="14.00">FastFeedbackModule</text>
</g>
<!-- FastFeedbackModule&#45;&gt;ChatModule -->
<g id="edge8" class="edge">
<title>FastFeedbackModule&#45;&gt;ChatModule</title>
<path fill="none" stroke="black" d="M1390,-122.22C1390,-142.37 1390,-172 1390,-172 1390,-172 903.28,-172 903.28,-172"/>
<polygon fill="black" stroke="black" points="903.28,-168.5 893.28,-172 903.28,-175.5 903.28,-168.5"/>
</g>
<!-- FilestackModule -->
<g id="node10" class="node">
<title>FilestackModule</title>
<polygon fill="#8dd3c7" stroke="black" points="1304.09,-122 1301.09,-126 1280.09,-126 1277.09,-122 1193.91,-122 1193.91,-86 1304.09,-86 1304.09,-122"/>
<text text-anchor="middle" x="1249" y="-99.8" font-family="Times,serif" font-size="14.00">FilestackModule</text>
</g>
<!-- FilestackModule&#45;&gt;ChatModule -->
<g id="edge9" class="edge">
<title>FilestackModule&#45;&gt;ChatModule</title>
<path fill="none" stroke="black" d="M1249,-122.22C1249,-140.83 1249,-167 1249,-167 1249,-167 903.08,-167 903.08,-167"/>
<polygon fill="black" stroke="black" points="903.08,-163.5 893.08,-167 903.08,-170.5 903.08,-163.5"/>
</g>
<!-- SharedModule -->
<g id="node11" class="node">
<title>SharedModule</title>
<polygon fill="#8dd3c7" stroke="black" points="1176.42,-122 1173.42,-126 1152.42,-126 1149.42,-122 1077.58,-122 1077.58,-86 1176.42,-86 1176.42,-122"/>
<text text-anchor="middle" x="1127" y="-99.8" font-family="Times,serif" font-size="14.00">SharedModule</text>
</g>
<!-- SharedModule&#45;&gt;ChatModule -->
<g id="edge10" class="edge">
<title>SharedModule&#45;&gt;ChatModule</title>
<path fill="none" stroke="black" d="M1117.27,-122.03C1117.27,-139.06 1117.27,-162 1117.27,-162 1117.27,-162 903.24,-162 903.24,-162"/>
<polygon fill="black" stroke="black" points="903.24,-158.5 893.24,-162 903.24,-165.5 903.24,-158.5"/>
</g>
<!-- ChatService -->
<g id="node16" class="node">
<title>ChatService</title>
<ellipse fill="#fdb462" stroke="black" cx="996" cy="-104" rx="58.46" ry="18"/>
<text text-anchor="middle" x="996" y="-99.8" font-family="Times,serif" font-size="14.00">ChatService</text>
</g>
<!-- ChatService&#45;&gt;ChatModule -->
<g id="edge15" class="edge">
<title>ChatService&#45;&gt;ChatModule</title>
<path fill="none" stroke="black" d="M965.39,-119.33C965.39,-134.98 965.39,-157 965.39,-157 965.39,-157 903.3,-157 903.3,-157"/>
<polygon fill="black" stroke="black" points="903.3,-153.5 893.3,-157 903.3,-160.5 903.3,-153.5"/>
</g>
</g>
</svg>
