<?xml version="1.0" encoding="UTF-8" standalone="no"?>
<!DOCTYPE svg PUBLIC "-//W3C//DTD SVG 1.1//EN"
 "http://www.w3.org/Graphics/SVG/1.1/DTD/svg11.dtd">
<!-- Generated by graphviz version 2.44.1 (20200629.0846)
 -->
<!-- Title: dependencies Pages: 1 -->
<svg width="1974pt" height="284pt"
 viewBox="0.00 0.00 1974.00 284.00" xmlns="http://www.w3.org/2000/svg" xmlns:xlink="http://www.w3.org/1999/xlink">
<g id="graph0" class="graph" transform="scale(1 1) rotate(0) translate(4 280)">
<title>dependencies</title>
<polygon fill="white" stroke="transparent" points="-4,4 -4,-280 1970,-280 1970,4 -4,4"/>
<text text-anchor="start" x="962.01" y="-42.4" font-family="sans-serif" font-weight="bold" font-size="14.00">Legend</text>
<polygon fill="#ffffb3" stroke="transparent" points="749,-10 749,-30 769,-30 769,-10 749,-10"/>
<text text-anchor="start" x="772.63" y="-15.4" font-family="sans-serif" font-size="14.00"> &#160;Declarations</text>
<polygon fill="#8dd3c7" stroke="transparent" points="862,-10 862,-30 882,-30 882,-10 862,-10"/>
<text text-anchor="start" x="885.73" y="-15.4" font-family="sans-serif" font-size="14.00"> &#160;Module</text>
<polygon fill="#80b1d3" stroke="transparent" points="948,-10 948,-30 968,-30 968,-10 948,-10"/>
<text text-anchor="start" x="971.78" y="-15.4" font-family="sans-serif" font-size="14.00"> &#160;Bootstrap</text>
<polygon fill="#fdb462" stroke="transparent" points="1045,-10 1045,-30 1065,-30 1065,-10 1045,-10"/>
<text text-anchor="start" x="1068.67" y="-15.4" font-family="sans-serif" font-size="14.00"> &#160;Providers</text>
<polygon fill="#fb8072" stroke="transparent" points="1141,-10 1141,-30 1161,-30 1161,-10 1141,-10"/>
<text text-anchor="start" x="1164.73" y="-15.4" font-family="sans-serif" font-size="14.00"> &#160;Exports</text>
<g id="clust1" class="cluster">
<title>cluster_AuthModule</title>
<polygon fill="none" stroke="black" stroke-dasharray="1,5" points="8,-70 8,-268 1958,-268 1958,-70 8,-70"/>
</g>
<g id="clust14" class="cluster">
<title>cluster_AuthModule_providers</title>
<polygon fill="none" stroke="black" points="1816,-78 1816,-130 1950,-130 1950,-78 1816,-78"/>
</g>
<g id="clust2" class="cluster">
<title>cluster_AuthModule_declarations</title>
<polygon fill="none" stroke="black" points="289,-78 289,-130 1808,-130 1808,-78 289,-78"/>
</g>
<g id="clust11" class="cluster">
<title>cluster_AuthModule_imports</title>
<polygon fill="none" stroke="black" points="16,-78 16,-130 281,-130 281,-78 16,-78"/>
</g>
<g id="clust12" class="cluster">
<title>cluster_AuthModule_exports</title>
<polygon fill="none" stroke="black" points="963,-208 963,-260 1081,-260 1081,-208 963,-208"/>
</g>
<!-- AuthComponent -->
<g id="node1" class="node">
<title>AuthComponent</title>
<polygon fill="#ffffb3" stroke="black" points="1799.83,-122 1690.17,-122 1690.17,-86 1799.83,-86 1799.83,-122"/>
<text text-anchor="middle" x="1745" y="-99.8" font-family="Times,serif" font-size="14.00">AuthComponent</text>
</g>
<!-- AuthModule -->
<g id="node9" class="node">
<title>AuthModule</title>
<polygon fill="#8dd3c7" stroke="black" points="1065.55,-187 1062.55,-191 1041.55,-191 1038.55,-187 978.45,-187 978.45,-151 1065.55,-151 1065.55,-187"/>
<text text-anchor="middle" x="1022" y="-164.8" font-family="Times,serif" font-size="14.00">AuthModule</text>
</g>
<!-- AuthComponent&#45;&gt;AuthModule -->
<g id="edge1" class="edge">
<title>AuthComponent&#45;&gt;AuthModule</title>
<path fill="none" stroke="black" d="M1745,-122.28C1745,-143.32 1745,-175 1745,-175 1745,-175 1075.6,-175 1075.6,-175"/>
<polygon fill="black" stroke="black" points="1075.6,-171.5 1065.6,-175 1075.6,-178.5 1075.6,-171.5"/>
</g>
<!-- AuthDirectLoginComponent -->
<g id="node2" class="node">
<title>AuthDirectLoginComponent</title>
<polygon fill="#ffffb3" stroke="black" points="1671.75,-122 1494.25,-122 1494.25,-86 1671.75,-86 1671.75,-122"/>
<text text-anchor="middle" x="1583" y="-99.8" font-family="Times,serif" font-size="14.00">AuthDirectLoginComponent</text>
</g>
<!-- AuthDirectLoginComponent&#45;&gt;AuthModule -->
<g id="edge2" class="edge">
<title>AuthDirectLoginComponent&#45;&gt;AuthModule</title>
<path fill="none" stroke="black" d="M1583,-122.11C1583,-141.34 1583,-169 1583,-169 1583,-169 1075.55,-169 1075.55,-169"/>
<polygon fill="black" stroke="black" points="1075.55,-165.5 1065.55,-169 1075.55,-172.5 1075.55,-165.5"/>
</g>
<!-- AuthForgotPasswordComponent -->
<g id="node3" class="node">
<title>AuthForgotPasswordComponent</title>
<polygon fill="#ffffb3" stroke="black" points="1476.32,-122 1275.68,-122 1275.68,-86 1476.32,-86 1476.32,-122"/>
<text text-anchor="middle" x="1376" y="-99.8" font-family="Times,serif" font-size="14.00">AuthForgotPasswordComponent</text>
</g>
<!-- AuthForgotPasswordComponent&#45;&gt;AuthModule -->
<g id="edge3" class="edge">
<title>AuthForgotPasswordComponent&#45;&gt;AuthModule</title>
<path fill="none" stroke="black" d="M1376,-122.02C1376,-139.37 1376,-163 1376,-163 1376,-163 1075.76,-163 1075.76,-163"/>
<polygon fill="black" stroke="black" points="1075.76,-159.5 1065.76,-163 1075.76,-166.5 1075.76,-159.5"/>
</g>
<!-- AuthLoginComponent -->
<g id="node4" class="node">
<title>AuthLoginComponent</title>
<polygon fill="#ffffb3" stroke="black" points="1257.27,-122 1114.73,-122 1114.73,-86 1257.27,-86 1257.27,-122"/>
<text text-anchor="middle" x="1186" y="-99.8" font-family="Times,serif" font-size="14.00">AuthLoginComponent</text>
</g>
<!-- AuthLoginComponent&#45;&gt;AuthModule -->
<g id="edge4" class="edge">
<title>AuthLoginComponent&#45;&gt;AuthModule</title>
<path fill="none" stroke="black" d="M1186,-122.24C1186,-137.57 1186,-157 1186,-157 1186,-157 1075.95,-157 1075.95,-157"/>
<polygon fill="black" stroke="black" points="1075.95,-153.5 1065.95,-157 1075.95,-160.5 1075.95,-153.5"/>
</g>
<!-- AuthLogoutComponent -->
<g id="node5" class="node">
<title>AuthLogoutComponent</title>
<polygon fill="#ffffb3" stroke="black" points="1096.77,-122 947.23,-122 947.23,-86 1096.77,-86 1096.77,-122"/>
<text text-anchor="middle" x="1022" y="-99.8" font-family="Times,serif" font-size="14.00">AuthLogoutComponent</text>
</g>
<!-- AuthLogoutComponent&#45;&gt;AuthModule -->
<g id="edge5" class="edge">
<title>AuthLogoutComponent&#45;&gt;AuthModule</title>
<path fill="none" stroke="black" d="M1022,-122.11C1022,-122.11 1022,-140.99 1022,-140.99"/>
<polygon fill="black" stroke="black" points="1018.5,-140.99 1022,-150.99 1025.5,-140.99 1018.5,-140.99"/>
</g>
<!-- AuthRegistrationComponent -->
<g id="node6" class="node">
<title>AuthRegistrationComponent</title>
<polygon fill="#ffffb3" stroke="black" points="928.76,-122 751.24,-122 751.24,-86 928.76,-86 928.76,-122"/>
<text text-anchor="middle" x="840" y="-99.8" font-family="Times,serif" font-size="14.00">AuthRegistrationComponent</text>
</g>
<!-- AuthRegistrationComponent&#45;&gt;AuthModule -->
<g id="edge6" class="edge">
<title>AuthRegistrationComponent&#45;&gt;AuthModule</title>
<path fill="none" stroke="black" d="M840,-122.24C840,-137.57 840,-157 840,-157 840,-157 968.41,-157 968.41,-157"/>
<polygon fill="black" stroke="black" points="968.41,-160.5 978.41,-157 968.41,-153.5 968.41,-160.5"/>
</g>
<!-- AuthResetPasswordComponent -->
<g id="node7" class="node">
<title>AuthResetPasswordComponent</title>
<polygon fill="#ffffb3" stroke="black" points="733.08,-122 538.92,-122 538.92,-86 733.08,-86 733.08,-122"/>
<text text-anchor="middle" x="636" y="-99.8" font-family="Times,serif" font-size="14.00">AuthResetPasswordComponent</text>
</g>
<!-- AuthResetPasswordComponent&#45;&gt;AuthModule -->
<g id="edge7" class="edge">
<title>AuthResetPasswordComponent&#45;&gt;AuthModule</title>
<path fill="none" stroke="black" d="M636,-122.02C636,-139.37 636,-163 636,-163 636,-163 968.1,-163 968.1,-163"/>
<polygon fill="black" stroke="black" points="968.1,-166.5 978.1,-163 968.1,-159.5 968.1,-166.5"/>
</g>
<!-- TermsConditionsPreviewComponent -->
<g id="node8" class="node">
<title>TermsConditionsPreviewComponent</title>
<polygon fill="#ffffb3" stroke="black" points="521.42,-122 296.58,-122 296.58,-86 521.42,-86 521.42,-122"/>
<text text-anchor="middle" x="409" y="-99.8" font-family="Times,serif" font-size="14.00">TermsConditionsPreviewComponent</text>
</g>
<!-- TermsConditionsPreviewComponent&#45;&gt;AuthModule -->
<g id="edge8" class="edge">
<title>TermsConditionsPreviewComponent&#45;&gt;AuthModule</title>
<path fill="none" stroke="black" d="M409,-122.11C409,-141.34 409,-169 409,-169 409,-169 968.41,-169 968.41,-169"/>
<polygon fill="black" stroke="black" points="968.41,-172.5 978.41,-169 968.41,-165.5 968.41,-172.5"/>
</g>
<!-- SharedModule  -->
<g id="node12" class="node">
<title>SharedModule </title>
<polygon fill="#fb8072" stroke="black" points="1072.92,-252 971.08,-252 971.08,-216 1072.92,-216 1072.92,-252"/>
<text text-anchor="middle" x="1022" y="-229.8" font-family="Times,serif" font-size="14.00">SharedModule </text>
</g>
<!-- AuthModule&#45;&gt;SharedModule  -->
<g id="edge11" class="edge">
<title>AuthModule&#45;&gt;SharedModule </title>
<path fill="none" stroke="black" stroke-dasharray="5,2" d="M1022,-187.11C1022,-187.11 1022,-205.99 1022,-205.99"/>
<polygon fill="black" stroke="black" points="1018.5,-205.99 1022,-215.99 1025.5,-205.99 1018.5,-205.99"/>
</g>
<!-- AuthRoutingModule -->
<g id="node10" class="node">
<title>AuthRoutingModule</title>
<polygon fill="#8dd3c7" stroke="black" points="273.17,-122 270.17,-126 249.17,-126 246.17,-122 140.83,-122 140.83,-86 273.17,-86 273.17,-122"/>
<text text-anchor="middle" x="207" y="-99.8" font-family="Times,serif" font-size="14.00">AuthRoutingModule</text>
</g>
<!-- AuthRoutingModule&#45;&gt;AuthModule -->
<g id="edge9" class="edge">
<title>AuthRoutingModule&#45;&gt;AuthModule</title>
<path fill="none" stroke="black" d="M207,-122.28C207,-143.32 207,-175 207,-175 207,-175 968.18,-175 968.18,-175"/>
<polygon fill="black" stroke="black" points="968.18,-178.5 978.18,-175 968.18,-171.5 968.18,-178.5"/>
</g>
<!-- SharedModule -->
<g id="node11" class="node">
<title>SharedModule</title>
<polygon fill="#8dd3c7" stroke="black" points="122.42,-122 119.42,-126 98.42,-126 95.42,-122 23.58,-122 23.58,-86 122.42,-86 122.42,-122"/>
<text text-anchor="middle" x="73" y="-99.8" font-family="Times,serif" font-size="14.00">SharedModule</text>
</g>
<!-- SharedModule&#45;&gt;AuthModule -->
<g id="edge10" class="edge">
<title>SharedModule&#45;&gt;AuthModule</title>
<path fill="none" stroke="black" d="M73,-122.25C73,-145.02 73,-181 73,-181 73,-181 968.44,-181 968.44,-181"/>
<polygon fill="black" stroke="black" points="968.44,-184.5 978.44,-181 968.44,-177.5 968.44,-184.5"/>
</g>
<!-- AuthService -->
<g id="node13" class="node">
<title>AuthService</title>
<ellipse fill="#fdb462" stroke="black" cx="1883" cy="-104" rx="59.11" ry="18"/>
<text text-anchor="middle" x="1883" y="-99.8" font-family="Times,serif" font-size="14.00">AuthService</text>
</g>
<!-- AuthService&#45;&gt;AuthModule -->
<g id="edge12" class="edge">
<title>AuthService&#45;&gt;AuthModule</title>
<path fill="none" stroke="black" d="M1883,-122.25C1883,-145.02 1883,-181 1883,-181 1883,-181 1075.58,-181 1075.58,-181"/>
<polygon fill="black" stroke="black" points="1075.58,-177.5 1065.58,-181 1075.58,-184.5 1075.58,-177.5"/>
</g>
</g>
</svg>
