<?xml version="1.0" encoding="UTF-8" standalone="no"?>
<!DOCTYPE svg PUBLIC "-//W3C//DTD SVG 1.1//EN"
 "http://www.w3.org/Graphics/SVG/1.1/DTD/svg11.dtd">
<!-- Generated by graphviz version 2.44.1 (20200629.0846)
 -->
<!-- Title: dependencies Pages: 1 -->
<svg width="1213pt" height="284pt"
 viewBox="0.00 0.00 1213.00 284.00" xmlns="http://www.w3.org/2000/svg" xmlns:xlink="http://www.w3.org/1999/xlink">
<g id="graph0" class="graph" transform="scale(1 1) rotate(0) translate(4 280)">
<title>dependencies</title>
<polygon fill="white" stroke="transparent" points="-4,4 -4,-280 1209,-280 1209,4 -4,4"/>
<text text-anchor="start" x="581.51" y="-42.4" font-family="sans-serif" font-weight="bold" font-size="14.00">Legend</text>
<polygon fill="#ffffb3" stroke="transparent" points="368.5,-10 368.5,-30 388.5,-30 388.5,-10 368.5,-10"/>
<text text-anchor="start" x="392.13" y="-15.4" font-family="sans-serif" font-size="14.00"> &#160;Declarations</text>
<polygon fill="#8dd3c7" stroke="transparent" points="481.5,-10 481.5,-30 501.5,-30 501.5,-10 481.5,-10"/>
<text text-anchor="start" x="505.23" y="-15.4" font-family="sans-serif" font-size="14.00"> &#160;Module</text>
<polygon fill="#80b1d3" stroke="transparent" points="567.5,-10 567.5,-30 587.5,-30 587.5,-10 567.5,-10"/>
<text text-anchor="start" x="591.28" y="-15.4" font-family="sans-serif" font-size="14.00"> &#160;Bootstrap</text>
<polygon fill="#fdb462" stroke="transparent" points="664.5,-10 664.5,-30 684.5,-30 684.5,-10 664.5,-10"/>
<text text-anchor="start" x="688.17" y="-15.4" font-family="sans-serif" font-size="14.00"> &#160;Providers</text>
<polygon fill="#fb8072" stroke="transparent" points="760.5,-10 760.5,-30 780.5,-30 780.5,-10 760.5,-10"/>
<text text-anchor="start" x="784.23" y="-15.4" font-family="sans-serif" font-size="14.00"> &#160;Exports</text>
<g id="clust1" class="cluster">
<title>cluster_NotificationModule</title>
<polygon fill="none" stroke="black" stroke-dasharray="1,5" points="8,-70 8,-268 1197,-268 1197,-70 8,-70"/>
</g>
<g id="clust8" class="cluster">
<title>cluster_NotificationModule_exports</title>
<polygon fill="none" stroke="black" points="122,-208 122,-260 988,-260 988,-208 122,-208"/>
</g>
<g id="clust10" class="cluster">
<title>cluster_NotificationModule_providers</title>
<polygon fill="none" stroke="black" points="999,-78 999,-130 1189,-130 1189,-78 999,-78"/>
</g>
<g id="clust2" class="cluster">
<title>cluster_NotificationModule_declarations</title>
<polygon fill="none" stroke="black" points="138,-78 138,-130 991,-130 991,-78 138,-78"/>
</g>
<g id="clust7" class="cluster">
<title>cluster_NotificationModule_imports</title>
<polygon fill="none" stroke="black" points="16,-78 16,-130 130,-130 130,-78 16,-78"/>
</g>
<!-- AchievementPopUpComponent -->
<g id="node1" class="node">
<title>AchievementPopUpComponent</title>
<polygon fill="#ffffb3" stroke="black" points="983.36,-122 788.64,-122 788.64,-86 983.36,-86 983.36,-122"/>
<text text-anchor="middle" x="886" y="-99.8" font-family="Times,serif" font-size="14.00">AchievementPopUpComponent</text>
</g>
<!-- NotificationModule -->
<g id="node5" class="node">
<title>NotificationModule</title>
<polygon fill="#8dd3c7" stroke="black" points="566.7,-187 563.7,-191 542.7,-191 539.7,-187 439.3,-187 439.3,-151 566.7,-151 566.7,-187"/>
<text text-anchor="middle" x="503" y="-164.8" font-family="Times,serif" font-size="14.00">NotificationModule</text>
</g>
<!-- AchievementPopUpComponent&#45;&gt;NotificationModule -->
<g id="edge1" class="edge">
<title>AchievementPopUpComponent&#45;&gt;NotificationModule</title>
<path fill="none" stroke="black" d="M852.44,-122.03C852.44,-138.4 852.44,-160 852.44,-160 852.44,-160 576.69,-160 576.69,-160"/>
<polygon fill="black" stroke="black" points="576.69,-156.5 566.69,-160 576.69,-163.5 576.69,-156.5"/>
</g>
<!-- ActivityCompletePopUpComponent -->
<g id="node2" class="node">
<title>ActivityCompletePopUpComponent</title>
<polygon fill="#ffffb3" stroke="black" points="770.04,-122 549.96,-122 549.96,-86 770.04,-86 770.04,-122"/>
<text text-anchor="middle" x="660" y="-99.8" font-family="Times,serif" font-size="14.00">ActivityCompletePopUpComponent</text>
</g>
<!-- ActivityCompletePopUpComponent&#45;&gt;NotificationModule -->
<g id="edge2" class="edge">
<title>ActivityCompletePopUpComponent&#45;&gt;NotificationModule</title>
<path fill="none" stroke="black" d="M558.16,-122.11C558.16,-122.11 558.16,-140.99 558.16,-140.99"/>
<polygon fill="black" stroke="black" points="554.66,-140.99 558.16,-150.99 561.66,-140.99 554.66,-140.99"/>
</g>
<!-- LockTeamAssessmentPopUpComponent -->
<g id="node3" class="node">
<title>LockTeamAssessmentPopUpComponent</title>
<polygon fill="#ffffb3" stroke="black" points="531.46,-122 284.54,-122 284.54,-86 531.46,-86 531.46,-122"/>
<text text-anchor="middle" x="408" y="-99.8" font-family="Times,serif" font-size="14.00">LockTeamAssessmentPopUpComponent</text>
</g>
<!-- LockTeamAssessmentPopUpComponent&#45;&gt;NotificationModule -->
<g id="edge3" class="edge">
<title>LockTeamAssessmentPopUpComponent&#45;&gt;NotificationModule</title>
<path fill="none" stroke="black" d="M485.44,-122.11C485.44,-122.11 485.44,-140.99 485.44,-140.99"/>
<polygon fill="black" stroke="black" points="481.94,-140.99 485.44,-150.99 488.94,-140.99 481.94,-140.99"/>
</g>
<!-- PopUpComponent -->
<g id="node4" class="node">
<title>PopUpComponent</title>
<polygon fill="#ffffb3" stroke="black" points="266.22,-122 145.78,-122 145.78,-86 266.22,-86 266.22,-122"/>
<text text-anchor="middle" x="206" y="-99.8" font-family="Times,serif" font-size="14.00">PopUpComponent</text>
</g>
<!-- PopUpComponent&#45;&gt;NotificationModule -->
<g id="edge4" class="edge">
<title>PopUpComponent&#45;&gt;NotificationModule</title>
<path fill="none" stroke="black" d="M259.99,-122.03C259.99,-138.4 259.99,-160 259.99,-160 259.99,-160 429.15,-160 429.15,-160"/>
<polygon fill="black" stroke="black" points="429.15,-163.5 439.15,-160 429.15,-156.5 429.15,-163.5"/>
</g>
<!-- AchievementPopUpComponent  -->
<g id="node7" class="node">
<title>AchievementPopUpComponent </title>
<polygon fill="#fb8072" stroke="black" points="980.36,-252 781.64,-252 781.64,-216 980.36,-216 980.36,-252"/>
<text text-anchor="middle" x="881" y="-229.8" font-family="Times,serif" font-size="14.00">AchievementPopUpComponent </text>
</g>
<!-- NotificationModule&#45;&gt;AchievementPopUpComponent  -->
<g id="edge6" class="edge">
<title>NotificationModule&#45;&gt;AchievementPopUpComponent </title>
<path fill="none" stroke="black" stroke-dasharray="5,2" d="M566.67,-178C682.61,-178 916.31,-178 916.31,-178 916.31,-178 916.31,-205.97 916.31,-205.97"/>
<polygon fill="black" stroke="black" points="912.81,-205.97 916.31,-215.97 919.81,-205.97 912.81,-205.97"/>
</g>
<!-- ActivityCompletePopUpComponent  -->
<g id="node8" class="node">
<title>ActivityCompletePopUpComponent </title>
<polygon fill="#fb8072" stroke="black" points="764.04,-252 539.96,-252 539.96,-216 764.04,-216 764.04,-252"/>
<text text-anchor="middle" x="652" y="-229.8" font-family="Times,serif" font-size="14.00">ActivityCompletePopUpComponent </text>
</g>
<!-- NotificationModule&#45;&gt;ActivityCompletePopUpComponent  -->
<g id="edge7" class="edge">
<title>NotificationModule&#45;&gt;ActivityCompletePopUpComponent </title>
<path fill="none" stroke="black" stroke-dasharray="5,2" d="M553.29,-187.11C553.29,-187.11 553.29,-205.99 553.29,-205.99"/>
<polygon fill="black" stroke="black" points="549.79,-205.99 553.29,-215.99 556.79,-205.99 549.79,-205.99"/>
</g>
<!-- LockTeamAssessmentPopUpComponent  -->
<g id="node9" class="node">
<title>LockTeamAssessmentPopUpComponent </title>
<polygon fill="#fb8072" stroke="black" points="522.46,-252 271.54,-252 271.54,-216 522.46,-216 522.46,-252"/>
<text text-anchor="middle" x="397" y="-229.8" font-family="Times,serif" font-size="14.00">LockTeamAssessmentPopUpComponent </text>
</g>
<!-- NotificationModule&#45;&gt;LockTeamAssessmentPopUpComponent  -->
<g id="edge8" class="edge">
<title>NotificationModule&#45;&gt;LockTeamAssessmentPopUpComponent </title>
<path fill="none" stroke="black" stroke-dasharray="5,2" d="M480.81,-187.11C480.81,-187.11 480.81,-205.99 480.81,-205.99"/>
<polygon fill="black" stroke="black" points="477.31,-205.99 480.81,-215.99 484.31,-205.99 477.31,-205.99"/>
</g>
<!-- PopUpComponent  -->
<g id="node10" class="node">
<title>PopUpComponent </title>
<polygon fill="#fb8072" stroke="black" points="253.72,-252 130.28,-252 130.28,-216 253.72,-216 253.72,-252"/>
<text text-anchor="middle" x="192" y="-229.8" font-family="Times,serif" font-size="14.00">PopUpComponent </text>
</g>
<!-- NotificationModule&#45;&gt;PopUpComponent  -->
<g id="edge9" class="edge">
<title>NotificationModule&#45;&gt;PopUpComponent </title>
<path fill="none" stroke="black" stroke-dasharray="5,2" d="M439.09,-178C350.15,-178 199.88,-178 199.88,-178 199.88,-178 199.88,-205.97 199.88,-205.97"/>
<polygon fill="black" stroke="black" points="196.38,-205.97 199.88,-215.97 203.38,-205.97 196.38,-205.97"/>
</g>
<!-- SharedModule -->
<g id="node6" class="node">
<title>SharedModule</title>
<polygon fill="#8dd3c7" stroke="black" points="122.42,-122 119.42,-126 98.42,-126 95.42,-122 23.58,-122 23.58,-86 122.42,-86 122.42,-122"/>
<text text-anchor="middle" x="73" y="-99.8" font-family="Times,serif" font-size="14.00">SharedModule</text>
</g>
<!-- SharedModule&#45;&gt;NotificationModule -->
<g id="edge5" class="edge">
<title>SharedModule&#45;&gt;NotificationModule</title>
<path fill="none" stroke="black" d="M73,-122.11C73,-141.34 73,-169 73,-169 73,-169 429.09,-169 429.09,-169"/>
<polygon fill="black" stroke="black" points="429.09,-172.5 439.09,-169 429.09,-165.5 429.09,-172.5"/>
</g>
<!-- NotificationService -->
<g id="node11" class="node">
<title>NotificationService</title>
<ellipse fill="#fdb462" stroke="black" cx="1094" cy="-104" rx="86.81" ry="18"/>
<text text-anchor="middle" x="1094" y="-99.8" font-family="Times,serif" font-size="14.00">NotificationService</text>
</g>
<!-- NotificationService&#45;&gt;NotificationModule -->
<g id="edge10" class="edge">
<title>NotificationService&#45;&gt;NotificationModule</title>
<path fill="none" stroke="black" d="M1094,-122.11C1094,-141.34 1094,-169 1094,-169 1094,-169 576.81,-169 576.81,-169"/>
<polygon fill="black" stroke="black" points="576.81,-165.5 566.81,-169 576.81,-172.5 576.81,-165.5"/>
</g>
</g>
</svg>
