<?xml version="1.0" encoding="UTF-8" standalone="no"?>
<!DOCTYPE svg PUBLIC "-//W3C//DTD SVG 1.1//EN"
 "http://www.w3.org/Graphics/SVG/1.1/DTD/svg11.dtd">
<!-- Generated by graphviz version 2.44.1 (20200629.0846)
 -->
<!-- Title: dependencies Pages: 1 -->
<svg width="957pt" height="211pt"
 viewBox="0.00 0.00 957.00 211.00" xmlns="http://www.w3.org/2000/svg" xmlns:xlink="http://www.w3.org/1999/xlink">
<g id="graph0" class="graph" transform="scale(1 1) rotate(0) translate(4 207)">
<title>dependencies</title>
<polygon fill="white" stroke="transparent" points="-4,4 -4,-207 953,-207 953,4 -4,4"/>
<text text-anchor="start" x="453.51" y="-42.4" font-family="sans-serif" font-weight="bold" font-size="14.00">Legend</text>
<polygon fill="#ffffb3" stroke="transparent" points="240.5,-10 240.5,-30 260.5,-30 260.5,-10 240.5,-10"/>
<text text-anchor="start" x="264.13" y="-15.4" font-family="sans-serif" font-size="14.00"> &#160;Declarations</text>
<polygon fill="#8dd3c7" stroke="transparent" points="353.5,-10 353.5,-30 373.5,-30 373.5,-10 353.5,-10"/>
<text text-anchor="start" x="377.23" y="-15.4" font-family="sans-serif" font-size="14.00"> &#160;Module</text>
<polygon fill="#80b1d3" stroke="transparent" points="439.5,-10 439.5,-30 459.5,-30 459.5,-10 439.5,-10"/>
<text text-anchor="start" x="463.28" y="-15.4" font-family="sans-serif" font-size="14.00"> &#160;Bootstrap</text>
<polygon fill="#fdb462" stroke="transparent" points="536.5,-10 536.5,-30 556.5,-30 556.5,-10 536.5,-10"/>
<text text-anchor="start" x="560.17" y="-15.4" font-family="sans-serif" font-size="14.00"> &#160;Providers</text>
<polygon fill="#fb8072" stroke="transparent" points="632.5,-10 632.5,-30 652.5,-30 652.5,-10 632.5,-10"/>
<text text-anchor="start" x="656.23" y="-15.4" font-family="sans-serif" font-size="14.00"> &#160;Exports</text>
<g id="clust1" class="cluster">
<title>cluster_ReviewsModule</title>
<polygon fill="none" stroke="black" stroke-dasharray="1,5" points="8,-70 8,-195 941,-195 941,-70 8,-70"/>
</g>
<g id="clust2" class="cluster">
<title>cluster_ReviewsModule_declarations</title>
<polygon fill="none" stroke="black" points="595,-78 595,-130 933,-130 933,-78 595,-78"/>
</g>
<g id="clust5" class="cluster">
<title>cluster_ReviewsModule_imports</title>
<polygon fill="none" stroke="black" points="16,-78 16,-130 587,-130 587,-78 16,-78"/>
</g>
<!-- ReviewsComponent -->
<g id="node1" class="node">
<title>ReviewsComponent</title>
<polygon fill="#ffffb3" stroke="black" points="924.54,-122 795.46,-122 795.46,-86 924.54,-86 924.54,-122"/>
<text text-anchor="middle" x="860" y="-99.8" font-family="Times,serif" font-size="14.00">ReviewsComponent</text>
</g>
<!-- ReviewsModule -->
<g id="node3" class="node">
<title>ReviewsModule</title>
<polygon fill="#8dd3c7" stroke="black" points="497.76,-187 494.76,-191 473.76,-191 470.76,-187 390.24,-187 390.24,-151 497.76,-151 497.76,-187"/>
<text text-anchor="middle" x="444" y="-164.8" font-family="Times,serif" font-size="14.00">ReviewsModule</text>
</g>
<!-- ReviewsComponent&#45;&gt;ReviewsModule -->
<g id="edge1" class="edge">
<title>ReviewsComponent&#45;&gt;ReviewsModule</title>
<path fill="none" stroke="black" d="M860,-122.28C860,-143.32 860,-175 860,-175 860,-175 507.96,-175 507.96,-175"/>
<polygon fill="black" stroke="black" points="507.96,-171.5 497.96,-175 507.96,-178.5 507.96,-171.5"/>
</g>
<!-- ReviewsRoutingComponent -->
<g id="node2" class="node">
<title>ReviewsRoutingComponent</title>
<polygon fill="#ffffb3" stroke="black" points="777.16,-122 602.84,-122 602.84,-86 777.16,-86 777.16,-122"/>
<text text-anchor="middle" x="690" y="-99.8" font-family="Times,serif" font-size="14.00">ReviewsRoutingComponent</text>
</g>
<!-- ReviewsRoutingComponent&#45;&gt;ReviewsModule -->
<g id="edge2" class="edge">
<title>ReviewsRoutingComponent&#45;&gt;ReviewsModule</title>
<path fill="none" stroke="black" d="M690,-122.02C690,-139.37 690,-163 690,-163 690,-163 507.99,-163 507.99,-163"/>
<polygon fill="black" stroke="black" points="507.99,-159.5 497.99,-163 507.99,-166.5 507.99,-159.5"/>
</g>
<!-- AssessmentModule -->
<g id="node4" class="node">
<title>AssessmentModule</title>
<polygon fill="#8dd3c7" stroke="black" points="578.65,-122 575.65,-126 554.65,-126 551.65,-122 453.35,-122 453.35,-86 578.65,-86 578.65,-122"/>
<text text-anchor="middle" x="516" y="-99.8" font-family="Times,serif" font-size="14.00">AssessmentModule</text>
</g>
<!-- AssessmentModule&#45;&gt;ReviewsModule -->
<g id="edge3" class="edge">
<title>AssessmentModule&#45;&gt;ReviewsModule</title>
<path fill="none" stroke="black" d="M475.53,-122.11C475.53,-122.11 475.53,-140.99 475.53,-140.99"/>
<polygon fill="black" stroke="black" points="472.03,-140.99 475.53,-150.99 479.03,-140.99 472.03,-140.99"/>
</g>
<!-- ReviewListModule -->
<g id="node5" class="node">
<title>ReviewListModule</title>
<polygon fill="#8dd3c7" stroke="black" points="435.09,-122 432.09,-126 411.09,-126 408.09,-122 310.91,-122 310.91,-86 435.09,-86 435.09,-122"/>
<text text-anchor="middle" x="373" y="-99.8" font-family="Times,serif" font-size="14.00">ReviewListModule</text>
</g>
<!-- ReviewListModule&#45;&gt;ReviewsModule -->
<g id="edge4" class="edge">
<title>ReviewListModule&#45;&gt;ReviewsModule</title>
<path fill="none" stroke="black" d="M412.58,-122.11C412.58,-122.11 412.58,-140.99 412.58,-140.99"/>
<polygon fill="black" stroke="black" points="409.08,-140.99 412.58,-150.99 416.08,-140.99 409.08,-140.99"/>
</g>
<!-- ReviewsRoutingModule -->
<g id="node6" class="node">
<title>ReviewsRoutingModule</title>
<polygon fill="#8dd3c7" stroke="black" points="293.38,-122 290.38,-126 269.38,-126 266.38,-122 140.62,-122 140.62,-86 293.38,-86 293.38,-122"/>
<text text-anchor="middle" x="217" y="-99.8" font-family="Times,serif" font-size="14.00">ReviewsRoutingModule</text>
</g>
<!-- ReviewsRoutingModule&#45;&gt;ReviewsModule -->
<g id="edge5" class="edge">
<title>ReviewsRoutingModule&#45;&gt;ReviewsModule</title>
<path fill="none" stroke="black" d="M217,-122.02C217,-139.37 217,-163 217,-163 217,-163 380.2,-163 380.2,-163"/>
<polygon fill="black" stroke="black" points="380.2,-166.5 390.2,-163 380.2,-159.5 380.2,-166.5"/>
</g>
<!-- SharedModule -->
<g id="node7" class="node">
<title>SharedModule</title>
<polygon fill="#8dd3c7" stroke="black" points="122.42,-122 119.42,-126 98.42,-126 95.42,-122 23.58,-122 23.58,-86 122.42,-86 122.42,-122"/>
<text text-anchor="middle" x="73" y="-99.8" font-family="Times,serif" font-size="14.00">SharedModule</text>
</g>
<!-- SharedModule&#45;&gt;ReviewsModule -->
<g id="edge6" class="edge">
<title>SharedModule&#45;&gt;ReviewsModule</title>
<path fill="none" stroke="black" d="M73,-122.28C73,-143.32 73,-175 73,-175 73,-175 380.05,-175 380.05,-175"/>
<polygon fill="black" stroke="black" points="380.05,-178.5 390.05,-175 380.05,-171.5 380.05,-178.5"/>
</g>
</g>
</svg>
