<?xml version="1.0" encoding="UTF-8"?>
<svg width="56px" height="56px" viewBox="0 0 56 56" version="1.1" xmlns="http://www.w3.org/2000/svg" xmlns:xlink="http://www.w3.org/1999/xlink">
    <!-- Generator: Sketch 52.5 (67469) - http://www.bohemiancoding.com/sketch -->
    <title>throphy</title>
    <desc>Created with Sketch.</desc>
    <defs>
        <path d="M28,56 C12.536027,56 0,43.463973 0,28 C0,12.536027 12.536027,0 28,0 C43.463973,0 56,12.536027 56,28 C56,43.463973 43.463973,56 28,56 Z M28,52 C41.254834,52 52,41.254834 52,28 C52,14.745166 41.254834,4 28,4 C14.745166,4 4,14.745166 4,28 C4,41.254834 14.745166,52 28,52 Z M33.2869141,22.3416016 L31.1986328,24.3771484 L31.6943359,27.2564453 C31.7839844,27.7732422 31.2355469,28.1634766 30.7767578,27.9208984 L28.1927734,26.5603516 L25.6087891,27.9208984 C25.1447266,28.1634766 24.6015625,27.7679688 24.6912109,27.2564453 L25.1869141,24.3771484 L23.0986328,22.3416016 C22.7242188,21.9777344 22.9298828,21.3396484 23.4519531,21.2605469 L26.3417969,20.8386719 L27.6337891,18.2230469 C27.8658203,17.7537109 28.5355469,17.7537109 28.7675781,18.2230469 L30.0595703,20.8386719 L32.9494141,21.2605469 C33.4556641,21.3396484 33.6613281,21.9777344 33.2869141,22.3416016 Z M40,22.09375 C40,23.1589844 38.4496094,24.9308594 35.9394531,25.7957031 C36.3085938,24.4773437 36.5617187,22.9691406 36.6144531,21.25 L40,21.25 L40,22.09375 Z M16.375,22.09375 L16.375,21.25 L19.7605469,21.25 C19.8132812,22.9691406 20.0664062,24.4773437 20.4355469,25.7957031 C17.9306641,24.9308594 16.375,23.1642578 16.375,22.09375 Z M42.109375,17.875 L36.625,17.875 L36.625,15.765625 C36.625,15.0642578 36.0607422,14.5 35.359375,14.5 L21.015625,14.5 C20.3142578,14.5 19.75,15.0642578 19.75,15.765625 L19.75,17.875 L14.265625,17.875 C13.5642578,17.875 13,18.4392578 13,19.140625 L13,22.09375 C13,25.6005859 17.1080078,29.0388672 22.0650391,29.603125 C23.7208984,32.3505859 25.65625,33.484375 25.65625,33.484375 L25.65625,37.28125 L23.125,37.28125 C21.2634766,37.28125 19.75,38.3728516 19.75,40.234375 L19.75,40.8671875 C19.75,41.2152344 20.0347656,41.5 20.3828125,41.5 L35.9921875,41.5 C36.3402344,41.5 36.625,41.2152344 36.625,40.8671875 L36.625,40.234375 C36.625,38.3728516 35.1115234,37.28125 33.25,37.28125 L30.71875,37.28125 L30.71875,33.484375 C30.71875,33.484375 32.6541016,32.3505859 34.3099609,29.603125 C39.2828125,29.0335938 43.375,25.5900391 43.375,22.09375 L43.375,19.140625 C43.375,18.4392578 42.8107422,17.875 42.109375,17.875 Z" id="path-1"></path>
    </defs>
    <g id="Gamification-Widget-01-Feedback-changes" stroke="none" stroke-width="1" fill="none" fill-rule="evenodd">
        <g id="componets/trophy/active" transform="translate(-26.000000, 0.000000)">
            <g id="componets/trophy/disable-icon" transform="translate(26.000000, 0.000000)">
                <mask id="mask-2" fill="white">
                    <use xlink:href="#path-1"></use>
                </mask>
                <use id="Fill-1" fill="#AFB5D2" fill-rule="evenodd" xlink:href="#path-1"></use>
            </g>
        </g>
    </g>
</svg>