<?xml version="1.0" encoding="UTF-8"?>
<svg width="256px" height="256px" viewBox="0 0 256 256" version="1.1" xmlns="http://www.w3.org/2000/svg" xmlns:xlink="http://www.w3.org/1999/xlink">
    <!-- Generator: Sketch 59.1 (86144) - https://sketch.com -->
    <title>experience</title>
    <desc>Created with Sketch.</desc>
    <g id="experience" stroke="none" stroke-width="1" fill="none" fill-rule="evenodd">
        <rect fill="#D8DBEB" x="0" y="0" width="256" height="256"></rect>
        <path d="M145.236419,123.999301 L162,123.999301 L161.986471,123.999301 C184.077861,123.999301 201.986471,141.90861 201.986471,164 C201.986471,186.09139 184.077861,204 161.986471,204 C142.985385,204 127.078695,190.75132 123.000229,172.987789 C126.048792,170.079153 128.46525,166.51264 130.021006,162.515975 C129.997831,163.007336 129.986471,163.502341 129.986471,164 C129.986471,181.673112 144.313359,196 161.986471,196 C179.659583,196 193.986471,181.673112 193.986471,164 C193.986471,146.326888 179.659583,132 161.986471,132 L134.416212,132.001741 C138.843785,130.582601 142.631529,127.734112 145.236419,123.999301 Z M156.397816,133.421357 C150.855131,135.935439 147,141.517513 147,148 C147,156.836556 154.163444,164 163,164 C171.836556,164 179,156.836556 179,148 C179,142.3493 176.070724,137.382768 171.647846,134.536082 C177.793716,136.549147 183.092673,140.432263 186.872824,145.51247 C186.956855,146.330259 187,147.160091 187,148 C187,161.254834 176.254834,172 163,172 C149.745166,172 139,161.254834 139,148 C139,146.117783 139.216673,144.286173 139.626436,142.528751 C143.439496,138.558798 148.292006,135.611511 153.723701,134.113086 L154.268784,133.968089 L156.397816,133.421357 Z M154.0206,132.999376 C143.823058,135.611984 135.58811,143.123654 131.97221,152.877931 C131.9821,152.586689 131.986471,152.293855 131.986471,152 C131.986471,147.91392 131.141403,144.025216 129.616507,140.499128 C131.647414,137.703899 134.033148,135.182317 136.706473,132.999668 L154.0206,132.999376 Z M256,124 L256,132 L197.391631,132.001841 C201.133802,130.55992 204.15224,127.660991 205.751768,124.000232 L256,124 Z M103,124 C118.463973,124 131,136.536027 131,152 C131,167.463973 118.463973,180 103,180 C87.536027,180 75,167.463973 75,152 C75,144.66664 77.8191859,137.991737 82.4328918,132.999956 L96.7375809,133.000033 C88.7591938,135.628223 83,143.141546 83,152 C83,163.045695 91.954305,172 103,172 C114.045695,172 123,163.045695 123,152 C123,140.954305 114.045695,132 103,132 L103,131.998493 L0,132 L0,124 L103,124 Z M128,92 C139.045695,92 148,100.954305 148,112 C148,123.045695 139.045695,132 128,132 L123.999704,132 C120.393392,128.21426 115.774099,125.402709 110.576595,123.999733 L128,124 C134.627417,124 140,118.627417 140,112 C140,105.372583 134.627417,100 128,100 C121.372583,100 116,105.372583 116,112 C116,116.920355 118.961334,121.149053 123.198939,123.001032 L111.294606,123.000849 C109.21214,119.844886 108,116.063998 108,112 C108,100.954305 116.954305,92 128,92 Z M171.033767,123.998493 L192,124 L192,132 L187.633864,131.999582 C182.859803,128.170388 177.210514,125.387435 171.033767,123.998493 Z M192,104 C199.731986,104 206,110.268014 206,118 C206,125.731986 199.731986,132 192,132 L192,124 C195.313708,124 198,121.313708 198,118 C198,114.686292 195.313708,112 192,112 C188.686292,112 186,114.686292 186,118 C186,120.087515 187.066065,121.926037 188.68347,123.000841 L178.919599,123.000893 C178.325482,121.447846 178,119.761933 178,118 C178,110.268014 184.268014,104 192,104 Z M129.534846,101.106227 C132.481597,101.517624 135.054394,103.096445 136.770843,105.360297 C134.910669,112.288181 131.035246,118.390481 125.811711,123.000625 L125.693623,123 L123.5994,122.084718 C121.699451,121.254375 120.108229,119.922581 118.964588,118.276453 C124.217459,114.270593 128.010271,108.450297 129.408817,101.750976 L129.504629,101.270971 L129.534846,101.106227 Z M102,60 C121.035981,60 136.621105,74.7748745 137.913351,93.4826026 C135.393798,92.1308991 132.567018,91.2785572 129.564755,91.057416 C127.231605,77.9514581 115.777946,68 102,68 C86.536027,68 74,80.536027 74,96 C74,108.886883 82.7058971,119.740395 94.55715,123 L78.187,122.999 C70.7141392,116.404207 66,106.752626 66,96 C66,76.117749 82.117749,60 102,60 Z" id="Shape" fill="#FFFFFF" fill-rule="nonzero"></path>
    </g>
</svg>