<?xml version="1.0" encoding="UTF-8"?>
<svg width="120px" height="120px" viewBox="0 0 120 120" version="1.1" xmlns="http://www.w3.org/2000/svg" xmlns:xlink="http://www.w3.org/1999/xlink">
    <!-- Generator: Sketch 60.1 (88133) - https://sketch.com -->
    <title>Group 15</title>
    <desc>Created with Sketch.</desc>
    <defs>
        <polygon id="path-1" points="2.53581033e-05 0.119437397 90.5657407 0.119437397 90.5657407 88.045539 2.53581033e-05 88.045539"></polygon>
    </defs>
    <g id="Chat-2" stroke="none" stroke-width="1" fill="none" fill-rule="evenodd">
        <g id="iPhone-8" transform="translate(-128.000000, -274.000000)">
            <g id="Group-15" transform="translate(128.000000, 277.000000)">
                <g id="Group-3">
                    <mask id="mask-2" fill="white">
                        <use xlink:href="#path-1"></use>
                    </mask>
                    <g id="Clip-2"></g>
                    <path d="M7.4958496,82.6617137 C8.03758882,82.7293254 8.47755665,82.8535284 8.90725807,82.8249349 C10.2399574,82.736176 11.5903625,82.7002852 12.8956847,82.4466669 C19.914042,81.082519 26.4867775,78.4906382 32.6979568,74.9834677 C33.9482272,74.2775659 35.0999996,73.6365951 36.5343215,74.350241 C36.5555983,74.3608147 36.5829754,74.358283 36.6073767,74.3627507 C42.2043567,75.3891379 47.8095201,75.3453541 53.3948945,74.3436884 C62.1628567,72.7711953 69.8812643,69.0905279 76.1866267,62.6823094 C85.1606611,53.5618792 87.7790425,40.3289007 82.8931232,28.5993144 C79.4681588,20.3771964 73.5947297,14.3750949 65.7806511,10.2810132 C56.4199152,5.37633591 46.4867896,4.17034584 36.1773777,6.26392554 C27.1874229,8.08959018 19.4499704,12.2774942 13.4271575,19.2805168 C6.47694541,27.3616034 3.75842928,36.6996122 5.85411642,47.2448025 C7.30078778,54.5245268 11.0152947,60.5800921 16.5222576,65.4770254 C17.8589742,66.6655913 18.1354233,67.6581726 17.7760989,69.3599322 C16.8814332,73.5960877 14.8632649,77.0871743 11.560456,79.8221715 C10.330272,80.8406657 8.93835488,81.6634732 7.4958496,82.6617137 M44.7968489,80.436187 C41.8203334,80.1145102 38.8447106,79.7855361 35.8662608,79.4836663 C35.576867,79.4543282 35.2330166,79.5250673 34.977249,79.6646095 C28.3704409,83.2684319 21.5042944,86.1874997 14.0560869,87.5374997 C11.0645437,88.0797336 8.03029818,88.2515924 5.0283398,87.7367606 C3.90022479,87.5431589 2.73253202,87.0220723 1.80111551,86.3483381 C-0.619377099,84.5977314 -0.470439731,81.391984 2.01566864,79.7209029 C2.5452072,79.3651224 3.14303971,79.0969095 3.73536705,78.8513331 C7.71590791,77.2011015 10.5382785,74.4031092 12.1582885,70.4003183 C12.2047106,70.2854975 12.2429492,70.1672515 12.2869907,70.0513883 C12.5926024,69.2497281 12.5064538,68.6509029 11.8123551,67.9654038 C6.20451352,62.4279465 2.33124922,55.8711015 0.785484669,48.0967992 C-1.44693918,36.8686415 1.10790952,26.6839972 8.08549874,17.6926845 C15.143285,8.59786928 24.5906159,3.28499007 35.7981156,1.09669443 C46.1194306,-0.918699945 56.1608742,0.159066189 65.7392878,4.55337948 C75.6904168,9.11880695 83.3911185,16.1557843 87.5152404,26.4299322 C93.1285871,40.4139366 90.9870731,53.3949349 81.1557189,64.8436498 C74.3026657,72.8242124 65.3048252,77.2229934 55.0952504,79.2721936 C51.7064417,79.9523315 48.2764186,80.2540524 44.8187208,80.2244164 C44.8114302,80.2950066 44.8041395,80.3655968 44.7968489,80.436187" id="Fill-1" fill="#A4A8B7" mask="url(#mask-2)"></path>
                </g>
                <path d="M95.9929178,46.5306122 C98.9728364,47.6119903 101.781115,48.9858648 104.43326,50.6754427 C109.648569,53.9977868 114.023593,58.1724546 116.825548,63.7396829 C121.948563,73.9185907 120.745574,83.6216078 114.121609,92.7030134 C112.656794,94.7113085 110.747972,96.4007356 108.993776,98.1881137 C108.590873,98.598754 108.520862,98.8366994 108.867907,99.2908902 C109.876068,100.610816 111.137927,101.634027 112.544926,102.476706 C113.964423,103.32707 115.437971,104.087471 116.854908,104.942206 C117.579863,105.379519 118.310087,105.85978 118.902698,106.455321 C120.357125,107.916899 120.300363,109.982759 118.829525,111.425501 C117.433667,112.794553 115.638067,113.339311 113.787814,113.565804 C104.976186,114.645072 96.7723761,112.956248 89.3427549,107.964519 C88.5964202,107.46301 87.8764338,106.892785 87.2494945,106.251433 C86.6954272,105.684523 86.1404565,105.580092 85.3840342,105.663426 C75.8396223,106.715569 66.4974149,105.852697 57.4662681,102.471281 C51.4248264,100.209067 46.1029194,96.8488987 41.9776774,91.7809186 C40.431408,89.8809724 39.1731632,87.8056186 38.2294421,85.5421991 C38.1353409,85.3161586 38.0588556,85.082734 37.9591837,84.8119374 C39.8698126,84.9234508 41.7167538,85.0239635 43.5617378,85.1516011 C43.7225378,85.1626017 43.9298613,85.3157065 44.016886,85.4617287 C47.7285349,91.6939684 53.4449137,95.3308103 60.0398204,97.7842545 C66.0829183,100.032303 72.3702274,100.887942 78.7965049,100.856899 C81.8649539,100.842131 84.9097646,100.630105 87.9164832,99.9730806 C88.1522629,99.9215434 88.5491438,100.024919 88.6888651,100.20108 C92.7136824,105.275088 98.285823,107.387964 104.413838,108.299963 C106.705237,108.640983 109.060776,108.554484 111.387708,108.650627 C111.677841,108.662683 111.971135,108.598336 112.318481,108.398064 C112.008926,108.222958 111.699672,108.0474 111.389816,107.872897 C109.371084,106.736214 107.454433,105.463606 105.82957,103.786988 C104.026292,101.926222 102.949474,99.6961056 102.48755,97.168068 C102.444189,96.9302733 102.698186,96.5334968 102.927492,96.3665281 C105.105669,94.7798741 107.157525,93.0548832 108.905095,90.9939961 C113.158315,85.9780053 115.329416,80.2591792 114.566218,73.6214228 C113.970295,68.4386141 111.581481,64.0903472 108.055174,60.3323475 C104.543773,56.59002 100.312987,53.9025484 95.5806797,51.9857244 C94.9572034,51.7331618 94.7583113,51.5069705 94.9763247,50.7902713 C95.3900685,49.4295071 95.6470774,48.0212744 95.9929178,46.5306122" id="Fill-4" fill="#A4A8B7"></path>
                <path d="M63.6734694,83.1327778 C64.06577,82.9672956 64.457167,82.7986071 64.8503711,82.6366875 C68.1021738,81.2978668 71.2219046,79.620066 74.2088103,77.5902814 C74.5602996,77.3512318 74.9970257,77.1636615 75.3948983,77.1620583 C82.290955,77.1364077 89.1873129,77.1431766 96.0835201,77.145136 C96.2798963,77.145136 96.4761219,77.1675803 96.7346939,77.1832557 L96.7346939,83.2653061 L63.7087087,83.2653061 C63.6969622,83.22113 63.6852158,83.1769539 63.6734694,83.1327778" id="Fill-6" fill="#A4A8B7"></path>
                <path d="M96.7346939,63.6758123 L96.7346939,69.7959184 L84.4897959,69.7959184 C84.8846137,69.2791547 85.2091594,68.8815617 85.5073531,68.4587388 C86.4987125,67.0530272 87.4735825,65.6313904 88.4729553,64.233373 C88.6380021,64.0023682 88.8928922,63.7030104 89.109256,63.6997895 C91.6213263,63.6623922 94.134013,63.6758123 96.7346939,63.6758123" id="Fill-8" fill="#A4A8B7"></path>
                <polygon id="Fill-12" fill="#A4A8B7" points="23.2653061 29.3877551 67.3469388 29.3877551 67.3469388 23.2653061 23.2653061 23.2653061"></polygon>
                <polygon id="Fill-13" fill="#A4A8B7" points="23.2653061 41.6326531 67.3469388 41.6326531 67.3469388 35.5102041 23.2653061 35.5102041"></polygon>
                <polygon id="Fill-14" fill="#A4A8B7" points="23.2653061 53.877551 53.877551 53.877551 53.877551 47.755102 23.2653061 47.755102"></polygon>
            </g>
        </g>
    </g>
</svg>