<?xml version="1.0" encoding="utf-8"?>
<!-- Generator: Adobe Illustrator 16.0.0, SVG Export Plug-In . SVG Version: 6.00 Build 0)  -->
<!DOCTYPE svg PUBLIC "-//W3C//DTD SVG 1.1//EN" "http://www.w3.org/Graphics/SVG/1.1/DTD/svg11.dtd">
<svg version="1.1" id="Layer_1" xmlns="http://www.w3.org/2000/svg" xmlns:xlink="http://www.w3.org/1999/xlink" x="0px" y="0px"
	 width="164.5px" height="156px" viewBox="0 0 164.5 156" enable-background="new 0 0 164.5 156" xml:space="preserve">
<circle id="XMLID_38_" fill="#e30000" cx="82.25" cy="78" r="68.958"/>
<path id="XMLID_37_" fill="#FFFFFF" d="M114.796,81.965c0.064-0.079,0.119-0.162,0.179-0.243c0.054-0.07,0.111-0.139,0.159-0.213
	c0.013-0.017,0.023-0.036,0.034-0.054c0.057-0.085,0.106-0.175,0.158-0.262c0.04-0.069,0.087-0.139,0.125-0.21
	c0.013-0.021,0.021-0.042,0.032-0.062c0.047-0.089,0.086-0.178,0.128-0.268c0.036-0.075,0.074-0.15,0.106-0.229
	c0.009-0.02,0.018-0.04,0.025-0.062c0.036-0.087,0.064-0.177,0.097-0.266c0.028-0.084,0.063-0.166,0.089-0.252
	c0.006-0.02,0.011-0.036,0.016-0.055c0.027-0.094,0.046-0.186,0.07-0.279c0.021-0.087,0.048-0.173,0.065-0.263
	c0.004-0.017,0.004-0.033,0.007-0.048c0.021-0.101,0.033-0.203,0.046-0.306c0.011-0.057,0.021-0.114,0.028-0.174
	c0.004-0.041,0.01-0.083,0.015-0.123c0.009-0.101,0.011-0.201,0.015-0.299c0.004-0.094,0.013-0.186,0.013-0.276
	c0-0.009,0.002-0.016,0.002-0.023c0-0.007-0.002-0.015-0.002-0.021c0-0.094-0.009-0.186-0.013-0.277
	c-0.004-0.1-0.006-0.2-0.015-0.298c-0.005-0.043-0.011-0.083-0.015-0.125c-0.007-0.059-0.018-0.115-0.028-0.173
	c-0.013-0.103-0.024-0.206-0.046-0.307c-0.003-0.015-0.003-0.032-0.007-0.049c-0.018-0.087-0.045-0.173-0.065-0.262
	c-0.024-0.095-0.043-0.186-0.07-0.277c-0.005-0.019-0.01-0.038-0.016-0.058c-0.025-0.085-0.061-0.166-0.089-0.251
	c-0.032-0.09-0.061-0.179-0.097-0.267c-0.008-0.021-0.017-0.04-0.023-0.062c-0.034-0.079-0.072-0.153-0.108-0.23
	c-0.042-0.087-0.081-0.176-0.128-0.266c-0.011-0.02-0.02-0.041-0.032-0.062c-0.038-0.073-0.085-0.139-0.125-0.211
	c-0.052-0.088-0.102-0.175-0.158-0.26c-0.011-0.02-0.021-0.037-0.034-0.055c-0.048-0.073-0.105-0.144-0.159-0.214
	c-0.06-0.081-0.114-0.162-0.179-0.24c-0.045-0.054-0.092-0.104-0.139-0.158c-0.036-0.042-0.075-0.082-0.115-0.125
	c-0.049-0.054-0.091-0.111-0.144-0.164c-0.007-0.004-0.014-0.011-0.014-0.011c-0.015-0.015-0.025-0.025-0.036-0.036
	c-0.007-0.007-0.011-0.014-0.017-0.018L93.989,53.479c-2.473-2.434-6.449-2.403-8.885,0.066c-2.435,2.473-2.406,6.45,0.065,8.886
	l9.425,9.286H54.576c-3.468,0-6.281,2.813-6.281,6.282c0,3.47,2.813,6.283,6.281,6.283h40.019l-9.425,9.286
	c-2.472,2.435-2.5,6.414-0.065,8.884c1.229,1.248,2.853,1.874,4.476,1.874c1.593,0,3.186-0.603,4.409-1.808l20.343-20.044
	c0.006-0.007,0.01-0.013,0.017-0.019c0.011-0.009,0.021-0.02,0.031-0.03c0.005-0.006,0.012-0.011,0.019-0.017
	c0.053-0.054,0.095-0.109,0.144-0.164c0.04-0.041,0.079-0.084,0.115-0.126C114.704,82.067,114.751,82.016,114.796,81.965z"/>
</svg>
