<?xml version="1.0" encoding="utf-8"?>
<!-- Generator: Adobe Illustrator 24.0.1, SVG Export Plug-In . SVG Version: 6.00 Build 0)  -->
<svg version="1.1" id="Layer_1" xmlns="http://www.w3.org/2000/svg" xmlns:xlink="http://www.w3.org/1999/xlink" x="0px" y="0px"
	 viewBox="0 0 256 256" style="enable-background:new 0 0 256 256;" xml:space="preserve">
<style type="text/css">
	.st0{fill-rule:evenodd;clip-rule:evenodd;fill:#E8E8E8;}
	.st1{display:none;fill:#FFFFFF;}
</style>
<title>experience</title>
<desc>Created with Sketch.</desc>
<g id="experience">
	<rect class="st0" width="256" height="256"/>
	<path id="Shape" class="st1" d="M145.2,124H162l0,0c22.1,0,40,17.9,40,40s-17.9,40-40,40c-19,0-34.9-13.2-39-31
		c3-2.9,5.5-6.5,7-10.5c0,0.5,0,1,0,1.5c0,17.7,14.3,32,32,32s32-14.3,32-32s-14.3-32-32-32h-27.6
		C138.8,130.6,142.6,127.7,145.2,124z M156.4,133.4c-5.5,2.5-9.4,8.1-9.4,14.6c0,8.8,7.2,16,16,16s16-7.2,16-16
		c0-5.7-2.9-10.6-7.4-13.5c6.1,2,11.4,5.9,15.2,11c0.1,0.8,0.1,1.6,0.1,2.5c0,13.3-10.7,24-24,24s-24-10.7-24-24
		c0-1.9,0.2-3.7,0.6-5.5c3.8-4,8.7-6.9,14.1-8.4l0.5-0.1L156.4,133.4z M154,133c-10.2,2.6-18.4,10.1-22,19.9c0-0.3,0-0.6,0-0.9
		c0-4.1-0.8-8-2.4-11.5c2-2.8,4.4-5.3,7.1-7.5H154z M256,124v8h-58.6c3.7-1.4,6.8-4.3,8.4-8H256z M103,124c15.5,0,28,12.5,28,28
		s-12.5,28-28,28s-28-12.5-28-28c0-7.3,2.8-14,7.4-19h14.3c-8,2.6-13.7,10.1-13.7,19c0,11,9,20,20,20s20-9,20-20s-9-20-20-20l0,0H0
		v-8H103z M128,92c11,0,20,9,20,20s-9,20-20,20h-4c-3.6-3.8-8.2-6.6-13.4-8H128c6.6,0,12-5.4,12-12s-5.4-12-12-12
		c-6.6,0-12,5.4-12,12c0,4.9,3,9.1,7.2,11h-11.9c-2.1-3.2-3.3-6.9-3.3-11C108,101,117,92,128,92z M171,124h21v8h-4.4
		C182.9,128.2,177.2,125.4,171,124z M192,104c7.7,0,14,6.3,14,14s-6.3,14-14,14v-8c3.3,0,6-2.7,6-6s-2.7-6-6-6s-6,2.7-6,6
		c0,2.1,1.1,3.9,2.7,5h-9.8c-0.6-1.6-0.9-3.2-0.9-5C178,110.3,184.3,104,192,104z M129.5,101.1c2.9,0.4,5.5,2,7.2,4.3
		c-1.9,6.9-5.7,13-11,17.6h-0.1l-2.1-0.9c-1.9-0.8-3.5-2.2-4.6-3.8c5.3-4,9-9.8,10.4-16.5l0.1-0.5L129.5,101.1z M102,60
		c19,0,34.6,14.8,35.9,33.5c-2.5-1.4-5.3-2.2-8.3-2.4C127.2,78,115.8,68,102,68c-15.5,0-28,12.5-28,28c0,12.9,8.7,23.7,20.6,27H78.2
		C70.7,116.4,66,106.8,66,96C66,76.1,82.1,60,102,60z"/>
</g>
</svg>
